<svg width="43" height="79" viewBox="0 0 43 79" fill="none" xmlns="http://www.w3.org/2000/svg">
<path d="M43 0L43 51.3005L21.5 79L1.57228e-06 51.3005L3.8147e-06 -1.87959e-06L21.5 27.6995L43 0Z" fill="#F3B36A"/>
<path d="M15.6426 54V51.144C16.7946 50.152 17.7706 49.288 18.5706 48.552C19.3866 47.8 20.0666 47.144 20.6106 46.584C21.1546 46.024 21.5786 45.544 21.8826 45.144C22.2026 44.744 22.4426 44.408 22.6026 44.136C22.7626 43.848 22.8586 43.608 22.8906 43.416C22.9386 43.208 22.9626 43.024 22.9626 42.864C22.9626 42.272 22.7706 41.824 22.3866 41.52C22.0026 41.2 21.4666 41.04 20.7786 41.04C19.8666 41.04 19.0186 41.184 18.2346 41.472C17.4506 41.744 16.7626 42.184 16.1706 42.792V38.568C16.3786 38.376 16.6506 38.184 16.9866 37.992C17.3226 37.8 17.7066 37.632 18.1386 37.488C18.5866 37.328 19.0666 37.2 19.5786 37.104C20.1066 37.008 20.6586 36.96 21.2346 36.96C22.2266 36.96 23.0906 37.088 23.8266 37.344C24.5626 37.584 25.1706 37.928 25.6506 38.376C26.1306 38.808 26.4906 39.328 26.7306 39.936C26.9706 40.544 27.0906 41.208 27.0906 41.928C27.0906 42.584 26.9946 43.216 26.8026 43.824C26.6266 44.432 26.3386 45.04 25.9386 45.648C25.5546 46.256 25.0426 46.896 24.4026 47.568C23.7786 48.224 23.0186 48.936 22.1226 49.704L21.5946 50.16H27.4746V54H15.6426Z" fill="white"/>
</svg>
