<svg width="43" height="79" viewBox="0 0 43 79" fill="none" xmlns="http://www.w3.org/2000/svg">
<path d="M43 0L43 51.3005L21.5 79L1.57228e-06 51.3005L3.8147e-06 -1.87959e-06L21.5 27.6995L43 0Z" fill="#F3B36A"/>
<path d="M15.7732 48.936C16.2852 49.336 16.9252 49.656 17.6932 49.896C18.4772 50.136 19.3732 50.256 20.3812 50.256C20.8452 50.256 21.2292 50.2 21.5332 50.088C21.8532 49.976 22.1092 49.832 22.3012 49.656C22.4932 49.48 22.6292 49.28 22.7092 49.056C22.7892 48.816 22.8292 48.584 22.8292 48.36C22.8292 47.032 21.7572 46.368 19.6132 46.368C18.8612 46.368 18.1892 46.432 17.5972 46.56C17.0052 46.672 16.4772 46.816 16.0132 46.992L16.5652 37.2H25.9972V41.04H19.9012L19.7812 43.152C20.0372 43.104 20.3012 43.072 20.5732 43.056C20.8452 43.024 21.0932 43.008 21.3172 43.008C22.2772 43.008 23.1092 43.152 23.8132 43.44C24.5172 43.712 25.0932 44.088 25.5412 44.568C26.0052 45.048 26.3492 45.616 26.5732 46.272C26.7972 46.912 26.9092 47.608 26.9092 48.36C26.9092 49.304 26.7412 50.144 26.4052 50.88C26.0692 51.6 25.6132 52.208 25.0372 52.704C24.4612 53.2 23.7892 53.576 23.0212 53.832C22.2532 54.072 21.4372 54.192 20.5732 54.192C19.9652 54.192 19.3972 54.144 18.8692 54.048C18.3572 53.952 17.8932 53.84 17.4772 53.712C17.0772 53.568 16.7332 53.416 16.4452 53.256C16.1572 53.08 15.9332 52.92 15.7732 52.776V48.936Z" fill="white"/>
</svg>
