<svg width="43" height="79" viewBox="0 0 43 79" fill="none" xmlns="http://www.w3.org/2000/svg">
<path d="M43 0L43 79L-3.4532e-06 79L-3.8147e-06 -1.87959e-06L21.5 27.6995L43 0Z" fill="#F3B36A"/>
<path d="M26.9946 42.744C26.7226 42.488 26.4106 42.24 26.0586 42C25.7066 41.76 25.3226 41.552 24.9066 41.376C24.4906 41.184 24.0346 41.048 23.5386 40.968C23.0586 40.872 22.5466 40.848 22.0026 40.896C20.9786 41.008 20.1466 41.408 19.5066 42.096C18.8666 42.768 18.5226 43.68 18.4746 44.832V45.024C18.8266 44.288 19.3546 43.712 20.0586 43.296C20.7786 42.88 21.6186 42.672 22.5786 42.672C23.4426 42.672 24.2106 42.816 24.8826 43.104C25.5706 43.392 26.1466 43.792 26.6106 44.304C27.0746 44.8 27.4266 45.392 27.6666 46.08C27.9226 46.752 28.0506 47.48 28.0506 48.264C28.0506 49.192 27.8746 50.024 27.5226 50.76C27.1866 51.48 26.7306 52.096 26.1546 52.608C25.5786 53.12 24.9066 53.512 24.1386 53.784C23.3866 54.056 22.5946 54.192 21.7626 54.192C20.7706 54.192 19.8506 54.024 19.0026 53.688C18.1546 53.352 17.4186 52.848 16.7946 52.176C16.1706 51.504 15.6746 50.664 15.3066 49.656C14.9546 48.632 14.7786 47.448 14.7786 46.104C14.7786 44.552 14.9626 43.216 15.3306 42.096C15.6986 40.976 16.2026 40.048 16.8426 39.312C17.4826 38.576 18.2346 38.024 19.0986 37.656C19.9786 37.288 20.9226 37.08 21.9306 37.032C22.5546 37 23.1386 37.04 23.6826 37.152C24.2426 37.248 24.7386 37.384 25.1706 37.56C25.6026 37.736 25.9706 37.928 26.2746 38.136C26.5946 38.328 26.8346 38.504 26.9946 38.664V42.744ZM21.5226 46.176C20.8186 46.176 20.2026 46.376 19.6746 46.776C19.1626 47.16 18.8666 47.728 18.7866 48.48C18.9946 49.088 19.3146 49.552 19.7466 49.872C20.1786 50.192 20.7786 50.352 21.5466 50.352C21.9786 50.352 22.3546 50.296 22.6746 50.184C22.9946 50.056 23.2586 49.896 23.4666 49.704C23.6746 49.512 23.8266 49.296 23.9226 49.056C24.0346 48.8 24.0906 48.544 24.0906 48.288C24.0906 47.744 23.8826 47.256 23.4666 46.824C23.0666 46.392 22.4186 46.176 21.5226 46.176Z" fill="white"/>
</svg>
