<svg width="16" height="61" viewBox="0 0 16 61" fill="none" xmlns="http://www.w3.org/2000/svg">
<path d="M7.2929 60.7071C7.68342 61.0976 8.31659 61.0976 8.70711 60.7071L15.0711 54.3431C15.4616 53.9526 15.4616 53.3195 15.0711 52.9289C14.6805 52.5384 14.0474 52.5384 13.6569 52.9289L8 58.5858L2.34315 52.9289C1.95262 52.5384 1.31946 52.5384 0.928935 52.9289C0.53841 53.3195 0.53841 53.9526 0.928935 54.3431L7.2929 60.7071ZM7 57.9121L7 60L9 60L9 57.9121L7 57.9121ZM7 -8.15069e-07L6.99995 56.3201L8.99995 56.3201L9 8.15069e-07L7 -8.15069e-07Z" fill="#E2581D"/>
</svg>
