<svg width="45" height="58" viewBox="0 0 45 58" fill="none" xmlns="http://www.w3.org/2000/svg">
<path d="M22.7646 8.66798C23.6662 9.04459 24.6825 9.05591 25.5925 8.69947C26.0415 8.52737 26.4513 8.26943 26.7981 7.94057C27.145 7.61172 27.4221 7.21849 27.6133 6.78366C27.8054 6.35209 27.9073 5.88694 27.9129 5.41587C27.9185 4.94481 27.8276 4.47745 27.6458 4.0416C27.4645 3.60247 27.1965 3.20302 26.8573 2.86637C26.518 2.52971 26.1142 2.26253 25.6692 2.08028C24.7678 1.70386 23.7518 1.69254 22.842 2.04878C22.3928 2.22101 21.9829 2.47909 21.6359 2.80809C21.289 3.13709 21.0118 3.53048 20.8205 3.96549C20.6281 4.39715 20.5261 4.86247 20.5206 5.33371C20.515 5.80495 20.6059 6.27247 20.788 6.70842C20.9691 7.14743 21.2371 7.54671 21.5764 7.8831C21.9157 8.21948 22.3196 8.48627 22.7646 8.66798ZM22.5188 4.67014C22.6145 4.45265 22.7531 4.25596 22.9266 4.09147C23.1001 3.92697 23.305 3.79792 23.5296 3.7118C23.9842 3.53387 24.4919 3.53953 24.9424 3.72754C25.1649 3.81866 25.3669 3.95224 25.5365 4.12057C25.7062 4.28889 25.8403 4.48862 25.931 4.70819C26.022 4.92615 26.0674 5.15988 26.0646 5.39546C26.0617 5.63104 26.0107 5.86365 25.9145 6.07944C25.819 6.29669 25.6806 6.49315 25.5073 6.65743C25.334 6.82171 25.1292 6.95055 24.9049 7.03648C24.4502 7.21493 23.9421 7.20926 23.4916 7.02073L23.4901 7.02028C23.2677 6.92954 23.0659 6.79628 22.8964 6.62824C22.7269 6.46019 22.593 6.26071 22.5026 6.04138C22.4115 5.82343 22.3661 5.58971 22.3689 5.35413C22.3717 5.11855 22.4227 4.88594 22.5188 4.67014Z" fill="#5BD595"/>
<path d="M27.2218 11.0129C27.0745 11.3352 26.9947 11.6834 26.987 12.0368C26.9794 12.3901 27.0441 12.7413 27.1773 13.0695C27.3099 13.4 27.5079 13.7014 27.7599 13.9562C28.0118 14.2109 28.3126 14.414 28.645 14.5536C29.3186 14.8424 30.081 14.8579 30.7661 14.5965C31.104 14.4706 31.4131 14.28 31.6755 14.0359C31.938 13.7917 32.1485 13.4988 32.2951 13.1741C32.4426 12.8519 32.5226 12.5038 32.5304 12.1505C32.5382 11.7972 32.4736 11.4461 32.3404 11.1179C32.2079 10.7872 32.01 10.4858 31.7582 10.2309C31.5063 9.97596 31.2055 9.77271 30.8732 9.63289C30.2021 9.34586 29.4432 9.32968 28.76 9.58785C28.0769 9.84601 27.5244 10.3578 27.2218 11.0129ZM28.9131 11.7337C29.0139 11.5153 29.1979 11.3447 29.4256 11.2585C29.6532 11.1723 29.9062 11.1776 30.1299 11.2731C30.2407 11.3197 30.341 11.3875 30.4249 11.4725C30.5089 11.5575 30.5749 11.658 30.619 11.7683C30.6634 11.8777 30.685 11.9949 30.6823 12.1127C30.6796 12.2306 30.6528 12.3467 30.6035 12.4541C30.5547 12.5622 30.4846 12.6597 30.3973 12.7409C30.3099 12.8222 30.207 12.8855 30.0945 12.9274C29.9816 12.9709 29.861 12.992 29.7397 12.9896C29.6184 12.9872 29.4988 12.9613 29.3878 12.9134H29.3873C29.2766 12.8668 29.1764 12.799 29.0925 12.7141C29.0086 12.6292 28.9426 12.5288 28.8984 12.4187C28.8541 12.3094 28.8325 12.1924 28.8351 12.0747C28.8376 11.9571 28.8641 11.8411 28.9131 11.7337Z" fill="#5BD595"/>
<path d="M30.5492 46.8098C30.4584 46.5906 30.3245 46.3913 30.155 46.2232C29.9856 46.0551 29.7841 45.9215 29.5619 45.8303C29.332 45.7362 29.0855 45.6871 28.8364 45.6858C28.5365 45.6826 28.2403 45.752 27.9741 45.888C27.7079 46.024 27.4799 46.2223 27.3101 46.4655C27.1404 46.7086 27.0342 46.9891 27.0008 47.2822C26.9675 47.5753 27.0082 47.872 27.1191 48.146C27.3066 48.5883 27.6635 48.9405 28.1129 49.1263C28.5622 49.3121 29.0679 49.3167 29.5206 49.139C29.7452 49.0535 29.9503 48.9248 30.1237 48.7605C30.2972 48.5962 30.4356 48.3995 30.5308 48.1821C30.628 47.9664 30.6797 47.7336 30.6829 47.4978C30.6861 47.2619 30.6406 47.0279 30.5492 46.8098ZM35.7012 41.3298C35.6101 41.1073 35.4336 40.929 35.2099 40.8333C35.0924 40.7833 34.9659 40.7572 34.8379 40.7566C34.7233 40.7579 34.6097 40.7793 34.5027 40.8198C34.2777 40.9074 34.0972 41.0792 34.001 41.2975C33.9047 41.5158 33.9006 41.7627 33.9894 41.984C34.0782 42.2053 34.2528 42.3829 34.4748 42.4778C34.6967 42.5727 34.9479 42.577 35.1731 42.4899C35.2854 42.448 35.3881 42.3847 35.4755 42.3036C35.5628 42.2226 35.633 42.1254 35.6821 42.0176C35.7311 41.9099 35.7581 41.7936 35.7613 41.6756C35.7646 41.5576 35.7442 41.4401 35.7012 41.3298ZM35.7012 41.3298C35.6101 41.1073 35.4336 40.929 35.2099 40.8333C35.0924 40.7833 34.9659 40.7572 34.8379 40.7566C34.7233 40.7579 34.6097 40.7793 34.5027 40.8198C34.2777 40.9074 34.0972 41.0792 34.001 41.2975C33.9047 41.5158 33.9006 41.7627 33.9894 41.984C34.0782 42.2053 34.2528 42.3829 34.4748 42.4778C34.6967 42.5727 34.9479 42.577 35.1731 42.4899C35.2854 42.448 35.3881 42.3847 35.4755 42.3036C35.5628 42.2226 35.633 42.1254 35.6821 42.0176C35.7311 41.9099 35.7581 41.7936 35.7613 41.6756C35.7646 41.5576 35.7442 41.4401 35.7012 41.3298ZM30.5492 46.8098C30.4584 46.5906 30.3245 46.3913 30.155 46.2232C29.9856 46.0551 29.7841 45.9215 29.5619 45.8303C29.332 45.7362 29.0855 45.6871 28.8364 45.6858C28.5365 45.6826 28.2403 45.752 27.9741 45.888C27.7079 46.024 27.4799 46.2223 27.3101 46.4655C27.1404 46.7086 27.0342 46.9891 27.0008 47.2822C26.9675 47.5753 27.0082 47.872 27.1191 48.146C27.3066 48.5883 27.6635 48.9405 28.1129 49.1263C28.5622 49.3121 29.0679 49.3167 29.5206 49.139C29.7452 49.0535 29.9503 48.9248 30.1237 48.7605C30.2972 48.5962 30.4356 48.3995 30.5308 48.1821C30.628 47.9664 30.6797 47.7336 30.6829 47.4978C30.6861 47.2619 30.6406 47.0279 30.5492 46.8098ZM33.8231 28.5779V22.7955C34.2344 22.7136 34.605 22.4964 34.8738 22.1796C35.1425 21.8629 35.2935 21.4655 35.3017 21.0531V18.3628C35.2901 17.8769 35.083 17.4154 34.7258 17.0794C34.3686 16.7435 33.8904 16.5605 33.3961 16.5707H26.1227C25.6284 16.5605 25.1502 16.7435 24.793 17.0794C24.4358 17.4154 24.2287 17.8769 24.2171 18.3628V21.0531C24.2253 21.4655 24.3762 21.8629 24.645 22.1796C24.9138 22.4964 25.2844 22.7136 25.6957 22.7955V28.5779C22.1423 29.5443 19.0657 31.7442 17.0361 34.7699C15.0065 37.7956 14.1614 41.4421 14.6574 45.0335C15.1534 48.6249 16.957 51.9178 19.7338 54.302C22.5107 56.6862 26.0725 58 29.7594 58C33.4462 58 37.0081 56.6862 39.785 54.302C42.5618 51.9178 44.3653 48.6249 44.8614 45.0335C45.3574 41.4421 44.5123 37.7956 42.4827 34.7699C40.4531 31.7442 37.3765 29.5443 33.8231 28.5779ZM26.063 18.3808C26.0797 18.3674 26.1012 18.3609 26.1227 18.3628H33.3961C33.4282 18.3628 33.4466 18.3718 33.4512 18.3808V21.035C33.4358 21.0476 33.4161 21.0541 33.3961 21.0531H26.1227C26.1015 21.0528 26.0808 21.0465 26.063 21.035V18.3808ZM24.7957 36.9739C23.6922 37.8058 22.8346 38.9122 22.3115 40.1788C22.243 40.3503 22.1236 40.4975 21.9688 40.6014C21.8141 40.7052 21.6311 40.7609 21.4437 40.7611C21.334 40.7591 21.2253 40.7393 21.1222 40.7024C21.0091 40.6619 20.9053 40.5999 20.8168 40.5198C20.7282 40.4396 20.6567 40.3431 20.6063 40.2356C20.556 40.1282 20.5277 40.012 20.5233 39.8938C20.5188 39.7756 20.5382 39.6576 20.5804 39.5468C21.2239 37.9836 22.2775 36.616 23.6339 35.5836C23.8249 35.4338 24.0679 35.3637 24.3109 35.3881C24.5538 35.4126 24.7774 35.5298 24.9334 35.7145C25.0101 35.8054 25.0674 35.9105 25.1021 36.0235C25.1367 36.1366 25.1479 36.2554 25.1351 36.3728C25.1223 36.4902 25.0856 36.6039 25.0273 36.7071C24.969 36.8104 24.8902 36.9011 24.7957 36.9739ZM32.2298 48.8862C32.0394 49.3218 31.7627 49.7158 31.4158 50.0452C31.0689 50.3745 30.6588 50.6327 30.2094 50.8047C29.2986 51.1599 28.2819 51.1469 27.3808 50.7686C26.9362 50.5867 26.5327 50.32 26.1938 49.9837C25.8549 49.6474 25.5872 49.2483 25.4064 48.8095C25.224 48.3741 25.1328 47.9071 25.1383 47.4363C25.1438 46.9655 25.2459 46.5006 25.4385 46.0695C25.6303 45.6348 25.9074 45.2415 26.2541 44.9123C26.6009 44.5831 27.0103 44.3244 27.4589 44.1511C28.3693 43.7955 29.3855 43.8069 30.2875 44.1827C30.7325 44.3638 31.1364 44.6304 31.4754 44.9667C31.8144 45.3031 32.0818 45.7026 32.2619 46.1417C32.4443 46.5779 32.5355 47.0457 32.53 47.5172C32.5244 47.9887 32.4224 48.4543 32.2298 48.8862ZM37.3772 42.7337C37.2304 43.0595 37.0192 43.3533 36.756 43.5982C36.4927 43.8431 36.1825 44.0341 35.8435 44.1601C35.5226 44.2814 35.1818 44.3441 34.8379 44.3452C34.4553 44.345 34.0769 44.2666 33.7267 44.115C33.2266 43.9057 32.8017 43.5541 32.5067 43.1054C32.2118 42.6566 32.0602 42.1313 32.0715 41.5972C32.0829 41.063 32.2567 40.5444 32.5705 40.1082C32.8843 39.672 33.3238 39.3381 33.8323 39.1496C34.5182 38.891 35.2799 38.9072 35.9537 39.1947C36.2854 39.3339 36.5857 39.5365 36.8372 39.7906C37.0886 40.0448 37.2862 40.3455 37.4185 40.6753C37.5529 41.0035 37.6185 41.355 37.6114 41.7087C37.6043 42.0623 37.5246 42.411 37.3772 42.7337ZM35.2099 40.8333C35.0924 40.7833 34.9659 40.7572 34.8379 40.7566C34.7233 40.7579 34.6097 40.7793 34.5027 40.8198C34.2777 40.9074 34.0972 41.0792 34.001 41.2975C33.9047 41.5158 33.9006 41.7627 33.9894 41.984C34.0782 42.2053 34.2528 42.3829 34.4748 42.4778C34.6967 42.5727 34.9479 42.577 35.1731 42.4899C35.2854 42.448 35.3881 42.3847 35.4755 42.3036C35.5628 42.2226 35.633 42.1254 35.6821 42.0176C35.7311 41.9099 35.7581 41.7936 35.7613 41.6756C35.7646 41.5576 35.7442 41.4401 35.7012 41.3298C35.6101 41.1073 35.4336 40.929 35.2099 40.8333ZM29.5619 45.8303C29.332 45.7362 29.0855 45.6871 28.8364 45.6858C28.5365 45.6826 28.2403 45.752 27.9741 45.888C27.7079 46.024 27.4799 46.2223 27.3101 46.4655C27.1404 46.7086 27.0342 46.9891 27.0008 47.2822C26.9675 47.5753 27.0082 47.872 27.1191 48.146C27.3066 48.5883 27.6635 48.9405 28.1129 49.1263C28.5622 49.3121 29.0679 49.3167 29.5206 49.139C29.7452 49.0535 29.9503 48.9248 30.1237 48.7605C30.2972 48.5962 30.4356 48.3995 30.5308 48.1821C30.628 47.9664 30.6797 47.7336 30.6829 47.4978C30.6861 47.2619 30.6406 47.0279 30.5492 46.8098C30.4584 46.5906 30.3245 46.3913 30.155 46.2232C29.9856 46.0551 29.7841 45.9215 29.5619 45.8303ZM30.5492 46.8098C30.4584 46.5906 30.3245 46.3913 30.155 46.2232C29.9856 46.0551 29.7841 45.9215 29.5619 45.8303C29.332 45.7362 29.0855 45.6871 28.8364 45.6858C28.5365 45.6826 28.2403 45.752 27.9741 45.888C27.7079 46.024 27.4799 46.2223 27.3101 46.4655C27.1404 46.7086 27.0342 46.9891 27.0008 47.2822C26.9675 47.5753 27.0082 47.872 27.1191 48.146C27.3066 48.5883 27.6635 48.9405 28.1129 49.1263C28.5622 49.3121 29.0679 49.3167 29.5206 49.139C29.7452 49.0535 29.9503 48.9248 30.1237 48.7605C30.2972 48.5962 30.4356 48.3995 30.5308 48.1821C30.628 47.9664 30.6797 47.7336 30.6829 47.4978C30.6861 47.2619 30.6406 47.0279 30.5492 46.8098ZM30.5492 46.8098C30.4584 46.5906 30.3245 46.3913 30.155 46.2232C29.9856 46.0551 29.7841 45.9215 29.5619 45.8303C29.332 45.7362 29.0855 45.6871 28.8364 45.6858C28.5365 45.6826 28.2403 45.752 27.9741 45.888C27.7079 46.024 27.4799 46.2223 27.3101 46.4655C27.1404 46.7086 27.0342 46.9891 27.0008 47.2822C26.9675 47.5753 27.0082 47.872 27.1191 48.146C27.3066 48.5883 27.6635 48.9405 28.1129 49.1263C28.5622 49.3121 29.0679 49.3167 29.5206 49.139C29.7452 49.0535 29.9503 48.9248 30.1237 48.7605C30.2972 48.5962 30.4356 48.3995 30.5308 48.1821C30.628 47.9664 30.6797 47.7336 30.6829 47.4978C30.6861 47.2619 30.6406 47.0279 30.5492 46.8098Z" fill="#5BD595"/>
<path d="M12.9316 0.00561989V0H1.84737V0.00561989C1.36366 0.00875527 0.900228 0.196995 0.555347 0.530415C0.210466 0.863835 0.0112674 1.31621 0 1.7916V3.58319C0.0112664 4.05857 0.210465 4.51095 0.555348 4.84436C0.90023 5.17778 1.36367 5.36601 1.84737 5.36913V23.924H5.05097C5.29454 23.924 5.52813 24.0192 5.70035 24.1885C5.87258 24.3578 5.96933 24.5874 5.96933 24.8268C5.96933 25.0663 5.87258 25.2959 5.70035 25.4652C5.52813 25.6345 5.29454 25.7296 5.05097 25.7296H1.84737V27.5352H6.42851C6.67208 27.5352 6.90566 27.6303 7.07789 27.7996C7.25012 27.969 7.34687 28.1986 7.34687 28.438C7.34687 28.6775 7.25012 28.9071 7.07789 29.0764C6.90566 29.2457 6.67208 29.3408 6.42851 29.3408H1.84737V31.1464H5.05097C5.29454 31.1464 5.52813 31.2415 5.70035 31.4108C5.87258 31.5801 5.96933 31.8098 5.96933 32.0492C5.96933 32.2886 5.87258 32.5183 5.70035 32.6876C5.52813 32.8569 5.29454 32.952 5.05097 32.952H1.84737V34.7576H6.42851C6.67208 34.7576 6.90566 34.8527 7.07789 35.022C7.25012 35.1913 7.34687 35.4209 7.34687 35.6604C7.34687 35.8998 7.25012 36.1294 7.07789 36.2987C6.90566 36.4681 6.67208 36.5632 6.42851 36.5632H1.84737V38.3688H5.05097C5.29454 38.3688 5.52813 38.4639 5.70035 38.6332C5.87258 38.8025 5.96933 39.0321 5.96933 39.2715C5.96933 39.511 5.87258 39.7406 5.70035 39.9099C5.52813 40.0792 5.29454 40.1743 5.05097 40.1743H1.84737V41.9799H6.42851C6.67208 41.9799 6.90566 42.075 7.07789 42.2444C7.25012 42.4137 7.34687 42.6433 7.34687 42.8827C7.34687 43.1222 7.25012 43.3518 7.07789 43.5211C6.90566 43.6904 6.67208 43.7855 6.42851 43.7855H1.84737V45.5911H5.05097C5.29454 45.5911 5.52813 45.6862 5.70035 45.8555C5.87258 46.0248 5.96933 46.2545 5.96933 46.4939C5.96933 46.7333 5.87258 46.963 5.70035 47.1323C5.52813 47.3016 5.29454 47.3967 5.05097 47.3967H1.84737V51.9562C1.86712 53.3883 2.45972 54.7552 3.49692 55.7611C4.53412 56.767 5.93251 57.331 7.38948 57.331C8.84646 57.331 10.2448 56.767 11.282 55.7611C12.3192 54.7552 12.9118 53.3883 12.9316 51.9562V5.36913C13.4153 5.366 13.8787 5.17777 14.2236 4.84436C14.5685 4.51094 14.7677 4.05857 14.779 3.58319V1.7916C14.7677 1.31621 14.5685 0.863833 14.2236 0.530413C13.8787 0.196993 13.4153 0.0087541 12.9316 0.00561989ZM12.9316 3.56621C12.9143 3.57843 12.8933 3.58442 12.872 3.58319H1.90697C1.88572 3.58442 1.86468 3.57843 1.84739 3.56621V1.80854C1.86469 1.79635 1.88572 1.79037 1.90697 1.7916H12.872C12.8933 1.79037 12.9143 1.79635 12.9316 1.80854L12.9316 3.56621Z" fill="#5BD595"/>
</svg>
