<svg width="255" height="203" viewBox="0 0 255 203" fill="none" xmlns="http://www.w3.org/2000/svg">
<path d="M255 180.018H0V180.145H255V180.018Z" fill="#EBEBEB"/>
<path d="M198.109 183.84H181.218V183.967H198.109V183.84Z" fill="#EBEBEB"/>
<path d="M154.02 188.145H131.565V188.272H154.02V188.145Z" fill="#EBEBEB"/>
<path d="M221.462 188.562H198.625V188.69H221.462V188.562Z" fill="#EBEBEB"/>
<path d="M49.4089 183.713H27.382V183.84H49.4089V183.713Z" fill="#EBEBEB"/>
<path d="M57.1812 183.713H53.9529V183.84H57.1812V183.713Z" fill="#EBEBEB"/>
<path d="M115.454 185.859H67.677V185.987H115.454V185.859Z" fill="#EBEBEB"/>
<path d="M120.87 157.321H22.3941C21.6226 157.319 20.8832 157.013 20.3382 156.468C19.7932 155.923 19.4871 155.185 19.4871 154.415V16.2808C19.4938 15.5154 19.8028 14.7836 20.3471 14.2443C20.8914 13.705 21.627 13.4017 22.3941 13.4004H120.87C121.642 13.4004 122.383 13.7065 122.929 14.2515C123.475 14.7965 123.782 15.5356 123.782 16.3063V154.415C123.782 155.186 123.475 155.925 122.929 156.47C122.383 157.015 121.642 157.321 120.87 157.321ZM22.3941 13.5022C21.6564 13.5035 20.9495 13.7969 20.4283 14.3178C19.9072 14.8388 19.6146 15.5448 19.6146 16.2808V154.415C19.6146 155.151 19.9072 155.857 20.4283 156.378C20.9495 156.899 21.6564 157.192 22.3941 157.194H120.87C121.608 157.192 122.316 156.899 122.837 156.378C123.359 155.857 123.653 155.151 123.655 154.415V16.2808C123.653 15.5443 123.359 14.8383 122.837 14.3175C122.316 13.7967 121.608 13.5035 120.87 13.5022H22.3941Z" fill="#EBEBEB"/>
<path d="M231.188 157.321H132.707C131.935 157.319 131.195 157.013 130.649 156.468C130.104 155.924 129.796 155.185 129.795 154.415V16.2808C129.803 15.515 130.113 14.7831 130.658 14.244C131.203 13.7048 131.939 13.4017 132.707 13.4004H231.188C231.954 13.403 232.688 13.7069 233.232 14.2461C233.775 14.7852 234.083 15.5163 234.09 16.2808V154.415C234.09 155.184 233.785 155.921 233.241 156.466C232.697 157.011 231.959 157.318 231.188 157.321ZM132.707 13.5022C131.969 13.5035 131.261 13.7967 130.739 14.3175C130.218 14.8383 129.924 15.5443 129.922 16.2808V154.415C129.924 155.151 130.218 155.857 130.739 156.378C131.261 156.899 131.969 157.192 132.707 157.194H231.188C231.926 157.192 232.634 156.899 233.156 156.378C233.677 155.857 233.971 155.151 233.973 154.415V16.2808C233.971 15.5443 233.677 14.8383 233.156 14.3175C232.634 13.7967 231.926 13.5035 231.188 13.5022H132.707Z" fill="#EBEBEB"/>
<path d="M222.901 7.80273H29.0701V173.52H222.901V7.80273Z" fill="#E6E6E6"/>
<path d="M225.93 7.80273H30.0594V173.52H225.93V7.80273Z" fill="#F5F5F5"/>
<path d="M220.488 167.966V13.3633L35.5011 13.3633V167.966H220.488Z" fill="white"/>
<path d="M220.488 167.962V13.3594H218.198V167.962H220.488Z" fill="#E6E6E6"/>
<path d="M223.681 136.846H32.3136V139.813H223.681V136.846Z" fill="#F5F5F5"/>
<path d="M223.681 23.1602H32.3136V30.6259H223.681V23.1602Z" fill="#F5F5F5"/>
<path d="M25.546 0H16.1977C16.1977 36.372 14.4943 138.327 14.4943 138.327H26.2243L25.546 0Z" fill="#F5F5F5"/>
<path d="M42.4371 0H31.5435C31.5435 35.1506 29.58 133.671 29.58 133.671H43.248L42.4371 0Z" fill="#F0F0F0"/>
<path d="M58.752 0H47.8584C47.8584 35.1506 45.9 133.671 45.9 133.671H59.568L58.752 0Z" fill="#F0F0F0"/>
<path d="M33.4356 0H22.542C22.542 39.4305 20.5632 149.956 20.5632 149.956H34.2261L33.4356 0Z" fill="#E6E6E6"/>
<path d="M51.918 0H41.0244C41.0244 39.4305 39.0405 149.956 39.0405 149.956H52.7085L51.918 0Z" fill="#E6E6E6"/>
<path d="M206.504 0H197.156C197.156 36.372 195.458 138.327 195.458 138.327H207.188L206.504 0Z" fill="#F5F5F5"/>
<path d="M223.38 0H212.507C212.507 35.1506 210.523 133.671 210.523 133.671H224.191L223.38 0Z" fill="#F0F0F0"/>
<path d="M239.7 0H228.817C228.817 35.1506 226.838 133.671 226.838 133.671H240.506L239.7 0Z" fill="#F0F0F0"/>
<path d="M214.394 0H203.49C203.49 39.4305 201.511 149.956 201.511 149.956H215.179L214.394 0Z" fill="#E6E6E6"/>
<path d="M232.876 0H221.983C221.983 39.4305 220.004 149.956 220.004 149.956H233.672L232.876 0Z" fill="#E6E6E6"/>
<path d="M127.5 203C182.112 203 226.384 200.421 226.384 197.239C226.384 194.058 182.112 191.479 127.5 191.479C72.8879 191.479 28.6161 194.058 28.6161 197.239C28.6161 200.421 72.8879 203 127.5 203Z" fill="#F5F5F5"/>
<path d="M150.236 18.7987L150.182 19.3047L155.628 19.8874L155.683 19.3814L150.236 18.7987Z" fill="#4AA29A"/>
<path d="M162.343 33.757L161.833 33.701L162.415 28.2862C162.521 27.2898 162.429 26.2822 162.144 25.3215C161.858 24.3607 161.385 23.4658 160.752 22.6882C160.288 22.1036 159.742 21.5893 159.13 21.1614L159.421 20.7441C160.076 21.201 160.661 21.7494 161.16 22.3727C161.837 23.2038 162.342 24.1608 162.646 25.1881C162.95 26.2154 163.046 27.2927 162.93 28.3575L162.343 33.757Z" fill="#4AA29A"/>
<path d="M114.174 37.3841L115.704 23.3025C115.887 21.624 116.73 20.0866 118.047 19.0269C119.365 17.9672 121.049 17.4715 122.732 17.6484L155.499 21.1498C157.178 21.3381 158.714 22.1798 159.774 23.492C160.834 24.8042 161.332 26.4808 161.16 28.1575L159.63 42.234C159.446 43.9128 158.604 45.4506 157.287 46.5112C155.97 47.5717 154.285 48.0686 152.602 47.8931L151.919 47.8168C152.312 50.1374 153.592 53.1603 156.871 56.626C150.124 54.2494 146.671 50.4784 144.901 47.0687L119.85 44.3969C118.167 44.2135 116.626 43.373 115.562 42.059C114.498 40.7449 113.999 39.0642 114.174 37.3841Z" fill="#4AA29A"/>
<path opacity="0.2" d="M139.409 29.2257L136.481 19.1187L122.711 17.6479C121.029 17.4724 119.345 17.9686 118.028 19.028C116.711 20.0875 115.868 21.6241 115.683 23.302L114.153 37.3836C114.052 38.3372 114.169 39.3012 114.494 40.2037C114.819 41.1061 115.344 41.9235 116.03 42.5948L135.023 37.1189C136.651 36.6491 138.026 35.5549 138.848 34.0757C139.67 32.5965 139.872 30.8527 139.409 29.2257Z" fill="black"/>
<path d="M137.731 29.0678L135.844 15.032C135.613 13.3592 134.728 11.8456 133.383 10.8215C132.037 9.79741 130.341 9.34617 128.663 9.56629L96.0228 13.9378C94.3428 14.1632 92.8208 15.044 91.7902 16.3871C90.7597 17.7302 90.3048 19.4261 90.525 21.1033L92.412 35.134C92.6416 36.8067 93.525 38.3208 94.8695 39.3458C96.2139 40.3708 97.9101 40.8234 99.5877 40.6048L100.271 40.5132C99.9396 42.8441 98.7411 45.8975 95.5536 49.4497C102.24 46.9052 105.59 43.0324 107.284 39.5768L132.274 36.2333C133.946 35.9969 135.457 35.1117 136.478 33.7701C137.5 32.4284 137.95 30.7386 137.731 29.0678Z" fill="white"/>
<path d="M94.5897 50.1177L95.3496 49.2678C97.8996 46.4077 99.4602 43.5731 99.9396 40.8351L99.6234 40.8758C97.8731 41.1075 96.1021 40.6378 94.698 39.5696C93.2939 38.5013 92.3711 36.9216 92.1315 35.176L90.27 21.1402C90.0394 19.3937 90.5114 17.6271 91.5829 16.227C92.6543 14.8269 94.2379 13.9073 95.9871 13.6694L128.627 9.29273C130.378 9.05984 132.15 9.52982 133.553 10.5995C134.957 11.6691 135.878 13.251 136.114 14.9976L138.001 29.0334C138.234 30.7804 137.763 32.5484 136.691 33.9492C135.619 35.3499 134.034 36.2689 132.284 36.5043L107.452 39.8326C105.274 44.2194 101.306 47.5426 95.6505 49.7105L94.5897 50.1177ZM100.597 40.1939L100.546 40.5552C100.164 43.2321 98.8023 45.9955 96.5022 48.7691C101.521 46.6367 105.055 43.5069 107.018 39.456L107.085 39.3236L132.212 35.9597C133.818 35.7421 135.271 34.8983 136.253 33.6134C137.236 32.3284 137.668 30.7071 137.455 29.1047L135.568 15.0689C135.35 13.4672 134.505 12.0171 133.217 11.0364C131.929 10.0558 130.304 9.62453 128.698 9.83726L96.0585 14.2139C95.261 14.3174 94.4918 14.5768 93.7948 14.9772C93.0978 15.3775 92.4867 15.9111 91.9965 16.5472C91.5063 17.1834 91.1465 17.9097 90.9378 18.6847C90.729 19.4597 90.6754 20.2682 90.78 21.0639L92.667 35.0997C92.8851 36.7014 93.7307 38.1515 95.0184 39.1321C96.3061 40.1128 97.9309 40.544 99.5367 40.3313L100.597 40.1939Z" fill="#4AA29A"/>
<path d="M106.702 25.7927C106.813 26.45 106.726 27.1253 106.452 27.7332C106.179 28.3411 105.73 28.8543 105.164 29.2079C104.598 29.5615 103.939 29.7396 103.272 29.7197C102.604 29.6997 101.958 29.4826 101.414 29.0959C100.87 28.7091 100.453 28.17 100.216 27.5468C99.9793 26.9236 99.933 26.2443 100.083 25.5949C100.233 24.9455 100.573 24.3551 101.06 23.8984C101.546 23.4417 102.157 23.1393 102.816 23.0293C103.253 22.9557 103.7 22.9688 104.132 23.0679C104.564 23.167 104.972 23.3502 105.333 23.6068C105.694 23.8635 106.001 24.1887 106.236 24.5638C106.471 24.9388 106.629 25.3565 106.702 25.7927Z" fill="#4AA29A"/>
<path d="M117.096 26.1222C117.205 26.7786 117.117 27.4526 116.842 28.0588C116.567 28.665 116.118 29.1764 115.552 29.5281C114.986 29.8798 114.328 30.0561 113.662 30.0347C112.995 30.0133 112.35 29.7952 111.808 29.4079C111.266 29.0206 110.851 28.4816 110.616 27.859C110.381 27.2364 110.336 26.5582 110.487 25.9101C110.638 25.262 110.978 24.6733 111.465 24.2182C111.951 23.7632 112.562 23.4624 113.22 23.3537C114.102 23.2081 115.006 23.418 115.732 23.9371C116.459 24.4563 116.95 25.2423 117.096 26.1222Z" fill="#4AA29A"/>
<path d="M126.48 20.4216C126.591 21.0789 126.504 21.7542 126.23 22.3621C125.956 22.97 125.508 23.4832 124.942 23.8368C124.376 24.1905 123.717 24.3685 123.05 24.3486C122.382 24.3286 121.735 24.1115 121.191 23.7248C120.647 23.338 120.231 22.7989 119.994 22.1757C119.757 21.5525 119.711 20.8733 119.861 20.2238C120.011 19.5744 120.351 18.984 120.837 18.5273C121.324 18.0706 121.935 17.7682 122.594 17.6582C123.031 17.5846 123.478 17.5977 123.91 17.6968C124.342 17.7959 124.75 17.9791 125.111 18.2357C125.472 18.4924 125.779 18.8176 126.014 19.1927C126.249 19.5678 126.407 19.9854 126.48 20.4216Z" fill="#4AA29A"/>
<path d="M88.7399 71.7935L89.9996 73.2693L91.3103 74.796C92.1824 75.7884 93.0851 76.7553 93.9827 77.6765C94.4315 78.1345 94.8854 78.5823 95.3393 79.0047C95.7932 79.4271 96.242 79.8393 96.6908 80.2007C97.1396 80.562 97.5833 80.8877 97.9811 81.1625C98.2893 81.3721 98.6133 81.5575 98.9502 81.7172L98.2055 81.6053C97.989 81.574 97.7683 81.6209 97.5833 81.7376C97.5833 81.763 97.7006 81.7376 97.8638 81.6409C98.3123 81.3763 98.7282 81.0603 99.1032 80.6994C100.093 79.7617 101.018 78.7586 101.872 77.6968C102.796 76.5925 103.693 75.4169 104.591 74.2261L107.253 70.6179L107.289 70.567C107.595 70.1539 108.037 69.8623 108.538 69.744C109.039 69.6257 109.566 69.6883 110.025 69.9207C110.484 70.1531 110.846 70.5403 111.046 71.0135C111.246 71.4868 111.272 72.0156 111.119 72.5059C110.632 74.03 110.066 75.5282 109.426 76.9945C108.793 78.4602 108.094 79.9055 107.299 81.3406C106.481 82.846 105.533 84.2765 104.463 85.6155C103.824 86.4069 103.105 87.13 102.316 87.7733C101.794 88.1968 101.22 88.5525 100.608 88.8318C99.7144 89.2522 98.7337 89.4546 97.7465 89.4222C97.5749 89.4152 97.4043 89.3931 97.2365 89.356L97.0172 89.3051C95.9933 89.0698 95.003 88.7074 94.0694 88.2262C93.2811 87.8245 92.5196 87.3723 91.7897 86.8725C90.466 85.967 89.2098 84.967 88.031 83.8801C86.8784 82.8623 85.8176 81.7529 84.7976 80.6434C84.2876 80.0836 83.7776 79.5238 83.3084 78.9386C83.0687 78.6485 82.829 78.3635 82.5944 78.0632L81.8702 77.1218C81.1934 76.2239 80.8922 75.0989 81.0302 73.9839C81.1682 72.8688 81.7345 71.8507 82.6099 71.1441C83.4853 70.4375 84.6014 70.0976 85.723 70.1959C86.8446 70.2943 87.8842 70.8232 88.6226 71.6713L88.7399 71.7935Z" fill="#263238"/>
<path d="M107.416 69.6051C107.692 67.4677 111.578 66.4804 111.578 66.4804L113.852 65.4626C114.224 65.2972 114.643 65.2693 115.034 65.384C115.424 65.4987 115.761 65.7485 115.984 66.0885L117.142 67.8545C117.269 68.0445 117.356 68.2579 117.399 68.4821C117.442 68.7062 117.439 68.9367 117.392 69.1599C117.344 69.3831 117.253 69.5947 117.122 69.7821C116.992 69.9695 116.825 70.1291 116.632 70.2514L114.546 71.5543C114.174 71.7848 113.756 71.934 113.322 71.9919L111.547 72.2209C110.803 72.3168 110.046 72.1998 109.365 71.8836C108.685 71.5674 108.108 71.0649 107.702 70.4347L107.595 70.2667C107.46 70.0734 107.397 69.8396 107.416 69.6051Z" fill="#FFC3BD"/>
<path d="M64.2855 68.8721C70.3086 68.124 78.9225 68.1953 84.6855 69.1877C86.1282 69.4483 87.4522 70.1552 88.47 71.2083C89.4878 72.2614 90.1479 73.6073 90.3566 75.0554C91.5704 83.7527 90.5249 98.9743 89.7497 114.242C76.5714 118.746 62.6586 114.181 62.6586 114.181C62.1792 111.092 63.2553 100.979 63.9795 95.5799C62.8932 89.9818 60.588 83.6153 59.0631 76.2106C58.8781 75.3826 58.8694 74.525 59.0376 73.6933C59.2058 72.8617 59.547 72.0746 60.0393 71.3828C60.5315 70.6911 61.1638 70.1102 61.8953 69.6777C62.6267 69.2452 63.441 68.9708 64.2855 68.8721Z" fill="#263238"/>
<path d="M79.8201 68.6118C80.6318 69.5554 81.1416 70.72 81.2838 71.9554C81.9009 75.4872 81.1971 80.9275 79.3356 87.1718C77.5506 82.1438 73.7256 75.4669 71.3439 71.6246C70.227 69.7925 69.4416 68.5711 69.3702 68.4795C72.8125 67.6753 76.3994 67.7208 79.8201 68.6118Z" fill="#E0E0E0"/>
<path d="M73.0269 58.7957C73.0269 59.2235 72.8998 59.6416 72.6616 59.9973C72.4234 60.353 72.0849 60.6302 71.6889 60.7939C71.2928 60.9576 70.857 61.0005 70.4365 60.917C70.0161 60.8336 69.6299 60.6276 69.3267 60.3251C69.0236 60.0226 68.8172 59.6372 68.7335 59.2177C68.6499 58.7981 68.6928 58.3632 68.8569 57.968C69.0209 57.5728 69.2987 57.235 69.6552 56.9973C70.0116 56.7597 70.4307 56.6328 70.8594 56.6328C71.1442 56.6321 71.4264 56.6876 71.6896 56.7961C71.9529 56.9046 72.1921 57.0638 72.3935 57.2648C72.5949 57.4658 72.7546 57.7045 72.8633 57.9672C72.972 58.2299 73.0276 58.5115 73.0269 58.7957Z" fill="#E0E0E0"/>
<path d="M84.2877 50.8002C84.1857 52.7849 82.9208 54.3371 81.4623 54.2659C80.0037 54.1946 78.9123 52.5152 79.0092 50.5305C79.1061 48.5457 80.376 46.9681 81.8346 47.0648C83.2932 47.1615 84.3897 48.8103 84.2877 50.8002Z" fill="#E0E0E0"/>
<path d="M70.4717 56.7559L77.9075 62.8374C76.9436 65.3819 77.6576 67.9265 79.82 68.6135C80.177 69.7229 78.9071 70.8883 77.6984 72.013C74.8934 71.6619 71.5427 71.1326 69.8342 68.7865C70.3799 66.9494 71.1908 60.532 70.4717 56.7559Z" fill="#FFC3BD"/>
<path d="M79.1112 70.7487C78.8238 71.5703 78.3346 72.307 77.6883 72.8912C76.6428 72.8912 75.1128 71.7156 75.1128 71.7156C75.1128 71.7156 75.7044 70.0566 76.5357 69.7207C78.6522 70.2398 79.1112 70.7487 79.1112 70.7487Z" fill="#F3B36A"/>
<path d="M76.7244 72.169C76.8874 72.0463 77.0734 71.9575 77.2713 71.9077C77.4693 71.8579 77.6752 71.8481 77.877 71.8789C79.2489 73.823 80.121 76.8459 80.9676 80.3319C80.5612 82.6424 80.0162 84.9264 79.3356 87.1717C78.5726 85.1017 77.6818 83.0808 76.6683 81.1208C77.0577 78.1506 77.0765 75.1438 76.7244 72.169Z" fill="#F3B36A"/>
<path opacity="0.2" d="M77.9076 62.8358L73.5216 59.2734C73.3177 60.0537 73.2301 60.8596 73.2615 61.6653C73.3737 63.2938 75.5922 65.075 77.4945 65.3448C77.4543 64.4888 77.595 63.634 77.9076 62.8358Z" fill="black"/>
<path d="M69.1458 52.2302C69.8649 57.1667 70.0383 60.098 72.7617 62.4085C76.8417 65.8945 82.8189 63.0548 83.5942 57.9911C84.2929 53.4109 82.9974 46.1233 77.9841 44.5966C76.8669 44.2526 75.6804 44.198 74.5362 44.4379C73.392 44.6778 72.3278 45.2043 71.4437 45.9679C70.5597 46.7314 69.885 47.7069 69.483 48.8024C69.0809 49.898 68.9649 51.0776 69.1458 52.2302Z" fill="#FFC3BD"/>
<path opacity="0.2" d="M75.6636 52.4041C75.3604 52.2558 75.0306 52.1692 74.6936 52.1491C74.3565 52.129 74.0188 52.1759 73.7001 52.2871C74.3409 52.4522 75.0076 52.4919 75.6636 52.4041Z" fill="black"/>
<path opacity="0.2" d="M75.6076 52.8718C75.3082 52.7971 74.9962 52.7885 74.6932 52.8465C74.3902 52.9045 74.1035 53.0278 73.8531 53.2077C74.4554 53.223 75.0538 53.1084 75.6076 52.8718Z" fill="black"/>
<path opacity="0.2" d="M74.7303 55.7361C74.2203 55.6648 73.7103 55.7819 73.7766 56.6827C73.8596 56.4667 73.9875 56.2706 74.1519 56.1075C74.3162 55.9443 74.5134 55.8178 74.7303 55.7361Z" fill="black"/>
<path d="M70.2576 55.7214C72.9963 54.8868 73.2207 51.3244 72.0987 50.6679C74.3937 51.0598 76.7703 47.9605 75.8778 46.9121C81.4878 49.9656 85.5678 48.3473 83.7675 43.9554C81.651 38.8204 75.3321 40.9019 75.6075 42.1691C72.1395 40.1334 66.2694 42.6067 68.7633 45.0597C65.3463 43.991 62.7708 47.4007 64.8567 50.0012C60.486 52.271 64.7037 57.4212 66.4377 57.0039C66.2184 58.6935 70.6758 60.5357 70.2576 55.7214Z" fill="#E0E0E0"/>
<path d="M80.6106 58.1283C80.6106 58.1283 79.1214 57.4871 74.7864 56.6016C75.0873 57.8891 75.8625 59.0494 78.0861 59.4871C80.3097 59.9248 80.6106 58.1283 80.6106 58.1283Z" fill="#263238"/>
<path d="M77.2191 58.3368C78.0778 58.4685 78.882 58.8389 79.5396 59.4055C79.0738 59.5687 78.5707 59.5934 78.0912 59.4768C77.2337 59.346 76.4308 58.9755 75.7758 58.4081C76.2395 58.2439 76.7413 58.2191 77.2191 58.3368Z" fill="#ED847E"/>
<path d="M80.4168 58.057C80.3418 58.1968 80.2288 58.3125 80.0907 58.3909C79.9526 58.4692 79.7951 58.507 79.6365 58.4998C78.3491 58.2335 77.084 57.8695 75.8523 57.4107C75.6543 57.3573 75.4716 57.2587 75.3184 57.1227C75.1653 56.9867 75.046 56.817 74.97 56.627C76.8171 56.9748 78.6372 57.4527 80.4168 58.057Z" fill="white"/>
<path d="M67.1364 55.5646C67.2777 56.1137 67.5272 56.6293 67.8705 57.081C68.2138 57.5328 68.6439 57.9117 69.1356 58.1957C70.4565 58.9539 71.502 57.8649 71.4561 56.4297C71.4153 55.1371 70.6809 53.188 69.1968 53.02C67.7127 52.8521 66.81 54.2058 67.1364 55.5646Z" fill="#FFC3BD"/>
<path d="M76.9743 52.4143C77.01 52.8164 77.2497 53.1268 77.5149 53.1014C77.7801 53.0759 77.9688 52.7299 77.9331 52.3278C77.8974 51.9258 77.6577 51.6154 77.3925 51.6357C77.1273 51.6561 76.9386 52.0123 76.9743 52.4143Z" fill="#263238"/>
<path d="M81.5541 52.2952C81.5898 52.6973 81.8295 53.0077 82.0947 52.9823C82.3599 52.9568 82.5486 52.6108 82.5129 52.2036C82.4772 51.7965 82.2375 51.4962 81.9723 51.5166C81.7071 51.537 81.5235 51.8881 81.5541 52.2952Z" fill="#263238"/>
<path d="M80.4373 52.8398C80.4373 52.8398 81.5542 55.0841 82.6659 56.1172C82.0029 56.8501 80.7586 56.6567 80.7586 56.6567L80.4373 52.8398Z" fill="#ED847E"/>
<path d="M78.2034 51.3214C78.2299 51.2904 78.2491 51.2539 78.2595 51.2145C78.2715 51.1524 78.2584 51.0881 78.223 51.0357C78.1876 50.9832 78.1329 50.9469 78.0708 50.9346C77.7021 50.8437 77.317 50.8425 76.9478 50.9311C76.5786 51.0196 76.2362 51.1954 75.9492 51.4435C75.9268 51.4649 75.909 51.4905 75.8968 51.519C75.8847 51.5474 75.8784 51.578 75.8784 51.6089C75.8784 51.6398 75.8847 51.6704 75.8968 51.6988C75.909 51.7272 75.9268 51.7529 75.9492 51.7743C75.9715 51.7969 75.9981 51.8149 76.0274 51.8271C76.0567 51.8394 76.0882 51.8457 76.12 51.8457C76.1518 51.8457 76.1833 51.8394 76.2126 51.8271C76.242 51.8149 76.2686 51.7969 76.2909 51.7743C76.521 51.5801 76.7939 51.4429 77.0872 51.3739C77.3806 51.3049 77.6862 51.3061 77.979 51.3773C78.0181 51.3877 78.0592 51.3879 78.0984 51.3781C78.1376 51.3683 78.1737 51.3488 78.2034 51.3214Z" fill="#F5F5F5"/>
<path d="M83.6961 50.4543C83.6598 50.4672 83.6209 50.4711 83.5827 50.4658C83.5446 50.4605 83.5082 50.4461 83.4768 50.4237C83.2427 50.2374 82.9673 50.1097 82.6737 50.0513C82.38 49.9929 82.0766 50.0054 81.7887 50.0879C81.7292 50.1092 81.6636 50.1062 81.6063 50.0795C81.549 50.0528 81.5046 50.0046 81.4827 49.9454C81.4627 49.8859 81.4664 49.821 81.4929 49.7642C81.5195 49.7074 81.567 49.6629 81.6255 49.64C81.9874 49.5293 82.3707 49.5075 82.7428 49.5766C83.1149 49.6458 83.4648 49.8037 83.7624 50.037C83.7876 50.056 83.8088 50.0798 83.8247 50.1069C83.8407 50.1341 83.8511 50.1642 83.8553 50.1954C83.8596 50.2266 83.8576 50.2584 83.8496 50.2888C83.8415 50.3193 83.8275 50.3478 83.8083 50.3729C83.7792 50.4098 83.7404 50.438 83.6961 50.4543Z" fill="#F5F5F5"/>
<path d="M69.36 68.4707C69.4314 68.5776 70.2168 69.7837 71.3337 71.6158C72.4588 72.6557 73.8403 73.3792 75.3372 73.7125C75.1128 72.9746 75.7758 70.4809 76.5102 69.7124C74.7915 69.8091 72.42 69.514 69.36 68.4707Z" fill="#FAFAFA"/>
<path d="M76.5356 69.7208C77.3272 70.0673 78.0402 70.5702 78.6318 71.199C79.2235 71.8279 79.6814 72.5697 79.9781 73.3798C80.2832 73.2462 80.557 73.0504 80.7818 72.805C81.0066 72.5596 81.1776 72.27 81.2837 71.9549C81.1415 70.7195 80.6317 69.5549 79.82 68.6113C79.4171 69.1253 78.3257 69.6241 76.5356 69.7208Z" fill="#FAFAFA"/>
<path d="M66.6723 77.198L65.5248 79.1115L64.3722 81.0861C63.6072 82.394 62.883 83.7222 62.1894 85.0301C61.4958 86.338 60.8787 87.6612 60.3687 88.9131C60.1137 89.5391 59.9148 90.1549 59.7516 90.6943C59.6399 91.0834 59.5547 91.4796 59.4966 91.8801C59.5791 92.8818 59.8858 93.8522 60.3942 94.7198C61.0568 95.9493 61.8174 97.1236 62.6688 98.2313C64.5268 100.633 66.5153 102.932 68.6256 105.117L68.6919 105.188C69.0458 105.564 69.2541 106.053 69.2792 106.568C69.3044 107.083 69.1448 107.59 68.8291 107.998C68.5135 108.406 68.0624 108.689 67.5568 108.795C67.0512 108.901 66.5242 108.824 66.0705 108.578C64.5873 107.763 63.1565 106.857 61.7865 105.865C60.3997 104.869 59.0762 103.788 57.8238 102.628C56.4921 101.403 55.2844 100.049 54.2181 98.5876C53.6373 97.7641 53.1256 96.8943 52.6881 95.987C52.1696 94.9167 51.8253 93.7709 51.6681 92.5926C51.5512 91.4038 51.6027 90.2046 51.8211 89.0302C51.9907 88.0759 52.2242 87.134 52.5198 86.2108C53.0485 84.528 53.6891 82.8822 54.4374 81.2845C55.1412 79.7222 55.9266 78.2311 56.7375 76.7705C57.1557 76.0427 57.5688 75.315 58.0074 74.6076C58.446 73.9002 58.8795 73.2132 59.3946 72.4549C60.0191 71.4986 60.9963 70.8267 62.1142 70.5848C63.2321 70.3429 64.4004 70.5507 65.3658 71.163C66.3311 71.7752 67.0156 72.7427 67.2707 73.8553C67.5258 74.968 67.3309 76.1362 66.7284 77.1064L66.6723 77.198Z" fill="#263238"/>
<path d="M106.519 71.4927C106.502 70.6857 106.609 69.8809 106.835 69.1059C108.146 68.7547 111.7 71.2433 112.241 72.3833C112.011 73.0398 110.507 74.4189 110.507 74.4189C109.39 73.4011 107.381 72.2204 106.519 71.4927Z" fill="#E0E0E0"/>
<path d="M109.104 114.897H46.5426V110.657L109.104 105.568V114.897Z" fill="#F3B36A"/>
<path d="M99.7509 197.238H55.8909L50.7909 114.896H104.851L99.7509 197.238Z" fill="#F3B36A"/>
<path d="M78.0408 168.28C85.456 168.154 91.3654 162.054 91.2399 154.655C91.1143 147.256 85.0014 141.359 77.5862 141.484C70.171 141.609 64.2616 147.709 64.3871 155.109C64.5127 162.508 70.6256 168.405 78.0408 168.28Z" fill="white"/>
<path d="M77.024 152.632L74.752 154.039V151.543L77.632 149.688H79.424V161H77.024V152.632Z" fill="#FBE0D0"/>
<path opacity="0.2" d="M104.468 121.126L50.9031 116.668L50.7909 114.896H104.851L104.468 121.126Z" fill="black"/>
<path d="M64.6068 106.073C64.5852 105.838 64.6465 105.602 64.7802 105.407L65.9328 103.707C66.0416 103.542 66.1959 103.413 66.377 103.334C66.558 103.256 66.7581 103.231 66.9528 103.264L68.6766 103.529C70.3487 103.784 71.9458 104.396 73.3584 105.325L73.8225 105.63C74.0137 105.756 74.1778 105.919 74.3053 106.108C74.4327 106.298 74.5209 106.511 74.5646 106.736C74.6083 106.96 74.6066 107.19 74.5598 107.414C74.5129 107.638 74.4218 107.85 74.2917 108.038L73.0932 109.778C72.8613 110.113 72.5175 110.355 72.1231 110.461C71.7288 110.566 71.3097 110.528 70.941 110.353L68.697 109.3C68.697 109.3 64.8261 108.216 64.6068 106.073Z" fill="#FFC3BD"/>
<path d="M66.5397 102.459C67.3481 102.486 68.1477 102.635 68.9112 102.902C69.1866 104.23 66.4989 107.635 65.3412 108.108C64.6935 107.843 63.3726 106.266 63.3726 106.266C64.4691 105.207 65.79 103.268 66.5397 102.459Z" fill="#E0E0E0"/>
<path d="M104.55 104.527C104.505 104.526 104.462 104.513 104.423 104.49C104.385 104.467 104.353 104.434 104.331 104.395C104.309 104.356 104.297 104.312 104.297 104.268C104.297 104.223 104.309 104.179 104.331 104.14C104.484 103.886 107.987 97.8652 101.618 93.8397C101.56 93.8033 101.519 93.7455 101.505 93.6792C101.49 93.6129 101.502 93.5434 101.538 93.486C101.575 93.4287 101.633 93.3881 101.699 93.3733C101.766 93.3585 101.835 93.3707 101.893 93.4071C108.681 97.7024 104.81 104.333 104.769 104.4C104.747 104.438 104.715 104.469 104.676 104.492C104.638 104.514 104.594 104.526 104.55 104.527Z" fill="#263238"/>
<path d="M99.96 106.312L108.462 105.625C108.462 105.625 107.442 103.9 104.076 104.271C100.71 104.643 99.96 106.312 99.96 106.312Z" fill="#263238"/>
<path d="M102.148 93.8548C102.03 94.0205 101.851 94.1327 101.65 94.1671C101.45 94.2014 101.243 94.155 101.077 94.038L99.8376 93.1576C99.6717 93.0399 99.5592 92.8614 99.5247 92.6611C99.4903 92.4608 99.5368 92.2551 99.654 92.0889C99.772 91.9233 99.9509 91.811 100.152 91.7767C100.352 91.7423 100.559 91.7887 100.725 91.9057L101.969 92.7861C102.135 92.9046 102.246 93.0835 102.28 93.2837C102.313 93.484 102.266 93.6893 102.148 93.8548Z" fill="#263238"/>
<path d="M172.472 50.1271C166.566 53.1245 163.985 57.4503 165.291 61.5216C166.597 65.5929 163.761 66.2138 164.128 71.5828C164.495 76.9518 167.612 77.8068 165.801 80.3514C163.991 82.8959 167.642 91.6594 177.602 87.0232C187.563 82.387 191.796 74.0765 189.225 69.2418C186.655 64.4071 184.11 62.7633 184.11 56.5343C184.11 51.1398 179.658 46.4782 172.472 50.1271Z" fill="#263238"/>
<path d="M143.458 84.8801L143.922 85.6689C144.107 85.9766 144.357 86.2402 144.655 86.4415C144.953 86.6427 145.291 86.7768 145.646 86.8344L149.654 87.4654L151.297 86.1575C150.353 84.2644 147.64 82.7376 147.64 82.7376L146.921 82.2287C146.621 82.0153 146.259 81.9057 145.89 81.9168C145.522 81.9278 145.168 82.0588 144.881 82.2898L143.672 83.4043C143.466 83.5848 143.332 83.8325 143.293 84.1029C143.254 84.3733 143.312 84.6488 143.458 84.8801Z" fill="#FFC3BD"/>
<path d="M169.881 81.5223C169.345 82.7488 168.779 83.8276 168.188 84.9574C167.596 86.0872 166.959 87.161 166.285 88.2348C165.612 89.3086 164.903 90.3672 164.159 91.4053C163.414 92.4435 162.598 93.441 161.757 94.4334L161.67 94.5352C161.5 94.7377 161.296 94.9098 161.068 95.0441C160.553 95.3296 159.989 95.516 159.406 95.5937C158.897 95.6639 158.381 95.6554 157.876 95.5683C157.081 95.422 156.316 95.147 155.611 94.754C154.492 94.1139 153.463 93.3284 152.551 92.4181C151.711 91.5957 150.929 90.7166 150.21 89.787C149.493 88.8794 148.834 87.9275 148.237 86.9371C148.06 86.6508 147.993 86.3106 148.048 85.979C148.103 85.6475 148.276 85.3469 148.536 85.1326C148.795 84.9183 149.124 84.8047 149.46 84.8128C149.797 84.8208 150.119 84.9499 150.368 85.1763L150.414 85.217C151.184 85.9091 152 86.6368 152.806 87.3035C153.612 87.9702 154.433 88.6216 155.259 89.1865C156.001 89.7273 156.804 90.1799 157.651 90.5351C157.924 90.6518 158.216 90.7157 158.513 90.7234C158.702 90.7234 158.61 90.6572 158.513 90.6929L157.804 91.2628C159.143 89.3716 160.38 87.4113 161.512 85.39C162.083 84.3722 162.649 83.3544 163.195 82.2958C163.741 81.2373 164.281 80.1838 164.776 79.1965L164.801 79.1406C164.957 78.8064 165.177 78.5061 165.449 78.2569C165.721 78.0076 166.04 77.8143 166.387 77.6878C166.734 77.5614 167.102 77.5044 167.471 77.5201C167.84 77.5358 168.202 77.6238 168.537 77.7792C168.872 77.9346 169.173 78.1543 169.423 78.4257C169.672 78.6971 169.866 79.015 169.993 79.3612C170.12 79.7073 170.177 80.075 170.161 80.4432C170.145 80.8114 170.057 81.1728 169.901 81.507L169.881 81.5223Z" fill="#FFC3BD"/>
<path d="M172.38 74.0921C164.817 72.6519 159.12 86.0719 158.896 89.0796C159.151 91.8023 163.996 91.9855 163.996 91.9855C163.996 91.9855 174.466 83.7717 172.38 74.0921Z" fill="#F3B36A"/>
<path d="M164.893 91.8222C164.597 92.169 164.254 92.4722 163.873 92.7229C163.842 92.7423 163.807 92.7544 163.771 92.7586C163.322 92.7942 160.201 92.9672 158.355 90.6313C158.323 90.5943 158.305 90.5476 158.304 90.499C158.276 89.8272 158.38 89.1563 158.61 88.5244C158.623 88.489 158.644 88.4572 158.672 88.4315C158.699 88.4058 158.733 88.3869 158.769 88.3765C158.805 88.3661 158.843 88.3644 158.881 88.3715C158.918 88.3786 158.952 88.3944 158.982 88.4175C159.763 89.013 162.246 90.7942 164.755 91.4303C164.797 91.4379 164.836 91.4564 164.868 91.4838C164.9 91.5112 164.924 91.5466 164.938 91.5864C164.952 91.6262 164.955 91.6689 164.947 91.7103C164.94 91.7517 164.921 91.7903 164.893 91.8222Z" fill="white"/>
<path d="M190.74 113.823C190.74 113.823 187.058 106.092 186.956 101.1C183.743 101.1 165.352 100.327 164.857 104.474C164.888 104.744 164.526 110.378 164.036 111.35C167.249 117.375 180.54 116.021 190.74 113.823Z" fill="#F3B36A"/>
<path opacity="0.4" d="M190.74 113.823C190.74 113.823 187.058 106.092 186.956 101.1C183.743 101.1 165.352 100.327 164.857 104.474C164.888 104.744 164.526 110.378 164.036 111.35C167.249 117.375 180.54 116.021 190.74 113.823Z" fill="black"/>
<path d="M163.679 81.7714C163.648 84.8291 163.77 87.8864 164.047 90.9318C164.449 97.5986 164.22 102.637 164.648 105.217C166.333 106.023 168.148 106.521 170.008 106.688C170.345 106.059 170.763 105.477 171.253 104.957C171.717 105.329 173.165 106.387 174.037 106.515C178.036 106.214 185.579 105.08 187.517 103.329C186.578 97.7309 185.477 92.7283 188.756 79.9189C188.948 79.2495 188.988 78.5456 188.874 77.8587C188.759 77.1718 188.492 76.5191 188.092 75.9482C187.692 75.3772 187.17 74.9025 186.563 74.5585C185.956 74.2144 185.28 74.0099 184.584 73.9596C183.789 73.8985 182.942 73.8527 182.075 73.8323C179.03 73.6956 175.979 73.7755 172.946 74.0715C171.957 74.1886 170.932 74.3362 169.952 74.499C168.224 74.7981 166.654 75.6869 165.51 77.0134C164.366 78.3398 163.719 80.0217 163.679 81.7714Z" fill="#F3B36A"/>
<path opacity="0.2" d="M184.87 81.752C185.142 84.7033 185.781 87.6094 186.772 90.4035C186.94 88.7342 187.221 86.8767 187.644 84.7647L184.87 81.752Z" fill="black"/>
<path d="M182.121 107.507L182.555 106.703C182.726 106.388 182.965 106.115 183.254 105.902C183.543 105.689 183.875 105.542 184.227 105.472L188.205 104.678L189.904 105.919C189.037 107.848 186.385 109.482 186.385 109.482L185.686 109.991C185.393 110.214 185.034 110.334 184.666 110.334C184.297 110.334 183.939 110.214 183.646 109.991L182.396 108.927C182.195 108.758 182.057 108.524 182.007 108.266C181.957 108.007 181.997 107.74 182.121 107.507Z" fill="#FFC3BD"/>
<path d="M190.658 79.6858C190.898 80.0013 191.082 80.2507 191.276 80.5255C191.469 80.8003 191.648 81.07 191.831 81.3449C192.194 81.8945 192.535 82.4441 192.851 83.0039C193.514 84.1235 194.121 85.2771 194.672 86.4645C195.235 87.6562 195.727 88.8797 196.146 90.1287C196.584 91.4029 196.935 92.7053 197.197 94.0269L197.222 94.1491V94.2153V94.3374C197.249 94.5059 197.266 94.6758 197.273 94.8463C197.294 95.1224 197.294 95.3997 197.273 95.6758C197.227 96.1439 197.133 96.606 196.993 97.055C196.752 97.793 196.436 98.5042 196.049 99.1771C195.371 100.349 194.585 101.457 193.703 102.485C192.042 104.434 190.196 106.219 188.19 107.813C187.925 108.028 187.591 108.138 187.251 108.124C186.91 108.11 186.586 107.972 186.341 107.736C186.095 107.5 185.944 107.183 185.916 106.844C185.889 106.505 185.986 106.167 186.191 105.895L186.221 105.859C187.644 103.956 189.062 101.966 190.276 100.002C190.868 99.0658 191.389 98.0877 191.837 97.0753C192.017 96.6593 192.156 96.2263 192.25 95.7827C192.276 95.64 192.288 95.4951 192.285 95.3501C192.285 95.3043 192.285 95.2687 192.285 95.2636C192.285 95.2585 192.285 95.2636 192.285 95.2891C192.285 95.3145 192.285 95.2891 192.285 95.2891V95.2382L192.255 95.1415C191.937 94.0802 191.566 93.0357 191.143 92.0117C190.694 90.9684 190.23 89.9302 189.695 88.9175C189.159 87.9047 188.608 86.8818 188.012 85.9047C187.716 85.3958 187.415 84.9225 187.099 84.4441L186.629 83.7317L186.181 83.0752L186.104 82.9632C185.671 82.3612 185.495 81.6121 185.615 80.8805C185.735 80.149 186.141 79.495 186.744 79.0624C187.347 78.6298 188.098 78.4541 188.831 78.5738C189.564 78.6936 190.22 79.0991 190.653 79.7011L190.658 79.6858Z" fill="#FFC3BD"/>
<path d="M184.232 73.9297C191.882 73.1307 196.416 86.9833 196.396 90.0012C195.911 92.6882 191.051 92.4643 191.051 92.4643C191.051 92.4643 181.346 83.3955 184.232 73.9297Z" fill="#F3B36A"/>
<path d="M172.548 80.3014C172.481 80.3089 172.413 80.2892 172.36 80.2467C172.307 80.2042 172.273 80.1425 172.265 80.075C172.258 80.0075 172.278 79.9398 172.32 79.8868C172.363 79.8339 172.425 79.8 172.492 79.7925C174.474 79.0438 176.296 77.9284 177.862 76.505C177.886 76.4811 177.914 76.4622 177.945 76.4493C177.977 76.4363 178.01 76.4297 178.044 76.4297C178.077 76.4297 178.11 76.4363 178.142 76.4493C178.173 76.4622 178.201 76.4811 178.225 76.505C178.248 76.5282 178.267 76.5559 178.28 76.5865C178.293 76.6171 178.3 76.6499 178.3 76.6831C178.3 76.7163 178.293 76.7491 178.28 76.7797C178.267 76.8103 178.248 76.838 178.225 76.8612C176.596 78.3649 174.691 79.54 172.615 80.3218L172.548 80.3014Z" fill="#263238"/>
<path d="M171.748 79.9129C171.712 79.9122 171.677 79.9041 171.644 79.8892C171.612 79.8744 171.583 79.853 171.559 79.8264C170.967 79.1699 170.233 77.0274 171.12 74.8441C171.145 74.7814 171.194 74.7311 171.256 74.7044C171.319 74.6776 171.389 74.6767 171.452 74.7016C171.515 74.7266 171.565 74.7755 171.592 74.8375C171.619 74.8996 171.62 74.9697 171.595 75.0324C171.288 75.7472 171.158 76.5254 171.218 77.3007C171.277 78.0761 171.524 78.8256 171.936 79.4854C171.97 79.5218 171.993 79.5673 172.001 79.6163C172.009 79.6653 172.003 79.7156 171.983 79.761C171.963 79.8065 171.93 79.8451 171.888 79.872C171.846 79.899 171.797 79.9132 171.748 79.9129Z" fill="#263238"/>
<path d="M180.484 63.543C180.02 66.5456 179.612 71.9349 181.57 73.8434C181.57 73.8434 178.78 73.4973 172.966 77.2938C171.192 74.8917 172.456 74.0775 172.456 74.0775C175.771 73.2123 175.751 71.1665 175.103 68.9476L180.484 63.543Z" fill="#FFC3BD"/>
<path d="M174.19 76.5302C176.144 76.7541 176.827 79.6702 176.827 79.6702C176.827 79.6702 181.417 76.2554 182.835 73.8889C182.24 73.5799 181.661 73.2402 181.101 72.8711C181.101 72.8711 175.297 75.38 174.19 76.5302Z" fill="white"/>
<path d="M172.334 76.2656C172.334 76.2656 170.661 76.7745 170.116 79.1359C169.56 74.8712 171.544 74.0925 171.544 74.0925C172.07 73.7822 172.693 73.6754 173.293 73.7923C172.87 74.029 172.543 74.4054 172.368 74.8568C172.193 75.3082 172.181 75.8064 172.334 76.2656Z" fill="white"/>
<path opacity="0.2" d="M178.286 65.7461L175.088 68.9421C175.249 69.4616 175.362 69.9948 175.425 70.535C176.664 70.2144 178.322 68.652 178.408 67.3288C178.46 66.7982 178.419 66.2625 178.286 65.7461Z" fill="black"/>
<path d="M182.325 57.4213C181.963 62.2203 181.912 64.256 179.474 66.8107C175.802 70.6581 170.044 69.4774 168.978 64.7394C168.019 60.4748 168.774 53.3347 173.456 51.2431C174.447 50.7581 175.551 50.5469 176.651 50.6315C177.752 50.716 178.81 51.0932 179.715 51.7238C180.621 52.3544 181.34 53.2154 181.799 54.2173C182.258 55.2193 182.44 56.3256 182.325 57.4213Z" fill="#FFC3BD"/>
<path d="M178.847 52.2027C175.277 56.3962 182.998 59.582 183.513 64.3759C184.171 58.6914 182.845 48.9661 178.847 52.2027Z" fill="#263238"/>
<path d="M181.157 52.4735C176.195 53.7713 174.787 53.2929 173.675 53.1504C172.487 54.4379 165.005 57.41 166.224 53.3489C166.775 51.4812 170.019 46.8195 175.94 46.8755C181.861 46.9315 186.058 51.2013 181.157 52.4735Z" fill="#263238"/>
<path opacity="0.2" d="M179.321 53.0381H179.285C179.269 53.0334 179.253 53.0255 179.24 53.0147C179.226 53.0039 179.215 52.9904 179.207 52.9752C179.199 52.96 179.194 52.9433 179.193 52.9261C179.191 52.9089 179.193 52.8916 179.199 52.8752C179.474 51.9694 179.158 51.0126 178.306 50.178C176.873 48.7785 173.971 47.8268 171.192 48.7225C171.176 48.7288 171.159 48.7317 171.142 48.7309C171.125 48.7301 171.109 48.7257 171.094 48.718C171.079 48.7103 171.066 48.6994 171.055 48.6861C171.045 48.6728 171.038 48.6575 171.034 48.6411C171.028 48.6254 171.026 48.6087 171.027 48.5921C171.028 48.5756 171.033 48.5594 171.04 48.5446C171.048 48.5299 171.059 48.5168 171.071 48.5063C171.084 48.4957 171.099 48.4879 171.115 48.4833C173.987 47.552 176.996 48.5444 178.485 50.01C179.408 50.9108 179.744 51.9592 179.444 52.9617C179.433 52.9853 179.416 53.0052 179.394 53.0188C179.372 53.0325 179.347 53.0392 179.321 53.0381Z" fill="white"/>
<path opacity="0.2" d="M181.407 52.4328C181.374 52.4278 181.344 52.4101 181.324 52.3834C181.304 52.3568 181.296 52.3234 181.3 52.2904C181.514 50.9468 180.448 49.6491 178.587 48.9824C178.571 48.9771 178.556 48.9686 178.543 48.9574C178.53 48.9462 178.519 48.9325 178.512 48.9172C178.505 48.9019 178.5 48.8853 178.499 48.8683C178.498 48.8513 178.501 48.8343 178.507 48.8183C178.513 48.8023 178.522 48.7877 178.533 48.7752C178.545 48.7627 178.559 48.7527 178.574 48.7456C178.59 48.7386 178.606 48.7348 178.624 48.7344C178.641 48.734 178.658 48.737 178.673 48.7432C180.652 49.4506 181.784 50.8603 181.555 52.3311C181.548 52.3635 181.528 52.3919 181.501 52.4108C181.473 52.4296 181.44 52.4375 181.407 52.4328Z" fill="white"/>
<path d="M174.93 59.0291C174.93 59.4363 174.695 59.7721 174.42 59.7823C174.145 59.7925 173.961 59.4668 173.976 59.0647C173.992 58.6627 174.211 58.3268 174.486 58.3166C174.762 58.3065 174.956 58.6271 174.93 59.0291Z" fill="#263238"/>
<path d="M170.095 59.2772C170.095 59.6843 169.866 60.0202 169.585 60.0304C169.305 60.0405 169.131 59.7199 169.142 59.3128C169.152 58.9057 169.376 58.5749 169.652 58.5647C169.927 58.5545 170.111 58.8751 170.095 59.2772Z" fill="#263238"/>
<path d="M169.769 58.5802L168.81 58.3359C168.81 58.3359 169.289 59.0789 169.769 58.5802Z" fill="#263238"/>
<path d="M171.426 59.8945C171.045 60.8317 170.545 61.716 169.937 62.5256C170.139 62.6738 170.373 62.7726 170.62 62.8142C170.867 62.8557 171.121 62.8388 171.36 62.7648L171.426 59.8945Z" fill="#ED847E"/>
<path d="M173.441 64.0322C173.218 64.0419 172.994 64.0317 172.773 64.0017C172.757 64.0009 172.742 63.9965 172.728 63.9889C172.715 63.9813 172.703 63.9708 172.694 63.958C172.685 63.9452 172.68 63.9306 172.677 63.9152C172.675 63.8999 172.676 63.8842 172.681 63.8694C172.687 63.8384 172.705 63.8108 172.73 63.792C172.756 63.7731 172.787 63.7645 172.819 63.7676C173.318 63.8361 173.827 63.7916 174.307 63.6375C174.788 63.4833 175.227 63.2234 175.593 62.877C175.603 62.866 175.615 62.857 175.629 62.8507C175.642 62.8443 175.657 62.8407 175.672 62.84C175.687 62.8393 175.702 62.8415 175.716 62.8465C175.73 62.8516 175.743 62.8593 175.754 62.8694C175.765 62.8794 175.774 62.8915 175.78 62.905C175.786 62.9184 175.79 62.933 175.791 62.9479C175.791 62.9628 175.789 62.9777 175.784 62.9917C175.779 63.0057 175.771 63.0186 175.761 63.0297C175.136 63.6352 174.311 63.9917 173.441 64.0322Z" fill="#263238"/>
<path d="M183.177 62.3621C182.958 62.7683 182.656 63.1241 182.29 63.4064C181.925 63.6887 181.504 63.8912 181.055 64.0008C179.938 64.2247 179.525 62.9372 179.979 61.7005C180.382 60.586 181.443 59.1254 182.529 59.4664C183.615 59.8074 183.799 61.2883 183.177 62.3621Z" fill="#FFC3BD"/>
<path d="M175.44 56.4784C175.409 56.4776 175.379 56.4699 175.351 56.4558C175.324 56.4417 175.3 56.4216 175.282 56.397C175.11 56.1678 174.884 55.9844 174.624 55.8628C174.365 55.7412 174.079 55.6852 173.793 55.6998C173.763 55.704 173.733 55.7022 173.704 55.6944C173.675 55.6866 173.648 55.673 173.625 55.6544C173.601 55.6358 173.582 55.6126 173.568 55.5863C173.554 55.56 173.545 55.531 173.543 55.5013C173.541 55.4373 173.563 55.3749 173.604 55.3261C173.646 55.2773 173.704 55.2454 173.767 55.2367C174.129 55.2092 174.492 55.2732 174.823 55.4226C175.153 55.572 175.441 55.8021 175.659 56.0916C175.696 56.1425 175.711 56.2056 175.701 56.2674C175.692 56.3292 175.658 56.3849 175.608 56.4224C175.561 56.4619 175.501 56.4819 175.44 56.4784Z" fill="#263238"/>
<path d="M168.677 57.1669C168.648 57.1701 168.619 57.1672 168.59 57.1584C168.562 57.1496 168.536 57.1352 168.514 57.116C168.493 57.0947 168.475 57.0693 168.464 57.0414C168.452 57.0134 168.446 56.9835 168.446 56.9532C168.446 56.9229 168.452 56.8929 168.464 56.8649C168.475 56.837 168.493 56.8116 168.514 56.7903C168.751 56.4923 169.054 56.2528 169.399 56.0905C169.744 55.9281 170.122 55.8471 170.503 55.8539C170.533 55.8562 170.563 55.8649 170.589 55.8793C170.616 55.8938 170.639 55.9137 170.657 55.9377C170.676 55.9617 170.689 55.9894 170.696 56.0188C170.702 56.0482 170.703 56.0787 170.697 56.1084C170.686 56.1708 170.652 56.227 170.602 56.2664C170.553 56.3057 170.49 56.3256 170.427 56.3221C170.125 56.3207 169.827 56.3883 169.556 56.5197C169.284 56.6512 169.047 56.843 168.861 57.0804C168.838 57.1064 168.81 57.1274 168.778 57.1423C168.746 57.1571 168.712 57.1655 168.677 57.1669Z" fill="#263238"/>
<path d="M174.614 58.3302L173.675 58.0859C173.675 58.0859 174.14 58.829 174.614 58.3302Z" fill="#263238"/>
<path d="M172.186 78.2702C172.557 78.315 172.922 78.3951 173.278 78.5094C173.368 78.5382 173.446 78.5955 173.5 78.6727C173.554 78.7499 173.582 78.8426 173.579 78.9369C173.579 79.3644 173.548 80.1328 173.579 80.5145C173.579 81.054 171.906 81.6087 171.906 81.6087C171.906 81.6087 170.942 80.7079 171.146 79.9853C171.306 79.4786 171.505 78.9851 171.742 78.5094C171.783 78.4293 171.848 78.3635 171.927 78.3208C172.006 78.2781 172.097 78.2604 172.186 78.2702Z" fill="#263238"/>
<path d="M172.467 94.8249C171.819 89.9343 172.273 80.5754 172.859 80.728C172.487 80.6263 172.12 80.5143 171.748 80.4023C170.605 81.5474 168.81 87.7714 168.402 94.7791C168.863 96.9669 169.88 98.9997 171.355 100.682C171.324 100.652 171.962 97.4356 172.467 94.8249Z" fill="#263238"/>
<path d="M190.23 92.2248C190.491 92.5958 190.804 92.9281 191.158 93.2121C191.187 93.2328 191.22 93.2468 191.255 93.2528C191.699 93.3292 194.825 93.7617 196.829 91.5938C196.865 91.5598 196.888 91.5151 196.896 91.4666C196.983 90.8007 196.936 90.1243 196.758 89.4767C196.75 89.4392 196.732 89.4044 196.707 89.3752C196.683 89.346 196.651 89.3234 196.615 89.3093C196.579 89.2952 196.541 89.2901 196.502 89.2945C196.464 89.2988 196.428 89.3125 196.396 89.3342C195.565 89.8431 192.943 91.4258 190.388 91.8482C190.348 91.8544 190.309 91.8709 190.277 91.8961C190.244 91.9214 190.219 91.9545 190.203 91.9923C190.187 92.0301 190.181 92.0713 190.186 92.1121C190.191 92.1528 190.206 92.1916 190.23 92.2248Z" fill="white"/>
<path d="M145.896 114.897H208.457V110.657L145.896 105.568V114.897Z" fill="#263238"/>
<path d="M155.244 197.238H199.104L204.204 114.896H150.144L155.244 197.238Z" fill="#263238"/>
<path d="M190.592 155.097C190.717 147.698 184.808 141.598 177.393 141.472C169.978 141.347 163.865 147.244 163.739 154.643C163.614 162.043 169.523 168.143 176.938 168.268C184.353 168.393 190.466 162.496 190.592 155.097Z" fill="white"/>
<path d="M173 160.36V158.456C173.768 157.795 174.419 157.219 174.952 156.728C175.496 156.227 175.949 155.789 176.312 155.416C176.675 155.043 176.957 154.723 177.16 154.456C177.373 154.189 177.533 153.965 177.64 153.784C177.747 153.592 177.811 153.432 177.832 153.304C177.864 153.165 177.88 153.043 177.88 152.936C177.88 152.541 177.752 152.243 177.496 152.04C177.24 151.827 176.883 151.72 176.424 151.72C175.816 151.72 175.251 151.816 174.728 152.008C174.205 152.189 173.747 152.483 173.352 152.888V150.072C173.491 149.944 173.672 149.816 173.896 149.688C174.12 149.56 174.376 149.448 174.664 149.352C174.963 149.245 175.283 149.16 175.624 149.096C175.976 149.032 176.344 149 176.728 149C177.389 149 177.965 149.085 178.456 149.256C178.947 149.416 179.352 149.645 179.672 149.944C179.992 150.232 180.232 150.579 180.392 150.984C180.552 151.389 180.632 151.832 180.632 152.312C180.632 152.749 180.568 153.171 180.44 153.576C180.323 153.981 180.131 154.387 179.864 154.792C179.608 155.197 179.267 155.624 178.84 156.072C178.424 156.509 177.917 156.984 177.32 157.496L176.968 157.8H180.888V160.36H173Z" fill="#FBE0D0"/>
<path opacity="0.2" d="M150.532 121.126L204.097 116.668L204.204 114.896H150.144L150.532 121.126Z" fill="black"/>
<path d="M150.45 104.526C150.406 104.525 150.362 104.513 150.324 104.491C150.285 104.468 150.253 104.437 150.231 104.399C150.19 104.332 146.319 97.7012 153.107 93.406C153.135 93.3876 153.167 93.375 153.2 93.3691C153.234 93.3632 153.268 93.3641 153.3 93.3717C153.333 93.3793 153.364 93.3935 153.392 93.4134C153.419 93.4333 153.442 93.4585 153.459 93.4874C153.495 93.5441 153.508 93.613 153.493 93.6788C153.479 93.7446 153.439 93.8021 153.382 93.8386C147.007 97.8692 150.516 103.885 150.669 104.139C150.691 104.178 150.703 104.222 150.703 104.267C150.703 104.311 150.691 104.355 150.669 104.394C150.647 104.433 150.615 104.466 150.577 104.489C150.538 104.512 150.495 104.524 150.45 104.526Z" fill="#263238"/>
<path d="M155.04 106.312L146.538 105.625C146.538 105.625 147.558 103.9 150.924 104.271C154.29 104.643 155.04 106.312 155.04 106.312Z" fill="#263238"/>
<path d="M152.852 93.8529C152.97 94.0185 153.149 94.1308 153.35 94.1651C153.55 94.1995 153.757 94.1531 153.923 94.0361L155.162 93.1557C155.328 93.038 155.441 92.8594 155.475 92.6591C155.51 92.4589 155.463 92.2531 155.346 92.087C155.228 91.9213 155.049 91.8091 154.848 91.7747C154.648 91.7404 154.442 91.7868 154.275 91.9037L153.031 92.7893C152.867 92.9077 152.756 93.0856 152.723 93.2846C152.69 93.4836 152.736 93.6877 152.852 93.8529Z" fill="#263238"/>
</svg>
