<svg width="255" height="203" viewBox="0 0 255 203" fill="none" xmlns="http://www.w3.org/2000/svg">
<path d="M255 167.111H0V167.239H255V167.111Z" fill="#EBEBEB"/>
<path d="M88.3422 170.369H76.5204V170.497H88.3422V170.369Z" fill="#EBEBEB"/>
<path d="M233.973 173.105H205.071V173.233H233.973V173.105Z" fill="#EBEBEB"/>
<path d="M50.6889 173.105H21.7872V173.233H50.6889V173.105Z" fill="#EBEBEB"/>
<path d="M120.87 144.347H22.3941C21.6226 144.346 20.8832 144.038 20.3382 143.492C19.7932 142.946 19.4871 142.205 19.4871 141.433V2.88899C19.4938 2.12133 19.8028 1.38732 20.3471 0.846391C20.8914 0.305466 21.627 0.00131505 22.3941 0H120.87C121.642 0 122.383 0.307064 122.929 0.85364C123.475 1.40022 123.782 2.14153 123.782 2.91451V141.433C123.782 142.206 123.475 142.947 122.929 143.494C122.383 144.04 121.642 144.347 120.87 144.347ZM22.3941 0.102085C21.6564 0.103437 20.9495 0.397652 20.4283 0.920152C19.9072 1.44265 19.6146 2.15074 19.6146 2.88899V141.433C19.6146 142.171 19.9072 142.879 20.4283 143.402C20.9495 143.924 21.6564 144.218 22.3941 144.22H120.87C121.608 144.217 122.314 143.923 122.836 143.401C123.358 142.878 123.652 142.171 123.655 141.433V2.88899C123.652 2.15068 123.358 1.44339 122.836 0.921322C122.314 0.399258 121.608 0.104774 120.87 0.102085H22.3941Z" fill="#EBEBEB"/>
<path d="M231.188 144.347H132.707C131.936 144.345 131.196 144.037 130.651 143.491C130.105 142.945 129.798 142.205 129.795 141.433V2.88899C129.803 2.12086 130.113 1.38686 130.658 0.846072C131.204 0.305288 131.94 0.0013007 132.707 0H231.188C231.954 0.00265649 232.689 0.307401 233.232 0.848183C233.775 1.38896 234.083 2.12221 234.09 2.88899V141.433C234.091 141.815 234.016 142.193 233.871 142.547C233.725 142.9 233.512 143.221 233.242 143.492C232.973 143.762 232.653 143.977 232.3 144.124C231.948 144.271 231.57 144.347 231.188 144.347ZM132.707 0.102085C131.969 0.104774 131.263 0.399258 130.741 0.921322C130.219 1.44339 129.925 2.15068 129.923 2.88899V141.433C129.925 142.171 130.219 142.878 130.741 143.401C131.263 143.923 131.969 144.217 132.707 144.22H231.188C231.926 144.217 232.633 143.923 233.154 143.401C233.676 142.878 233.97 142.171 233.973 141.433V2.88899C233.97 2.15068 233.676 1.44339 233.154 0.921322C232.633 0.399258 231.926 0.104774 231.188 0.102085H132.707Z" fill="#EBEBEB"/>
<path d="M109.222 95.2598H37.429V167.112H109.222V95.2598Z" fill="#E0E0E0"/>
<path d="M96.4818 95.2598H30.549V167.112H96.4818V95.2598Z" fill="#EBEBEB"/>
<path d="M93.7431 99.1504H33.2061V118.771H93.7431V99.1504Z" fill="#F5F5F5"/>
<path d="M93.7431 121.857H33.2061V141.478H93.7431V121.857Z" fill="#F5F5F5"/>
<path d="M93.7431 143.607H33.2061V163.228H93.7431V143.607Z" fill="#F5F5F5"/>
<path d="M64.1172 107.872C64.1172 108.296 63.9916 108.711 63.7563 109.063C63.5209 109.416 63.1864 109.691 62.795 109.853C62.4036 110.015 61.9729 110.058 61.5574 109.975C61.1419 109.892 60.7602 109.688 60.4606 109.388C60.1611 109.088 59.9571 108.706 59.8744 108.291C59.7918 107.875 59.8342 107.444 59.9963 107.052C60.1584 106.66 60.433 106.325 60.7852 106.09C61.1375 105.854 61.5516 105.729 61.9752 105.729C62.5433 105.729 63.0882 105.954 63.4899 106.356C63.8916 106.758 64.1172 107.304 64.1172 107.872Z" fill="#FAFAFA"/>
<path d="M63.5154 151.432C63.5154 151.735 63.4257 152.031 63.2576 152.282C63.0895 152.534 62.8505 152.73 62.571 152.846C62.2914 152.962 61.9837 152.993 61.687 152.933C61.3902 152.874 61.1175 152.729 60.9036 152.514C60.6896 152.3 60.5439 152.027 60.4848 151.73C60.4258 151.433 60.4561 151.125 60.5719 150.846C60.6877 150.566 60.8838 150.327 61.1354 150.158C61.387 149.99 61.6828 149.9 61.9854 149.9C62.3912 149.9 62.7804 150.062 63.0673 150.349C63.3543 150.636 63.5154 151.026 63.5154 151.432Z" fill="#FAFAFA"/>
<path d="M63.5154 131.373C63.5154 131.676 63.4257 131.972 63.2576 132.224C63.0895 132.476 62.8505 132.672 62.571 132.788C62.2914 132.904 61.9837 132.934 61.687 132.875C61.3902 132.816 61.1175 132.67 60.9036 132.456C60.6896 132.242 60.5439 131.969 60.4848 131.672C60.4258 131.375 60.4561 131.067 60.5719 130.787C60.6877 130.507 60.8838 130.268 61.1354 130.1C61.387 129.932 61.6828 129.842 61.9854 129.842C62.3912 129.842 62.7804 130.003 63.0673 130.29C63.3543 130.577 63.5154 130.967 63.5154 131.373Z" fill="#FAFAFA"/>
<path d="M118.198 6.98828H34.731V62.0475H118.198V6.98828Z" fill="#E0E0E0"/>
<path d="M116.586 6.98828H33.1194V62.0475H116.586V6.98828Z" fill="#F0F0F0"/>
<path d="M113.516 9.61133H35.5164V59.8573H113.516V9.61133Z" fill="#FAFAFA"/>
<path d="M110.884 10.3262L88.6941 59.8575H79.5753L100.919 10.3262H110.884Z" fill="white"/>
<path d="M92.7027 10.3262L70.1658 59.8575H59.4762L83.0382 10.3262H92.7027Z" fill="white"/>
<path d="M118.085 6.98828H33.1194V10.3264H118.085V6.98828Z" fill="#E0E0E0"/>
<path d="M118.085 11.1875H33.1194V14.5257H118.085V11.1875Z" fill="#E0E0E0"/>
<path d="M118.085 15.3887H33.1194V18.7268H118.085V15.3887Z" fill="#E0E0E0"/>
<path d="M118.085 19.584H33.1194V22.9221H118.085V19.584Z" fill="#E0E0E0"/>
<path d="M118.085 23.7852H33.1194V27.1233H118.085V23.7852Z" fill="#E0E0E0"/>
<path d="M120.62 62.0469H31.2987V66.2017H120.62V62.0469Z" fill="#E0E0E0"/>
<path d="M223.977 124.328V167.112H208.87L208.065 162.829H149.369V124.328H223.977Z" fill="#E0E0E0"/>
<path d="M213.629 124.328V167.112H208.87L208.065 162.829H148.201L147.252 167.112H139.021V124.328H213.629Z" fill="#EBEBEB"/>
<path d="M209.421 127.33H142.81V142.071H209.421V127.33Z" stroke="#FAFAFA" stroke-miterlimit="10"/>
<path d="M209.421 145.006H142.81V159.895H209.421V145.006Z" stroke="#FAFAFA" stroke-miterlimit="10"/>
<path d="M222.635 4.8125H192.683V45.3553H222.635V4.8125Z" fill="#E0E0E0"/>
<path d="M221.136 4.78711H191.184V45.3299H221.136V4.78711Z" fill="#E6E6E6"/>
<path d="M219.581 6.30859H192.683V43.8706H219.581V6.30859Z" fill="#FAFAFA"/>
<path d="M216.837 35.7188H196.279V36.5967H216.837V35.7188Z" fill="#E0E0E0"/>
<path d="M216.837 37.9609H196.279V38.8389H216.837V37.9609Z" fill="#E0E0E0"/>
<path d="M216.837 40.2012H196.279V41.0791H216.837V40.2012Z" fill="#E0E0E0"/>
<path d="M213.899 20.2024C213.899 21.6547 213.469 23.0743 212.663 24.282C211.857 25.4896 210.711 26.4311 209.371 26.9873C208.031 27.5435 206.556 27.6896 205.132 27.407C203.709 27.1244 202.401 26.4259 201.374 25.3997C200.348 24.3735 199.648 23.0657 199.364 21.6416C199.079 20.2175 199.223 18.741 199.777 17.3987C200.331 16.0564 201.27 14.9085 202.476 14.1002C203.681 13.2919 205.099 12.8594 206.55 12.8574C207.515 12.8561 208.47 13.0451 209.362 13.4136C210.253 13.7821 211.063 14.3229 211.746 15.0051C212.429 15.6873 212.97 16.4974 213.34 17.3892C213.709 18.281 213.899 19.237 213.899 20.2024V20.2024Z" stroke="#E0E0E0" stroke-miterlimit="10"/>
<path d="M210.91 55.8242H185.334V81.4219H210.91V55.8242Z" fill="#E0E0E0"/>
<path d="M208.723 55.8242H183.146V81.4219H208.723V55.8242Z" fill="#EBEBEB"/>
<path d="M206.958 57.5957H184.916V79.6561H206.958V57.5957Z" fill="#FAFAFA"/>
<path d="M201.781 62.7715H190.092V74.4704H201.781V62.7715Z" fill="#E0E0E0"/>
<path d="M126.521 202.999C173.604 202.999 211.772 200.111 211.772 196.547C211.772 192.984 173.604 190.096 126.521 190.096C79.4376 190.096 41.2692 192.984 41.2692 196.547C41.2692 200.111 79.4376 202.999 126.521 202.999Z" fill="#F5F5F5"/>
<path d="M81.8549 162.422H50.4797V197.86H81.8549V162.422Z" fill="#F3B36A"/>
<path d="M97.5426 162.422H66.1674V197.86H97.5426V162.422Z" fill="#F3B36A"/>
<path opacity="0.7" d="M81.8549 162.422H50.4797V197.86H81.8549V162.422Z" fill="white"/>
<path opacity="0.2" d="M97.5374 162.422H81.8192V197.86H97.5374V162.422Z" fill="white"/>
<path d="M89.35 187.216C91.5548 187.165 93.27 184.034 93.1809 180.224C93.0919 176.414 91.2323 173.367 89.0275 173.418C86.8227 173.47 85.1075 176.601 85.1965 180.411C85.2856 184.221 87.1451 187.268 89.35 187.216Z" fill="white"/>
<path d="M91.596 179.153L89.8926 179.194L89.8263 176.305L88.5105 176.335L88.5768 179.224L86.7051 179.27L86.7561 181.521L88.6278 181.475L88.6992 184.339L90.015 184.308L89.9487 181.445L91.6521 181.404L91.596 179.153Z" fill="#4AA29A"/>
<path d="M69.9873 162.422H63.6327V168.782H69.9873V162.422Z" fill="#F5F5F5"/>
<path d="M69.9873 175.127H63.6327V197.861H69.9873V175.127Z" fill="#F5F5F5"/>
<path d="M91.9071 133.354H66.1674V162.432H91.9071V133.354Z" fill="#F3B36A"/>
<path d="M104.779 133.354H79.0398V162.432H104.779V133.354Z" fill="#F3B36A"/>
<path opacity="0.7" d="M87.8934 133.354H66.1674V162.432H87.8934V133.354Z" fill="white"/>
<path opacity="0.2" d="M104.779 133.354H87.8933V162.432H104.779V133.354Z" fill="white"/>
<path d="M99.608 147.967C99.6845 151.09 98.2769 153.663 96.4664 153.704C94.6559 153.745 93.131 151.244 93.0596 148.12C92.9882 144.996 94.3958 142.408 96.2012 142.408C98.0066 142.408 99.5366 144.838 99.608 147.967Z" fill="white"/>
<path d="M98.3229 147.083L96.9255 147.114L96.8694 144.74L95.7882 144.766L95.8443 147.139L94.3041 147.175L94.35 149.023L95.8851 148.987L95.9412 151.34L97.0224 151.309L96.9663 148.961L98.3637 148.931L98.3229 147.083Z" fill="#4AA29A"/>
<path d="M76.959 133.354H71.7417V162.432H76.959V133.354Z" fill="#F5F5F5"/>
<path d="M121.579 93.9667C121.579 93.9667 114.067 129.574 113.419 141.385C112.771 153.196 115.852 182.877 115.852 182.877L125.45 184.408L127.281 146.53L131.488 117.655C131.488 117.655 135.895 141.135 137.792 146.632C139.689 152.129 148.742 168.07 156.218 180.805L162.644 176.094C162.644 176.094 150.634 141.722 148.583 135.01C146.533 128.298 147.92 99.8417 141.596 91.7617L121.579 93.9667Z" fill="#4AA29A"/>
<path opacity="0.4" d="M121.579 93.9667C121.579 93.9667 114.067 129.574 113.419 141.385C112.771 153.196 115.852 182.877 115.852 182.877L125.45 184.408L127.281 146.53L131.488 117.655C131.488 117.655 135.895 141.135 137.792 146.632C139.689 152.129 148.742 168.07 156.218 180.805L162.644 176.094C162.644 176.094 150.634 141.722 148.583 135.01C146.533 128.298 147.92 99.8417 141.596 91.7617L121.579 93.9667Z" fill="white"/>
<path d="M123.364 192.734C123.318 193.02 118.34 191.938 118.34 191.938L118.004 187.017L117.871 185.088L122.971 184.639C122.971 184.639 123.058 186.109 123.15 187.793C123.252 189.998 123.42 192.566 123.364 192.734Z" fill="#FFA8A7"/>
<path opacity="0.2" d="M123.129 187.793L118.004 187.017L117.871 185.088L122.971 184.639C122.971 184.639 123.038 186.109 123.129 187.793Z" fill="black"/>
<path d="M114.694 193.668L114.49 193.387C114.429 193.3 112.96 191.243 113.174 190.232C113.194 190.134 113.236 190.042 113.296 189.961C113.355 189.881 113.432 189.815 113.521 189.768C113.593 189.724 113.676 189.701 113.761 189.701C113.845 189.701 113.928 189.724 114 189.768C114.73 190.212 114.704 193.009 114.699 193.341L114.694 193.668ZM113.776 189.931C113.724 189.933 113.673 189.947 113.628 189.972C113.57 190.005 113.519 190.049 113.48 190.103C113.44 190.157 113.413 190.218 113.399 190.283C113.24 190.978 114.067 192.325 114.47 192.948C114.47 191.963 114.337 190.238 113.883 189.962C113.851 189.942 113.814 189.931 113.776 189.931Z" fill="#4AA29A"/>
<path d="M114.179 193.7L113.883 193.577C113.567 193.45 110.792 192.291 110.619 191.296C110.603 191.194 110.614 191.091 110.651 190.995C110.687 190.899 110.749 190.814 110.828 190.75C110.912 190.672 111.013 190.615 111.123 190.584C111.233 190.553 111.349 190.548 111.461 190.571C112.583 190.765 113.97 193.307 114.011 193.414L114.179 193.7ZM111.318 190.785C111.193 190.785 111.074 190.835 110.986 190.923C110.934 190.961 110.894 191.013 110.87 191.072C110.845 191.132 110.838 191.197 110.849 191.26C110.961 191.913 112.695 192.791 113.654 193.23C113.256 192.551 112.226 190.938 111.42 190.795L111.318 190.785Z" fill="#4AA29A"/>
<path d="M123.201 192.458L118.05 191.647C117.73 191.596 117.402 191.667 117.132 191.846C115.937 192.653 114.593 193.212 113.179 193.489C110.976 193.801 109.018 193.367 108.834 194C108.73 194.411 108.767 194.845 108.939 195.233C109.111 195.621 109.408 195.94 109.783 196.138C110.507 196.516 119.381 197.894 123.124 198.466C123.32 198.495 123.52 198.48 123.709 198.421C123.898 198.361 124.072 198.26 124.216 198.123C124.36 197.987 124.471 197.82 124.54 197.634C124.61 197.449 124.637 197.25 124.619 197.052L124.297 193.632C124.27 193.343 124.147 193.071 123.949 192.858C123.75 192.646 123.487 192.505 123.201 192.458Z" fill="#222221"/>
<path d="M114.582 181.699L115.388 185.946L125.894 186.946L126.205 182.649L114.582 181.699Z" fill="#4AA29A"/>
<path d="M165.872 181.424C166.015 181.679 161.446 183.93 161.446 183.93L158.416 180.597L156.83 178.846L158.442 177.315L160.533 175.34C160.533 175.34 160.747 175.585 161.099 175.973L162.955 178.065C164.332 179.627 165.801 181.296 165.872 181.424Z" fill="#FFA8A7"/>
<path opacity="0.2" d="M162.955 178.07L158.416 180.597L156.83 178.846L158.442 177.315L161.099 175.973L162.955 178.07Z" fill="black"/>
<path d="M159.962 185.966L159.696 185.843C159.599 185.802 157.361 184.777 157.146 183.873C157.127 183.783 157.129 183.689 157.154 183.6C157.179 183.511 157.226 183.43 157.289 183.363C157.357 183.275 157.448 183.207 157.551 183.166C157.654 183.125 157.766 183.112 157.876 183.128C158.783 183.276 159.727 185.455 159.834 185.706L159.962 185.966ZM157.794 183.342C157.732 183.344 157.672 183.359 157.617 183.388C157.562 183.416 157.515 183.456 157.478 183.506C157.437 183.547 157.408 183.599 157.393 183.655C157.378 183.711 157.377 183.771 157.391 183.827C157.513 184.399 158.778 185.134 159.508 185.501C159.156 184.746 158.432 183.46 157.855 183.347L157.794 183.342Z" fill="#4AA29A"/>
<path d="M156.606 187.039C156.147 187.087 155.685 186.969 155.305 186.707C155.209 186.61 155.142 186.487 155.112 186.354C155.082 186.22 155.091 186.08 155.137 185.951C155.173 185.794 155.245 185.646 155.349 185.522C155.453 185.398 155.585 185.3 155.734 185.237C157.065 184.635 160.038 186.151 160.166 186.217L160.421 186.35L160.145 186.431C158.992 186.768 157.805 186.972 156.606 187.039ZM156.509 185.324C156.275 185.316 156.042 185.358 155.826 185.446C155.709 185.496 155.606 185.573 155.526 185.671C155.445 185.768 155.389 185.884 155.361 186.008C155.331 186.094 155.325 186.187 155.343 186.277C155.36 186.367 155.402 186.45 155.463 186.518C156.075 187.11 158.569 186.595 159.788 186.268C159.166 185.997 157.59 185.324 156.509 185.324Z" fill="#4AA29A"/>
<path d="M165.577 181.24L161.038 183.792C160.754 183.949 160.54 184.208 160.441 184.517C160.006 185.892 159.298 187.164 158.36 188.259C156.83 189.877 155.025 190.755 155.275 191.362C155.446 191.749 155.744 192.067 156.119 192.265C156.493 192.462 156.924 192.527 157.34 192.449C158.141 192.296 165.954 187.855 169.243 185.987C169.416 185.888 169.564 185.751 169.675 185.587C169.787 185.422 169.859 185.234 169.887 185.037C169.916 184.841 169.898 184.64 169.837 184.451C169.776 184.261 169.672 184.089 169.534 183.946L167.163 181.46C166.959 181.254 166.694 181.12 166.407 181.081C166.12 181.041 165.828 181.097 165.577 181.24Z" fill="#222221"/>
<path d="M152.439 178.611L155.708 181.449L164.567 175.701L162.144 172.139L152.439 178.611Z" fill="#4AA29A"/>
<path d="M132.233 49.5092C132.513 49.351 138.353 49.0856 143.963 50.2647C149.573 51.4437 139.577 58.3498 139.577 58.3498L136.446 70.8959L130.708 70.947L130.014 53.1332L132.233 49.5092Z" fill="#EBEBEB"/>
<path d="M143.958 50.2817L131.789 69.4991L133.136 49.3477C133.136 49.3477 128.714 49.4599 127.342 49.8581C125.97 50.2562 124.792 53.4617 123.808 57.8513C122.823 62.2409 121.329 72.7658 121.329 72.7658L114.337 131.464C114.337 131.464 138.241 136.569 149.501 132.603C149.501 132.603 145.268 79.8811 145.967 76.6246C146.666 73.3681 148.925 61.4549 148.925 61.4549C148.925 61.4549 152.057 55.5085 150.695 53.7577C149.333 52.007 143.958 50.2817 143.958 50.2817Z" fill="#4AA29A"/>
<path d="M129.611 87.2559L131.345 133.837" stroke="white" stroke-width="0.75" stroke-linecap="round" stroke-linejoin="round"/>
<path d="M128.134 50.8564L85.9479 65.2461L96.5728 96.4468L138.759 82.0572L128.134 50.8564Z" fill="#F3B36A"/>
<path d="M128.132 50.8567L96.5685 96.4476L90.6423 93.7577L80.019 62.5607L122.206 48.1719L128.132 50.8567Z" fill="#F3B36A"/>
<path opacity="0.7" d="M128.132 50.8567L85.9452 65.2455L96.5685 96.4476L90.6423 93.7577L80.019 62.5607L122.206 48.1719L128.132 50.8567Z" fill="white"/>
<path opacity="0.46" d="M128.134 50.8564L85.9479 65.2461L96.5728 96.4468L138.759 82.0572L128.134 50.8564Z" fill="white"/>
<path d="M119.108 82.8843C124.194 78.7197 124.944 71.2173 120.783 66.1272C116.622 61.0371 109.125 60.2868 104.039 64.4515C98.9535 68.6161 98.2039 76.1185 102.365 81.2086C106.526 86.2987 114.022 87.049 119.108 82.8843Z" fill="#FAFAFA"/>
<path d="M118.718 69.5393L113.868 71.1267L112.307 66.3594L108.559 67.5895L110.119 72.3568L104.785 74.1025L105.993 77.8133L111.333 76.0625L112.878 80.789L116.627 79.5589L115.082 74.8324L119.932 73.245L118.718 69.5393Z" fill="#4AA29A"/>
<path d="M133.11 24.5708V17.1441C133.11 17.1441 141.234 13.4844 149.002 20.957L145.432 28.1642L133.11 24.5708Z" fill="#4AA29A"/>
<path d="M140.913 18.2308L139.992 18.0488L139.436 20.8681L140.357 21.05L140.913 18.2308Z" fill="white"/>
<path d="M138.868 18.8091L138.686 19.7305L141.503 20.2872L141.685 19.3658L138.868 18.8091Z" fill="white"/>
<path d="M144.84 38.2814C143.356 40.4201 141.994 40.124 141.994 40.124C141.548 40.9361 140.967 41.6662 140.276 42.2831C140.031 48.9543 141.994 50.7561 141.994 50.7561C139.954 53.9054 137.435 53.8186 134.885 52.8999C132.335 51.9811 132.202 49.9803 132.202 49.9803C134.507 48.8471 134.538 47.0709 134.207 45.8561C134.074 45.3859 133.879 44.9359 133.625 44.5188C129.295 43.3295 128.046 39.1746 128.342 35.2546C128.525 32.877 129.107 30.5473 130.065 28.3639L132.615 24.5L142.586 26.5417L143.121 31.8297L141.081 35.7497C144.677 33.0904 146.339 36.1172 144.84 38.2814Z" fill="#FFA8A7"/>
<path d="M133.11 38.2289C132.868 38.2302 132.626 38.2132 132.386 38.1779C132.363 38.1738 132.341 38.1653 132.321 38.1527C132.301 38.1402 132.284 38.1238 132.27 38.1046C132.257 38.0854 132.247 38.0638 132.242 38.0409C132.237 38.0179 132.236 37.9943 132.24 37.9711C132.244 37.948 132.253 37.9259 132.266 37.9061C132.278 37.8863 132.294 37.8691 132.314 37.8556C132.333 37.8421 132.354 37.8325 132.377 37.8273C132.4 37.8222 132.424 37.8216 132.447 37.8257C132.447 37.8257 134.997 38.2697 136.093 36.3812C136.105 36.3607 136.121 36.3428 136.139 36.3284C136.158 36.314 136.179 36.3034 136.202 36.2973C136.225 36.2911 136.249 36.2895 136.272 36.2925C136.295 36.2955 136.318 36.3031 136.338 36.3148C136.359 36.3266 136.377 36.3422 136.391 36.3609C136.405 36.3795 136.416 36.4008 136.422 36.4236C136.428 36.4463 136.43 36.4701 136.427 36.4934C136.424 36.5168 136.416 36.5394 136.405 36.5598C135.563 37.9992 134.008 38.2289 133.11 38.2289Z" fill="#263238"/>
<path d="M132.411 35.8971C132.518 35.8971 132.952 32.6406 132.952 32.6406L130.636 35.4275C130.875 35.6392 131.16 35.7919 131.468 35.8734C131.776 35.955 132.099 35.9631 132.411 35.8971Z" fill="#F28F8F"/>
<path d="M135.997 32.7065C135.941 33.1098 135.691 33.4109 135.441 33.3752C135.191 33.3395 135.033 32.9822 135.089 32.5789C135.145 32.1757 135.395 31.8694 135.645 31.9052C135.895 31.9409 136.053 32.2982 135.997 32.7065Z" fill="#263238"/>
<path d="M131.07 32.2582C131.014 32.6614 130.764 32.9625 130.514 32.9268C130.264 32.8911 130.106 32.5389 130.162 32.1306C130.218 31.7222 130.468 31.4262 130.718 31.4619C130.968 31.4976 131.152 31.8498 131.07 32.2582Z" fill="#263238"/>
<path d="M137.996 30.8794C137.951 30.8789 137.907 30.8657 137.869 30.8414C137.831 30.817 137.801 30.7824 137.782 30.7416C137.175 29.4503 136.318 29.6187 136.282 29.6238C136.223 29.6326 136.163 29.6189 136.113 29.5854C136.063 29.552 136.028 29.5011 136.014 29.4429C136 29.3847 136.008 29.3233 136.037 29.2708C136.066 29.2183 136.113 29.1786 136.17 29.1593C136.221 29.1593 137.435 28.8735 138.21 30.5375C138.224 30.5662 138.232 30.5974 138.233 30.6293C138.235 30.6611 138.23 30.6929 138.219 30.7229C138.208 30.7528 138.191 30.7803 138.169 30.8036C138.148 30.827 138.122 30.8458 138.093 30.859C138.062 30.8728 138.029 30.8798 137.996 30.8794Z" fill="#263238"/>
<path d="M129.504 30.0225C129.474 30.0228 129.444 30.017 129.416 30.0057C129.388 29.9943 129.363 29.9775 129.341 29.9562C129.319 29.9343 129.301 29.9081 129.289 29.8792C129.276 29.8503 129.27 29.8192 129.27 29.7878C129.27 29.7563 129.276 29.7252 129.289 29.6963C129.301 29.6674 129.319 29.6412 129.341 29.6193C129.402 29.5581 130.769 28.1595 132.493 28.8486C132.523 28.8599 132.55 28.8769 132.572 28.8987C132.595 28.9205 132.614 28.9466 132.627 28.9756C132.639 29.0045 132.646 29.0357 132.647 29.0673C132.648 29.099 132.642 29.1304 132.631 29.1599C132.606 29.2191 132.559 29.2661 132.5 29.2909C132.441 29.3158 132.374 29.3164 132.314 29.2926C130.881 28.721 129.703 29.9358 129.688 29.9511C129.665 29.9762 129.636 29.9957 129.604 30.0081C129.573 30.0204 129.538 30.0254 129.504 30.0225Z" fill="#263238"/>
<path opacity="0.2" d="M135.849 44.248C135.45 44.9055 134.89 45.4501 134.222 45.8303C134.09 45.3601 133.894 44.9102 133.64 44.493C134.385 44.565 135.137 44.4816 135.849 44.248Z" fill="black"/>
<path d="M142.112 26.9907C142.112 26.9907 133.508 29.2927 130.081 28.0728C126.653 26.8529 127.852 22.6368 128.316 22.2387C128.948 21.6976 130.325 23.9333 130.325 23.9333C130.325 23.9333 129.198 21.5394 130.081 21.0137C130.963 20.4879 131.101 24.0762 134.314 23.6985C137.527 23.3208 146.431 20.8963 146.957 26.5007C147.272 29.8583 146.729 33.241 145.381 36.3314C145.381 36.3314 144.906 33.2689 141.117 35.7036C141.117 35.7036 139.857 34.8053 141.117 33.57C143.31 31.4314 142.545 28.619 142.112 26.9907Z" fill="#263238"/>
<path d="M141.199 26.5414C141.199 26.5414 139.704 31.4312 142.453 31.1964C145.202 30.9616 143.514 25.8574 143.514 25.8574L141.199 26.5414Z" fill="#263238"/>
<path d="M133.972 23.9892C133.972 23.9892 132.177 22.6672 132.636 21.7076C133.095 20.748 133.809 23.0654 137.384 22.6417C140.959 22.2181 145.202 21.8965 145.988 24.27C146.773 26.6434 138.848 24.8365 138.848 24.8365L133.962 25.888L133.972 23.9892Z" fill="#263238"/>
<path d="M133.35 82.4116L129.897 81.4367C129.897 81.4367 125.817 81.1866 125.475 82.7433C125.134 84.3001 124.965 86.985 126.587 87.1993C128.209 87.4137 133.258 87.0973 133.258 87.0973L133.35 82.4116Z" fill="#FFA8A7"/>
<path d="M145.131 58.6981L150.695 53.7266C150.695 53.7266 157.585 69.0392 157.973 74.9244C158.36 80.8096 153.816 83.4536 149.966 84.4438C146.115 85.434 133.355 88.0729 133.355 88.0729L132.666 80.9678C132.666 80.9678 146.258 78.6454 151.49 76.2413C151.47 76.2566 146.763 62.5518 145.131 58.6981Z" fill="#4AA29A"/>
<path opacity="0.1" d="M133.355 88.0871L146.217 85.3359L146.253 87.2755L133.355 88.0871Z" fill="black"/>
<path d="M134.895 52.873L136.359 56.742C138.684 55.0285 140.824 53.0766 142.744 50.9181L140.622 47.3809C140.622 47.3809 138.679 51.2499 134.895 52.873Z" fill="#FAFAFA"/>
<path d="M133.824 48.6426C133.866 50.1146 134.232 51.5593 134.895 52.874L133.299 56.4469C132.491 55.6278 131.875 54.6391 131.495 53.5524C131.116 52.4657 130.983 51.3082 131.106 50.1636L133.824 48.6426Z" fill="#FAFAFA"/>
</svg>
