<svg width="255" height="209" viewBox="0 0 255 209" fill="none" xmlns="http://www.w3.org/2000/svg">
<path d="M39.2695 189.707C88.6227 215.432 168.634 215.432 217.987 189.707C267.341 163.982 267.335 122.271 217.987 96.5457C168.64 70.8207 88.6227 70.8207 39.2695 96.5457C-10.0838 122.271 -10.0779 164 39.2695 189.707Z" fill="#F5F5F5"/>
<path d="M229.656 145.069C222.24 148.595 210.218 148.595 202.791 145.069C195.363 141.542 195.369 135.818 202.791 132.291C210.212 128.765 222.228 128.765 229.656 132.291C237.083 135.818 237.077 141.536 229.656 145.069Z" fill="#E0E0E0"/>
<path d="M71.6886 79.5906C62.2939 85.0036 54.6838 98.1629 54.6838 108.977C54.6838 119.791 62.2939 124.182 71.6886 118.775C81.0833 113.368 88.6934 100.202 88.6934 89.3881C88.6934 78.5738 81.0774 74.1776 71.6886 79.5906ZM70.2514 110.37C69.0927 111.099 67.767 111.522 66.3993 111.598C63.1008 111.598 62.7415 107.714 62.7415 106.044C62.7415 99.5206 67.5243 91.2629 73.1847 88.001C74.3405 87.2703 75.6647 86.8474 77.0309 86.7727C80.3353 86.7727 80.6887 90.6576 80.6887 92.3267C80.6592 98.8447 75.8824 107.108 70.2514 110.37Z" fill="#5CABA4"/>
<path d="M77.4727 86.8067C77.3165 86.7856 77.1591 86.7738 77.0015 86.7715C76.1741 86.7996 75.3592 86.981 74.5983 87.3063C74.6735 87.8339 74.7109 88.3662 74.7102 88.8991C74.7102 95.417 69.9275 103.681 64.2671 106.937C63.8047 107.205 63.3222 107.436 62.824 107.63C62.9322 108.612 63.2801 109.552 63.8371 110.369C64.1265 110.765 64.5087 111.083 64.9503 111.298C65.3918 111.512 65.8792 111.615 66.3698 111.597C67.7381 111.524 69.0644 111.101 70.222 110.369C75.8824 107.107 80.6592 98.8435 80.6592 92.3255C80.6592 90.7387 80.3353 87.1594 77.4727 86.8067Z" fill="#43928B"/>
<path d="M83.6867 78.3905L75.2521 73.5299C72.1598 71.7256 67.8953 71.9725 63.1832 74.6643C53.759 80.0773 46.1785 93.2366 46.1785 104.051C46.1785 109.399 48.0397 113.167 51.0555 114.965L51.1379 115.024H51.1851L59.5019 119.814H59.5431C58.0959 118.914 56.9354 117.622 56.1976 116.088C55.5508 114.767 55.1193 113.353 54.9194 111.897C54.7658 110.909 54.6871 109.911 54.6838 108.911C54.6838 98.0912 62.2938 84.9319 71.6885 79.5248C72.5576 79.0277 73.4634 78.5974 74.398 78.2377C75.7619 77.6832 77.2052 77.348 78.6742 77.2444C80.417 77.1076 82.1617 77.4836 83.6926 78.3258L83.6867 78.3905Z" fill="#43928B"/>
<path d="M70.0159 37.4554L62.0819 32.8828L50.1308 39.7651L22.3943 138.052L30.3342 142.624L42.1203 135.83L70.0159 37.4554Z" fill="#4AA29A"/>
<path opacity="0.1" d="M42.1202 135.83L30.3341 142.624L58.1119 44.3139L70.0158 37.4551L42.1202 135.83Z" fill="white"/>
<path opacity="0.1" d="M30.3342 142.625L58.1119 44.3147L50.1308 39.7656L22.3943 138.052L30.3342 142.625Z" fill="black"/>
<path d="M25.4866 63.7509C16.0977 69.1639 8.48181 82.3232 8.48181 93.1375C8.48181 103.952 16.1095 108.348 25.4866 102.941C34.8636 97.5337 42.4913 84.3685 42.4913 73.5542C42.4913 62.74 34.9108 58.3438 25.4866 63.7509ZM24.0376 94.5304C22.8793 95.2604 21.5534 95.6832 20.1855 95.7587C16.8811 95.7587 16.5277 91.8738 16.5277 90.2047C16.5277 83.6867 21.3046 75.4232 26.965 72.1613C28.1225 71.4296 29.4489 71.0067 30.8171 70.933C34.1156 70.933 34.4749 74.8179 34.4749 76.487C34.4749 83.005 29.6921 91.2685 24.0376 94.5304Z" fill="#5CABA4"/>
<path d="M31.2883 70.9669C31.1321 70.946 30.9747 70.9342 30.8171 70.9316C29.9872 70.9597 29.17 71.1431 28.408 71.4724C28.4831 71.998 28.5205 72.5283 28.5199 73.0592C28.5199 79.5772 23.7431 87.8407 18.0827 91.0967C17.6234 91.3628 17.145 91.5946 16.6514 91.7902C16.7588 92.775 17.1089 93.718 17.6704 94.5349C17.9604 94.9295 18.3429 95.2473 18.7844 95.4604C19.2259 95.6734 19.713 95.7754 20.2031 95.7574C21.571 95.6819 22.8969 95.2591 24.0552 94.5291C29.7098 91.2672 34.4925 83.0037 34.4925 76.4857C34.4749 74.8988 34.145 71.3196 31.2883 70.9669Z" fill="#43928B"/>
<path d="M37.5024 62.5507L29.0677 57.6901C25.9872 55.8976 21.7227 56.1444 17.0107 58.8656C7.58647 64.2727 0 77.432 0 88.2522C0 93.6005 1.86717 97.3679 4.87701 99.1664L4.95948 99.2251H5.0066L13.3117 104.05H13.3588C11.91 103.153 10.7474 101.863 10.0073 100.33C9.36138 99.0076 8.92995 97.5911 8.72915 96.1337C8.57535 95.1458 8.49659 94.1477 8.49355 93.148C8.49355 82.3278 16.1095 69.1685 25.4983 63.7614C26.3686 63.2666 27.2742 62.8364 28.2078 62.4743C29.5737 61.9198 31.0189 61.5845 32.4899 61.481C34.2307 61.3447 35.9734 61.7207 37.5024 62.5624V62.5507Z" fill="#43928B"/>
<path d="M158.279 173.189L163.845 183.68C168.276 182.98 172.548 181.501 176.462 179.313L163.003 176.298C161.631 177.08 160.005 172.889 158.279 173.189Z" fill="#F3B36A"/>
<path opacity="0.2" d="M158.279 173.189L163.845 183.68C168.276 182.98 172.548 181.501 176.462 179.313L163.003 176.298C161.631 177.08 160.005 172.889 158.279 173.189Z" fill="black"/>
<path d="M146.87 166.99C149.562 165.438 153.249 164.833 156.736 165.15L159.711 148.106L156.736 142.816L141.386 144.826L124.894 168.923L125.406 169.658L143.583 170.975C143.878 169.517 144.938 168.112 146.87 166.99Z" fill="#F3B36A"/>
<path opacity="0.7" d="M146.87 166.99C149.562 165.438 153.249 164.833 156.736 165.15L159.711 148.106L156.736 142.816L141.386 144.826L124.894 168.923L125.406 169.658L143.583 170.975C143.878 169.517 144.938 168.112 146.87 166.99Z" fill="black"/>
<path d="M159.71 136.521V133.512L156.736 144.314L156.742 147.323L159.71 136.521Z" fill="#F3B36A"/>
<path opacity="0.7" d="M159.71 136.521V133.512L156.736 144.314L156.742 147.323L159.71 136.521Z" fill="black"/>
<path d="M146.87 146.155C149.562 144.609 153.249 143.998 156.736 144.315L159.71 133.512C143.112 132.002 127.527 138.52 124.9 148.082C124.823 148.353 124.741 148.723 124.694 148.993L143.589 150.139C143.878 148.682 144.938 147.271 146.87 146.155Z" fill="#F3B36A"/>
<path opacity="0.6" d="M146.87 146.155C149.562 144.609 153.249 143.998 156.736 144.315L159.71 133.512C143.112 132.002 127.527 138.52 124.9 148.082C124.823 148.353 124.741 148.723 124.694 148.993L143.589 150.139C143.878 148.682 144.938 147.271 146.87 146.155Z" fill="black"/>
<path d="M143.589 162.43V150.14L124.694 148.994V161.284L143.589 162.43Z" fill="#F3B36A"/>
<path opacity="0.8" d="M143.589 162.43V150.14L124.694 148.994V161.284L143.589 162.43Z" fill="black"/>
<path d="M163.021 149.164C165.306 150.486 166.413 152.22 166.349 153.948L185.368 154.142C185.639 145.296 174.878 137.909 159.71 136.51L156.736 147.312C158.938 147.48 161.08 148.111 163.021 149.164Z" fill="#F3B36A"/>
<path opacity="0.8" d="M163.021 149.164C165.306 150.486 166.413 152.22 166.349 153.948L185.368 154.142C185.639 145.296 174.878 137.909 159.71 136.51L156.736 147.312C158.938 147.48 161.08 148.111 163.021 149.164Z" fill="white"/>
<path d="M166.349 153.947V167.036L185.368 167.23V154.141L166.349 153.947Z" fill="#F3B36A"/>
<path opacity="0.6" d="M166.349 153.947V167.036L185.368 167.23V154.141L166.349 153.947Z" fill="white"/>
<path d="M166.355 153.948V166.937C166.355 165.256 165.247 163.569 163.021 162.282C161.254 161.259 159.039 165.391 156.742 165.18V147.324C161.937 147.765 166.449 150.38 166.355 153.948Z" fill="#F3B36A"/>
<path opacity="0.6" d="M166.355 153.948V166.937C166.355 165.256 165.247 163.569 163.021 162.282C161.254 161.259 159.039 165.391 156.742 165.18V147.324C161.937 147.765 166.449 150.38 166.355 153.948Z" fill="white"/>
<path d="M166.36 159.777H143.53V175.094H166.36V159.777Z" fill="#E0E0E0"/>
<path d="M146.87 164.509C142.411 161.941 142.411 157.774 146.87 155.206C151.329 152.637 158.562 152.637 163.021 155.206C167.48 157.774 167.474 161.941 163.021 164.509C158.568 167.078 151.329 167.078 146.87 164.509Z" fill="#FAFAFA"/>
<path d="M166.349 167.037C166.29 168.677 165.171 175.042 163.021 176.288L176.48 179.303C182.37 175.918 185.244 172.009 185.386 167.219L166.349 167.037Z" fill="#213782"/>
<path d="M185.368 157.01V167.23L176.462 179.314V169.099L185.368 157.01Z" fill="#213782"/>
<path d="M166.349 156.816C166.29 158.456 165.171 160.084 163.021 161.336L176.48 169.088C182.37 165.703 185.244 161.794 185.386 157.004L166.349 156.816Z" fill="#374B8E"/>
<path d="M176.462 169.1V179.315L163.003 171.562L163.021 161.336L176.462 169.1Z" fill="#1E3275"/>
<path d="M176.462 172.326L163.845 176.693V183.681L176.462 179.314V172.326Z" fill="#F3B36A"/>
<path opacity="0.2" d="M176.462 172.326L163.845 176.693V183.681L176.462 179.314V172.326Z" fill="black"/>
<path d="M158.279 166.202L163.845 176.693C168.276 175.993 172.548 174.514 176.462 172.326L163.003 164.586C161.533 165.39 159.935 165.937 158.279 166.202Z" fill="#F3B36A"/>
<path d="M158.273 166.201V169.387L163.845 183.68V176.692L158.273 166.201Z" fill="#F3B36A"/>
<path opacity="0.4" d="M158.273 166.201V169.387L163.845 183.68V176.692L158.273 166.201Z" fill="black"/>
<path d="M149.562 175.166C147.041 173.708 143.254 172.891 143.589 170.993L124.523 161.865C124.523 161.865 124.523 166.391 124.523 167.02C124.564 175.836 136.168 183.435 151.771 184.375C155.808 184.653 159.864 184.428 163.845 183.705V178.586C159.94 179.244 152.648 176.929 149.562 175.166Z" fill="#F3B36A"/>
<path opacity="0.5" d="M149.562 175.166C147.041 173.708 143.254 172.891 143.589 170.993L124.523 161.865C124.523 161.865 124.523 166.391 124.523 167.02C124.564 175.836 136.168 183.435 151.771 184.375C155.808 184.653 159.864 184.428 163.845 183.705V178.586C159.94 179.244 152.648 176.929 149.562 175.166Z" fill="black"/>
<path d="M146.87 166.432C144.349 164.98 143.254 163.011 143.589 161.113L124.694 159.967C122.927 169.594 135.06 178.222 151.788 179.233C155.826 179.507 159.881 179.282 163.863 178.563L158.297 168.072C154.374 168.753 149.956 168.213 146.87 166.432Z" fill="#F3B36A"/>
<path opacity="0.3" d="M146.87 166.432C144.349 164.98 143.254 163.011 143.589 161.113L124.694 159.967C122.927 169.594 135.06 178.222 151.788 179.233C155.826 179.507 159.881 179.282 163.863 178.563L158.297 168.072C154.374 168.753 149.956 168.213 146.87 166.432Z" fill="black"/>
<path d="M77.9086 139.902C78.4003 136.259 78.1843 132.556 77.2725 128.994C76.2947 125.109 74.3274 122.406 72.0009 120.983C69.6743 119.561 65.4393 121.054 68.8202 125.597C72.2011 130.14 75.635 135.923 76.0002 140.29L77.9086 139.902Z" fill="#5BD595"/>
<path d="M77.2547 140.326C77.2161 140.325 77.1779 140.317 77.1425 140.301C77.107 140.286 77.075 140.264 77.0482 140.236C77.0214 140.208 77.0004 140.175 76.9863 140.139C76.9722 140.103 76.9653 140.065 76.9661 140.026C77.131 131.992 73.3555 123.911 69.898 122.053C69.8285 122.017 69.7764 121.954 69.7532 121.879C69.73 121.804 69.7376 121.723 69.7743 121.654C69.811 121.584 69.8738 121.532 69.9489 121.509C70.0241 121.486 70.1053 121.494 70.1748 121.53C73.809 123.47 77.7495 131.798 77.5787 140.038C77.579 140.079 77.5705 140.12 77.5539 140.157C77.5372 140.194 77.5127 140.228 77.4821 140.255C77.4514 140.282 77.4153 140.303 77.3761 140.315C77.3369 140.327 77.2955 140.331 77.2547 140.326Z" fill="white"/>
<path d="M78.1972 154.114C74.4864 156.265 70.2691 154.29 69.5387 150.159C69.2855 148.719 69.0322 147.22 67.6951 146.403C66.576 145.71 65.0682 145.621 64.1081 144.693C62.7416 143.365 63.519 141.654 64.379 140.308C65.1801 139.086 65.828 137.658 65.074 136.259C64.6116 135.525 64.2454 134.735 63.9844 133.908C63.8574 133.495 63.84 133.057 63.934 132.635C64.028 132.214 64.23 131.824 64.5204 131.504C65.2272 130.834 66.3404 130.863 67.2887 131.093C68.8263 131.503 70.2411 132.279 71.4118 133.355C72.2423 134.067 72.7135 134.79 73.9092 135.007C74.7927 135.166 75.7116 135.007 76.5833 135.213C77.1328 135.361 77.6442 135.625 78.083 135.987C78.5219 136.349 78.8781 136.8 79.1279 137.311C79.9937 138.998 79.7169 140.961 79.5814 142.777C79.4459 144.593 79.2751 146.233 79.0631 147.955C78.8864 149.412 78.6861 150.893 78.474 152.322C78.4387 152.545 78.3975 154.008 78.1972 154.114Z" fill="#4AA29A"/>
<path d="M78.5506 152.08C78.4802 152.08 78.4123 152.054 78.3593 152.007C78.3064 151.961 78.2718 151.897 78.262 151.828C76.9721 142.6 69.1853 134.014 66.2874 132.538C66.253 132.521 66.2224 132.496 66.1974 132.467C66.1724 132.437 66.1535 132.403 66.1417 132.366C66.13 132.329 66.1256 132.291 66.1289 132.252C66.1321 132.214 66.143 132.176 66.1607 132.142C66.1785 132.107 66.2029 132.077 66.2325 132.052C66.2622 132.027 66.2964 132.008 66.3333 131.996C66.3702 131.985 66.4091 131.98 66.4477 131.983C66.4863 131.987 66.5239 131.998 66.5583 132.015C69.6271 133.579 77.508 142.177 78.8451 151.751C78.8551 151.828 78.8341 151.906 78.7866 151.968C78.7392 152.03 78.6691 152.07 78.5918 152.08H78.5506Z" fill="white"/>
<path d="M67.0414 142.088C66.9633 142.103 66.8821 142.087 66.8159 142.043C66.7496 141.999 66.7036 141.931 66.688 141.853C66.6723 141.775 66.6884 141.694 66.7326 141.628C66.7768 141.562 66.8455 141.516 66.9236 141.5C69.2595 140.597 71.7747 140.251 74.2685 140.489C74.307 140.492 74.3446 140.503 74.3789 140.52C74.4132 140.538 74.4436 140.562 74.4683 140.592C74.493 140.622 74.5115 140.656 74.5227 140.693C74.534 140.73 74.5377 140.768 74.5336 140.807C74.5299 140.845 74.5186 140.883 74.5003 140.917C74.482 140.951 74.457 140.982 74.4269 141.006C74.3968 141.031 74.3621 141.049 74.3248 141.06C74.2875 141.072 74.2484 141.075 74.2096 141.071C71.8071 140.864 69.3891 141.21 67.1415 142.082C67.1085 142.088 67.0749 142.09 67.0414 142.088Z" fill="white"/>
<path d="M79.0218 156.288C78.4982 155.936 78.0653 155.465 77.7582 154.915C77.4512 154.365 77.2787 153.749 77.2548 153.12V64.3019C77.2884 63.6529 77.4757 63.0211 77.8013 62.4582C78.1269 61.8953 78.5815 61.4173 79.1278 61.0635L184.319 0.46843C184.876 0.174273 185.494 0.0141641 186.124 0.00089767C186.754 -0.0123688 187.379 0.121572 187.948 0.392022C188.472 0.739527 188.905 1.20647 189.212 1.75426C189.52 2.30204 189.692 2.91493 189.715 3.54226V92.3896C189.681 93.0387 189.494 93.6705 189.168 94.2334C188.843 94.7963 188.388 95.2742 187.842 95.628L82.6501 156.223C82.0927 156.517 81.4739 156.676 80.8437 156.687C80.2134 156.698 79.5894 156.561 79.0218 156.288Z" fill="#F3B36A"/>
<path d="M87.8099 68.1992L77.7967 62.4395C77.4583 62.9975 77.2697 63.633 77.249 64.2849V153.121C77.231 153.756 77.3856 154.384 77.6963 154.939C78.007 155.494 78.4622 155.955 79.0138 156.273C79.5655 156.591 80.193 156.754 80.83 156.746C81.467 156.737 82.0898 156.557 82.6325 156.224L87.7923 153.25L87.8099 68.1992Z" fill="#F3B36A"/>
<path opacity="0.2" d="M87.8099 68.1992L77.7967 62.4395C77.4583 62.9975 77.2697 63.633 77.249 64.2849V153.121C77.231 153.756 77.3856 154.384 77.6963 154.939C78.007 155.494 78.4622 155.955 79.0138 156.273C79.5655 156.591 80.193 156.754 80.83 156.746C81.467 156.737 82.0898 156.557 82.6325 156.224L87.7923 153.25L87.8099 68.1992Z" fill="black"/>
<path d="M82.6501 63.0909L187.83 2.46638C188.867 1.87864 189.703 2.3547 189.703 3.54192V92.3893C189.669 93.0384 189.482 93.6702 189.156 94.2331C188.831 94.796 188.376 95.2739 187.83 95.6277L82.6501 156.223C81.6194 156.811 80.783 156.334 80.783 155.141V66.3293C80.816 65.6808 81.0024 65.0493 81.3269 64.4864C81.6514 63.9235 82.1049 63.4453 82.6501 63.0909Z" fill="#F3B36A"/>
<g opacity="0.5">
<path opacity="0.5" d="M82.6501 63.0909L187.83 2.46638C188.867 1.87864 189.703 2.3547 189.703 3.54192V92.3893C189.669 93.0384 189.482 93.6702 189.156 94.2331C188.831 94.796 188.376 95.2739 187.83 95.6277L82.6501 156.223C81.6194 156.811 80.783 156.334 80.783 155.141V66.3293C80.816 65.6808 81.0024 65.0493 81.3269 64.4864C81.6514 63.9235 82.1049 63.4453 82.6501 63.0909Z" fill="white"/>
</g>
<path opacity="0.4" d="M91.3203 135.03C91.4276 128.624 91.8778 122.228 92.6691 115.87C93.4879 108.964 95.1666 97.3093 101.846 93.4655C108.525 89.6218 111.029 96.5688 111.989 99.9953C113.243 104.433 119.77 101.623 120.683 94.3001C121.595 86.977 122.179 63.6734 130.001 59.1655C137.823 54.6576 140.356 65.5072 141.245 68.534C143.012 74.4818 148.136 72.842 149.815 68.8984C151.494 64.9547 156.059 63.9967 157.784 69.539C159.51 75.0813 160.582 81.4464 166.178 78.1786C171.084 75.3105 168.828 70.0856 173.617 67.5995C175.013 66.8824 177.793 67.2821 178.417 71.3727C178.988 75.6977 179.238 80.0587 179.165 84.4204L91.3203 135.03Z" fill="white"/>
<path d="M91.3204 135.464C91.2058 135.463 91.0964 135.416 91.016 135.335C90.9355 135.253 90.8904 135.143 90.8904 135.029C90.9982 128.602 91.4485 122.184 92.2392 115.804C92.8989 110.239 94.448 97.2086 101.628 93.071C103.754 91.8485 105.675 91.5723 107.341 92.2481C109.562 93.1474 111.217 95.6394 112.407 99.8886C112.76 101.135 113.585 101.781 114.722 101.693C117.007 101.517 119.699 98.6897 120.253 94.2582C120.4 93.0827 120.541 91.4723 120.7 89.6092C121.572 79.5414 123.056 62.6911 129.789 58.8003C131.856 57.6249 133.753 57.3545 135.437 58.0363C139.142 59.535 140.738 65.1478 141.498 67.8455C141.557 68.063 141.61 68.2569 141.663 68.4333C142.317 70.6608 143.524 71.9596 145.062 72.0243C146.752 72.136 148.566 70.7489 149.415 68.7506C150.357 66.5349 152.195 65.1655 154.032 65.2595C155.87 65.3535 157.402 66.8699 158.197 69.4383C158.385 70.026 158.568 70.6549 158.744 71.2661C159.728 74.5986 160.647 77.7312 162.544 78.4952C163.457 78.8537 164.576 78.6363 165.96 77.8311C168.269 76.4793 168.905 74.6162 169.529 72.6414C170.154 70.6666 170.866 68.5684 173.417 67.246C173.884 67.017 174.399 66.9009 174.92 66.907C175.441 66.9131 175.953 67.0413 176.415 67.2813C177.31 67.7339 178.459 68.8094 178.842 71.3367C179.415 75.687 179.667 80.0735 179.595 84.4607C179.596 84.5178 179.585 84.5744 179.563 84.6271C179.541 84.6797 179.508 84.7272 179.467 84.7664C179.425 84.8057 179.376 84.8358 179.322 84.855C179.268 84.8743 179.211 84.8821 179.154 84.878C179.039 84.8749 178.93 84.8269 178.851 84.7444C178.772 84.6619 178.728 84.5515 178.73 84.4372C178.805 80.1011 178.557 75.7654 177.987 71.466C177.658 69.2972 176.739 68.4098 176.026 68.0512C175.686 67.8737 175.309 67.778 174.926 67.7718C174.542 67.7657 174.163 67.8493 173.817 68.016C171.579 69.1914 170.984 70.9899 170.354 72.9118C169.682 74.9512 168.987 77.0612 166.396 78.5775C164.764 79.5238 163.404 79.753 162.226 79.2945C159.94 78.3894 158.957 75.0452 157.914 71.5071C157.737 70.9194 157.561 70.2905 157.372 69.691C156.689 67.4929 155.452 66.194 153.991 66.1176C152.53 66.0412 150.999 67.2402 150.21 69.0915C149.208 71.4424 147.076 73.0058 145.009 72.8883C143.89 72.8236 141.863 72.1889 140.833 68.6801C140.78 68.5097 140.727 68.3098 140.662 68.0924C139.937 65.5299 138.424 60.1874 135.107 58.8474C133.688 58.2596 132.045 58.5124 130.219 59.5585C123.857 63.226 122.367 80.4465 121.566 89.6974C121.401 91.5664 121.26 93.1826 121.113 94.3992C120.524 99.2715 117.419 102.387 114.787 102.586C113.237 102.704 112.036 101.793 111.576 100.153C110.463 96.2094 108.973 93.9055 107.012 93.1003C105.61 92.5126 103.943 92.7888 102.058 93.8703C95.255 97.7904 93.7412 110.521 93.0992 115.957C92.3127 122.298 91.8644 128.676 91.7562 135.064C91.7473 135.174 91.6975 135.275 91.6167 135.349C91.5359 135.423 91.4301 135.464 91.3204 135.464Z" fill="#F5F5F5"/>
<path d="M103.772 93.3834C103.699 93.3834 103.628 93.3543 103.576 93.3025C103.524 93.2506 103.495 93.1804 103.495 93.1071V92.5664C103.489 92.5272 103.492 92.4871 103.503 92.449C103.514 92.411 103.534 92.3757 103.56 92.3457C103.586 92.3156 103.618 92.2916 103.654 92.275C103.69 92.2585 103.729 92.25 103.769 92.25C103.809 92.25 103.848 92.2585 103.884 92.275C103.921 92.2916 103.953 92.3156 103.979 92.3457C104.005 92.3757 104.024 92.411 104.035 92.449C104.046 92.4871 104.049 92.5272 104.043 92.5664V93.1071C104.043 93.1794 104.015 93.2488 103.964 93.3004C103.913 93.352 103.844 93.3818 103.772 93.3834Z" fill="#F5F5F5"/>
<path d="M103.772 125.995C103.736 125.995 103.7 125.988 103.666 125.974C103.633 125.96 103.602 125.94 103.576 125.914C103.551 125.889 103.53 125.858 103.516 125.825C103.502 125.791 103.495 125.755 103.495 125.719V124.62C103.505 124.554 103.538 124.494 103.588 124.451C103.638 124.408 103.703 124.384 103.769 124.384C103.836 124.384 103.9 124.408 103.95 124.451C104 124.494 104.033 124.554 104.043 124.62V125.707C104.045 125.744 104.039 125.781 104.026 125.815C104.013 125.85 103.994 125.881 103.968 125.908C103.943 125.935 103.913 125.956 103.879 125.971C103.845 125.986 103.809 125.994 103.772 125.995ZM103.772 123.821C103.699 123.821 103.628 123.792 103.576 123.74C103.524 123.688 103.495 123.618 103.495 123.544V122.457C103.505 122.392 103.538 122.332 103.588 122.288C103.638 122.245 103.703 122.221 103.769 122.221C103.836 122.221 103.9 122.245 103.95 122.288C104 122.332 104.033 122.392 104.043 122.457V123.544C104.043 123.617 104.015 123.686 103.964 123.738C103.913 123.789 103.844 123.819 103.772 123.821ZM103.772 121.646C103.736 121.646 103.7 121.639 103.666 121.625C103.633 121.611 103.602 121.591 103.576 121.565C103.551 121.539 103.53 121.509 103.516 121.476C103.502 121.442 103.495 121.406 103.495 121.37V120.288C103.489 120.249 103.492 120.209 103.503 120.171C103.514 120.133 103.534 120.098 103.56 120.068C103.586 120.038 103.618 120.014 103.654 119.997C103.69 119.98 103.729 119.972 103.769 119.972C103.809 119.972 103.848 119.98 103.884 119.997C103.921 120.014 103.953 120.038 103.979 120.068C104.005 120.098 104.024 120.133 104.035 120.171C104.046 120.209 104.049 120.249 104.043 120.288V121.37C104.043 121.442 104.015 121.511 103.964 121.563C103.913 121.615 103.844 121.644 103.772 121.646ZM103.772 119.471C103.7 119.471 103.63 119.443 103.578 119.393C103.527 119.342 103.497 119.273 103.495 119.201V118.114C103.489 118.075 103.492 118.034 103.503 117.996C103.514 117.958 103.534 117.923 103.56 117.893C103.586 117.863 103.618 117.839 103.654 117.822C103.69 117.806 103.729 117.797 103.769 117.797C103.809 117.797 103.848 117.806 103.884 117.822C103.921 117.839 103.953 117.863 103.979 117.893C104.005 117.923 104.024 117.958 104.035 117.996C104.046 118.034 104.049 118.075 104.043 118.114V119.201C104.042 119.272 104.013 119.34 103.962 119.391C103.912 119.441 103.843 119.47 103.772 119.471ZM103.772 117.297C103.7 117.297 103.63 117.269 103.578 117.218C103.527 117.167 103.497 117.099 103.495 117.026V115.939C103.489 115.9 103.492 115.86 103.503 115.822C103.514 115.784 103.534 115.748 103.56 115.718C103.586 115.688 103.618 115.664 103.654 115.648C103.69 115.631 103.729 115.623 103.769 115.623C103.809 115.623 103.848 115.631 103.884 115.648C103.921 115.664 103.953 115.688 103.979 115.718C104.005 115.748 104.024 115.784 104.035 115.822C104.046 115.86 104.049 115.9 104.043 115.939V117.026C104.042 117.098 104.013 117.166 103.962 117.216C103.912 117.266 103.843 117.295 103.772 117.297ZM103.772 115.122C103.7 115.122 103.63 115.094 103.578 115.043C103.527 114.993 103.497 114.924 103.495 114.852V113.765C103.489 113.725 103.492 113.685 103.503 113.647C103.514 113.609 103.534 113.574 103.56 113.544C103.586 113.514 103.618 113.49 103.654 113.473C103.69 113.457 103.729 113.448 103.769 113.448C103.809 113.448 103.848 113.457 103.884 113.473C103.921 113.49 103.953 113.514 103.979 113.544C104.005 113.574 104.024 113.609 104.035 113.647C104.046 113.685 104.049 113.725 104.043 113.765V114.852C104.042 114.923 104.013 114.991 103.962 115.041C103.912 115.092 103.843 115.121 103.772 115.122ZM103.772 112.948C103.7 112.948 103.63 112.919 103.578 112.869C103.527 112.818 103.497 112.749 103.495 112.677V111.59C103.489 111.551 103.492 111.511 103.503 111.473C103.514 111.434 103.534 111.399 103.56 111.369C103.586 111.339 103.618 111.315 103.654 111.299C103.69 111.282 103.729 111.274 103.769 111.274C103.809 111.274 103.848 111.282 103.884 111.299C103.921 111.315 103.953 111.339 103.979 111.369C104.005 111.399 104.024 111.434 104.035 111.473C104.046 111.511 104.049 111.551 104.043 111.59V112.677C104.042 112.748 104.013 112.816 103.962 112.867C103.912 112.917 103.843 112.946 103.772 112.948ZM103.772 110.773C103.736 110.774 103.7 110.767 103.667 110.754C103.633 110.741 103.602 110.721 103.577 110.696C103.551 110.671 103.53 110.641 103.516 110.607C103.502 110.574 103.495 110.539 103.495 110.503V109.415C103.489 109.376 103.492 109.336 103.503 109.298C103.514 109.26 103.534 109.225 103.56 109.195C103.586 109.165 103.618 109.14 103.654 109.124C103.69 109.107 103.729 109.099 103.769 109.099C103.809 109.099 103.848 109.107 103.884 109.124C103.921 109.14 103.953 109.165 103.979 109.195C104.005 109.225 104.024 109.26 104.035 109.298C104.046 109.336 104.049 109.376 104.043 109.415V110.514C104.04 110.584 104.01 110.65 103.96 110.698C103.909 110.746 103.842 110.773 103.772 110.773ZM103.772 108.598C103.736 108.599 103.7 108.593 103.667 108.58C103.633 108.566 103.602 108.546 103.577 108.521C103.551 108.496 103.53 108.466 103.516 108.433C103.502 108.4 103.495 108.364 103.495 108.328V107.241C103.489 107.201 103.492 107.161 103.503 107.123C103.514 107.085 103.534 107.05 103.56 107.02C103.586 106.99 103.618 106.966 103.654 106.949C103.69 106.933 103.729 106.924 103.769 106.924C103.809 106.924 103.848 106.933 103.884 106.949C103.921 106.966 103.953 106.99 103.979 107.02C104.005 107.05 104.024 107.085 104.035 107.123C104.046 107.161 104.049 107.201 104.043 107.241V108.328C104.043 108.364 104.036 108.399 104.022 108.431C104.009 108.464 103.989 108.494 103.964 108.519C103.939 108.544 103.909 108.564 103.876 108.578C103.843 108.591 103.808 108.598 103.772 108.598ZM103.772 106.424C103.736 106.425 103.7 106.418 103.667 106.405C103.633 106.392 103.602 106.372 103.577 106.347C103.551 106.322 103.53 106.291 103.516 106.258C103.502 106.225 103.495 106.189 103.495 106.153V105.066C103.505 105.001 103.538 104.941 103.588 104.897C103.638 104.854 103.703 104.83 103.769 104.83C103.836 104.83 103.9 104.854 103.95 104.897C104 104.941 104.033 105.001 104.043 105.066V106.153C104.037 106.221 104.006 106.284 103.956 106.33C103.906 106.375 103.84 106.401 103.772 106.4V106.424ZM103.772 104.255C103.699 104.255 103.628 104.226 103.576 104.174C103.524 104.122 103.495 104.052 103.495 103.979V102.874C103.505 102.808 103.538 102.748 103.588 102.705C103.638 102.662 103.703 102.638 103.769 102.638C103.836 102.638 103.9 102.662 103.95 102.705C104 102.748 104.033 102.808 104.043 102.874V103.961C104.045 103.998 104.04 104.036 104.028 104.071C104.015 104.106 103.996 104.138 103.971 104.166C103.945 104.193 103.915 104.215 103.88 104.231C103.846 104.246 103.809 104.254 103.772 104.255ZM103.772 102.08C103.699 102.08 103.628 102.051 103.576 102C103.524 101.948 103.495 101.877 103.495 101.804V100.717C103.505 100.651 103.538 100.591 103.588 100.548C103.638 100.505 103.703 100.481 103.769 100.481C103.836 100.481 103.9 100.505 103.95 100.548C104 100.591 104.033 100.651 104.043 100.717V101.804C104.043 101.876 104.015 101.946 103.964 101.997C103.913 102.049 103.844 102.079 103.772 102.08ZM103.772 99.9058C103.699 99.9058 103.628 99.8767 103.576 99.8249C103.524 99.7731 103.495 99.7029 103.495 99.6296V98.5423C103.505 98.4767 103.538 98.4168 103.588 98.3734C103.638 98.3301 103.703 98.3063 103.769 98.3063C103.836 98.3063 103.9 98.3301 103.95 98.3734C104 98.4168 104.033 98.4767 104.043 98.5423V99.6296C104.047 99.6678 104.043 99.7064 104.032 99.743C104.02 99.7795 104.001 99.8133 103.975 99.842C103.95 99.8708 103.918 99.8939 103.883 99.91C103.848 99.926 103.811 99.9346 103.772 99.9352V99.9058ZM103.772 97.7312C103.699 97.7312 103.628 97.7021 103.576 97.6503C103.524 97.5985 103.495 97.5283 103.495 97.455V96.3677C103.505 96.3021 103.538 96.2422 103.588 96.1988C103.638 96.1555 103.703 96.1316 103.769 96.1316C103.836 96.1316 103.9 96.1555 103.95 96.1988C104 96.2422 104.033 96.3021 104.043 96.3677V97.455C104.043 97.5272 104.015 97.5966 103.964 97.6483C103.913 97.6999 103.844 97.7297 103.772 97.7312ZM103.772 95.5566C103.699 95.5566 103.628 95.5275 103.576 95.4757C103.524 95.4239 103.495 95.3536 103.495 95.2804V94.1931C103.505 94.1275 103.538 94.0676 103.588 94.0242C103.638 93.9809 103.703 93.957 103.769 93.957C103.836 93.957 103.9 93.9809 103.95 94.0242C104 94.0676 104.033 94.1275 104.043 94.1931V95.2804C104.043 95.3526 104.015 95.422 103.964 95.4737C103.913 95.5253 103.844 95.5551 103.772 95.5566Z" fill="#F5F5F5"/>
<path d="M103.772 127.629C103.736 127.629 103.7 127.622 103.666 127.608C103.633 127.594 103.602 127.574 103.576 127.548C103.551 127.523 103.53 127.492 103.516 127.459C103.502 127.425 103.495 127.389 103.495 127.353V126.806C103.505 126.741 103.538 126.681 103.588 126.638C103.638 126.594 103.703 126.57 103.769 126.57C103.836 126.57 103.9 126.594 103.95 126.638C104 126.681 104.033 126.741 104.043 126.806V127.353C104.043 127.425 104.015 127.495 103.964 127.546C103.913 127.598 103.844 127.628 103.772 127.629Z" fill="#F5F5F5"/>
<path d="M132.033 59.2467C131.961 59.2452 131.893 59.2162 131.843 59.1658C131.792 59.1154 131.763 59.0475 131.762 58.9763V58.4297C131.756 58.3905 131.759 58.3504 131.77 58.3123C131.781 58.2742 131.8 58.239 131.826 58.209C131.852 58.1789 131.884 58.1548 131.921 58.1383C131.957 58.1218 131.996 58.1133 132.036 58.1133C132.075 58.1133 132.115 58.1218 132.151 58.1383C132.187 58.1548 132.219 58.1789 132.245 58.209C132.271 58.239 132.29 58.2742 132.302 58.3123C132.313 58.3504 132.315 58.3905 132.31 58.4297V58.9763C132.308 59.0485 132.278 59.1173 132.226 59.1678C132.175 59.2184 132.105 59.2467 132.033 59.2467Z" fill="#F5F5F5"/>
<path d="M132.033 110.227C131.96 110.225 131.892 110.196 131.841 110.144C131.79 110.092 131.762 110.023 131.762 109.951V108.846C131.756 108.807 131.759 108.767 131.77 108.728C131.781 108.69 131.8 108.655 131.826 108.625C131.852 108.595 131.884 108.571 131.921 108.554C131.957 108.538 131.996 108.529 132.036 108.529C132.075 108.529 132.115 108.538 132.151 108.554C132.187 108.571 132.219 108.595 132.245 108.625C132.271 108.655 132.29 108.69 132.302 108.728C132.313 108.767 132.315 108.807 132.31 108.846V109.927C132.313 109.965 132.308 110.004 132.296 110.04C132.283 110.076 132.263 110.11 132.237 110.138C132.211 110.166 132.18 110.189 132.144 110.204C132.109 110.219 132.071 110.227 132.033 110.227ZM132.033 108.011C131.96 108.01 131.892 107.98 131.841 107.928C131.79 107.877 131.762 107.807 131.762 107.735V106.624C131.772 106.559 131.805 106.499 131.855 106.455C131.905 106.412 131.969 106.388 132.036 106.388C132.102 106.388 132.166 106.412 132.217 106.455C132.267 106.499 132.3 106.559 132.31 106.624V107.735C132.31 107.771 132.302 107.807 132.289 107.841C132.275 107.874 132.254 107.905 132.229 107.93C132.203 107.956 132.172 107.976 132.139 107.99C132.105 108.004 132.069 108.011 132.033 108.011ZM132.033 105.79C131.961 105.79 131.892 105.761 131.841 105.71C131.79 105.66 131.762 105.591 131.762 105.519V104.408C131.772 104.343 131.805 104.283 131.855 104.24C131.905 104.196 131.969 104.172 132.036 104.172C132.102 104.172 132.166 104.196 132.217 104.24C132.267 104.283 132.3 104.343 132.31 104.408V105.519C132.313 105.557 132.308 105.595 132.296 105.631C132.283 105.667 132.263 105.7 132.237 105.728C132.211 105.756 132.179 105.778 132.144 105.792C132.109 105.807 132.071 105.814 132.033 105.813V105.79ZM132.033 103.574C131.961 103.572 131.893 103.543 131.843 103.493C131.792 103.443 131.763 103.375 131.762 103.304V102.193C131.772 102.127 131.805 102.067 131.855 102.024C131.905 101.981 131.969 101.957 132.036 101.957C132.102 101.957 132.166 101.981 132.217 102.024C132.267 102.067 132.3 102.127 132.31 102.193V103.304C132.308 103.376 132.278 103.445 132.226 103.495C132.175 103.546 132.105 103.574 132.033 103.574ZM132.033 101.358C131.961 101.357 131.893 101.328 131.843 101.277C131.792 101.227 131.763 101.159 131.762 101.088V99.977C131.772 99.9114 131.805 99.8514 131.855 99.8081C131.905 99.7648 131.969 99.7409 132.036 99.7409C132.102 99.7409 132.166 99.7648 132.217 99.8081C132.267 99.8514 132.3 99.9114 132.31 99.977V101.111C132.302 101.179 132.27 101.242 132.219 101.288C132.168 101.333 132.101 101.359 132.033 101.358ZM132.033 99.1424C131.961 99.1409 131.893 99.1119 131.843 99.0616C131.792 99.0112 131.763 98.9433 131.762 98.872V97.7612C131.772 97.6956 131.805 97.6357 131.855 97.5924C131.905 97.549 131.969 97.5252 132.036 97.5252C132.102 97.5252 132.166 97.549 132.217 97.5924C132.267 97.6357 132.3 97.6956 132.31 97.7612V98.872C132.308 98.9443 132.278 99.013 132.226 99.0636C132.175 99.1141 132.105 99.1424 132.033 99.1424ZM132.033 96.9266C131.96 96.9251 131.892 96.8953 131.841 96.8437C131.79 96.7921 131.762 96.7227 131.762 96.6504V95.5455C131.756 95.5062 131.759 95.4662 131.77 95.4281C131.781 95.39 131.8 95.3547 131.826 95.3247C131.852 95.2947 131.884 95.2706 131.921 95.2541C131.957 95.2376 131.996 95.2291 132.036 95.2291C132.075 95.2291 132.115 95.2376 132.151 95.2541C132.187 95.2706 132.219 95.2947 132.245 95.3247C132.271 95.3547 132.29 95.39 132.302 95.4281C132.313 95.4662 132.315 95.5062 132.31 95.5455V96.6504C132.31 96.6867 132.302 96.7226 132.289 96.7561C132.275 96.7896 132.254 96.8201 132.229 96.8457C132.203 96.8714 132.172 96.8917 132.139 96.9056C132.105 96.9195 132.069 96.9266 132.033 96.9266ZM132.033 94.7109C131.96 94.7094 131.892 94.6796 131.841 94.6279C131.79 94.5763 131.762 94.5069 131.762 94.4347V93.3297C131.756 93.2905 131.759 93.2504 131.77 93.2123C131.781 93.1743 131.8 93.139 131.826 93.109C131.852 93.079 131.884 93.0549 131.921 93.0384C131.957 93.0219 131.996 93.0133 132.036 93.0133C132.075 93.0133 132.115 93.0219 132.151 93.0384C132.187 93.0549 132.219 93.079 132.245 93.109C132.271 93.139 132.29 93.1743 132.302 93.2123C132.313 93.2504 132.315 93.2905 132.31 93.3297V94.4347C132.31 94.4709 132.302 94.5069 132.289 94.5404C132.275 94.5739 132.254 94.6043 132.229 94.63C132.203 94.6556 132.172 94.676 132.139 94.6899C132.105 94.7037 132.069 94.7109 132.033 94.7109ZM132.033 92.4951C131.96 92.4936 131.892 92.4638 131.841 92.4122C131.79 92.3606 131.762 92.2912 131.762 92.2189V91.1199C131.756 91.0806 131.759 91.0406 131.77 91.0025C131.781 90.9644 131.8 90.9291 131.826 90.8991C131.852 90.8691 131.884 90.845 131.921 90.8285C131.957 90.812 131.996 90.8034 132.036 90.8034C132.075 90.8034 132.115 90.812 132.151 90.8285C132.187 90.845 132.219 90.8691 132.245 90.8991C132.271 90.9291 132.29 90.9644 132.302 91.0025C132.313 91.0406 132.315 91.0806 132.31 91.1199V92.2248C132.308 92.297 132.278 92.3658 132.226 92.4163C132.175 92.4669 132.105 92.4952 132.033 92.4951ZM132.033 90.2794C131.96 90.2779 131.892 90.2481 131.841 90.1964C131.79 90.1448 131.762 90.0754 131.762 90.0032V88.8982C131.756 88.859 131.759 88.8189 131.77 88.7809C131.781 88.7428 131.8 88.7075 131.826 88.6775C131.852 88.6475 131.884 88.6234 131.921 88.6069C131.957 88.5904 131.996 88.5818 132.036 88.5818C132.075 88.5818 132.115 88.5904 132.151 88.6069C132.187 88.6234 132.219 88.6475 132.245 88.6775C132.271 88.7075 132.29 88.7428 132.302 88.7809C132.313 88.8189 132.315 88.859 132.31 88.8982V90.0032C132.31 90.0394 132.302 90.0754 132.289 90.1089C132.275 90.1424 132.254 90.1728 132.229 90.1985C132.203 90.2241 132.172 90.2445 132.139 90.2584C132.105 90.2723 132.069 90.2794 132.033 90.2794ZM132.033 88.0637C131.96 88.0621 131.892 88.0323 131.841 87.9807C131.79 87.9291 131.762 87.8597 131.762 87.7874V86.6825C131.756 86.6432 131.759 86.6032 131.77 86.5651C131.781 86.527 131.8 86.4918 131.826 86.4617C131.852 86.4317 131.884 86.4076 131.921 86.3911C131.957 86.3746 131.996 86.3661 132.036 86.3661C132.075 86.3661 132.115 86.3746 132.151 86.3911C132.187 86.4076 132.219 86.4317 132.245 86.4617C132.271 86.4918 132.29 86.527 132.302 86.5651C132.313 86.6032 132.315 86.6432 132.31 86.6825V87.7874C132.31 87.8237 132.302 87.8596 132.289 87.8931C132.275 87.9266 132.254 87.9571 132.229 87.9827C132.203 88.0084 132.172 88.0287 132.139 88.0426C132.105 88.0565 132.069 88.0637 132.033 88.0637ZM132.033 85.842C131.961 85.842 131.892 85.8135 131.841 85.7628C131.79 85.7121 131.762 85.6434 131.762 85.5717V84.4609C131.772 84.3953 131.805 84.3353 131.855 84.292C131.905 84.2487 131.969 84.2248 132.036 84.2248C132.102 84.2248 132.166 84.2487 132.217 84.292C132.267 84.3353 132.3 84.3953 132.31 84.4609V85.5717C132.307 85.6423 132.276 85.709 132.224 85.7574C132.172 85.8057 132.104 85.8319 132.033 85.8303V85.842ZM132.033 83.6263C131.961 83.6263 131.892 83.5978 131.841 83.5471C131.79 83.4964 131.762 83.4276 131.762 83.3559V82.2451C131.772 82.1795 131.805 82.1196 131.855 82.0762C131.905 82.0329 131.969 82.0091 132.036 82.0091C132.102 82.0091 132.166 82.0329 132.217 82.0762C132.267 82.1196 132.3 82.1795 132.31 82.2451V83.3559C132.31 83.3919 132.302 83.4276 132.288 83.4608C132.274 83.4939 132.254 83.524 132.228 83.5492C132.202 83.5744 132.172 83.5942 132.138 83.6074C132.105 83.6206 132.069 83.6271 132.033 83.6263ZM132.033 81.4105C131.961 81.409 131.893 81.3801 131.843 81.3297C131.792 81.2793 131.763 81.2114 131.762 81.1402V80.0294C131.772 79.9638 131.805 79.9038 131.855 79.8605C131.905 79.8172 131.969 79.7933 132.036 79.7933C132.102 79.7933 132.166 79.8172 132.217 79.8605C132.267 79.9038 132.3 79.9638 132.31 80.0294V81.1284C132.31 81.1652 132.304 81.2017 132.29 81.2359C132.277 81.2701 132.256 81.3013 132.231 81.3276C132.205 81.3538 132.174 81.3747 132.14 81.389C132.106 81.4032 132.07 81.4105 132.033 81.4105ZM132.033 79.1948C131.961 79.1933 131.893 79.1643 131.843 79.1139C131.792 79.0636 131.763 78.9957 131.762 78.9244V77.8136C131.772 77.748 131.805 77.6881 131.855 77.6447C131.905 77.6014 131.969 77.5776 132.036 77.5776C132.102 77.5776 132.166 77.6014 132.217 77.6447C132.267 77.6881 132.3 77.748 132.31 77.8136V78.9244C132.308 78.9967 132.278 79.0654 132.226 79.116C132.175 79.1665 132.105 79.1948 132.033 79.1948ZM132.033 76.979C131.961 76.9775 131.893 76.9486 131.843 76.8982C131.792 76.8478 131.763 76.7799 131.762 76.7087V75.5979C131.772 75.5323 131.805 75.4723 131.855 75.429C131.905 75.3857 131.969 75.3618 132.036 75.3618C132.102 75.3618 132.166 75.3857 132.217 75.429C132.267 75.4723 132.3 75.5323 132.31 75.5979V76.7087C132.308 76.7809 132.278 76.8497 132.226 76.9002C132.175 76.9508 132.105 76.9791 132.033 76.979ZM132.033 74.7633C131.96 74.7617 131.892 74.732 131.841 74.6803C131.79 74.6287 131.762 74.5593 131.762 74.4871V73.3821C131.756 73.3429 131.759 73.3028 131.77 73.2647C131.781 73.2267 131.8 73.1914 131.826 73.1614C131.852 73.1313 131.884 73.1073 131.921 73.0907C131.957 73.0742 131.996 73.0657 132.036 73.0657C132.075 73.0657 132.115 73.0742 132.151 73.0907C132.187 73.1073 132.219 73.1313 132.245 73.1614C132.271 73.1914 132.29 73.2267 132.302 73.2647C132.313 73.3028 132.315 73.3429 132.31 73.3821V74.4871C132.31 74.5233 132.302 74.5593 132.289 74.5928C132.275 74.6263 132.254 74.6567 132.229 74.6824C132.203 74.708 132.172 74.7284 132.139 74.7423C132.105 74.7561 132.069 74.7633 132.033 74.7633ZM132.033 72.5475C131.96 72.546 131.892 72.5162 131.841 72.4646C131.79 72.4129 131.762 72.3436 131.762 72.2713V71.1664C131.756 71.1271 131.759 71.0871 131.77 71.049C131.781 71.0109 131.8 70.9756 131.826 70.9456C131.852 70.9156 131.884 70.8915 131.921 70.875C131.957 70.8585 131.996 70.8499 132.036 70.8499C132.075 70.8499 132.115 70.8585 132.151 70.875C132.187 70.8915 132.219 70.9156 132.245 70.9456C132.271 70.9756 132.29 71.0109 132.302 71.049C132.313 71.0871 132.315 71.1271 132.31 71.1664V72.2713C132.31 72.3076 132.302 72.3435 132.289 72.377C132.275 72.4105 132.254 72.441 132.229 72.4666C132.203 72.4923 132.172 72.5126 132.139 72.5265C132.105 72.5404 132.069 72.5475 132.033 72.5475ZM132.033 70.3318C131.96 70.3303 131.892 70.3005 131.841 70.2488C131.79 70.1972 131.762 70.1278 131.762 70.0556V68.9506C131.756 68.9114 131.759 68.8713 131.77 68.8332C131.781 68.7952 131.8 68.7599 131.826 68.7299C131.852 68.6998 131.884 68.6758 131.921 68.6593C131.957 68.6427 131.996 68.6342 132.036 68.6342C132.075 68.6342 132.115 68.6427 132.151 68.6593C132.187 68.6758 132.219 68.6998 132.245 68.7299C132.271 68.7599 132.29 68.7952 132.302 68.8332C132.313 68.8713 132.315 68.9114 132.31 68.9506V70.0556C132.31 70.0918 132.302 70.1278 132.289 70.1613C132.275 70.1948 132.254 70.2252 132.229 70.2509C132.203 70.2765 132.172 70.2969 132.139 70.3108C132.105 70.3246 132.069 70.3318 132.033 70.3318ZM132.033 68.116C131.96 68.1145 131.892 68.0847 131.841 68.0331C131.79 67.9814 131.762 67.9121 131.762 67.8398V66.7349C131.756 66.6956 131.759 66.6556 131.77 66.6175C131.781 66.5794 131.8 66.5442 131.826 66.5141C131.852 66.4841 131.884 66.46 131.921 66.4435C131.957 66.427 131.996 66.4184 132.036 66.4184C132.075 66.4184 132.115 66.427 132.151 66.4435C132.187 66.46 132.219 66.4841 132.245 66.5141C132.271 66.5442 132.29 66.5794 132.302 66.6175C132.313 66.6556 132.315 66.6956 132.31 66.7349V67.8398C132.31 67.8761 132.302 67.912 132.289 67.9455C132.275 67.979 132.254 68.0095 132.229 68.0351C132.203 68.0608 132.172 68.0811 132.139 68.095C132.105 68.1089 132.069 68.116 132.033 68.116ZM132.033 65.9003C131.96 65.8988 131.892 65.869 131.841 65.8173C131.79 65.7657 131.762 65.6963 131.762 65.6241V64.5132C131.772 64.4477 131.805 64.3877 131.855 64.3444C131.905 64.301 131.969 64.2772 132.036 64.2772C132.102 64.2772 132.166 64.301 132.217 64.3444C132.267 64.3877 132.3 64.4477 132.31 64.5132V65.6241C132.31 65.6603 132.302 65.6963 132.289 65.7298C132.275 65.7633 132.254 65.7937 132.229 65.8194C132.203 65.845 132.172 65.8654 132.139 65.8793C132.105 65.8932 132.069 65.9003 132.033 65.9003ZM132.033 63.6787C131.961 63.6787 131.892 63.6502 131.841 63.5995C131.79 63.5488 131.762 63.48 131.762 63.4083V62.321C131.772 62.2554 131.805 62.1955 131.855 62.1521C131.905 62.1088 131.969 62.085 132.036 62.085C132.102 62.085 132.166 62.1088 132.217 62.1521C132.267 62.1955 132.3 62.2554 132.31 62.321V63.4318C132.304 63.5004 132.272 63.5641 132.22 63.61C132.169 63.6559 132.102 63.6804 132.033 63.6787ZM132.033 61.4629C131.961 61.4629 131.892 61.4344 131.841 61.3837C131.79 61.333 131.762 61.2643 131.762 61.1926V60.0818C131.772 60.0162 131.805 59.9562 131.855 59.9129C131.905 59.8695 131.969 59.8457 132.036 59.8457C132.102 59.8457 132.166 59.8695 132.217 59.9129C132.267 59.9562 132.3 60.0162 132.31 60.0818V61.1926C132.31 61.2286 132.302 61.2642 132.288 61.2974C132.274 61.3306 132.254 61.3607 132.228 61.3858C132.202 61.411 132.172 61.4308 132.138 61.4441C132.105 61.4573 132.069 61.4637 132.033 61.4629Z" fill="#F5F5F5"/>
<path d="M132.033 111.879C131.961 111.878 131.893 111.849 131.843 111.799C131.792 111.748 131.763 111.68 131.762 111.609V111.063C131.756 111.023 131.759 110.983 131.77 110.945C131.781 110.907 131.8 110.872 131.826 110.842C131.852 110.812 131.884 110.788 131.921 110.771C131.957 110.755 131.996 110.746 132.036 110.746C132.075 110.746 132.115 110.755 132.151 110.771C132.187 110.788 132.219 110.812 132.245 110.842C132.271 110.872 132.29 110.907 132.302 110.945C132.313 110.983 132.315 111.023 132.31 111.063V111.609C132.308 111.681 132.278 111.75 132.226 111.801C132.175 111.851 132.105 111.879 132.033 111.879Z" fill="#F5F5F5"/>
<path d="M153.632 66.682C153.56 66.6804 153.491 66.6506 153.44 66.599C153.389 66.5474 153.361 66.478 153.361 66.4057V65.8474C153.371 65.7818 153.404 65.7218 153.454 65.6785C153.504 65.6352 153.568 65.6113 153.635 65.6113C153.701 65.6113 153.766 65.6352 153.816 65.6785C153.866 65.7218 153.899 65.7818 153.909 65.8474V66.4351C153.901 66.5032 153.869 66.5661 153.818 66.6117C153.767 66.6573 153.7 66.6824 153.632 66.682Z" fill="#F5F5F5"/>
<path d="M153.632 97.868C153.561 97.8665 153.492 97.8376 153.442 97.7872C153.392 97.7368 153.362 97.6689 153.361 97.5977V96.481C153.371 96.4154 153.404 96.3555 153.454 96.3121C153.504 96.2688 153.568 96.2449 153.635 96.2449C153.701 96.2449 153.766 96.2688 153.816 96.3121C153.866 96.3555 153.899 96.4154 153.909 96.481V97.5859C153.91 97.6227 153.903 97.6592 153.889 97.6934C153.876 97.7276 153.856 97.7588 153.83 97.7851C153.804 97.8113 153.773 97.8322 153.739 97.8465C153.705 97.8607 153.669 97.868 153.632 97.868ZM153.632 95.6405C153.561 95.639 153.492 95.6101 153.442 95.5597C153.392 95.5093 153.362 95.4414 153.361 95.3702V94.2535C153.371 94.1879 153.404 94.128 153.454 94.0846C153.504 94.0413 153.568 94.0174 153.635 94.0174C153.701 94.0174 153.766 94.0413 153.816 94.0846C153.866 94.128 153.899 94.1879 153.909 94.2535V95.3702C153.907 95.4424 153.877 95.5112 153.826 95.5617C153.774 95.6123 153.704 95.6406 153.632 95.6405ZM153.632 93.413C153.561 93.4115 153.492 93.3826 153.442 93.3322C153.392 93.2818 153.362 93.2139 153.361 93.1427V92.026C153.371 91.9604 153.404 91.9005 153.454 91.8571C153.504 91.8138 153.568 91.7899 153.635 91.7899C153.701 91.7899 153.766 91.8138 153.816 91.8571C153.866 91.9005 153.899 91.9604 153.909 92.026V93.1427C153.907 93.2149 153.877 93.2837 153.826 93.3342C153.774 93.3848 153.704 93.413 153.632 93.413ZM153.632 91.1855C153.561 91.184 153.492 91.1551 153.442 91.1047C153.392 91.0543 153.362 90.9864 153.361 90.9152V89.7985C153.371 89.7329 153.404 89.6729 153.454 89.6296C153.504 89.5863 153.568 89.5624 153.635 89.5624C153.701 89.5624 153.766 89.5863 153.816 89.6296C153.866 89.6729 153.899 89.7329 153.909 89.7985V90.9152C153.907 90.9874 153.877 91.0562 153.826 91.1067C153.774 91.1572 153.704 91.1855 153.632 91.1855ZM153.632 88.958C153.561 88.9565 153.492 88.9276 153.442 88.8772C153.392 88.8268 153.362 88.7589 153.361 88.6877V87.5945C153.371 87.5289 153.404 87.469 153.454 87.4256C153.504 87.3823 153.568 87.3584 153.635 87.3584C153.701 87.3584 153.766 87.3823 153.816 87.4256C153.866 87.469 153.899 87.5289 153.909 87.5945V88.7112C153.901 88.7792 153.869 88.8422 153.818 88.8878C153.767 88.9334 153.701 88.9584 153.632 88.958ZM153.632 86.7305C153.561 86.729 153.492 86.7001 153.442 86.6497C153.392 86.5993 153.362 86.5314 153.361 86.4602V85.3435C153.371 85.2779 153.404 85.2179 153.454 85.1746C153.504 85.1313 153.568 85.1074 153.635 85.1074C153.701 85.1074 153.766 85.1313 153.816 85.1746C153.866 85.2179 153.899 85.2779 153.909 85.3435V86.4602C153.907 86.5324 153.877 86.6012 153.826 86.6517C153.774 86.7022 153.704 86.7305 153.632 86.7305ZM153.632 84.503C153.561 84.5015 153.492 84.4726 153.442 84.4222C153.392 84.3718 153.362 84.3039 153.361 84.2327V83.116C153.371 83.0504 153.404 82.9904 153.454 82.9471C153.504 82.9038 153.568 82.8799 153.635 82.8799C153.701 82.8799 153.766 82.9038 153.816 82.9471C153.866 82.9904 153.899 83.0504 153.909 83.116V84.2327C153.907 84.3049 153.877 84.3737 153.826 84.4242C153.774 84.4747 153.704 84.503 153.632 84.503ZM153.632 82.2755C153.561 82.274 153.492 82.245 153.442 82.1947C153.392 82.1443 153.362 82.0764 153.361 82.0052V80.8885C153.371 80.8229 153.404 80.7629 153.454 80.7196C153.504 80.6763 153.568 80.6524 153.635 80.6524C153.701 80.6524 153.766 80.6763 153.816 80.7196C153.866 80.7629 153.899 80.8229 153.909 80.8885V82.0052C153.912 82.0434 153.907 82.0818 153.895 82.1181C153.882 82.1544 153.863 82.1877 153.836 82.2159C153.81 82.2441 153.779 82.2665 153.744 82.2819C153.708 82.2972 153.67 82.305 153.632 82.3049V82.2755ZM153.632 80.048C153.561 80.0465 153.492 80.0175 153.442 79.9672C153.392 79.9168 153.362 79.8489 153.361 79.7777V78.661C153.371 78.5954 153.404 78.5354 153.454 78.4921C153.504 78.4488 153.568 78.4249 153.635 78.4249C153.701 78.4249 153.766 78.4488 153.816 78.4921C153.866 78.5354 153.899 78.5954 153.909 78.661V79.7777C153.907 79.8499 153.877 79.9187 153.826 79.9692C153.774 80.0197 153.704 80.048 153.632 80.048ZM153.632 77.8205C153.561 77.819 153.492 77.79 153.442 77.7397C153.392 77.6893 153.362 77.6214 153.361 77.5502V76.4276C153.371 76.362 153.404 76.3021 153.454 76.2587C153.504 76.2154 153.568 76.1915 153.635 76.1915C153.701 76.1915 153.766 76.2154 153.816 76.2587C153.866 76.3021 153.899 76.362 153.909 76.4276V77.5443C153.909 77.5805 153.902 77.6165 153.888 77.65C153.874 77.6835 153.853 77.714 153.828 77.7396C153.802 77.7653 153.771 77.7856 153.738 77.7995C153.704 77.8134 153.668 77.8205 153.632 77.8205ZM153.632 75.593C153.561 75.5915 153.492 75.5625 153.442 75.5122C153.392 75.4618 153.362 75.3939 153.361 75.3226V74.206C153.371 74.1404 153.404 74.0804 153.454 74.0371C153.504 73.9938 153.568 73.9699 153.635 73.9699C153.701 73.9699 153.766 73.9938 153.816 74.0371C153.866 74.0804 153.899 74.1404 153.909 74.206V75.3226C153.907 75.3949 153.877 75.4636 153.826 75.5142C153.774 75.5647 153.704 75.593 153.632 75.593ZM153.632 73.3655C153.56 73.364 153.491 73.3342 153.44 73.2825C153.389 73.2309 153.361 73.1615 153.361 73.0893V71.9785C153.355 71.9392 153.358 71.8992 153.369 71.8611C153.38 71.823 153.399 71.7877 153.425 71.7577C153.451 71.7277 153.484 71.7036 153.52 71.6871C153.556 71.6706 153.595 71.662 153.635 71.662C153.675 71.662 153.714 71.6706 153.75 71.6871C153.786 71.7036 153.818 71.7277 153.844 71.7577C153.87 71.7877 153.89 71.823 153.901 71.8611C153.912 71.8992 153.915 71.9392 153.909 71.9785V73.0893C153.909 73.1625 153.88 73.2328 153.828 73.2846C153.776 73.3364 153.705 73.3655 153.632 73.3655ZM153.632 71.138C153.56 71.1365 153.491 71.1067 153.44 71.055C153.389 71.0034 153.361 70.934 153.361 70.8618V69.751C153.355 69.7117 153.358 69.6717 153.369 69.6336C153.38 69.5955 153.399 69.5602 153.425 69.5302C153.451 69.5002 153.484 69.4761 153.52 69.4596C153.556 69.4431 153.595 69.4345 153.635 69.4345C153.675 69.4345 153.714 69.4431 153.75 69.4596C153.786 69.4761 153.818 69.5002 153.844 69.5302C153.87 69.5602 153.89 69.5955 153.901 69.6336C153.912 69.6717 153.915 69.7117 153.909 69.751V70.8618C153.909 70.935 153.88 71.0053 153.828 71.0571C153.776 71.1089 153.705 71.138 153.632 71.138ZM153.632 68.9105C153.56 68.909 153.491 68.8792 153.44 68.8275C153.389 68.7759 153.361 68.7065 153.361 68.6343V67.5235C153.355 67.4842 153.358 67.4442 153.369 67.4061C153.38 67.368 153.399 67.3327 153.425 67.3027C153.451 67.2727 153.484 67.2486 153.52 67.2321C153.556 67.2156 153.595 67.207 153.635 67.207C153.675 67.207 153.714 67.2156 153.75 67.2321C153.786 67.2486 153.818 67.2727 153.844 67.3027C153.87 67.3327 153.89 67.368 153.901 67.4061C153.912 67.4442 153.915 67.4842 153.909 67.5235V68.6343C153.909 68.7075 153.88 68.7778 153.828 68.8296C153.776 68.8814 153.705 68.9105 153.632 68.9105Z" fill="#F5F5F5"/>
<path d="M153.632 99.5315C153.56 99.53 153.491 99.5002 153.44 99.4486C153.389 99.3969 153.361 99.3275 153.361 99.2553V98.7087C153.371 98.6431 153.404 98.5832 153.454 98.5398C153.504 98.4965 153.568 98.4727 153.635 98.4727C153.701 98.4727 153.766 98.4965 153.816 98.5398C153.866 98.5832 153.899 98.6431 153.909 98.7087V99.2553C153.909 99.2916 153.902 99.3275 153.888 99.361C153.874 99.3945 153.853 99.425 153.828 99.4506C153.802 99.4763 153.771 99.4966 153.738 99.5105C153.704 99.5244 153.668 99.5315 153.632 99.5315Z" fill="#F5F5F5"/>
<path d="M174.913 68.1389C174.84 68.1389 174.769 68.1098 174.717 68.058C174.665 68.0062 174.636 67.936 174.636 67.8627V67.3161C174.646 67.2505 174.679 67.1906 174.729 67.1473C174.779 67.1039 174.844 67.0801 174.91 67.0801C174.976 67.0801 175.041 67.1039 175.091 67.1473C175.141 67.1906 175.174 67.2505 175.184 67.3161V67.8627C175.184 67.935 175.156 68.0043 175.105 68.056C175.054 68.1076 174.985 68.1374 174.913 68.1389Z" fill="#F5F5F5"/>
<path d="M174.913 85.5896C174.839 85.5896 174.769 85.5605 174.717 85.5087C174.665 85.4569 174.636 85.3866 174.636 85.3133V84.226C174.63 84.1868 174.633 84.1467 174.644 84.1086C174.655 84.0706 174.674 84.0353 174.7 84.0053C174.726 83.9752 174.759 83.9512 174.795 83.9347C174.831 83.9181 174.87 83.9096 174.91 83.9096C174.95 83.9096 174.989 83.9181 175.025 83.9347C175.061 83.9512 175.093 83.9752 175.119 84.0053C175.145 84.0353 175.165 84.0706 175.176 84.1086C175.187 84.1467 175.19 84.1868 175.184 84.226V85.3133C175.184 85.3856 175.155 85.455 175.105 85.5066C175.054 85.5582 174.985 85.588 174.913 85.5896ZM174.913 83.4091C174.839 83.4091 174.769 83.38 174.717 83.3282C174.665 83.2764 174.636 83.2061 174.636 83.1328V82.0455C174.63 82.0063 174.633 81.9663 174.644 81.9282C174.655 81.8901 174.674 81.8548 174.7 81.8248C174.726 81.7948 174.759 81.7707 174.795 81.7542C174.831 81.7377 174.87 81.7291 174.91 81.7291C174.95 81.7291 174.989 81.7377 175.025 81.7542C175.061 81.7707 175.093 81.7948 175.119 81.8248C175.145 81.8548 175.165 81.8901 175.176 81.9282C175.187 81.9663 175.19 82.0063 175.184 82.0455V83.1328C175.184 83.2051 175.155 83.2745 175.105 83.3261C175.054 83.3778 174.985 83.4075 174.913 83.4091ZM174.913 81.2286C174.839 81.2286 174.769 81.1995 174.717 81.1477C174.665 81.0959 174.636 81.0256 174.636 80.9524V79.8651C174.63 79.8258 174.633 79.7858 174.644 79.7477C174.655 79.7096 174.674 79.6743 174.7 79.6443C174.726 79.6143 174.759 79.5902 174.795 79.5737C174.831 79.5572 174.87 79.5486 174.91 79.5486C174.95 79.5486 174.989 79.5572 175.025 79.5737C175.061 79.5902 175.093 79.6143 175.119 79.6443C175.145 79.6743 175.165 79.7096 175.176 79.7477C175.187 79.7858 175.19 79.8258 175.184 79.8651V80.9524C175.184 81.0246 175.155 81.094 175.105 81.1456C175.054 81.1973 174.985 81.2271 174.913 81.2286ZM174.913 79.0481C174.839 79.0481 174.769 79.019 174.717 78.9672C174.665 78.9154 174.636 78.8451 174.636 78.7719V77.6787C174.646 77.6131 174.679 77.5532 174.729 77.5098C174.779 77.4665 174.843 77.4426 174.91 77.4426C174.976 77.4426 175.041 77.4665 175.091 77.5098C175.141 77.5532 175.174 77.6131 175.184 77.6787V78.7777C175.182 78.849 175.153 78.9169 175.103 78.9673C175.052 79.0176 174.984 79.0466 174.913 79.0481ZM174.913 76.8617C174.877 76.8625 174.841 76.8561 174.807 76.8429C174.774 76.8296 174.743 76.8098 174.717 76.7847C174.692 76.7595 174.671 76.7294 174.657 76.6962C174.643 76.663 174.636 76.6274 174.636 76.5914V75.4982C174.646 75.4326 174.679 75.3727 174.729 75.3293C174.779 75.286 174.843 75.2622 174.91 75.2622C174.976 75.2622 175.041 75.286 175.091 75.3293C175.141 75.3727 175.174 75.4326 175.184 75.4982V76.5914C175.184 76.6631 175.155 76.7319 175.104 76.7826C175.054 76.8333 174.985 76.8617 174.913 76.8617ZM174.913 74.6813C174.84 74.6813 174.771 74.653 174.719 74.6024C174.667 74.5519 174.638 74.4831 174.636 74.4109V73.3177C174.646 73.2521 174.679 73.1922 174.729 73.1489C174.779 73.1055 174.843 73.0817 174.91 73.0817C174.976 73.0817 175.041 73.1055 175.091 73.1489C175.141 73.1922 175.174 73.2521 175.184 73.3177V74.4109C175.178 74.479 175.147 74.5426 175.097 74.5892C175.047 74.6359 174.981 74.6624 174.913 74.6636V74.6813ZM174.913 72.5008C174.84 72.5008 174.771 72.4725 174.719 72.422C174.667 72.3714 174.638 72.3027 174.636 72.2304V71.1372C174.646 71.0716 174.679 71.0117 174.729 70.9684C174.779 70.925 174.843 70.9012 174.91 70.9012C174.976 70.9012 175.041 70.925 175.091 70.9684C175.141 71.0117 175.174 71.0716 175.184 71.1372V72.2304C175.182 72.3017 175.153 72.3696 175.103 72.4199C175.052 72.4703 174.984 72.4993 174.913 72.5008ZM174.913 70.3203C174.84 70.3203 174.771 70.292 174.719 70.2415C174.667 70.1909 174.638 70.1222 174.636 70.0499V68.9568C174.646 68.8912 174.679 68.8312 174.729 68.7879C174.779 68.7446 174.843 68.7207 174.91 68.7207C174.976 68.7207 175.041 68.7446 175.091 68.7879C175.141 68.8312 175.174 68.8912 175.184 68.9568V70.0499C175.182 70.1212 175.153 70.1891 175.103 70.2394C175.052 70.2898 174.984 70.3188 174.913 70.3203Z" fill="#F5F5F5"/>
<path d="M174.913 87.2232C174.877 87.224 174.841 87.2175 174.807 87.2043C174.774 87.1911 174.743 87.1713 174.717 87.1461C174.692 87.1209 174.671 87.0909 174.657 87.0577C174.643 87.0245 174.636 86.9888 174.636 86.9528V86.418C174.63 86.3787 174.633 86.3387 174.644 86.3006C174.655 86.2625 174.674 86.2273 174.7 86.1972C174.726 86.1672 174.759 86.1431 174.795 86.1266C174.831 86.1101 174.87 86.1016 174.91 86.1016C174.95 86.1016 174.989 86.1101 175.025 86.1266C175.061 86.1431 175.093 86.1672 175.119 86.1972C175.145 86.2273 175.165 86.2625 175.176 86.3006C175.187 86.3387 175.19 86.3787 175.184 86.418V86.9646C175.181 87.0342 175.151 87.1 175.1 87.1482C175.05 87.1964 174.983 87.2232 174.913 87.2232Z" fill="#F5F5F5"/>
<path d="M158.079 48.9498C158.079 48.415 157.702 48.1975 157.237 48.4679L149.479 52.917C149.234 53.0779 149.03 53.2942 148.883 53.5485C148.737 53.8027 148.653 54.0877 148.637 54.3804V60.6457C148.637 61.1805 149.014 61.398 149.479 61.1276L152.36 59.4702L153.567 61.5625C153.585 61.5924 153.611 61.6166 153.642 61.6322C153.674 61.6477 153.709 61.654 153.743 61.6503C153.778 61.6466 153.811 61.633 153.838 61.6112C153.865 61.5894 153.886 61.5603 153.897 61.5273L155.175 57.8481L157.237 56.6726C157.483 56.5136 157.688 56.2986 157.834 56.0452C157.98 55.7917 158.064 55.5072 158.079 55.215V48.9498Z" fill="#F5F5F5"/>
<path d="M151.329 55.516C151.251 55.522 151.173 55.5104 151.101 55.4819C151.028 55.4534 150.963 55.4087 150.911 55.3514C150.798 55.2059 150.743 55.0236 150.758 54.8401C150.758 54.6006 150.81 54.364 150.911 54.1465C151.014 53.9081 151.155 53.6878 151.329 53.4942C151.496 53.2979 151.695 53.131 151.918 53.0005C152.095 52.8901 152.298 52.8274 152.507 52.8183C152.585 52.8138 152.663 52.8267 152.735 52.8562C152.808 52.8857 152.873 52.931 152.925 52.9887C153.04 53.1334 153.097 53.3158 153.084 53.5C153.08 53.7379 153.026 53.9722 152.925 54.1877C152.818 54.4261 152.677 54.6478 152.507 54.8459C152.338 55.0374 152.139 55.2002 151.918 55.3279C151.742 55.4418 151.538 55.5067 151.329 55.516ZM151.14 58.6838C151.142 58.6468 151.152 58.6106 151.17 58.578L154.539 51.7427L154.627 51.5899C154.664 51.5512 154.705 51.5176 154.751 51.49L155.44 51.0962C155.453 51.0907 155.467 51.0879 155.481 51.0879C155.496 51.0879 155.51 51.0907 155.523 51.0962C155.534 51.099 155.544 51.106 155.551 51.1158C155.557 51.1256 155.56 51.1375 155.558 51.1491C155.557 51.189 155.545 51.2278 155.523 51.2608L152.124 58.102C152.124 58.1608 152.065 58.2019 152.047 58.2313C152.016 58.2656 151.978 58.2935 151.936 58.3136L151.241 58.7191C151.182 58.7955 151.14 58.7544 151.14 58.6838ZM152.318 54.3464C152.424 54.1939 152.483 54.0144 152.489 53.8292C152.499 53.7625 152.488 53.6944 152.458 53.6343C152.427 53.5743 152.378 53.5253 152.318 53.4942C152.247 53.4728 152.171 53.4686 152.097 53.4819C152.024 53.4951 151.954 53.5255 151.894 53.5706C151.722 53.6713 151.576 53.8125 151.47 53.982C151.364 54.1383 151.304 54.3219 151.299 54.5109C151.29 54.5759 151.302 54.6421 151.332 54.7002C151.363 54.7582 151.411 54.8051 151.47 54.8342C151.542 54.8555 151.617 54.8602 151.69 54.8479C151.764 54.8357 151.834 54.8069 151.894 54.7637C152.076 54.6638 152.23 54.5204 152.342 54.3464H152.318ZM154.191 56.9794C154.112 56.9852 154.033 56.9729 153.96 56.9434C153.886 56.9138 153.82 56.8678 153.767 56.809C153.652 56.6666 153.595 56.486 153.608 56.3035C153.612 56.0676 153.666 55.8352 153.767 55.6218C153.873 55.3816 154.017 55.1595 154.191 54.9635C154.359 54.7687 154.558 54.6037 154.78 54.4757C154.957 54.3618 155.16 54.2968 155.369 54.2876C155.448 54.2835 155.526 54.296 155.599 54.3244C155.672 54.3528 155.739 54.3963 155.794 54.4522C155.91 54.5963 155.967 54.7791 155.953 54.9635C155.949 55.2014 155.895 55.4358 155.794 55.6511C155.685 55.8898 155.542 56.1115 155.369 56.3094C155.201 56.5026 155.002 56.6673 154.78 56.7972C154.61 56.9031 154.416 56.9657 154.215 56.9794H154.191ZM155.199 55.8039C155.307 55.6506 155.366 55.4684 155.369 55.2809C155.369 55.1104 155.316 55.0046 155.199 54.9576C155.127 54.9358 155.051 54.9313 154.977 54.9446C154.904 54.9579 154.834 54.9886 154.775 55.034C154.6 55.1329 154.454 55.2745 154.35 55.4454C154.246 55.5983 154.187 55.7776 154.18 55.9626C154.18 56.139 154.239 56.2506 154.35 56.2918C154.422 56.3105 154.498 56.3134 154.571 56.3002C154.644 56.287 154.714 56.2581 154.775 56.2154C154.953 56.1193 155.107 55.9824 155.222 55.8157L155.199 55.8039Z" fill="#F3B36A"/>
<path opacity="0.4" d="M151.329 55.516C151.251 55.522 151.173 55.5104 151.101 55.4819C151.028 55.4534 150.963 55.4087 150.911 55.3514C150.798 55.2059 150.743 55.0236 150.758 54.8401C150.758 54.6006 150.81 54.364 150.911 54.1465C151.014 53.9081 151.155 53.6878 151.329 53.4942C151.496 53.2979 151.695 53.131 151.918 53.0005C152.095 52.8901 152.298 52.8274 152.507 52.8183C152.585 52.8138 152.663 52.8267 152.735 52.8562C152.808 52.8857 152.873 52.931 152.925 52.9887C153.04 53.1334 153.097 53.3158 153.084 53.5C153.08 53.7379 153.026 53.9722 152.925 54.1877C152.818 54.4261 152.677 54.6478 152.507 54.8459C152.338 55.0374 152.139 55.2002 151.918 55.3279C151.742 55.4418 151.538 55.5067 151.329 55.516ZM151.14 58.6838C151.142 58.6468 151.152 58.6106 151.17 58.578L154.539 51.7427L154.627 51.5899C154.664 51.5512 154.705 51.5176 154.751 51.49L155.44 51.0962C155.453 51.0907 155.467 51.0879 155.481 51.0879C155.496 51.0879 155.51 51.0907 155.523 51.0962C155.534 51.099 155.544 51.106 155.551 51.1158C155.557 51.1256 155.56 51.1375 155.558 51.1491C155.557 51.189 155.545 51.2278 155.523 51.2608L152.124 58.102C152.124 58.1608 152.065 58.2019 152.047 58.2313C152.016 58.2656 151.978 58.2935 151.936 58.3136L151.241 58.7191C151.182 58.7955 151.14 58.7544 151.14 58.6838ZM152.318 54.3464C152.424 54.1939 152.483 54.0144 152.489 53.8292C152.499 53.7625 152.488 53.6944 152.458 53.6343C152.427 53.5743 152.378 53.5253 152.318 53.4942C152.247 53.4728 152.171 53.4686 152.097 53.4819C152.024 53.4951 151.954 53.5255 151.894 53.5706C151.722 53.6713 151.576 53.8125 151.47 53.982C151.364 54.1383 151.304 54.3219 151.299 54.5109C151.29 54.5759 151.302 54.6421 151.332 54.7002C151.363 54.7582 151.411 54.8051 151.47 54.8342C151.542 54.8555 151.617 54.8602 151.69 54.8479C151.764 54.8357 151.834 54.8069 151.894 54.7637C152.076 54.6638 152.23 54.5204 152.342 54.3464H152.318ZM154.191 56.9794C154.112 56.9852 154.033 56.9729 153.96 56.9434C153.886 56.9138 153.82 56.8678 153.767 56.809C153.652 56.6666 153.595 56.486 153.608 56.3035C153.612 56.0676 153.666 55.8352 153.767 55.6218C153.873 55.3816 154.017 55.1595 154.191 54.9635C154.359 54.7687 154.558 54.6037 154.78 54.4757C154.957 54.3618 155.16 54.2968 155.369 54.2876C155.448 54.2835 155.526 54.296 155.599 54.3244C155.672 54.3528 155.739 54.3963 155.794 54.4522C155.91 54.5963 155.967 54.7791 155.953 54.9635C155.949 55.2014 155.895 55.4358 155.794 55.6511C155.685 55.8898 155.542 56.1115 155.369 56.3094C155.201 56.5026 155.002 56.6673 154.78 56.7972C154.61 56.9031 154.416 56.9657 154.215 56.9794H154.191ZM155.199 55.8039C155.307 55.6506 155.366 55.4684 155.369 55.2809C155.369 55.1104 155.316 55.0046 155.199 54.9576C155.127 54.9358 155.051 54.9313 154.977 54.9446C154.904 54.9579 154.834 54.9886 154.775 55.034C154.6 55.1329 154.454 55.2745 154.35 55.4454C154.246 55.5983 154.187 55.7776 154.18 55.9626C154.18 56.139 154.239 56.2506 154.35 56.2918C154.422 56.3105 154.498 56.3134 154.571 56.3002C154.644 56.287 154.714 56.2581 154.775 56.2154C154.953 56.1193 155.107 55.9824 155.222 55.8157L155.199 55.8039Z" fill="black"/>
<path d="M179.024 50.0261C179.024 49.4913 178.647 49.2738 178.182 49.5383L170.425 54.0168C170.18 54.1772 169.976 54.3925 169.83 54.6457C169.684 54.8988 169.599 55.1827 169.582 55.4744V61.7337C169.582 62.2744 169.959 62.4919 170.425 62.2215L173.328 60.5583L174.542 62.6506C174.556 62.682 174.578 62.7088 174.607 62.7276C174.636 62.7464 174.669 62.7564 174.704 62.7564C174.738 62.7564 174.772 62.7464 174.801 62.7276C174.829 62.7088 174.852 62.682 174.866 62.6506L176.144 58.9655L178.211 57.79C178.456 57.6297 178.66 57.4143 178.806 57.1612C178.952 56.9081 179.037 56.6242 179.054 56.3325L179.024 50.0261Z" fill="#F5F5F5"/>
<path d="M172.274 56.591C172.195 56.596 172.116 56.5833 172.043 56.5538C171.969 56.5243 171.904 56.4788 171.85 56.4206C171.739 56.2766 171.684 56.0967 171.697 55.9151C171.7 55.676 171.752 55.44 171.85 55.2216C171.955 54.981 172.099 54.7588 172.274 54.5634C172.443 54.3702 172.642 54.2055 172.863 54.0755C173.04 53.9637 173.243 53.9008 173.452 53.8934C173.531 53.8875 173.611 53.8998 173.684 53.9294C173.758 53.9589 173.823 54.0049 173.876 54.0638C173.993 54.2076 174.05 54.3907 174.035 54.5751C174.031 54.8111 173.977 55.0435 173.876 55.2569C173.77 55.497 173.627 55.7191 173.452 55.9151C173.285 56.11 173.086 56.2749 172.863 56.403C172.687 56.5169 172.484 56.5818 172.274 56.591ZM172.08 59.7589C172.081 59.7192 172.094 59.6807 172.115 59.6472L175.484 52.8119C175.507 52.7575 175.537 52.7061 175.573 52.6591C175.605 52.6186 175.645 52.5847 175.69 52.5592L176.385 52.1595C176.421 52.1595 176.444 52.1302 176.468 52.1595C176.491 52.1889 176.497 52.1595 176.497 52.2124C176.498 52.2517 176.488 52.2903 176.468 52.3241L173.081 59.1947C173.06 59.2402 173.034 59.2836 173.005 59.324C172.975 59.358 172.939 59.386 172.899 59.4063L172.198 59.8118C172.15 59.8353 172.08 59.8236 172.08 59.7589ZM173.258 55.4214C173.363 55.2686 173.422 55.0893 173.429 54.9042C173.439 54.8376 173.428 54.7695 173.397 54.7094C173.366 54.6494 173.318 54.6003 173.258 54.5692C173.186 54.5479 173.11 54.5437 173.037 54.5569C172.963 54.5702 172.893 54.6006 172.834 54.6456C172.663 54.7465 172.519 54.8878 172.416 55.0571C172.306 55.2122 172.247 55.3965 172.245 55.586C172.234 55.6511 172.246 55.7177 172.276 55.7759C172.307 55.8342 172.356 55.8809 172.416 55.9093C172.486 55.9306 172.561 55.9348 172.634 55.9215C172.707 55.9082 172.775 55.8778 172.834 55.8329C173.016 55.7372 173.171 55.5953 173.281 55.4214H173.258ZM175.131 58.0545C175.052 58.059 174.973 58.0461 174.9 58.0166C174.826 57.9872 174.76 57.9419 174.707 57.884C174.597 57.7391 174.543 57.5599 174.554 57.3786C174.558 57.1414 174.61 56.9076 174.707 56.6909C174.816 56.4523 174.959 56.2306 175.131 56.0327C175.3 55.8412 175.499 55.6785 175.72 55.5507C175.897 55.4386 176.1 55.3738 176.309 55.3627C176.387 55.3574 176.466 55.3694 176.539 55.3978C176.613 55.4263 176.679 55.4704 176.733 55.5272C176.849 55.6693 176.906 55.8501 176.892 56.0327C176.889 56.2726 176.835 56.5091 176.733 56.7262C176.625 56.9638 176.482 57.1837 176.309 57.3786C176.141 57.5728 175.942 57.7376 175.72 57.8664C175.549 57.9737 175.355 58.0383 175.154 58.0545H175.131ZM176.144 56.879C176.25 56.7227 176.31 56.5391 176.315 56.3501C176.323 56.2852 176.311 56.2193 176.281 56.1614C176.25 56.1036 176.202 56.0566 176.144 56.0268C176.071 56.008 175.994 56.0056 175.92 56.0198C175.845 56.0341 175.775 56.0645 175.714 56.1091C175.543 56.2072 175.399 56.3466 175.296 56.5146C175.187 56.6679 175.125 56.8498 175.119 57.0377C175.119 57.214 175.178 57.3198 175.296 57.3668C175.367 57.3855 175.441 57.3883 175.513 57.3751C175.586 57.3619 175.654 57.333 175.714 57.2904C175.895 57.1946 176.05 57.0577 176.168 56.8908L176.144 56.879Z" fill="#F3B36A"/>
<path opacity="0.4" d="M172.274 56.591C172.195 56.596 172.116 56.5833 172.043 56.5538C171.969 56.5243 171.904 56.4788 171.85 56.4206C171.739 56.2766 171.684 56.0967 171.697 55.9151C171.7 55.676 171.752 55.44 171.85 55.2216C171.955 54.981 172.099 54.7588 172.274 54.5634C172.443 54.3702 172.642 54.2055 172.863 54.0755C173.04 53.9637 173.243 53.9008 173.452 53.8934C173.531 53.8875 173.611 53.8998 173.684 53.9294C173.758 53.9589 173.823 54.0049 173.876 54.0638C173.993 54.2076 174.05 54.3907 174.035 54.5751C174.031 54.8111 173.977 55.0435 173.876 55.2569C173.77 55.497 173.627 55.7191 173.452 55.9151C173.285 56.11 173.086 56.2749 172.863 56.403C172.687 56.5169 172.484 56.5818 172.274 56.591ZM172.08 59.7589C172.081 59.7192 172.094 59.6807 172.115 59.6472L175.484 52.8119C175.507 52.7575 175.537 52.7061 175.573 52.6591C175.605 52.6186 175.645 52.5847 175.69 52.5592L176.385 52.1595C176.421 52.1595 176.444 52.1302 176.468 52.1595C176.491 52.1889 176.497 52.1595 176.497 52.2124C176.498 52.2517 176.488 52.2903 176.468 52.3241L173.081 59.1947C173.06 59.2402 173.034 59.2836 173.005 59.324C172.975 59.358 172.939 59.386 172.899 59.4063L172.198 59.8118C172.15 59.8353 172.08 59.8236 172.08 59.7589ZM173.258 55.4214C173.363 55.2686 173.422 55.0893 173.429 54.9042C173.439 54.8376 173.428 54.7695 173.397 54.7094C173.366 54.6494 173.318 54.6003 173.258 54.5692C173.186 54.5479 173.11 54.5437 173.037 54.5569C172.963 54.5702 172.893 54.6006 172.834 54.6456C172.663 54.7465 172.519 54.8878 172.416 55.0571C172.306 55.2122 172.247 55.3965 172.245 55.586C172.234 55.6511 172.246 55.7177 172.276 55.7759C172.307 55.8342 172.356 55.8809 172.416 55.9093C172.486 55.9306 172.561 55.9348 172.634 55.9215C172.707 55.9082 172.775 55.8778 172.834 55.8329C173.016 55.7372 173.171 55.5953 173.281 55.4214H173.258ZM175.131 58.0545C175.052 58.059 174.973 58.0461 174.9 58.0166C174.826 57.9872 174.76 57.9419 174.707 57.884C174.597 57.7391 174.543 57.5599 174.554 57.3786C174.558 57.1414 174.61 56.9076 174.707 56.6909C174.816 56.4523 174.959 56.2306 175.131 56.0327C175.3 55.8412 175.499 55.6785 175.72 55.5507C175.897 55.4386 176.1 55.3738 176.309 55.3627C176.387 55.3574 176.466 55.3694 176.539 55.3978C176.613 55.4263 176.679 55.4704 176.733 55.5272C176.849 55.6693 176.906 55.8501 176.892 56.0327C176.889 56.2726 176.835 56.5091 176.733 56.7262C176.625 56.9638 176.482 57.1837 176.309 57.3786C176.141 57.5728 175.942 57.7376 175.72 57.8664C175.549 57.9737 175.355 58.0383 175.154 58.0545H175.131ZM176.144 56.879C176.25 56.7227 176.31 56.5391 176.315 56.3501C176.323 56.2852 176.311 56.2193 176.281 56.1614C176.25 56.1036 176.202 56.0566 176.144 56.0268C176.071 56.008 175.994 56.0056 175.92 56.0198C175.845 56.0341 175.775 56.0645 175.714 56.1091C175.543 56.2072 175.399 56.3466 175.296 56.5146C175.187 56.6679 175.125 56.8498 175.119 57.0377C175.119 57.214 175.178 57.3198 175.296 57.3668C175.367 57.3855 175.441 57.3883 175.513 57.3751C175.586 57.3619 175.654 57.333 175.714 57.2904C175.895 57.1946 176.05 57.0577 176.168 56.8908L176.144 56.879Z" fill="black"/>
<path d="M136.056 41.6686C136.056 41.1337 135.679 40.9163 135.213 41.1866L127.456 45.6592C127.211 45.8202 127.006 46.0365 126.86 46.2907C126.714 46.5449 126.629 46.8299 126.614 47.1227V53.3879C126.614 53.9228 126.991 54.1402 127.456 53.8699L130.331 52.2125L131.544 54.2989C131.558 54.3304 131.58 54.3571 131.609 54.3759C131.638 54.3947 131.671 54.4048 131.706 54.4048C131.74 54.4048 131.774 54.3947 131.803 54.3759C131.831 54.3571 131.854 54.3304 131.868 54.2989L133.146 50.6197L135.213 49.4442C135.46 49.2853 135.664 49.0702 135.811 48.8168C135.957 48.5634 136.041 48.2788 136.056 47.9867V41.6686Z" fill="#F5F5F5"/>
<path d="M129.3 48.2157C129.222 48.221 129.144 48.2089 129.072 48.1804C129 48.152 128.935 48.1078 128.882 48.0512C128.771 47.9044 128.717 47.7231 128.728 47.5398C128.732 47.3007 128.784 47.0647 128.882 46.8463C128.987 46.609 129.128 46.389 129.3 46.1939C129.468 45.999 129.667 45.8323 129.889 45.7002C130.067 45.5906 130.269 45.5279 130.478 45.518C130.557 45.5122 130.636 45.5245 130.71 45.5541C130.783 45.5836 130.849 45.6296 130.902 45.6885C131.017 45.8332 131.074 46.0155 131.061 46.1998C131.057 46.4376 131.003 46.6719 130.902 46.8875C130.793 47.1261 130.65 47.3478 130.478 47.5457C130.309 47.7372 130.11 47.8999 129.889 48.0277C129.713 48.1416 129.509 48.2065 129.3 48.2157ZM129.111 51.3836C129.112 51.3456 129.124 51.3087 129.147 51.2778L132.516 44.4366C132.54 44.3829 132.57 44.3317 132.604 44.2838C132.637 44.2433 132.677 44.2094 132.722 44.1839L133.417 43.7901C133.43 43.7843 133.444 43.7812 133.458 43.7813C133.472 43.7812 133.487 43.7843 133.499 43.7901C133.499 43.7901 133.529 43.7901 133.529 43.843C133.53 43.8823 133.52 43.9212 133.499 43.9547L130.113 50.8253C130.092 50.8708 130.066 50.9141 130.036 50.9546C130.008 50.9903 129.972 51.0185 129.93 51.0368L129.229 51.4424C129.153 51.4835 129.111 51.4718 129.111 51.4012V51.3836ZM130.289 47.0461C130.395 46.8937 130.454 46.7141 130.46 46.5289C130.47 46.4623 130.459 46.3942 130.429 46.3341C130.398 46.2741 130.349 46.225 130.289 46.1939C130.218 46.1726 130.142 46.1684 130.068 46.1816C129.995 46.1949 129.925 46.2253 129.865 46.2703C129.694 46.3714 129.551 46.5127 129.447 46.6817C129.338 46.8369 129.279 47.0212 129.276 47.2107C129.276 47.3811 129.329 47.4869 129.447 47.534C129.518 47.5553 129.593 47.5595 129.665 47.5462C129.738 47.5329 129.807 47.5025 129.865 47.4576C130.055 47.3629 130.216 47.2187 130.331 47.0403L130.289 47.0461ZM132.162 49.6792C132.083 49.685 132.004 49.6727 131.931 49.6431C131.857 49.6136 131.791 49.5676 131.738 49.5087C131.628 49.3643 131.573 49.1847 131.585 49.0033C131.59 48.7681 131.642 48.5363 131.738 48.3215C131.844 48.0814 131.987 47.8593 132.162 47.6633C132.33 47.4684 132.529 47.3035 132.751 47.1754C132.927 47.0615 133.131 46.9966 133.34 46.9874C133.419 46.9833 133.497 46.9958 133.57 47.0242C133.643 47.0525 133.71 47.0961 133.765 47.1519C133.879 47.2969 133.933 47.4796 133.918 47.6633C133.917 47.9008 133.864 48.1353 133.765 48.3509C133.656 48.5895 133.513 48.8112 133.34 49.0092C133.171 49.2021 132.973 49.3667 132.751 49.497C132.582 49.6091 132.388 49.6777 132.186 49.6968L132.162 49.6792ZM133.176 48.5037C133.281 48.3492 133.341 48.1677 133.346 47.9806C133.356 47.9157 133.344 47.8494 133.313 47.7914C133.283 47.7333 133.234 47.6864 133.176 47.6574C133.103 47.6355 133.026 47.631 132.951 47.6443C132.877 47.6576 132.806 47.6882 132.746 47.7338C132.574 47.8335 132.43 47.975 132.327 48.1452C132.218 48.2964 132.157 48.4763 132.151 48.6624C132.151 48.8387 132.21 48.9504 132.327 48.9915C132.398 49.0102 132.473 49.013 132.545 48.9998C132.617 48.9866 132.686 48.9577 132.746 48.9151C132.924 48.8243 133.079 48.6936 133.199 48.5331L133.176 48.5037Z" fill="#F3B36A"/>
<path opacity="0.4" d="M129.3 48.2157C129.222 48.221 129.144 48.2089 129.072 48.1804C129 48.152 128.935 48.1078 128.882 48.0512C128.771 47.9044 128.717 47.7231 128.728 47.5398C128.732 47.3007 128.784 47.0647 128.882 46.8463C128.987 46.609 129.128 46.389 129.3 46.1939C129.468 45.999 129.667 45.8323 129.889 45.7002C130.067 45.5906 130.269 45.5279 130.478 45.518C130.557 45.5122 130.636 45.5245 130.71 45.5541C130.783 45.5836 130.849 45.6296 130.902 45.6885C131.017 45.8332 131.074 46.0155 131.061 46.1998C131.057 46.4376 131.003 46.6719 130.902 46.8875C130.793 47.1261 130.65 47.3478 130.478 47.5457C130.309 47.7372 130.11 47.8999 129.889 48.0277C129.713 48.1416 129.509 48.2065 129.3 48.2157ZM129.111 51.3836C129.112 51.3456 129.124 51.3087 129.147 51.2778L132.516 44.4366C132.54 44.3829 132.57 44.3317 132.604 44.2838C132.637 44.2433 132.677 44.2094 132.722 44.1839L133.417 43.7901C133.43 43.7843 133.444 43.7812 133.458 43.7813C133.472 43.7812 133.487 43.7843 133.499 43.7901C133.499 43.7901 133.529 43.7901 133.529 43.843C133.53 43.8823 133.52 43.9212 133.499 43.9547L130.113 50.8253C130.092 50.8708 130.066 50.9141 130.036 50.9546C130.008 50.9903 129.972 51.0185 129.93 51.0368L129.229 51.4424C129.153 51.4835 129.111 51.4718 129.111 51.4012V51.3836ZM130.289 47.0461C130.395 46.8937 130.454 46.7141 130.46 46.5289C130.47 46.4623 130.459 46.3942 130.429 46.3341C130.398 46.2741 130.349 46.225 130.289 46.1939C130.218 46.1726 130.142 46.1684 130.068 46.1816C129.995 46.1949 129.925 46.2253 129.865 46.2703C129.694 46.3714 129.551 46.5127 129.447 46.6817C129.338 46.8369 129.279 47.0212 129.276 47.2107C129.276 47.3811 129.329 47.4869 129.447 47.534C129.518 47.5553 129.593 47.5595 129.665 47.5462C129.738 47.5329 129.807 47.5025 129.865 47.4576C130.055 47.3629 130.216 47.2187 130.331 47.0403L130.289 47.0461ZM132.162 49.6792C132.083 49.685 132.004 49.6727 131.931 49.6431C131.857 49.6136 131.791 49.5676 131.738 49.5087C131.628 49.3643 131.573 49.1847 131.585 49.0033C131.59 48.7681 131.642 48.5363 131.738 48.3215C131.844 48.0814 131.987 47.8593 132.162 47.6633C132.33 47.4684 132.529 47.3035 132.751 47.1754C132.927 47.0615 133.131 46.9966 133.34 46.9874C133.419 46.9833 133.497 46.9958 133.57 47.0242C133.643 47.0525 133.71 47.0961 133.765 47.1519C133.879 47.2969 133.933 47.4796 133.918 47.6633C133.917 47.9008 133.864 48.1353 133.765 48.3509C133.656 48.5895 133.513 48.8112 133.34 49.0092C133.171 49.2021 132.973 49.3667 132.751 49.497C132.582 49.6091 132.388 49.6777 132.186 49.6968L132.162 49.6792ZM133.176 48.5037C133.281 48.3492 133.341 48.1677 133.346 47.9806C133.356 47.9157 133.344 47.8494 133.313 47.7914C133.283 47.7333 133.234 47.6864 133.176 47.6574C133.103 47.6355 133.026 47.631 132.951 47.6443C132.877 47.6576 132.806 47.6882 132.746 47.7338C132.574 47.8335 132.43 47.975 132.327 48.1452C132.218 48.2964 132.157 48.4763 132.151 48.6624C132.151 48.8387 132.21 48.9504 132.327 48.9915C132.398 49.0102 132.473 49.013 132.545 48.9998C132.617 48.9866 132.686 48.9577 132.746 48.9151C132.924 48.8243 133.079 48.6936 133.199 48.5331L133.176 48.5037Z" fill="black"/>
<path d="M107.895 75.0281C107.895 74.4932 107.518 74.2758 107.053 74.5403L99.2957 79.0188C99.0501 79.1797 98.8459 79.396 98.6995 79.6502C98.5532 79.9045 98.4689 80.1895 98.4534 80.4822V86.7416C98.4534 87.2823 98.8303 87.4997 99.2957 87.2294L102.176 85.572L103.383 87.6584C103.401 87.6885 103.426 87.713 103.457 87.7289C103.488 87.7449 103.523 87.7518 103.558 87.7487C103.592 87.7456 103.625 87.7327 103.653 87.7115C103.681 87.6903 103.701 87.6617 103.713 87.629L104.991 83.944L107.053 82.7685C107.298 82.6088 107.503 82.3936 107.649 82.1403C107.795 81.8871 107.88 81.6029 107.895 81.3109V75.0281Z" fill="#F5F5F5"/>
<path d="M101.145 81.5929C101.067 81.5991 100.988 81.587 100.916 81.5574C100.843 81.5278 100.778 81.4815 100.727 81.4224C100.613 81.2798 100.558 81.0988 100.574 80.917C100.574 80.6775 100.626 80.4409 100.727 80.2234C100.831 79.9839 100.973 79.7618 101.145 79.5652C101.313 79.371 101.512 79.2061 101.734 79.0774C101.911 78.9655 102.114 78.9026 102.323 78.8952C102.402 78.8893 102.481 78.9017 102.555 78.9312C102.629 78.9608 102.694 79.0067 102.747 79.0656C102.863 79.2097 102.92 79.3925 102.906 79.5769C102.902 79.8129 102.848 80.0453 102.747 80.2587C102.64 80.4999 102.497 80.7238 102.323 80.9228C102.154 81.1143 101.955 81.2771 101.734 81.4048C101.557 81.5169 101.354 81.5817 101.145 81.5929ZM100.957 84.7607C100.959 84.7219 100.969 84.6839 100.986 84.6491L104.355 77.8137C104.378 77.7593 104.408 77.7079 104.444 77.6609C104.477 77.6217 104.517 77.588 104.561 77.561L105.256 77.1614C105.283 77.1519 105.312 77.1519 105.339 77.1614C105.35 77.1642 105.36 77.1711 105.367 77.1809C105.373 77.1907 105.376 77.2026 105.374 77.2142C105.373 77.2539 105.36 77.2925 105.339 77.3259L101.958 84.1965C101.928 84.2553 101.899 84.2964 101.881 84.3258C101.848 84.3584 101.81 84.3861 101.769 84.4081L101.069 84.8136C100.992 84.8371 100.957 84.8313 100.957 84.7607ZM102.135 80.4233C102.238 80.27 102.295 80.0906 102.3 79.9061C102.3 79.7297 102.247 79.6181 102.135 79.5711C102.063 79.5497 101.987 79.5455 101.913 79.5588C101.84 79.572 101.77 79.6024 101.711 79.6475C101.536 79.7464 101.39 79.888 101.286 80.0589C101.18 80.2152 101.121 80.3988 101.116 80.5878C101.106 80.6528 101.118 80.719 101.149 80.7771C101.179 80.8351 101.227 80.882 101.286 80.9111C101.358 80.9324 101.434 80.9367 101.508 80.9234C101.581 80.9101 101.651 80.8797 101.711 80.8347C101.892 80.7371 102.046 80.5956 102.158 80.4233H102.135ZM104.008 83.0563C103.929 83.0609 103.85 83.0479 103.776 83.0185C103.703 82.989 103.637 82.9437 103.584 82.8859C103.469 82.743 103.413 82.5628 103.425 82.3804C103.428 82.1445 103.483 81.9121 103.584 81.6986C103.691 81.4574 103.834 81.2336 104.008 81.0345C104.178 80.8441 104.376 80.6815 104.597 80.5526C104.774 80.4404 104.976 80.3756 105.186 80.3645C105.264 80.3592 105.343 80.3712 105.416 80.3996C105.489 80.4281 105.556 80.4723 105.61 80.5291C105.726 80.6729 105.783 80.8559 105.769 81.0404C105.766 81.2783 105.711 81.5128 105.61 81.728C105.502 81.9656 105.359 82.1855 105.186 82.3804C105.02 82.5763 104.82 82.7414 104.597 82.8682C104.427 82.9783 104.233 83.043 104.031 83.0563H104.008ZM105.015 81.8808C105.121 81.7245 105.181 81.5409 105.186 81.3519C105.194 81.287 105.182 81.2211 105.152 81.1633C105.121 81.1054 105.073 81.0584 105.015 81.0286C104.942 81.0098 104.865 81.0074 104.791 81.0216C104.716 81.0359 104.646 81.0664 104.585 81.1109C104.415 81.2113 104.272 81.3502 104.167 81.5165C104.06 81.6706 104.001 81.8523 103.996 82.0395C103.996 82.2159 104.049 82.3216 104.167 82.3687C104.238 82.3873 104.312 82.3902 104.384 82.3769C104.457 82.3637 104.525 82.3348 104.585 82.2923C104.765 82.1964 104.921 82.0595 105.038 81.8926L105.015 81.8808Z" fill="#F3B36A"/>
<path opacity="0.4" d="M101.145 81.5929C101.067 81.5991 100.988 81.587 100.916 81.5574C100.843 81.5278 100.778 81.4815 100.727 81.4224C100.613 81.2798 100.558 81.0988 100.574 80.917C100.574 80.6775 100.626 80.4409 100.727 80.2234C100.831 79.9839 100.973 79.7618 101.145 79.5652C101.313 79.371 101.512 79.2061 101.734 79.0774C101.911 78.9655 102.114 78.9026 102.323 78.8952C102.402 78.8893 102.481 78.9017 102.555 78.9312C102.629 78.9608 102.694 79.0067 102.747 79.0656C102.863 79.2097 102.92 79.3925 102.906 79.5769C102.902 79.8129 102.848 80.0453 102.747 80.2587C102.64 80.4999 102.497 80.7238 102.323 80.9228C102.154 81.1143 101.955 81.2771 101.734 81.4048C101.557 81.5169 101.354 81.5817 101.145 81.5929ZM100.957 84.7607C100.959 84.7219 100.969 84.6839 100.986 84.6491L104.355 77.8137C104.378 77.7593 104.408 77.7079 104.444 77.6609C104.477 77.6217 104.517 77.588 104.561 77.561L105.256 77.1614C105.283 77.1519 105.312 77.1519 105.339 77.1614C105.35 77.1642 105.36 77.1711 105.367 77.1809C105.373 77.1907 105.376 77.2026 105.374 77.2142C105.373 77.2539 105.36 77.2925 105.339 77.3259L101.958 84.1965C101.928 84.2553 101.899 84.2964 101.881 84.3258C101.848 84.3584 101.81 84.3861 101.769 84.4081L101.069 84.8136C100.992 84.8371 100.957 84.8313 100.957 84.7607ZM102.135 80.4233C102.238 80.27 102.295 80.0906 102.3 79.9061C102.3 79.7297 102.247 79.6181 102.135 79.5711C102.063 79.5497 101.987 79.5455 101.913 79.5588C101.84 79.572 101.77 79.6024 101.711 79.6475C101.536 79.7464 101.39 79.888 101.286 80.0589C101.18 80.2152 101.121 80.3988 101.116 80.5878C101.106 80.6528 101.118 80.719 101.149 80.7771C101.179 80.8351 101.227 80.882 101.286 80.9111C101.358 80.9324 101.434 80.9367 101.508 80.9234C101.581 80.9101 101.651 80.8797 101.711 80.8347C101.892 80.7371 102.046 80.5956 102.158 80.4233H102.135ZM104.008 83.0563C103.929 83.0609 103.85 83.0479 103.776 83.0185C103.703 82.989 103.637 82.9437 103.584 82.8859C103.469 82.743 103.413 82.5628 103.425 82.3804C103.428 82.1445 103.483 81.9121 103.584 81.6986C103.691 81.4574 103.834 81.2336 104.008 81.0345C104.178 80.8441 104.376 80.6815 104.597 80.5526C104.774 80.4404 104.976 80.3756 105.186 80.3645C105.264 80.3592 105.343 80.3712 105.416 80.3996C105.489 80.4281 105.556 80.4723 105.61 80.5291C105.726 80.6729 105.783 80.8559 105.769 81.0404C105.766 81.2783 105.711 81.5128 105.61 81.728C105.502 81.9656 105.359 82.1855 105.186 82.3804C105.02 82.5763 104.82 82.7414 104.597 82.8682C104.427 82.9783 104.233 83.043 104.031 83.0563H104.008ZM105.015 81.8808C105.121 81.7245 105.181 81.5409 105.186 81.3519C105.194 81.287 105.182 81.2211 105.152 81.1633C105.121 81.1054 105.073 81.0584 105.015 81.0286C104.942 81.0098 104.865 81.0074 104.791 81.0216C104.716 81.0359 104.646 81.0664 104.585 81.1109C104.415 81.2113 104.272 81.3502 104.167 81.5165C104.06 81.6706 104.001 81.8523 103.996 82.0395C103.996 82.2159 104.049 82.3216 104.167 82.3687C104.238 82.3873 104.312 82.3902 104.384 82.3769C104.457 82.3637 104.525 82.3348 104.585 82.2923C104.765 82.1964 104.921 82.0595 105.038 81.8926L105.015 81.8808Z" fill="black"/>
<path d="M100.927 133.542L106.611 130.268C107.442 129.792 108.107 129.998 108.107 130.727C108.046 131.181 107.878 131.616 107.619 131.994C107.359 132.373 107.014 132.685 106.611 132.907L100.933 136.181C100.103 136.657 99.431 136.451 99.431 135.722C99.4951 135.268 99.6635 134.835 99.923 134.457C100.183 134.079 100.526 133.766 100.927 133.542Z" fill="#F5F5F5"/>
<path d="M129.194 117.257L134.878 113.983C135.702 113.507 136.374 113.713 136.374 114.442C136.31 114.895 136.141 115.328 135.882 115.707C135.622 116.085 135.279 116.398 134.878 116.622L129.194 119.919C128.369 120.395 127.698 120.19 127.698 119.461C127.759 119.003 127.926 118.566 128.186 118.183C128.446 117.801 128.791 117.484 129.194 117.257Z" fill="#F5F5F5"/>
<path d="M150.793 104.833L156.477 101.559C157.301 101.083 157.973 101.289 157.973 102.018C157.909 102.472 157.74 102.905 157.481 103.283C157.221 103.661 156.878 103.974 156.477 104.198L150.793 107.472C149.968 107.948 149.297 107.748 149.297 107.019C149.36 106.564 149.529 106.13 149.788 105.751C150.048 105.372 150.391 105.058 150.793 104.833Z" fill="#F5F5F5"/>
<path d="M172.068 92.5593L177.752 89.2856C178.582 88.8096 179.254 89.0094 179.248 89.7382C179.187 90.194 179.021 90.6293 178.761 91.009C178.501 91.3887 178.155 91.7023 177.752 91.9246L172.074 95.1982C171.243 95.6743 170.572 95.4686 170.572 94.7398C170.636 94.2859 170.804 93.8529 171.064 93.4746C171.323 93.0964 171.667 92.7831 172.068 92.5593Z" fill="#F5F5F5"/>
<path d="M211.614 60.3642C210.159 60.2584 208.139 60.2525 206.142 63.5086C204.145 66.7646 198.721 75.7216 198.721 75.7216L202.255 78.1078L208.439 69.4388C208.439 69.4388 209.028 62.5094 210.171 61.5397C211.314 60.5699 211.614 60.3642 211.614 60.3642Z" fill="#F28F8F"/>
<path d="M216.515 125.926L213.197 126.998L214.759 131.812L218.077 130.741L216.515 125.926Z" fill="#FFA8A7"/>
<path d="M214.094 129.717C214.115 130.111 214.014 130.503 213.805 130.839C213.277 131.715 212.655 132.531 211.95 133.272C210.955 134.336 209.464 135.623 208.416 136.522C207.827 137.04 207.797 137.821 208.646 138.092C210.224 138.479 211.892 138.247 213.305 137.445C214.365 136.857 215.873 134.26 216.75 133.86C217.763 133.407 218.335 133.178 218.676 132.685C218.935 132.419 219.096 132.075 219.134 131.707C219.171 131.338 219.083 130.969 218.883 130.657C218.406 129.769 217.705 128.406 217.392 128.559L217.481 128.835C217.251 129.558 215.278 130.398 214.265 130.198L214.094 129.717Z" fill="#263238"/>
<path d="M217.469 128.866C216.532 128.578 216.25 129.072 215.237 128.866L214.094 129.718C214.118 130.114 214.017 130.506 213.805 130.841C213.277 131.717 212.655 132.533 211.95 133.274C211.461 133.791 210.86 134.356 210.254 134.908C209.765 135.672 211.396 135.895 212.297 135.637C213.286 135.284 214.139 134.63 214.736 133.768C215.39 132.91 217.169 130.917 217.434 130.241C217.624 129.805 217.637 129.312 217.469 128.866Z" fill="#FFA8A7"/>
<path d="M228.613 80.1887C228.13 76.6623 227.046 72.5482 225.621 66.2183C225.108 63.9321 224.443 61.8691 222.805 61.2344C222.805 61.2344 218.311 63.0799 218.311 66.3947C218.311 69.7095 221.945 71.408 221.945 71.408L224.019 78.5431L227.305 82.522C227.781 82.3735 228.181 82.0489 228.425 81.615C228.668 81.1811 228.735 80.6707 228.613 80.1887Z" fill="#FFA8A7"/>
<path d="M221.592 133.779H218.205V138.699H221.592V133.779Z" fill="#FFA8A7"/>
<path d="M224.142 83.6337C225.485 89.3699 224.178 97.1103 223.718 101.936C223.271 106.637 222.717 112.133 222.717 112.133C222.717 112.133 224.16 117.099 224.089 120.949C224.019 125.016 221.633 134.807 221.633 134.807C221.115 135.14 220.512 135.317 219.896 135.317C219.279 135.317 218.676 135.14 218.158 134.807C218.158 134.807 217.569 126.579 216.98 121.924C216.391 117.046 216.203 113.496 215.702 110.646C215.072 107.119 214.017 92.0852 214.017 92.0852L212.203 106.99C213.291 108.776 214.139 110.696 214.724 112.703C215.466 115.589 217.08 127.044 217.08 127.044C216.07 127.946 214.772 128.461 213.416 128.495C213.416 128.495 206.16 111.292 205.17 109.576C204.11 107.748 203.951 87.7301 205.642 82.7168L224.142 83.6337Z" fill="#455A64"/>
<path d="M217.94 60.4419C217.94 60.4419 222.228 60.9767 222.805 61.2353C218.311 64.3915 221.945 71.409 221.945 71.409L219.772 77.3862L224.137 83.6162C222.882 85.062 214.901 90.0812 206.337 84.58C206.51 81.6777 206.846 78.7874 207.344 75.9228C206.107 70.0454 205.977 68.1706 206.337 66.7894C207.344 62.9045 209.647 60.4243 212.292 60.2773L217.94 60.4419Z" fill="#F3B36A"/>
<path opacity="0.7" d="M217.94 60.4419C217.94 60.4419 222.228 60.9767 222.805 61.2353C218.311 64.3915 221.945 71.409 221.945 71.409L219.772 77.3862L224.137 83.6162C222.882 85.062 214.901 90.0812 206.337 84.58C206.51 81.6777 206.846 78.7874 207.344 75.9228C206.107 70.0454 205.977 68.1706 206.337 66.7894C207.344 62.9045 209.647 60.4243 212.292 60.2773L217.94 60.4419Z" fill="white"/>
<path d="M196.217 70.9551L210.825 74.7988L215.136 92.8892L201.248 88.8633L196.217 70.9551Z" fill="#F3B36A"/>
<path d="M202.585 82.9277C202.449 83.298 201.654 84.3207 199.952 84.2443L199.74 83.492L202.585 82.9277Z" fill="#F3B36A"/>
<path opacity="0.2" d="M202.585 82.9277C202.449 83.298 201.654 84.3207 199.952 84.2443L199.74 83.492L202.585 82.9277Z" fill="black"/>
<path d="M205.854 83.4805C205.913 83.9624 206.908 84.8558 208.587 85.4141C210.501 86.0547 213.428 85.7139 213.428 85.7139L213.169 84.8146L205.854 83.4805Z" fill="#F3B36A"/>
<path opacity="0.2" d="M205.854 83.4805C205.913 83.9624 206.908 84.8558 208.587 85.4141C210.501 86.0547 213.428 85.7139 213.428 85.7139L213.169 84.8146L205.854 83.4805Z" fill="black"/>
<path d="M200.494 73.5765L200.376 73.024C200.305 72.7125 201.165 72.7008 202.29 72.9888L204.44 73.5471C205.565 73.841 206.531 74.3229 206.596 74.6285L206.72 75.1869L200.494 73.5765Z" fill="#F3B36A"/>
<path opacity="0.3" d="M200.494 73.5765L200.376 73.024C200.305 72.7125 201.165 72.7008 202.29 72.9888L204.44 73.5471C205.565 73.841 206.531 74.3229 206.596 74.6285L206.72 75.1869L200.494 73.5765Z" fill="black"/>
<path d="M199.48 71.4792C199.439 71.2911 199.787 71.2382 200.258 71.3675L201.112 71.6026C201.112 71.6026 200.853 70.4271 202.75 70.8209C203.253 70.8913 203.73 71.0907 204.134 71.3997C204.537 71.7087 204.854 72.1168 205.053 72.5841L205.96 72.8427C206.466 72.9838 206.92 73.2541 206.979 73.4304L207.085 73.7772L199.563 71.8024C199.563 71.8024 199.522 71.6731 199.48 71.4792Z" fill="#455A64"/>
<path d="M200.517 72.0788C201.206 72.2493 201.495 72.3374 201.595 72.8135C201.695 73.2896 201.76 73.748 201.76 73.748L205.094 74.6296C205.094 74.6296 204.935 73.9419 204.882 73.6775C204.829 73.413 204.941 73.2484 205.471 73.3895L205.518 73.1779L200.299 71.8496L200.517 72.0788Z" fill="#455A64"/>
<path d="M200.423 73.6296C200.423 73.6296 200.37 73.3827 200.299 73.0418C200.229 72.701 201.089 72.7245 202.214 73.0418L204.369 73.6002C205.494 73.8941 206.454 74.376 206.525 74.6816L206.643 75.24L200.423 73.6296Z" fill="#455A64"/>
<path d="M227.305 82.5219L224.019 78.543C224.019 78.543 216.621 81.6403 215.454 81.7285C214.288 81.8166 213.387 80.6764 212.939 79.5421C212.492 78.4078 211.608 78.5488 211.608 78.5488C211.608 78.5488 211.956 79.9888 212.062 80.4531C212.168 80.9174 209.5 81.2877 207.939 80.7646C206.378 80.2415 204.157 80.9997 205.547 83.1155C206.937 85.2314 209.623 85.4664 211.496 85.4664C212.284 85.4606 213.071 85.4076 213.852 85.3078C214.441 85.2314 215.03 85.1667 215.672 85.1256C219.495 84.8317 225.562 83.0626 227.305 82.5219Z" fill="#FFA8A7"/>
<path d="M197.702 76.2459L198.35 78.5557C198.479 78.9965 200.176 79.8076 201.248 80.1014C202.32 80.3953 203.498 80.7421 203.015 82.2408C202.543 83.6219 200.776 83.9393 199.875 83.8982C198.974 83.857 197.749 83.0048 197.26 81.6178C196.671 79.8546 196.977 77.9738 196.73 76.9159C196.483 75.858 197.166 75.6347 197.702 76.2459Z" fill="#FFA8A7"/>
<path d="M218.205 137.035V136.547C217.786 138.146 216.951 139.606 215.784 140.779C214.712 141.754 213.258 142.877 212.886 143.958C212.515 145.04 214.606 145.533 215.991 145.398C217.33 145.23 218.564 144.585 219.466 143.582C220.343 142.577 220.326 141.889 220.738 141.337C221.15 140.784 222.093 140.161 222.316 139.521C222.382 138.926 222.316 138.324 222.122 137.758C221.963 137.17 221.792 136.506 221.592 136.582V136.952C221.11 137.335 220.512 137.543 219.896 137.54C219.401 137.511 218.199 137.411 218.205 137.035Z" fill="#263238"/>
<path d="M221.592 136.918C221.345 137.188 221.221 136.524 220.455 136.547C219.961 136.547 219.13 136.924 219.13 136.547H218.205C217.786 138.146 216.951 139.606 215.784 140.779C215.525 141.014 215.248 141.255 214.966 141.502C214.377 142.137 214.559 142.678 215.896 142.801C217.233 142.924 218.406 142.113 219.43 140.873C220.286 139.633 221.01 138.307 221.592 136.918Z" fill="#FFA8A7"/>
<path d="M215.007 57.5488H214.206C212.159 57.5488 210.197 56.7377 208.75 55.2938C207.303 53.8499 206.49 51.8915 206.49 49.8495V49.0679C206.49 47.333 207.18 45.6691 208.41 44.4424C209.639 43.2156 211.307 42.5264 213.045 42.5264H216.203C217.941 42.5264 219.609 43.2156 220.838 44.4424C222.068 45.6691 222.758 47.333 222.758 49.0679V49.8084C222.758 51.8603 221.942 53.8282 220.488 55.2796C219.035 56.7311 217.063 57.5473 215.007 57.5488Z" fill="#263238"/>
<path d="M209.164 45.8125C208.304 46.3179 207.244 48.4749 207.35 52.9946C207.438 56.8266 208.681 57.7728 209.305 58.0491C209.93 58.3253 211.137 58.1549 212.309 57.9609V60.2589C212.309 60.2589 210.689 62.1397 210.795 63.1976C210.901 64.2555 213.152 64.5024 214.648 63.468C215.743 62.6216 216.687 61.5962 217.44 60.4353L217.41 55.1457C217.41 55.1457 218.099 55.8157 219.271 54.793C220.237 53.9526 220.561 52.5303 219.807 51.7721C219.613 51.5906 219.378 51.4578 219.122 51.3849C218.866 51.3119 218.596 51.3008 218.334 51.3525C218.073 51.4042 217.828 51.5172 217.619 51.6821C217.41 51.847 217.244 52.0592 217.133 52.3011C215.595 52.2388 214.097 51.7943 212.775 51.008C211.807 50.4847 210.976 49.7418 210.349 48.8394C209.722 47.937 209.316 46.9002 209.164 45.8125Z" fill="#FFA8A7"/>
<path d="M211.614 52.036C211.609 52.1001 211.617 52.1645 211.637 52.2256C211.658 52.2866 211.69 52.343 211.732 52.3916C211.774 52.4403 211.825 52.4801 211.883 52.5088C211.941 52.5375 212.003 52.5546 212.068 52.5591C212.199 52.5623 212.327 52.5135 212.423 52.4232C212.519 52.333 212.576 52.2086 212.58 52.0772C212.586 51.9494 212.54 51.8246 212.453 51.7304C212.41 51.6837 212.359 51.6459 212.301 51.6192C212.243 51.5925 212.181 51.5774 212.118 51.5747C211.99 51.5692 211.865 51.6147 211.77 51.7013C211.676 51.7878 211.62 51.9082 211.614 52.036Z" fill="#263238"/>
<path d="M211.508 55.2695L210.389 55.628C210.433 55.7764 210.533 55.9015 210.669 55.9763C210.805 56.0511 210.964 56.0696 211.114 56.0277C211.191 56.0057 211.262 55.9683 211.324 55.9177C211.387 55.8671 211.438 55.8044 211.475 55.7334C211.511 55.6625 211.534 55.5847 211.539 55.505C211.545 55.4252 211.534 55.3451 211.508 55.2695Z" fill="#F28F8F"/>
<path d="M207.68 50.5677L208.657 49.8918C208.571 49.763 208.437 49.6734 208.285 49.6426C208.133 49.6118 207.974 49.6422 207.845 49.7273C207.776 49.77 207.718 49.8261 207.672 49.8923C207.627 49.9584 207.595 50.0332 207.58 50.1119C207.564 50.1907 207.565 50.2717 207.582 50.3501C207.6 50.4285 207.633 50.5026 207.68 50.5677Z" fill="#263238"/>
<path d="M207.903 51.6834C207.902 51.778 207.929 51.8707 207.981 51.9501C208.032 52.0296 208.106 52.0921 208.192 52.1301C208.279 52.1681 208.375 52.1797 208.469 52.1636C208.562 52.1475 208.648 52.1044 208.717 52.0395C208.786 51.9747 208.835 51.8911 208.856 51.7991C208.878 51.707 208.872 51.6107 208.839 51.522C208.807 51.4333 208.748 51.3561 208.672 51.3002C208.596 51.2443 208.505 51.212 208.41 51.2074C208.345 51.205 208.281 51.2155 208.22 51.2382C208.159 51.2609 208.104 51.2955 208.057 51.3397C208.01 51.384 207.972 51.4372 207.946 51.4962C207.919 51.5552 207.905 51.6188 207.903 51.6834Z" fill="#263238"/>
<path d="M210.183 51.4141L210.106 54.3116L208.575 53.8355L210.183 51.4141Z" fill="#F28F8F"/>
<path d="M212.309 57.9609C213.546 57.7963 216.085 57.0675 216.479 56.0684C216.322 56.5764 216.011 57.0237 215.59 57.3496C214.83 57.9961 212.309 58.7249 212.309 58.7249V57.9609Z" fill="#F28F8F"/>
<path d="M221.056 73.8535L217.675 78.4261L219.772 77.3858L221.056 73.8535Z" fill="#F3B36A"/>
<path opacity="0.3" d="M221.056 73.8535L217.675 78.4261L219.772 77.3858L221.056 73.8535Z" fill="white"/>
</svg>
