<svg width="255" height="165" viewBox="0 0 255 165" fill="none" xmlns="http://www.w3.org/2000/svg">
<path d="M141.537 3.26953C141.535 3.32927 141.527 3.38866 141.514 3.44702C141.494 3.5614 141.455 3.731 141.424 3.95582C141.317 4.6082 141.254 5.26704 141.235 5.92791C141.204 6.97566 141.291 8.0236 141.494 9.0517C141.77 10.4109 142.263 11.7163 142.955 12.917C143.834 14.3491 144.799 15.7268 145.844 17.0426C147.038 18.5755 148.015 20.268 148.745 22.0714C149.533 24.0741 149.984 26.1949 150.079 28.3466C150.28 33.0209 148.627 37.5842 145.483 41.035C144.043 42.6312 142.31 43.9329 140.379 44.8688C138.546 45.7759 136.721 46.4464 135.111 47.2353C133.597 47.953 132.226 48.9421 131.064 50.154C129.394 51.9324 128.234 54.1323 127.708 56.5199C127.602 56.938 127.563 57.3087 127.504 57.6479C127.445 57.9871 127.437 58.2593 127.425 58.4841C127.414 58.7089 127.425 58.8785 127.398 59.0008C127.402 59.0598 127.402 59.1192 127.398 59.1782C127.393 59.1192 127.393 59.0598 127.398 59.0008C127.398 58.8745 127.398 58.701 127.398 58.4841C127.398 58.2671 127.437 57.9753 127.461 57.64C127.484 57.3048 127.547 56.9261 127.645 56.5041C127.857 55.4696 128.191 54.4645 128.642 53.5105C129.235 52.2435 130.022 51.0777 130.974 50.0554C132.139 48.8222 133.52 47.8154 135.049 47.0854C136.67 46.2571 138.495 45.5906 140.313 44.6873C142.21 43.7639 143.915 42.484 145.333 40.9167C148.439 37.4978 150.072 32.983 149.875 28.3584C149.785 26.228 149.343 24.1275 148.568 22.1424C147.846 20.3542 146.883 18.6741 145.706 17.1491C144.664 15.8229 143.701 14.4346 142.825 12.9919C142.133 11.775 141.645 10.4517 141.38 9.07536C141.181 8.03629 141.105 6.97714 141.153 5.92002C141.179 5.25781 141.255 4.59855 141.38 3.94793C141.42 3.72311 141.463 3.55351 141.49 3.44308L141.537 3.26953Z" fill="#E0E0E0"/>
<path d="M158.048 6.05078C157.831 6.93803 157.561 7.81129 157.24 8.66577C156.879 9.67531 156.44 10.6551 155.928 11.5963C155.271 12.8624 154.395 14.0015 153.341 14.9607C153.036 15.2285 152.712 15.4737 152.372 15.6943C152.019 15.9112 151.65 16.1124 151.269 16.3096L148.894 17.5323C147.253 18.3763 145.491 19.2598 143.685 20.2932C141.804 21.3497 140.118 22.7225 138.699 24.3518C137.17 26.1055 136.021 28.1609 135.327 30.3864C134.646 32.6161 134.48 34.9727 134.841 37.2768C135.168 39.4254 135.998 41.4652 137.263 43.2286C138.476 44.9049 139.905 46.2853 141.047 47.7486C141.612 48.4466 142.11 49.1967 142.535 49.9889C142.915 50.725 143.224 51.4964 143.457 52.2923C143.848 53.6643 144.018 55.0905 143.96 56.5165C143.914 57.5876 143.731 58.6483 143.414 59.6719C143.217 60.3209 142.965 60.9517 142.66 61.5572C142.554 61.7544 142.468 61.9082 142.409 62.0226C142.35 62.137 142.315 62.1764 142.315 62.1764C142.315 62.1764 142.338 62.1173 142.389 62.0108C142.44 61.9043 142.523 61.7386 142.625 61.5414C142.911 60.9309 143.149 60.2993 143.339 59.6522C143.641 58.6264 143.81 57.5659 143.842 56.4968C143.887 55.0973 143.711 53.6993 143.32 52.3554C143.085 51.5698 142.775 50.8089 142.393 50.0836C141.971 49.3027 141.476 48.5644 140.913 47.8788C139.775 46.4313 138.342 45.0587 137.11 43.3627C135.823 41.5771 134.977 39.5103 134.64 37.3321C134.275 34.9977 134.442 32.6103 135.131 30.3509C135.835 28.0982 136.998 26.0176 138.546 24.2413C139.98 22.582 141.688 21.1836 143.594 20.1078C145.408 19.0942 147.175 18.2186 148.819 17.3824L151.194 16.1676C151.587 15.9743 151.948 15.7732 152.293 15.5641C152.628 15.3492 152.947 15.1107 153.247 14.8502C154.293 13.9061 155.167 12.7864 155.83 11.5411C156.346 10.6077 156.792 9.63748 157.165 8.63816C157.479 7.81777 157.687 7.16698 157.828 6.72524C157.895 6.51225 157.95 6.33082 157.985 6.22038C158.021 6.10994 158.048 6.05078 158.048 6.05078Z" fill="#E0E0E0"/>
<path d="M151.838 15.9231C151.838 15.9783 149.93 15.6313 147.606 15.1343C145.282 14.6373 143.406 14.2192 143.418 14.164C143.43 14.1088 145.322 14.452 147.649 14.9529C149.977 15.4538 151.838 15.864 151.838 15.9231Z" fill="#E0E0E0"/>
<path d="M154.715 13.1925C154.715 13.2477 151.783 12.4352 148.199 11.3821C144.615 10.329 141.726 9.40999 141.742 9.37054C141.757 9.3311 144.674 10.1278 148.258 11.1849C151.842 12.2419 154.731 13.1372 154.715 13.1925Z" fill="#E0E0E0"/>
<path d="M156.823 9.61573C156.823 9.667 153.31 8.66124 149.016 7.3636C144.721 6.06597 141.239 4.96949 141.263 4.91427C141.286 4.85905 144.772 5.86876 149.09 7.1664C153.408 8.46403 156.839 9.56051 156.823 9.61573Z" fill="#E0E0E0"/>
<path d="M143.441 42.8051C143.422 42.8603 141.545 42.1858 139.249 41.2984C136.953 40.4109 135.112 39.6497 135.131 39.5984C135.151 39.5472 137.027 40.2216 139.324 41.1051C141.62 41.9886 143.461 42.7538 143.441 42.8051Z" fill="#E0E0E0"/>
<path d="M147.127 38.55C146.957 38.5252 146.788 38.4842 146.625 38.4277C146.303 38.3409 145.84 38.1989 145.275 38.0333C144.144 37.6744 142.59 37.1458 140.89 36.5069C139.19 35.8679 137.667 35.2487 136.572 34.7793C136.026 34.5427 135.586 34.3455 135.284 34.2035C135.124 34.1378 134.97 34.0572 134.825 33.9629C134.994 34.0017 135.158 34.0572 135.316 34.1285L136.627 34.6413C137.73 35.0791 139.257 35.6786 140.945 36.3176C142.633 36.9565 144.187 37.5008 145.306 37.8952L146.633 38.3685C146.803 38.4133 146.969 38.4741 147.127 38.55Z" fill="#E0E0E0"/>
<path d="M149.243 33.9635C149.056 33.9131 148.875 33.8444 148.702 33.7584L147.249 33.155C146.024 32.6422 144.325 31.948 142.429 31.2381C140.533 30.5281 138.794 29.9365 137.534 29.5184L136.038 29.0215C135.852 28.9695 135.671 28.9022 135.496 28.8203C135.688 28.8432 135.878 28.8855 136.061 28.9465C136.423 29.0412 136.937 29.1871 137.577 29.3804C138.849 29.7748 140.595 30.3349 142.499 31.0448C144.403 31.7548 146.095 32.4726 147.308 33.0169C147.913 33.2891 148.399 33.5178 148.733 33.6835C148.912 33.7601 149.083 33.8539 149.243 33.9635Z" fill="#E0E0E0"/>
<path d="M149.271 28.2212C149.122 28.1996 148.977 28.1585 148.839 28.0989L147.693 27.7045C146.723 27.3653 145.388 26.9157 143.901 26.4147C142.413 25.9138 141.063 25.5155 140.081 25.2315L138.904 24.8726C138.758 24.8371 138.617 24.7855 138.484 24.7188C138.633 24.7264 138.781 24.7529 138.923 24.7976C139.206 24.8568 139.606 24.9593 140.101 25.0895C141.094 25.3538 142.456 25.7442 143.944 26.2333C145.432 26.7224 146.766 27.2075 147.724 27.5822C148.199 27.7676 148.584 27.9254 148.847 28.0397C148.995 28.0833 149.137 28.1442 149.271 28.2212Z" fill="#E0E0E0"/>
<path d="M149.326 23.7601C148.089 23.4445 146.869 23.064 145.671 22.6203C144.452 22.2398 143.254 21.7935 142.083 21.2832C143.32 21.6001 144.54 21.9806 145.738 22.4231C146.956 22.8052 148.154 23.2515 149.326 23.7601Z" fill="#E0E0E0"/>
<path d="M143.202 51.4673C143.067 51.4468 142.936 51.411 142.809 51.3608L141.773 51.0098L138.366 49.8266L134.951 48.6749L133.914 48.3159C133.784 48.2798 133.659 48.2282 133.541 48.1621C133.675 48.1701 133.807 48.1967 133.934 48.241C134.185 48.3041 134.546 48.4027 134.99 48.5329C135.877 48.7932 137.094 49.1758 138.428 49.6333C139.763 50.0908 140.96 50.5326 141.82 50.8718C142.252 51.0414 142.605 51.1834 142.833 51.2662C142.966 51.3133 143.09 51.3812 143.202 51.4673Z" fill="#E0E0E0"/>
<path d="M143.912 56.6938C143.893 56.7451 140.666 55.6959 136.705 54.3273C132.744 52.9587 129.545 51.8385 129.565 51.7833C129.584 51.7281 132.807 52.7812 136.772 54.1498C140.737 55.5185 143.928 56.6189 143.912 56.6938Z" fill="#E0E0E0"/>
<path d="M143.846 60.5476C143.846 60.6028 140.226 59.5379 135.802 58.1811C131.378 56.8243 127.798 55.6647 127.814 55.6095C127.83 55.5543 131.433 56.6192 135.861 57.976C140.289 59.3328 143.865 60.4924 143.846 60.5476Z" fill="#E0E0E0"/>
<path d="M78.7453 27.7342C78.7453 27.7342 78.6393 27.7342 78.4352 27.7342L77.5324 27.7697C76.7473 27.7933 75.5696 27.8288 74.0622 27.8525C73.3085 27.8525 72.4685 27.8525 71.5499 27.8525C71.0676 27.8588 70.586 27.8138 70.1132 27.7184C69.6321 27.5241 69.1617 27.3042 68.7039 27.0597C68.2036 26.838 67.6508 26.7641 67.1102 26.8467C66.9728 26.8665 66.8315 26.902 66.6941 26.9296C66.5623 26.9725 66.4388 27.0379 66.329 27.1228C66.1001 27.3072 65.9002 27.5253 65.7363 27.7697C65.0544 28.8548 64.4999 30.0155 64.0836 31.2287C63.6047 32.4948 63.1808 33.8437 62.6744 35.24C62.6116 35.4135 62.5409 35.587 62.4663 35.7606L62.4035 35.8907C62.3933 35.9167 62.3787 35.9407 62.3603 35.9617C62.3483 35.9827 62.3312 36.0002 62.3106 36.0126C62.29 36.025 62.2666 36.0319 62.2426 36.0327C62.1012 35.9972 62.1209 35.9262 62.0855 35.8829C62.0651 35.8368 62.048 35.7894 62.0345 35.7409C61.9399 35.3673 61.8704 34.9878 61.8265 34.6049C61.7244 33.8437 61.6459 33.0628 61.5713 32.27C61.2847 29.1146 61.0571 25.699 60.7509 22.1334C60.5899 20.3507 60.4447 18.5166 60.1346 16.6787C60.0914 16.4499 60.0482 16.2211 59.9854 15.9963C59.9577 15.8902 59.9195 15.7872 59.8716 15.6887C59.8166 15.594 59.7695 15.5506 59.7106 15.5782C59.5405 15.705 59.4054 15.8734 59.3181 16.0673C59.2051 16.2721 59.1029 16.4828 59.0119 16.6984C58.6351 17.5934 58.3036 18.507 58.0187 19.4356C57.4417 21.2933 56.9314 23.2063 56.4485 25.1547L56.264 25.8883C56.2124 26.1419 56.1415 26.3911 56.0521 26.6338C55.9409 26.8835 55.767 27.0999 55.5475 27.2617C55.3279 27.4235 55.0703 27.5251 54.7998 27.5567C54.2738 27.5764 53.7831 27.604 53.2571 27.5922C52.7361 27.573 52.2187 27.4963 51.7144 27.3634C51.0751 27.1971 50.4592 26.9506 49.8812 26.6298C49.6161 26.4575 49.3331 26.3147 49.0372 26.2038C48.9058 26.1504 48.7619 26.1362 48.6227 26.1628C48.4835 26.1893 48.3548 26.2556 48.2521 26.3537C48.0662 26.6013 47.9326 26.8846 47.8596 27.1859C47.7614 27.4896 47.6751 27.7973 47.5887 28.1049C47.4238 28.7202 47.2668 29.3395 47.1137 29.9548C46.7997 31.1853 46.5013 32.4001 46.1127 33.5992C46.0975 33.6446 46.075 33.6873 46.046 33.7254C46.0219 33.7617 45.9851 33.7875 45.9429 33.7977C45.9007 33.8079 45.8562 33.8018 45.8183 33.7806C45.7404 33.7215 45.6817 33.6405 45.6495 33.5479C45.5873 33.4003 45.5349 33.2488 45.4925 33.0943C45.4101 32.7906 45.3433 32.4909 45.2805 32.1872C45.1549 31.5837 45.0489 30.9802 44.9508 30.3807C44.5582 27.9866 44.2363 25.6477 43.8909 23.3719C43.7182 22.2399 43.5494 21.1198 43.3217 20.0391C43.2716 19.7698 43.1967 19.5057 43.0979 19.2503C43.0273 19.0294 42.776 19.2936 42.6269 19.4869C42.3183 19.9237 42.044 20.3839 41.8064 20.8634C40.8369 22.7645 40.0518 24.6735 39.1764 26.4444C38.9662 26.8895 38.7207 27.3169 38.4423 27.7224C38.3686 27.8409 38.254 27.9279 38.1204 27.9669C37.9909 27.993 37.8574 27.993 37.7279 27.9669C37.4923 27.8834 37.2834 27.7376 37.1233 27.5449C36.9694 27.3833 36.7888 27.2499 36.5895 27.1504C36.3983 27.0511 36.1842 27.0048 35.9692 27.0163C35.5444 27.1168 35.1557 27.3339 34.8466 27.6435C34.6707 27.7967 34.4606 27.9049 34.2342 27.959C34.1131 27.9799 33.9887 27.969 33.873 27.9274C33.769 27.8789 33.6735 27.8136 33.5904 27.7342C33.2887 27.4289 33.0141 27.0976 32.77 26.7442C32.5227 26.405 32.2871 26.0697 32.0398 25.7542C31.8117 25.4447 31.5314 25.1777 31.2115 24.9654C30.8897 24.7524 30.5324 25.0206 30.2459 25.2257C29.9661 25.4528 29.7037 25.7007 29.4608 25.9672C28.9895 26.4678 28.5466 26.9945 28.134 27.5449V27.5685H28.1065L20.9346 27.5409H19.0386H18.5518C18.4969 27.5444 18.4419 27.5444 18.387 27.5409H18.5518H19.0386H20.9346L28.1065 27.5133L28.0633 27.537C28.475 26.9771 28.918 26.4411 29.3901 25.9317C29.6414 25.6574 29.9144 25.4041 30.2066 25.1744C30.3572 25.0514 30.5236 24.9492 30.7012 24.8707C30.7987 24.8312 30.9024 24.8098 31.0074 24.8076C31.1144 24.8137 31.2182 24.8462 31.3097 24.9023C31.6485 25.1252 31.9439 25.4086 32.1811 25.7384C32.4324 26.0579 32.6718 26.3932 32.9191 26.7284C33.1506 27.0742 33.4134 27.3977 33.7042 27.6947C33.7776 27.7636 33.861 27.8207 33.9515 27.8643C34.0412 27.8949 34.1372 27.9017 34.2302 27.8841C34.4323 27.833 34.6194 27.7343 34.7759 27.5961C35.0998 27.27 35.5075 27.0406 35.9535 26.9335C36.1957 26.9299 36.4358 26.9796 36.6569 27.0791C36.8779 27.1785 37.0747 27.3254 37.2333 27.5094C37.3723 27.687 37.5569 27.8234 37.7671 27.9038C37.8733 27.9256 37.9828 27.9256 38.089 27.9038C38.1597 27.9038 38.2421 27.8052 38.3088 27.7145C38.58 27.3176 38.8189 26.8995 39.0233 26.4642C39.8908 24.7011 40.672 22.7921 41.6455 20.8753C41.885 20.3847 42.1647 19.9151 42.4816 19.4711C42.5672 19.3521 42.6705 19.2471 42.7878 19.1595C42.8228 19.1297 42.8634 19.1072 42.9073 19.0937C42.9512 19.0801 42.9973 19.0757 43.043 19.0807C43.0901 19.0915 43.1342 19.1132 43.1716 19.144C43.2091 19.1748 43.2389 19.2138 43.2589 19.2581C43.36 19.5015 43.4389 19.7537 43.4944 20.0115C43.726 21.104 43.887 22.2242 44.0715 23.3601C44.4208 25.628 44.7427 27.9748 45.1392 30.3649C45.2373 30.9645 45.3433 31.5482 45.4689 32.1635C45.5317 32.4633 45.5985 32.7591 45.677 33.0549C45.7165 33.1998 45.765 33.342 45.8222 33.4808C45.8419 33.5332 45.8712 33.5814 45.9086 33.6228C45.889 33.6228 45.9086 33.682 45.9086 33.6465C45.9086 33.6465 45.9086 33.6268 45.9086 33.6465C45.925 33.624 45.937 33.5986 45.9439 33.5716C46.3365 32.3883 46.627 31.1774 46.9371 29.9508C47.0902 29.3355 47.2433 28.7163 47.4121 28.097C47.4984 27.7894 47.5848 27.4778 47.6868 27.1702C47.7339 27.0163 47.7889 26.8625 47.8439 26.7087C47.9028 26.544 47.9935 26.3925 48.1108 26.263C48.2346 26.1253 48.4028 26.036 48.5858 26.0106C48.7611 25.9841 48.9401 26.0004 49.1079 26.0579C49.4201 26.1691 49.7179 26.3174 49.995 26.4997C50.5581 26.8122 51.1582 27.0521 51.7811 27.2136C52.2719 27.34 52.7745 27.414 53.2807 27.4344C53.7753 27.4344 54.3013 27.4344 54.792 27.3989C55.0258 27.372 55.2488 27.2854 55.4399 27.1473C55.6309 27.0092 55.7836 26.8243 55.8833 26.6101C55.9668 26.3785 56.0337 26.1413 56.0835 25.9001L56.268 25.1665C56.7626 23.1944 57.2768 21.2973 57.8578 19.4356C58.1522 18.5048 58.4505 17.5858 58.8313 16.6984C58.9295 16.4775 59.0315 16.2606 59.1493 16.0476C59.2121 15.9411 59.2749 15.8385 59.3495 15.736C59.4279 15.6236 59.5332 15.5327 59.6557 15.4717C59.6981 15.4553 59.7439 15.4497 59.7891 15.4552C59.8343 15.4607 59.8774 15.4772 59.9147 15.5033C59.9745 15.5478 60.023 15.6059 60.0561 15.6729C60.113 15.7843 60.1564 15.9022 60.1856 16.0239C60.2484 16.2566 60.2955 16.4893 60.3387 16.722C60.6488 18.5797 60.7901 20.4098 60.9511 22.1926C61.2533 25.766 61.4732 29.162 61.7362 32.3331C61.8108 33.1219 61.8853 33.9108 61.9835 34.6641C62.0253 35.0377 62.0921 35.4079 62.1837 35.7724C62.1957 35.814 62.2101 35.8548 62.2269 35.8947C62.2331 35.9112 62.241 35.9271 62.2504 35.942C62.2504 35.942 62.2308 35.942 62.2504 35.9736C62.27 36.0051 62.2504 35.9302 62.2308 35.942C62.2112 35.9538 62.2308 35.942 62.2308 35.942C62.2417 35.926 62.251 35.9088 62.2583 35.8907L62.3171 35.7685C62.3917 35.6028 62.4585 35.4293 62.5252 35.2557C63.0277 33.8713 63.4595 32.5185 63.9462 31.2524C64.3691 30.0283 64.933 28.8582 65.6263 27.7657C65.8007 27.5129 66.011 27.287 66.2505 27.0952C66.3675 27.0019 66.5005 26.9311 66.643 26.8862C66.7854 26.851 66.9296 26.8233 67.0748 26.8034C67.6358 26.7185 68.2092 26.7965 68.7275 27.0282C69.226 27.2451 69.6539 27.5488 70.121 27.6947C70.5866 27.7857 71.0599 27.8306 71.5342 27.8288C72.4488 27.8525 73.2889 27.8288 74.0426 27.8288L77.5127 27.7815H78.4156C78.6394 27.7302 78.7453 27.7342 78.7453 27.7342Z" fill="#E0E0E0"/>
<path d="M209.365 62.4567L215.903 63.8003L207.548 104.846C207.467 105.243 207.232 105.592 206.895 105.816C206.558 106.04 206.146 106.12 205.75 106.038L202.189 105.306C201.793 105.225 201.446 104.989 201.223 104.65C201.001 104.312 200.921 103.898 201.002 103.5L209.358 62.4551L209.365 62.4567Z" fill="#E0E0E0"/>
<path d="M207.92 69.6363L214.458 70.9789L208.46 100.471C208.379 100.869 208.144 101.218 207.807 101.442C207.47 101.665 207.058 101.745 206.662 101.664L203.101 100.933C202.705 100.852 202.358 100.616 202.135 100.277C201.913 99.9385 201.833 99.5248 201.914 99.1272L207.912 69.6348L207.92 69.6363Z" fill="#F5F5F5"/>
<path d="M215.08 67.9444L210.719 67.0488L206.752 86.552L211.113 87.4475L215.08 67.9444Z" fill="white"/>
<path d="M205.77 106.02C206.059 106.062 206.353 106.029 206.626 105.925C206.953 105.792 207.224 105.548 207.392 105.235C207.488 105.032 207.553 104.815 207.584 104.592C207.631 104.351 207.678 104.095 207.733 103.827C208.169 101.658 208.793 98.522 209.574 94.6251C211.144 86.8196 213.35 75.9692 215.82 63.7619L215.898 63.8803L210.85 62.8469L209.358 62.5392L209.48 62.4604C206.811 75.5037 204.412 87.2416 202.677 95.7295C202.241 97.8475 201.845 99.7604 201.499 101.445C201.413 101.863 201.327 102.269 201.248 102.659C201.209 102.853 201.166 103.054 201.13 103.235C201.083 103.413 201.054 103.596 201.044 103.78C201.043 104.123 201.157 104.457 201.37 104.726C201.565 104.969 201.832 105.144 202.131 105.227L204.832 105.807L205.535 105.961C205.692 105.996 205.77 106.02 205.77 106.02L205.531 105.98L204.824 105.846L202.112 105.302C201.776 105.215 201.478 105.018 201.264 104.743C201.051 104.467 200.935 104.128 200.934 103.78C200.942 103.588 200.969 103.398 201.017 103.212C201.052 103.026 201.091 102.817 201.13 102.64C201.209 102.245 201.287 101.851 201.374 101.421C201.711 99.7368 202.096 97.8199 202.524 95.6979C204.243 87.2101 206.618 75.4682 209.264 62.417V62.3184L209.362 62.3381L210.858 62.6457L215.906 63.683L216.004 63.7028V63.8014C213.507 76.0086 211.293 86.8511 209.692 94.6527L207.792 103.839C207.733 104.111 207.682 104.363 207.631 104.604C207.597 104.833 207.527 105.056 207.423 105.263C207.251 105.581 206.973 105.828 206.638 105.961C206.432 106.04 206.21 106.072 205.99 106.055C205.916 106.051 205.842 106.039 205.77 106.02Z" fill="#E0E0E0"/>
<path d="M211.244 53.8744L217.682 55.1964C217.886 55.2383 218.065 55.3599 218.18 55.5344C218.295 55.709 218.336 55.9222 218.294 56.1272L216.318 65.8421L208.334 64.2026L210.308 54.4955C210.328 54.3925 210.368 54.2945 210.426 54.2073C210.485 54.12 210.559 54.0453 210.646 53.9875C210.734 53.9296 210.831 53.8898 210.934 53.8704C211.037 53.851 211.142 53.8524 211.244 53.8744Z" fill="#EBEBEB"/>
<path d="M216.456 64.8305C216.456 64.8858 214.642 64.5623 212.428 64.1088C210.214 63.6552 208.432 63.241 208.444 63.1858C208.455 63.1306 210.257 63.454 212.471 63.9076C214.685 64.3612 216.463 64.7753 216.456 64.8305Z" fill="#E0E0E0"/>
<path d="M209.213 63.2605C209.154 63.2605 209.531 61.1779 210.049 58.6379C210.567 56.0978 211.03 54.0429 211.085 54.0547C211.14 54.0666 210.764 56.1373 210.249 58.6773C209.735 61.2174 209.268 63.2723 209.213 63.2605Z" fill="#E0E0E0"/>
<path d="M210.285 63.4812C210.23 63.4812 210.603 61.3986 211.121 58.8586C211.639 56.3185 212.102 54.2636 212.157 54.2754C212.212 54.2873 211.839 56.358 211.321 58.898C210.803 61.4381 210.328 63.493 210.285 63.4812Z" fill="#E0E0E0"/>
<path d="M211.392 63.7057C211.337 63.7057 211.71 61.6271 212.228 59.0831C212.746 56.5392 213.209 54.4921 213.264 54.504C213.319 54.5158 212.946 56.5825 212.428 59.1265C211.91 61.6705 211.447 63.7176 211.392 63.7057Z" fill="#E0E0E0"/>
<path d="M212.463 63.9264C212.408 63.9264 212.785 61.8478 213.299 59.3039C213.814 56.7599 214.281 54.7128 214.34 54.7247C214.399 54.7365 214.018 56.8032 213.504 59.3472C212.989 61.8912 212.522 63.9383 212.463 63.9264Z" fill="#E0E0E0"/>
<path d="M213.57 64.155C213.515 64.155 213.892 62.0725 214.406 59.5324C214.921 56.9924 215.388 54.9374 215.443 54.9493C215.498 54.9611 215.125 57.0318 214.607 59.5718C214.088 62.1119 213.625 64.1865 213.57 64.155Z" fill="#E0E0E0"/>
<path d="M214.646 64.3757C214.591 64.3757 214.964 62.2932 215.482 59.7531C216 57.2131 216.463 55.1581 216.518 55.17C216.573 55.1818 216.2 57.2525 215.682 59.7925C215.164 62.3326 214.701 64.3875 214.646 64.3757Z" fill="#E0E0E0"/>
<path d="M215.753 64.6061C215.698 64.6061 216.071 62.5236 216.589 59.9836C217.107 57.4435 217.57 55.3886 217.625 55.4004C217.68 55.4123 217.307 57.479 216.789 60.023C216.271 62.567 215.824 64.614 215.753 64.6061Z" fill="#E0E0E0"/>
<path d="M223.62 81.816L228.854 81.3319L231.834 113.86C231.871 114.264 231.747 114.667 231.489 114.979C231.231 115.291 230.86 115.487 230.457 115.524L228.253 115.728C227.85 115.765 227.45 115.64 227.139 115.381C226.829 115.122 226.633 114.749 226.596 114.345L223.616 81.8164L223.62 81.816Z" fill="#E0E0E0"/>
<path d="M224.148 87.5953L229.382 87.1112L231.515 110.39C231.552 110.794 231.428 111.196 231.169 111.509C230.911 111.821 230.54 112.017 230.138 112.054L227.933 112.258C227.531 112.295 227.131 112.17 226.82 111.911C226.509 111.651 226.314 111.279 226.277 110.874L224.144 87.5957L224.148 87.5953Z" fill="#F5F5F5"/>
<path d="M229.158 84.681L225.667 85.0039L227.097 100.612L230.588 100.289L229.158 84.681Z" fill="white"/>
<path d="M230.458 115.529C230.685 115.491 230.904 115.411 231.102 115.292C231.336 115.143 231.525 114.931 231.647 114.681C231.727 114.522 231.778 114.349 231.796 114.172C231.807 113.969 231.796 113.765 231.765 113.565C231.6 111.813 231.372 109.293 231.058 106.161C230.473 99.8784 229.661 91.1538 228.75 81.3486L228.86 81.4393L225.143 81.7825L223.627 81.9245L223.718 81.814C224.652 92.1438 225.492 101.424 226.097 108.134C226.246 109.806 226.379 111.32 226.489 112.65C226.552 113.312 226.595 113.939 226.658 114.495C226.707 114.744 226.818 114.977 226.98 115.171C227.143 115.364 227.352 115.514 227.588 115.604C227.982 115.713 228.396 115.729 228.797 115.651L229.7 115.576L230.258 115.537H230.45L230.262 115.564L229.704 115.624L228.801 115.718L228.224 115.773C227.999 115.794 227.773 115.765 227.561 115.687C227.31 115.594 227.086 115.439 226.912 115.235C226.737 115.031 226.618 114.786 226.564 114.523C226.493 113.947 226.446 113.34 226.379 112.669C226.254 111.34 226.108 109.826 225.947 108.153C225.327 101.448 224.467 92.1675 223.506 81.8377V81.7351H223.608L225.123 81.5931L228.84 81.25H228.943V81.3526C229.826 91.1617 230.615 99.8902 231.184 106.173C231.455 109.305 231.675 111.829 231.828 113.58C231.855 113.787 231.863 113.996 231.851 114.204C231.821 114.438 231.738 114.662 231.61 114.86C231.481 115.058 231.31 115.225 231.109 115.347C230.96 115.438 230.795 115.501 230.623 115.533C230.568 115.535 230.513 115.534 230.458 115.529Z" fill="#E0E0E0"/>
<path d="M223.245 74.943L228.065 74.4971C228.272 74.4779 228.478 74.5423 228.639 74.6761C228.799 74.8098 228.899 75.002 228.918 75.2103L229.614 82.8062L223.227 83.3971L222.532 75.8051C222.522 75.7013 222.532 75.5966 222.563 75.4969C222.593 75.3973 222.643 75.3047 222.709 75.2245C222.776 75.1443 222.857 75.0782 222.949 75.0299C223.041 74.9815 223.142 74.952 223.245 74.943Z" fill="#EBEBEB"/>
<path d="M229.492 82.0081C227.37 82.3419 225.229 82.5395 223.082 82.5998C224.138 82.4003 225.205 82.2686 226.277 82.2054C227.343 82.0684 228.417 82.0025 229.492 82.0081Z" fill="#E0E0E0"/>
<path d="M223.675 82.481C223.458 81.2652 223.311 80.0378 223.235 78.805C223.086 77.58 223.007 76.3474 222.999 75.1133C223.211 76.3298 223.358 77.5569 223.439 78.7893C223.584 80.0147 223.662 81.2471 223.675 82.481Z" fill="#E0E0E0"/>
<path d="M224.538 82.4009C224.321 81.1851 224.175 79.9577 224.098 78.725C223.949 77.5 223.871 76.2673 223.863 75.0332C224.075 76.2483 224.22 77.4742 224.299 78.7052C224.446 79.9318 224.526 81.1656 224.538 82.4009Z" fill="#E0E0E0"/>
<path d="M225.421 82.3306C225.209 81.1141 225.063 79.887 224.982 78.6546C224.837 77.4292 224.759 76.1968 224.746 74.9629C224.963 76.1787 225.11 77.4061 225.186 78.6389C225.333 79.8641 225.411 81.0966 225.421 82.3306Z" fill="#E0E0E0"/>
<path d="M226.281 82.2408C226.069 81.0243 225.922 79.7972 225.841 78.5648C225.697 77.3394 225.618 76.107 225.606 74.873C225.815 76.0882 225.956 77.3141 226.03 78.5451C226.18 79.7715 226.264 81.0052 226.281 82.2408Z" fill="#E0E0E0"/>
<path d="M227.168 82.1568C226.952 80.941 226.805 79.7136 226.729 78.4808C226.579 77.2558 226.501 76.0232 226.493 74.7891C226.705 76.0056 226.852 77.2327 226.933 78.465C227.077 79.6905 227.156 80.9228 227.168 82.1568Z" fill="#E0E0E0"/>
<path d="M228.028 82.0788C227.815 80.8575 227.672 79.6249 227.6 78.3871C227.451 77.1621 227.372 75.9294 227.365 74.6953C227.577 75.9118 227.723 77.1389 227.804 78.3713C227.945 79.6022 228.02 80.8398 228.028 82.0788Z" fill="#E0E0E0"/>
<path d="M228.911 81.9947C228.699 80.7795 228.552 79.5537 228.471 78.3226C228.327 77.0959 228.248 75.8622 228.236 74.627C228.453 75.8428 228.599 77.0701 228.676 78.3029C228.825 79.5279 228.903 80.7606 228.911 81.9947Z" fill="#E0E0E0"/>
<path d="M71.8522 52.9971C71.1613 49.9128 68.2446 47.2663 65.116 47.5739C63.2671 47.7553 61.5831 48.9031 60.4722 50.3822C60.0728 50.8814 59.7094 51.4086 59.3848 51.9598C59.0602 51.4086 58.6968 50.8814 58.2974 50.3822C57.1669 48.8991 55.5064 47.7514 53.6575 47.566C50.5171 47.2544 47.6122 49.901 46.9135 52.9814C46.2148 56.0618 47.3728 59.3354 49.2688 61.8597C51.1648 64.384 54.3052 67.6182 59.636 68.8488C63.1493 68.0363 67.6048 64.3919 69.4969 61.8716C71.389 59.3512 72.5431 56.0776 71.8522 52.9971Z" fill="#E0E0E0"/>
<path d="M71.2751 58.7161H71.173H70.8668H69.6892L65.3908 58.7477L65.4653 58.6925C65.0728 60.0887 64.6371 61.7216 64.1464 63.5123L64.0679 63.8041L63.9697 63.5201L61.4653 56.2984C61.1866 55.5095 60.9157 54.701 60.6488 53.9319L60.8333 53.9516L58.0187 58.7556L57.9951 58.799H57.9402L50.3836 58.7595L48.2442 58.7319H47.675C47.6112 58.7411 47.5465 58.7411 47.4827 58.7319H47.675H48.2442L50.3836 58.7082L57.9402 58.6728L57.8617 58.7201L60.6527 53.9003L60.7626 53.707L60.8372 53.9161C61.1041 54.7049 61.375 55.4937 61.6537 56.2826L64.1542 63.5517H63.9737C64.4801 61.761 64.9354 60.1321 65.328 58.7398V58.6846H65.3829L69.6813 58.7201H70.859H71.1652L71.2751 58.7161Z" fill="#FAFAFA"/>
<path d="M121.828 39.6852L120.485 74.5163L103.127 73.9522C102.923 71.9289 102.695 64.0918 102.695 64.0918C102.695 64.0918 95.4484 63.303 95.0206 56.0851C94.8125 52.5787 94.9695 45.2978 95.1854 38.7307C95.3031 35.2314 96.7783 31.9171 99.2957 29.496C101.813 27.0749 105.173 25.7392 108.658 25.7741C110.438 25.7965 112.196 26.1767 113.828 26.8923C115.46 27.6079 116.934 28.6443 118.161 29.9407C119.388 31.237 120.345 32.767 120.975 34.4406C121.604 36.1141 121.894 37.8973 121.828 39.6852Z" fill="#FFBE9D"/>
<path d="M102.687 64.0906C106.011 63.9946 109.232 62.9072 111.939 60.9668C111.939 60.9668 109.977 66.2717 102.762 65.9641L102.687 64.0906Z" fill="#EB996E"/>
<path d="M97.5446 43.8965C97.5548 44.1658 97.6692 44.4204 97.8635 44.606C98.0579 44.7917 98.3167 44.8938 98.5848 44.8905C98.7158 44.8947 98.8464 44.8726 98.9688 44.8255C99.0912 44.7783 99.203 44.7071 99.2977 44.616C99.3924 44.5249 99.468 44.4158 99.5202 44.2949C99.5724 44.1741 99.6 44.044 99.6015 43.9123C99.5913 43.6427 99.477 43.3877 99.2828 43.2014C99.0886 43.0151 98.8298 42.9122 98.5613 42.9144C98.43 42.9108 98.2994 42.9334 98.177 42.9809C98.0545 43.0285 97.9428 43.1001 97.8481 43.1915C97.7535 43.2829 97.6779 43.3923 97.6258 43.5133C97.5737 43.6344 97.5461 43.7647 97.5446 43.8965Z" fill="#263238"/>
<path d="M96.9047 42.4104C97.0382 42.5405 97.788 41.9252 98.895 41.874C100.002 41.8227 100.838 42.3433 100.952 42.2013C101.007 42.1382 100.866 41.9016 100.5 41.657C100.005 41.3468 99.4266 41.1981 98.8439 41.2311C98.271 41.2575 97.7212 41.4661 97.2737 41.8266C96.944 42.0988 96.838 42.3552 96.9047 42.4104Z" fill="#263238"/>
<path d="M108.022 43.8621C108.031 44.1299 108.143 44.3838 108.335 44.5699C108.527 44.7561 108.783 44.8601 109.05 44.86C109.182 44.8642 109.312 44.8419 109.435 44.7946C109.558 44.7472 109.67 44.6756 109.765 44.5841C109.859 44.4926 109.935 44.383 109.987 44.2617C110.039 44.1404 110.066 44.0099 110.067 43.8778C110.057 43.6131 109.945 43.3624 109.756 43.178C109.567 42.9936 109.314 42.8897 109.05 42.8879C108.918 42.8815 108.787 42.9019 108.663 42.9478C108.539 42.9938 108.426 43.0643 108.33 43.1553C108.234 43.2462 108.157 43.3557 108.104 43.4771C108.051 43.5986 108.023 43.7295 108.022 43.8621Z" fill="#263238"/>
<path d="M107.782 42.0977C107.916 42.2239 108.666 41.6086 109.772 41.5613C110.879 41.5139 111.735 42.0267 111.829 41.8847C111.884 41.8216 111.743 41.5849 111.378 41.3443C110.884 41.0349 110.307 40.8862 109.725 40.9184C109.152 40.9429 108.602 41.1517 108.155 41.5139C107.822 41.794 107.716 42.0425 107.782 42.0977Z" fill="#263238"/>
<path d="M104.155 50.5311C104.155 50.468 103.468 50.3812 102.345 50.2905C102.063 50.2905 101.792 50.2314 101.737 50.0381C101.698 49.7467 101.75 49.4504 101.886 49.1901C102.118 48.488 102.361 47.7583 102.616 46.9892C103.633 43.8576 104.351 41.2899 104.226 41.2505C104.1 41.211 103.162 43.7156 102.161 46.8315C101.918 47.6019 101.686 48.3381 101.466 49.0402C101.303 49.3904 101.27 49.7876 101.372 50.1604C101.418 50.2584 101.485 50.3449 101.568 50.4132C101.652 50.4815 101.75 50.5299 101.855 50.5548C102.013 50.5889 102.176 50.6034 102.338 50.5982C103.46 50.6218 104.155 50.5942 104.155 50.5311Z" fill="#263238"/>
<path d="M107.445 51.1429C107.268 51.1429 107.319 52.3262 106.334 53.2531C105.348 54.1799 104.065 54.0853 104.061 54.2549C104.061 54.3298 104.359 54.4758 104.897 54.4639C105.601 54.4402 106.273 54.1679 106.797 53.6948C107.301 53.2425 107.608 52.6094 107.653 51.9318C107.676 51.4269 107.527 51.1311 107.445 51.1429Z" fill="#263238"/>
<path d="M107.292 37.76C107.413 38.0598 108.512 37.8626 109.816 37.9573C111.119 38.0519 112.171 38.3517 112.344 38.0795C112.414 37.9454 112.222 37.6851 111.782 37.4011C111.201 37.0697 110.552 36.8754 109.885 36.833C109.218 36.7907 108.55 36.9013 107.931 37.1566C107.48 37.3656 107.237 37.622 107.292 37.76Z" fill="#263238"/>
<path d="M97.1599 39.1765C97.3679 39.421 98.1138 39.1213 99.0324 39.0661C99.9509 39.0108 100.728 39.1568 100.897 38.8846C100.968 38.7505 100.834 38.4902 100.485 38.2812C100.016 38.0179 99.4795 37.8998 98.9437 37.9419C98.408 37.984 97.8966 38.1844 97.4739 38.5178C97.1638 38.7939 97.0696 39.0582 97.1599 39.1765Z" fill="#263238"/>
<path d="M113.651 32.2383L113.694 32.2659C114.882 33.1203 115.697 34.4013 115.971 35.8433C115.971 35.8946 115.971 35.9419 115.998 35.9892C116.391 38.0363 116.422 40.1385 116.823 42.1816C117.223 44.2247 118.028 46.2875 119.61 47.6324C120.261 48.1886 121.38 48.5357 121.863 47.8296C122.02 47.536 122.094 47.2042 122.075 46.8712C122.224 41.8739 123.366 37.4052 123.115 32.191C123.084 31.4934 122.888 30.8134 122.543 30.2071C122.199 29.6008 121.715 29.0856 121.133 28.7043C120.01 27.9747 118.648 27.2292 117.47 27.8563C116.293 28.4835 114.836 30.8302 113.937 31.836" fill="#263238"/>
<path d="M119.567 43.1915C119.684 43.1323 124.438 41.4876 124.513 46.4376C124.587 51.3875 119.629 50.4409 119.618 50.2989C119.606 50.1569 119.567 43.1915 119.567 43.1915Z" fill="#FFBE9D"/>
<path d="M121.094 48.409C121.117 48.409 121.18 48.4681 121.325 48.5312C121.532 48.6138 121.762 48.6138 121.969 48.5312C122.487 48.3301 122.911 47.4939 122.923 46.6025C122.929 46.1781 122.84 45.7576 122.664 45.372C122.616 45.2176 122.531 45.0773 122.416 44.9633C122.302 44.8492 122.162 44.7648 122.008 44.7172C121.909 44.6924 121.805 44.7033 121.713 44.748C121.621 44.7927 121.548 44.8683 121.506 44.9618C121.439 45.1037 121.474 45.2024 121.447 45.2102C121.419 45.2181 121.341 45.1274 121.376 44.9223C121.402 44.7998 121.468 44.6897 121.565 44.6107C121.7 44.506 121.87 44.4579 122.04 44.4766C122.242 44.5135 122.432 44.6022 122.591 44.7341C122.75 44.866 122.872 45.0368 122.946 45.23C123.163 45.6559 123.272 46.1284 123.264 46.6065C123.264 47.6044 122.754 48.5431 122.047 48.76C121.916 48.8005 121.777 48.8109 121.642 48.7905C121.506 48.77 121.376 48.7191 121.262 48.6417C121.105 48.5194 121.078 48.409 121.094 48.409Z" fill="#EB996E"/>
<path d="M118.212 29.3864C119.633 27.5523 116.642 24.3654 114.287 23.3321C111.932 22.2987 108.646 23.1388 106.153 23.6752C104.583 24.0144 102.993 24.5548 101.403 24.3142C100.348 24.0881 99.3318 23.7052 98.3886 23.1782C97.4417 22.6521 96.399 22.3235 95.3227 22.2119C94.2472 22.1685 93.0852 22.6063 92.5749 23.5727C92.0646 24.539 92.4925 25.9392 93.5367 26.2192C92.2648 25.3199 90.2 26.089 89.8114 27.6036C89.4227 29.1182 90.8634 30.7905 92.41 30.6248C91.7741 30.0174 90.6082 30.7747 90.6004 31.6582C90.5925 32.5417 91.3109 33.2635 92.0724 33.7052C94.0352 34.8293 96.4258 34.8017 98.6162 34.3205C100.807 33.8393 102.887 32.9361 105.066 32.3997C107.244 31.8633 110.903 30.8694 112.917 31.8475C114.408 32.5654 115.272 34.5572 116.199 34.2377C116.635 34.0625 117.025 33.7867 117.335 33.4325C117.646 33.0783 117.87 32.6556 117.989 32.1986C118.209 31.2787 118.279 30.3289 118.197 29.3864" fill="#263238"/>
<path d="M93.8114 26.5789C93.8114 26.5789 93.7172 26.6223 93.5641 26.7327C93.3395 26.895 93.1653 27.1179 93.0616 27.3756C92.8923 27.7795 92.8552 28.227 92.9557 28.6535C93.0205 28.9336 93.1413 29.1976 93.3107 29.4295C93.48 29.6613 93.6945 29.8562 93.941 30.0024C94.5484 30.3562 95.2369 30.5452 95.939 30.5507C96.7477 30.5554 97.5524 30.4371 98.3257 30.1996C99.9784 29.7184 101.615 28.7363 103.343 27.7385C105.07 26.7406 106.832 25.9084 108.583 25.6954C109.407 25.5873 110.244 25.6395 111.048 25.8492C111.753 26.0334 112.419 26.3462 113.011 26.7721C113.871 27.3767 114.564 28.191 115.025 29.1387C115.203 29.4784 115.335 29.8405 115.417 30.2154C115.394 30.2154 115.3 29.821 114.966 29.1742C114.485 28.2627 113.789 27.4829 112.94 26.9023C112.364 26.4972 111.719 26.2006 111.036 26.0267C110.251 25.829 109.436 25.7848 108.634 25.8965C106.93 26.1135 105.191 26.9417 103.476 27.9317C101.761 28.9217 100.096 29.9038 98.4121 30.3929C97.6181 30.633 96.7917 30.7475 95.9626 30.7321C95.2321 30.7211 94.5179 30.5141 93.8939 30.1326C93.6247 29.9582 93.3904 29.7348 93.203 29.4739C92.9949 29.1653 92.8688 28.8083 92.8365 28.437C92.8042 28.0656 92.8669 27.6922 93.0185 27.3519C93.136 27.0876 93.3285 26.864 93.572 26.709C93.6453 26.6546 93.7259 26.6108 93.8114 26.5789Z" fill="#455A64"/>
<path d="M111.213 24.0783C111.32 24.0598 111.429 24.0598 111.535 24.0783C111.825 24.0982 112.112 24.1497 112.391 24.2321C113.326 24.497 114.159 25.0399 114.782 25.7897C115.404 26.5394 115.785 27.4608 115.877 28.4327C115.905 28.7239 115.905 29.0171 115.877 29.3083C115.873 29.4153 115.85 29.5208 115.81 29.6199C115.771 29.6199 115.837 29.1663 115.735 28.4366C115.612 27.5039 115.228 26.6253 114.628 25.9022C114.029 25.1792 113.238 24.6413 112.348 24.3505C111.665 24.1335 111.209 24.1178 111.213 24.0783Z" fill="#455A64"/>
<path d="M123.013 36.7584C122.893 36.8266 122.758 36.8645 122.621 36.8689C122.235 36.9022 121.848 36.8184 121.51 36.6283C121.004 36.3537 120.594 35.9315 120.332 35.4174C120.028 34.7985 119.801 34.144 119.657 33.469C119.517 32.8094 119.297 32.1696 119.001 31.5639C118.756 31.0779 118.372 30.6767 117.898 30.4122C117.581 30.231 117.219 30.1409 116.854 30.1519C116.599 30.1519 116.462 30.219 116.462 30.1992C116.581 30.1264 116.715 30.0831 116.854 30.073C117.238 30.029 117.627 30.1019 117.969 30.2821C118.48 30.5436 118.9 30.9566 119.17 31.4653C119.48 32.0846 119.707 32.7425 119.845 33.4216C119.986 34.0808 120.202 34.7214 120.489 35.3306C120.727 35.8217 121.102 36.2327 121.569 36.5139C121.882 36.7012 122.24 36.8006 122.605 36.8018C122.864 36.786 123.005 36.7387 123.013 36.7584Z" fill="#455A64"/>
<path d="M122.754 40.0279C122.754 40.0279 122.715 40.0279 122.632 40.0594C122.516 40.0842 122.398 40.1 122.279 40.1068C121.839 40.1394 121.397 40.1049 120.968 40.0042C119.528 39.6675 118.267 38.7987 117.435 37.5707C116.622 36.355 116.124 34.9545 115.987 33.4963C115.972 33.2513 115.934 33.0082 115.873 32.7706C115.824 32.5975 115.724 32.4434 115.586 32.3289C115.464 32.2342 115.316 32.178 115.162 32.1671C115.243 32.1407 115.329 32.1355 115.412 32.1521C115.495 32.1687 115.573 32.2064 115.637 32.2618C115.796 32.3791 115.916 32.5431 115.979 32.7312C116.054 32.9737 116.104 33.2235 116.128 33.4766C116.305 34.8994 116.81 36.2609 117.604 37.4523C118.409 38.6359 119.61 39.4907 120.988 39.8622C121.567 39.9939 122.161 40.0496 122.754 40.0279Z" fill="#455A64"/>
<path d="M88.3157 164.963L144.058 164.6L138.433 130.751L137.455 72.555L126.322 69.1393L120.827 66.0234L102.742 68.3229L100.414 71.285C100.414 71.285 92.5003 73.967 89.0773 75.5407L88.8418 75.6472C86.414 76.7598 84.3573 78.5525 82.9182 80.8102L67.8325 104.392L45.7713 91.4673L37.9988 102.838C37.9988 102.838 65.0847 125.494 69.9955 125.032C74.9063 124.571 76.6099 124.567 78.3057 122.248C79.6051 120.465 84.7122 114.426 87.146 110.391L89.6308 138.273L88.3157 164.963Z" fill="#EBEBEB"/>
<path d="M105.977 165C105.918 165 105.47 152.599 104.979 137.3C104.489 122 104.128 109.592 104.194 109.592C104.261 109.592 104.697 121.988 105.191 137.296C105.686 152.603 106.031 165 105.977 165Z" fill="#263238"/>
<path d="M102.813 68.0941L104.214 110.431L120.811 66.0234L102.813 68.0941Z" fill="#FFBE9D"/>
<path d="M104.34 112.817C104.316 112.776 104.298 112.732 104.285 112.687C104.245 112.592 104.198 112.466 104.139 112.293C104.002 111.945 103.814 111.456 103.57 110.829C103.064 109.567 102.322 107.741 101.293 105.536C100.767 104.436 100.179 103.241 99.4799 101.986C98.7572 100.662 97.8852 99.4263 96.8812 98.3026C96.3317 97.7346 95.6761 97.139 95.4445 96.2674C95.3449 95.8352 95.3557 95.3848 95.4759 94.9579C95.5819 94.5319 95.7311 94.1217 95.8685 93.7076C96.4141 92.0392 96.9833 90.3156 97.5604 88.5526L97.5957 88.4421L97.7017 88.5762L91.0283 89.1836V88.9864L94.5887 81.8869C95.684 79.7255 96.6732 77.8205 97.525 76.2507C98.3769 74.6809 99.0952 73.4424 99.5938 72.6102C99.8489 72.1921 100.053 71.8726 100.194 71.6597L100.355 71.423C100.395 71.3678 100.414 71.3402 100.418 71.3441L100.371 71.4309L100.222 71.6794C100.088 71.9121 99.896 72.2316 99.6526 72.6457C99.1619 73.4898 98.475 74.7322 97.6349 76.3098C96.7949 77.8875 95.8214 79.7965 94.7379 81.9658L93.0343 85.3972L92.1196 87.2352L91.6446 88.1818L91.3973 88.6591L91.2678 88.8957L91.201 89.018L91.1618 89.0771C91.1341 89.121 91.0927 89.1543 91.044 89.1718V88.9746L97.7174 88.3593H97.8705L97.8234 88.5092L97.788 88.6157C97.2071 90.3787 96.6379 92.1023 96.0922 93.7707C95.8331 94.5951 95.4563 95.4233 95.6683 96.2201C95.8802 97.0168 96.5005 97.6005 97.05 98.1685C98.0663 99.3141 98.9451 100.576 99.6683 101.927C100.367 103.182 100.948 104.384 101.466 105.477C102.479 107.694 103.205 109.532 103.688 110.806C103.924 111.445 104.104 111.942 104.218 112.281C104.278 112.449 104.321 112.581 104.348 112.675C104.348 112.723 104.345 112.77 104.34 112.817Z" fill="#263238"/>
<path d="M104.285 113.216C104.279 113.17 104.279 113.124 104.285 113.078L104.347 112.684C104.44 112.167 104.578 111.661 104.76 111.169C105.472 109.367 106.376 107.648 107.456 106.042C108.128 105.016 108.893 103.912 109.761 102.752C110.676 101.515 111.659 100.33 112.705 99.2023C113.868 97.9366 115.141 96.7777 116.509 95.7393C117.239 95.196 117.998 94.6918 118.782 94.2287C119.567 93.7554 120.391 93.3058 121.176 92.7812L121.149 92.9232C120.079 91.3178 118.629 90.0045 116.929 89.1013L116.787 89.0263L116.917 88.9317C119.344 87.1137 122.172 85.9109 125.16 85.4253L125.086 85.5081L125.938 73.7387C126.048 72.3188 126.134 71.1908 126.197 70.4098C126.228 70.0154 126.252 69.7393 126.271 69.5303L126.295 69.3054C126.29 69.2794 126.29 69.2526 126.295 69.2266C126.298 69.2528 126.298 69.2792 126.295 69.3054V69.5303C126.295 69.7433 126.267 70.0391 126.248 70.4138C126.201 71.2026 126.13 72.3227 126.044 73.7466C125.851 76.6219 125.584 80.6883 125.259 85.5239V85.5949H125.188C122.229 86.0824 119.429 87.2783 117.027 89.0816V88.912C118.757 89.8293 120.232 91.1644 121.321 92.797L121.38 92.8798L121.294 92.939C120.509 93.4675 119.677 93.9211 118.888 94.3944C118.109 94.8508 117.356 95.3485 116.63 95.8853C115.275 96.9153 114.011 98.0622 112.854 99.3127C111.807 100.44 110.824 101.625 109.91 102.863C109.038 104.01 108.265 105.107 107.59 106.128C106.5 107.716 105.579 109.415 104.842 111.197C104.652 111.682 104.502 112.182 104.395 112.691C104.359 112.857 104.332 112.991 104.312 113.086C104.308 113.13 104.299 113.174 104.285 113.216Z" fill="#263238"/>
<path d="M125.396 100.307H113.674V102.598H125.396V100.307Z" fill="#263238"/>
<path d="M122.75 120.946C122.687 120.975 122.619 120.995 122.55 121.005L121.969 121.131C121.253 121.281 120.528 121.385 119.798 121.443C118.707 121.542 117.607 121.408 116.571 121.049C115.283 120.598 114.215 119.668 113.588 118.449C113.032 117.22 112.754 115.883 112.776 114.533C112.776 113.298 112.815 112.206 112.819 111.275C112.823 110.344 112.85 109.599 112.878 109.078C112.878 108.818 112.905 108.617 112.917 108.482C112.917 108.412 112.927 108.341 112.948 108.273C112.953 108.343 112.953 108.413 112.948 108.482C112.948 108.644 112.948 108.841 112.948 109.082C112.948 109.63 112.948 110.372 112.948 111.275V114.529C112.937 115.849 113.213 117.156 113.757 118.359C114.358 119.531 115.381 120.43 116.619 120.871C117.625 121.227 118.694 121.371 119.759 121.293C120.484 121.249 121.206 121.167 121.922 121.049L122.511 120.962C122.59 120.947 122.67 120.942 122.75 120.946Z" fill="#263238"/>
<path d="M124.87 108.002C124.87 108.058 122.201 108.168 118.911 108.243C115.622 108.318 112.948 108.338 112.948 108.278C112.948 108.219 115.614 108.117 118.907 108.038C122.201 107.959 124.87 107.967 124.87 108.002Z" fill="#263238"/>
<path d="M119.064 108.084V104.175C119.064 103.871 119.185 103.579 119.399 103.364C119.613 103.148 119.904 103.027 120.207 103.027C120.509 103.027 120.8 103.148 121.014 103.364C121.228 103.579 121.349 103.871 121.349 104.175V110.616C121.352 110.668 121.346 110.72 121.329 110.769C121.313 110.818 121.287 110.864 121.253 110.903C121.185 110.982 121.088 111.031 120.984 111.038C120.88 111.045 120.777 111.011 120.698 110.942C120.619 110.873 120.571 110.776 120.564 110.671C120.564 110.624 120.564 110.569 120.564 110.517C120.564 109.535 120.454 108.036 120.454 108.036L119.064 108.084Z" fill="#F3B36A"/>
<path d="M118.864 114.836C118.763 113.92 118.729 112.997 118.762 112.075C118.728 111.154 118.762 110.231 118.864 109.314C118.966 110.231 119 111.154 118.966 112.075C118.999 112.997 118.965 113.92 118.864 114.836Z" fill="#263238"/>
<path d="M121.074 119.952C121.019 119.952 120.972 117.98 120.972 115.558C120.972 113.136 121.019 111.164 121.074 111.164C121.129 111.164 121.176 113.136 121.176 115.558C121.176 117.98 121.133 119.952 121.074 119.952Z" fill="#263238"/>
<path d="M103.107 76.9994L108.56 83.6848C112.41 79.78 115.178 75.9226 117.588 74.2188C117.588 74.2188 104.218 111.026 104.198 110.414C104.179 109.803 103.107 76.9994 103.107 76.9994Z" fill="#4AA29A"/>
<path d="M117.604 74.2353C117.563 74.2909 117.517 74.3425 117.466 74.3891L117.042 74.7835C116.674 75.1346 116.147 75.6552 115.504 76.302C114.212 77.5918 112.497 79.4574 110.624 81.5084C108.752 83.5593 107.013 85.4131 105.694 86.6831C105.034 87.3181 104.493 87.819 104.104 88.1543L103.657 88.5487C103.607 88.5971 103.551 88.6394 103.492 88.6749C103.492 88.6749 103.535 88.6158 103.629 88.5211L104.049 88.1267C104.422 87.7757 104.948 87.255 105.592 86.6082C106.879 85.3184 108.595 83.4528 110.471 81.4019C112.348 79.3509 114.083 77.4971 115.402 76.2271C116.061 75.5921 116.603 75.0912 116.991 74.7559L117.435 74.3615C117.541 74.2708 117.596 74.2274 117.604 74.2353Z" fill="#263238"/>
<path d="M108.524 83.6584C108.481 83.6939 107.233 82.2346 105.737 80.3966C104.241 78.5586 103.064 77.0361 103.107 77.0006C103.15 76.9651 104.398 78.4245 105.894 80.2664C107.39 82.1083 108.567 83.6229 108.524 83.6584Z" fill="#263238"/>
<path d="M85.348 89.7871C85.3734 89.8772 85.3892 89.9698 85.3951 90.0632C85.4226 90.2643 85.454 90.5286 85.4933 90.852C85.5757 91.5423 85.6817 92.5401 85.8073 93.7786C86.0546 96.2516 86.349 99.6712 86.6552 103.45C86.9614 107.228 87.2441 110.628 87.4403 113.125C87.5424 114.344 87.6248 115.341 87.6837 116.055C87.7112 116.387 87.7308 116.651 87.7465 116.844C87.7535 116.937 87.7535 117.031 87.7465 117.124C87.7208 117.034 87.7037 116.942 87.6955 116.848C87.6719 116.647 87.6405 116.383 87.5974 116.059C87.5149 115.369 87.4089 114.371 87.2872 113.133C87.0399 110.66 86.7416 107.24 86.4354 103.462C86.1292 99.683 85.8505 96.2832 85.6503 93.7865C85.5482 92.5677 85.4658 91.5699 85.403 90.856C85.3794 90.5247 85.3598 90.2604 85.3441 90.0671C85.3358 89.9739 85.3371 89.8801 85.348 89.7871Z" fill="#263238"/>
<path d="M136.65 72.4688C136.65 72.4688 145.389 72.4688 147.579 89.3577C149.769 106.247 154.586 137.22 145.828 143.093C137.07 148.966 96.4886 148.552 96.4886 148.552V132.191L129.785 128.5C129.785 128.5 129.659 125.455 131.355 125.478L129.463 86.8729C129.463 86.8729 129.07 73.2024 136.65 72.4688Z" fill="#EBEBEB"/>
<path d="M129.549 99.7031C129.549 99.7031 129.549 99.8609 129.584 100.169C129.62 100.476 129.628 100.957 129.663 101.541C129.726 102.752 129.82 104.519 129.942 106.783C130.173 111.323 130.507 117.846 130.915 125.794V125.877H130.829C130.547 125.884 130.277 125.988 130.063 126.173C129.847 126.381 129.685 126.639 129.592 126.926C129.395 127.534 129.31 128.173 129.341 128.811V128.894H129.263L96.5004 132.282L96.5907 132.179V148.552L96.4926 148.453C110.668 148.607 123.029 148.059 131.763 146.935C133.95 146.655 135.901 146.335 137.6 146C139.046 145.713 140.475 145.351 141.883 144.915C142.452 144.722 142.955 144.521 143.387 144.367C143.818 144.213 144.172 144.028 144.45 143.882L145.071 143.527L145.286 143.413C145.286 143.413 145.22 143.46 145.082 143.543L144.466 143.913C144.187 144.063 143.826 144.217 143.406 144.418C142.986 144.619 142.476 144.781 141.903 144.978C140.496 145.428 139.066 145.802 137.62 146.098C135.92 146.446 133.965 146.773 131.783 147.061C123.041 148.201 110.671 148.796 96.4886 148.639H96.3905V148.54C96.3905 143.807 96.3905 138.814 96.3905 133.674V132.097H96.4847L129.247 128.744L129.168 128.835C129.133 128.166 129.224 127.497 129.435 126.863C129.537 126.552 129.713 126.271 129.95 126.046C130.195 125.837 130.503 125.718 130.825 125.707L130.746 125.794C130.354 117.846 130.059 111.323 129.847 106.779C129.745 104.515 129.663 102.748 129.608 101.537C129.584 100.938 129.569 100.48 129.553 100.165C129.537 99.8491 129.549 99.7031 129.549 99.7031Z" fill="#263238"/>
<path d="M135.626 129.777C135.59 129.777 135.461 129.438 135.163 128.925C134.77 128.26 134.267 127.666 133.675 127.17C133.08 126.678 132.407 126.29 131.685 126.023C131.131 125.821 130.762 125.758 130.77 125.723C131.097 125.719 131.423 125.774 131.732 125.885C132.491 126.118 133.196 126.501 133.806 127.011C134.417 127.521 134.921 128.147 135.288 128.854C135.455 129.139 135.569 129.452 135.626 129.777Z" fill="#263238"/>
<path d="M131.712 132.815C131.241 131.254 130.372 129.844 129.192 128.725C129.412 128.828 129.611 128.972 129.777 129.151C130.21 129.545 130.586 129.999 130.892 130.499C131.201 130.997 131.439 131.536 131.598 132.101C131.683 132.329 131.722 132.571 131.712 132.815Z" fill="#263238"/>
<path d="M16.6716 84.8301L40.5386 148.592L91.1657 149.621L70.3017 85.2679L16.6716 84.8301Z" fill="#F3B36A"/>
<g opacity="0.5">
<path opacity="0.5" d="M48.5505 148.705C48.5505 148.705 36.4286 125.32 32.6641 109.717C30.5168 100.894 28.6051 84.9082 28.6051 84.9082L60.2053 85.1882C60.2053 85.1882 70.6864 101.947 76.7199 118.694C80.3332 128.685 82.9833 139.002 84.6337 149.502L68.4175 149.143L63.0827 133.516C63.0827 133.516 61.4183 134.419 59.1297 133.252L64.6254 149.06L48.5505 148.705Z" fill="white"/>
</g>
<path d="M65.8698 123.589C65.5754 122.729 64.2996 119.692 64.5037 118.177C64.7078 116.663 66.1995 115.022 66.282 113.504C66.3644 111.985 66.4076 108.601 66.0229 106.952C65.6183 105.494 65.1213 104.063 64.5351 102.669C64.5351 102.669 62.2465 99.0285 59.9462 98.9456L57.1473 98.8431C57.1473 98.8431 55.1218 99.3322 56.1031 101.849C57.0845 104.365 59.4006 108.684 59.7342 109.429C60.0679 110.175 61.6302 113.054 61.2769 114.9C60.9237 116.746 58.2504 121.897 58.6037 123.151L57.1709 123.1C57.1709 123.1 55.848 120.796 53.9912 119.822C52.1345 118.848 48.1501 114.643 47.3179 112.131C46.4857 109.619 45.5514 103.773 44.9901 102.002C44.4287 100.231 43.5612 98.6774 42.1048 98.283C40.6485 97.8886 38.6975 98.3856 38.6975 98.3856C38.6975 98.3856 36.0871 99.2888 37.2529 103.233C38.4188 107.177 39.0744 107.418 40.4561 109.725C41.8379 112.032 42.1873 112.723 43.2825 113.724C44.3777 114.726 46.9685 115.835 48.0834 118.244C49.1982 120.654 49.7753 123.451 51.7694 126.898C53.7636 130.345 54.5173 131.631 56.0874 131.631C57.6576 131.631 58.168 129.844 58.2268 128.772C58.2648 128.208 58.2648 127.643 58.2268 127.079L60.1268 127.15C60.1268 127.15 62.274 131.181 64.5273 131.939C66.7805 132.696 66.6235 130.661 66.7373 129.872C66.8512 129.083 66.1799 124.445 65.8698 123.589ZM54.741 128.243C54.1443 127.935 53.1041 125.916 52.0717 124.165C51.2866 122.855 51.369 122.165 51.4514 121.901C51.4647 121.855 51.4845 121.811 51.5103 121.771L51.4789 121.814C51.5574 121.356 52.3229 121.558 52.8842 121.782C53.2964 121.948 55.2592 122.717 55.899 125.573C56.5389 128.428 55.3534 128.547 54.7528 128.243H54.741ZM64.5861 128.602C64.1936 128.87 62.8707 128.661 61.5557 125.782C60.2406 122.903 61.7205 122.256 62.0306 122.118C62.4507 121.928 63.0984 121.778 63.4909 122.252L63.432 122.208C63.4848 122.25 63.5346 122.294 63.5812 122.342C64.1428 122.972 64.4714 123.777 64.5116 124.622C64.6921 126.338 64.9983 128.334 64.5979 128.602H64.5861Z" fill="white"/>
<path d="M57.8422 122.165C58.3132 122.134 57.9796 120.335 57.9796 120.335C58.0301 119.658 58.0301 118.977 57.9796 118.3C57.8932 117.452 58.3289 116.675 58.6312 115.89C58.9335 115.105 58.6312 113.011 58.2386 111.946C57.8461 110.881 58.1209 110.798 58.1209 110.798C59.3299 110.404 58.2151 107.876 57.4025 105.513C56.5899 103.15 55.7813 103.32 55.7813 103.32C55.7813 103.32 55.2396 103.3 54.9295 105.225C54.6193 107.15 54.0894 107.832 52.9275 107.828H52.3072C51.1296 107.828 50.0972 107 48.4485 105.004C46.7998 103.008 46.262 102.989 46.262 102.989C46.262 102.989 45.3159 102.756 46.1167 105.119C46.9175 107.481 47.5181 109.982 49.0334 110.487C49.0334 110.487 49.3474 110.597 49.7046 111.67C50.0618 112.743 51.1845 114.853 52.0364 115.677C52.8882 116.501 53.8735 117.334 54.3681 118.194C54.8627 119.053 55.7852 120.28 55.7852 120.28C55.7852 120.28 56.9118 122.11 57.4143 122.177L57.8422 122.165Z" fill="white"/>
<path d="M43.1491 85.4844C43.1491 85.4844 42.5328 85.6619 42.9763 86.6992C43.4199 87.7366 43.3689 88.3479 43.6241 88.628C43.8948 88.9093 44.1832 89.1728 44.4877 89.4168C44.4877 89.4168 43.7811 89.6613 44.3032 90.7696C44.8253 91.878 44.9587 92.9705 45.1982 93.4556C45.4376 93.9408 45.944 94.0985 46.1795 94.3786C46.4151 94.6586 45.3945 94.347 45.6614 95.3094C45.9283 96.2718 46.5328 96.9738 46.5289 97.8613C46.525 98.7487 46.9568 99.9162 47.7969 100.354C48.6369 100.792 48.4799 101.399 48.5034 101.876C48.5532 102.531 48.6851 103.176 48.896 103.797C49.2257 105.032 51.1139 106.953 52.2719 106.846C53.4299 106.74 54.5408 105.367 54.2621 104.539C53.7882 103.409 53.1535 102.354 52.3779 101.407C51.8872 100.914 51.4711 100.898 51.5614 100.358C51.6517 99.8176 52.2562 100.654 52.2287 99.9044C52.2514 99.132 52.0525 98.3693 51.6556 97.7074C51.1885 97.0093 51.0472 96.327 50.5997 95.4238C50.1521 94.5206 49.2768 94.3549 49.3474 94.1537C49.4181 93.9526 49.897 94.0394 49.5005 93.1401C49.104 92.2408 49.0805 92.8522 48.6565 91.4756C48.2326 90.0991 48.0402 89.2748 47.6281 89.3971C47.2159 89.5193 47.2787 88.908 47.1334 87.9496C46.9882 86.9911 47.3336 87.3461 46.7409 86.3048C46.1481 85.2636 43.1491 85.4844 43.1491 85.4844Z" fill="white"/>
<path d="M43.942 119.365L44.4641 118.111L43.6201 115.591C43.6201 115.591 45.0332 114.727 46.9999 117.594C48.9666 120.462 48.8371 121.823 48.8371 121.823L46.5053 121.74C46.1803 122.561 46.1511 123.471 46.4229 124.311C46.8979 125.605 47.6005 125.447 48.2247 127.715C48.5508 128.753 48.7834 129.818 48.9195 130.898L56.1895 148.592L52.9431 148.473L45.0921 129.727C45.0921 129.727 44.201 129.147 42.7368 126.303C41.2726 123.459 39.8987 119.764 40.8369 118.766C41.7751 117.768 43.942 119.365 43.942 119.365Z" fill="white"/>
<path d="M69.8699 120.315L68.4685 119.009L67.5931 116.489C67.5931 116.489 65.544 115.499 65.5087 118.291C65.4733 121.084 66.5489 122.492 66.5489 122.492L68.8807 122.575C68.8807 122.575 70.337 123.931 70.7413 125.217C71.1457 126.503 70.3488 126.294 71.2438 128.574C71.6594 129.679 72.1554 130.752 72.7276 131.784L77.4853 149.379L80.7356 149.498L75.8366 130.842C75.8366 130.842 76.3548 130.313 75.872 127.505C75.3891 124.697 74.2704 121.017 72.6138 119.924C72.1981 119.611 71.6759 119.476 71.1615 119.55C70.6472 119.623 70.1827 119.898 69.8699 120.315Z" fill="white"/>
<path d="M16.6716 84.8301L70.3017 85.1811H70.3606L70.3802 85.2403C76.241 103.297 83.2872 125.013 90.8674 148.347L91.2599 149.574L91.307 149.712H91.1618L40.5229 148.674H40.4601L40.4366 148.615L16.6716 84.8301C16.9543 85.5913 26.4265 110.783 40.6171 148.56L40.5347 148.501L91.1736 149.519L91.0754 149.653C90.9419 149.258 90.8085 148.84 90.6829 148.426L70.2311 85.2955L70.3096 85.3547L16.6716 84.8301Z" fill="#263238"/>
<path d="M96.5672 133.526H91.4915C91.4915 133.526 88.8928 131.005 88.1862 130.65C87.4796 130.295 84.0095 129.242 84.0095 129.242L85.3481 132.973C85.5576 133.033 85.7634 133.106 85.9644 133.19C86.8516 133.537 86.6043 134.326 85.8977 134.326H80.7867C80.7867 134.326 75.5501 131.802 74.7728 132.263C74.1212 132.658 73.8935 133.348 74.5608 134.326C75.2282 135.304 79.8171 137.604 80.3431 137.781L81.8426 138.223L80.4334 138.665L73.76 136.326C73.3243 136.247 72.7276 136.176 72.5314 136.428C72.4467 136.514 72.3802 136.617 72.336 136.729C72.2917 136.842 72.2706 136.962 72.2739 137.083C72.2772 137.204 72.3048 137.323 72.3552 137.433C72.4055 137.543 72.4774 137.641 72.5667 137.722C73.5176 138.586 74.5262 139.383 75.5854 140.108C75.5854 140.108 74.5216 141.686 75.4009 142.475C76.2802 143.264 78.8396 145.666 78.8396 145.666C78.8396 145.666 79.1066 146.995 79.8995 147.614C80.6925 148.233 89.4228 148.233 90.0391 148.233C90.6554 148.233 94.1844 146.198 94.1844 146.198L96.4926 145.954L96.5672 133.526Z" fill="#FFBE9D"/>
<path d="M81.4344 142.64C81.1265 142.739 80.8036 142.783 80.4805 142.77C80.1242 142.771 79.7706 142.708 79.4363 142.584C79.0365 142.426 78.6559 142.222 78.3018 141.977C77.5442 141.484 76.869 141.026 76.3823 140.687C76.1095 140.521 75.8555 140.325 75.6246 140.104C75.9203 140.227 76.2019 140.381 76.4647 140.565C76.9672 140.873 77.6423 141.31 78.4274 141.803C78.7706 142.04 79.1362 142.242 79.5187 142.407C79.8313 142.534 80.1631 142.608 80.5001 142.624C81.0654 142.651 81.4344 142.604 81.4344 142.64Z" fill="#EB996E"/>
<path d="M81.8348 145.922C81.8544 145.922 81.6464 146.175 81.1753 146.297C80.5581 146.43 79.9138 146.321 79.3735 145.993C78.8438 145.691 78.3534 145.324 77.9132 144.901C77.717 144.74 77.5485 144.548 77.4147 144.333C77.4618 144.277 78.2626 145.121 79.4716 145.812C79.9726 146.117 80.5637 146.239 81.1439 146.155C81.3806 146.098 81.6118 146.02 81.8348 145.922Z" fill="#EB996E"/>
<path d="M84.3196 138.66C83.8566 138.717 83.3867 138.681 82.9378 138.553C82.4755 138.492 82.0299 138.339 81.6267 138.104C82.0848 138.144 82.5382 138.227 82.981 138.352C83.4356 138.413 83.8836 138.516 84.3196 138.66Z" fill="#EB996E"/>
<path d="M14.6931 96.3592C14.4444 96.2169 14.2268 96.0255 14.0535 95.7966C13.8802 95.5676 13.7548 95.3058 13.6848 95.027C13.6147 94.7481 13.6015 94.4578 13.646 94.1737C13.6904 93.8895 13.7916 93.6174 13.9434 93.3735C14.1291 93.0263 14.3992 92.7319 14.7285 92.5176C15.5803 92.064 23.1173 90.6441 23.9259 90.5455C24.7346 90.4469 24.8837 91.993 23.8278 92.7622C22.7718 93.5313 14.7128 96.3671 14.7128 96.3671L14.6931 96.3592Z" fill="#FFBE9D"/>
<path d="M16.4479 101.849C16.2006 101.706 15.9844 101.515 15.8121 101.287C15.6399 101.058 15.515 100.798 15.4451 100.52C15.3752 100.242 15.3615 99.9529 15.405 99.6697C15.4484 99.3865 15.5481 99.115 15.6981 98.8713C15.8827 98.5232 16.153 98.2286 16.4832 98.0154C17.335 97.5618 25.029 95.5305 25.6806 96.0433C26.4657 96.6349 26.6385 97.4869 25.5825 98.2599C24.5265 99.033 16.4675 101.865 16.4675 101.865L16.4479 101.849Z" fill="#FFBE9D"/>
<path d="M17.9788 100.713C17.6233 100.796 17.2903 100.956 17.0033 101.182C16.7163 101.408 16.4824 101.695 16.3183 102.023C16.1383 102.375 16.0842 102.779 16.1652 103.166C16.2897 103.747 16.5687 104.282 16.9724 104.716C17.3762 105.149 17.8896 105.464 18.4577 105.628C19.8355 106.061 24.3224 105.048 24.3224 105.048L23.2861 102.141L26.4264 101.108C27.7062 100.595 27.0859 98.5833 25.5471 98.9738C25.0447 99.1 19.7767 100.264 17.9788 100.713Z" fill="#FFBE9D"/>
<path d="M15.6235 98.949C15.3758 98.8066 15.1592 98.6156 14.9866 98.3872C14.8141 98.1589 14.689 97.898 14.6191 97.62C14.5491 97.3421 14.5356 97.0528 14.5793 96.7695C14.6231 96.4862 14.7232 96.2147 14.8737 95.9711C15.0595 95.6239 15.3295 95.3295 15.6588 95.1152C16.5107 94.6616 23.3646 93.435 24.1614 93.2654C24.9583 93.0958 25.8141 94.5748 24.7581 95.344C23.7022 96.1131 15.6235 98.949 15.6235 98.949Z" fill="#FFBE9D"/>
<path d="M23.3685 96.1855C22.9769 96.3201 22.5752 96.4229 22.1673 96.4932C21.4215 96.6588 20.3891 96.8876 19.2468 97.1006C18.2736 97.2545 17.34 97.5989 16.4989 98.1142C16.1695 98.3594 15.875 98.6487 15.6235 98.9741C15.6235 98.9741 15.6549 98.8557 15.7688 98.6704C15.9371 98.4102 16.1497 98.1819 16.3969 97.9959C16.7559 97.7238 17.1527 97.5058 17.5745 97.3491C18.0939 97.1596 18.6266 97.0093 19.1683 96.8994C20.3145 96.6707 21.3548 96.4814 22.1084 96.3512C22.5228 96.2588 22.9445 96.2034 23.3685 96.1855Z" fill="#EB996E"/>
<path d="M22.0456 93.668C21.6711 93.795 21.2863 93.8887 20.8954 93.948L18.0966 94.4923C17.1677 94.6471 16.2813 94.995 15.494 95.5138C15.2041 95.7674 14.941 96.0502 14.7089 96.3579C14.7089 96.3579 14.7403 96.2435 14.8463 96.066C14.9991 95.8134 15.1928 95.5881 15.4194 95.3995C15.9886 94.8946 16.9896 94.5317 18.0691 94.2951C19.1486 94.0584 20.1614 93.9243 20.8837 93.806C21.2664 93.7272 21.6551 93.6811 22.0456 93.668Z" fill="#EB996E"/>
<path d="M23.4745 99.4062C23.1247 99.5474 22.7635 99.6583 22.3949 99.7376C21.7237 99.919 20.7855 100.16 19.7413 100.333C18.8453 100.449 17.9801 100.738 17.1937 101.185C16.9023 101.403 16.6387 101.656 16.4086 101.938C16.4086 101.938 16.436 101.832 16.546 101.666C16.7088 101.435 16.9092 101.232 17.1387 101.067C17.9172 100.573 18.7931 100.254 19.706 100.132C20.7541 99.9584 21.6687 99.7376 22.3675 99.5995C22.7297 99.5006 23.1003 99.4358 23.4745 99.4062Z" fill="#EB996E"/>
<path d="M23.8984 101.939C23.3791 102.22 22.83 102.441 22.2614 102.598C21.7102 102.817 21.136 102.971 20.5499 103.06C21.0686 102.779 21.6179 102.559 22.1869 102.405C22.738 102.185 23.3122 102.029 23.8984 101.939Z" fill="#EB996E"/>
<path d="M184.149 56.4009C184.627 55.6981 185.262 55.117 186.003 54.7035C186.744 54.29 187.57 54.0556 188.417 54.0188C189.263 53.982 190.107 54.1438 190.88 54.4915C191.654 54.8391 192.336 55.363 192.873 56.0216C193.41 56.6802 193.787 57.4555 193.974 58.2859C194.161 59.1164 194.153 59.9792 193.951 60.806C193.748 61.6327 193.357 62.4008 192.808 63.0492C192.259 63.6976 191.567 64.2086 190.787 64.5417C191.655 64.9703 192.32 65.7258 192.638 66.6441C192.955 67.5625 192.899 68.5696 192.482 69.4468C192.065 70.324 191.32 71.0004 190.41 71.3293C189.499 71.6582 188.496 71.6129 187.619 71.2034C187.191 72.7179 185.503 73.633 183.941 73.5265C182.378 73.42 180.969 72.4892 179.901 71.3375C178.79 70.1404 177.991 68.6855 177.575 67.1026C177.159 65.5197 177.14 63.8581 177.519 62.2659C178.351 59.1105 181.052 56.4679 184.274 55.9236" fill="#263238"/>
<path d="M186.63 53.9316C186.63 53.9316 186.657 53.9671 186.696 54.0421C186.753 54.1517 186.803 54.2651 186.846 54.3813C187.01 54.8167 187.112 55.2736 187.148 55.7381C187.207 56.4473 187.129 57.1613 186.916 57.8403C186.651 58.7083 186.169 59.4933 185.515 60.1201V59.9899C186.056 60.7322 186.412 61.5936 186.555 62.5023C186.748 63.6138 186.602 64.7578 186.138 65.785C185.674 66.8122 184.912 67.675 183.953 68.2608C183.382 68.6206 182.752 68.8732 182.092 69.0063C181.914 69.0425 181.735 69.0662 181.554 69.0773C181.49 69.0834 181.426 69.0834 181.362 69.0773C181.362 69.0536 181.621 69.0339 182.076 68.9274C182.714 68.7645 183.321 68.4981 183.874 68.1386C184.511 67.7212 185.057 67.1783 185.479 66.5426C185.901 65.907 186.19 65.1919 186.329 64.4407C186.467 63.6895 186.453 62.9179 186.286 62.1725C186.119 61.4271 185.803 60.7234 185.358 60.1043L185.307 60.0333L185.37 59.9741C186.006 59.3756 186.479 58.6233 186.744 57.789C186.961 57.1313 187.053 56.4381 187.014 55.746C186.972 55.126 186.842 54.5152 186.63 53.9316Z" fill="#455A64"/>
<path d="M202.328 52.834C202.143 52.9645 201.949 53.0805 201.747 53.1811C201.354 53.3901 200.812 53.6859 200.126 54.0409C198.744 54.7548 196.82 55.6975 194.657 56.6677C192.494 57.638 190.508 58.4426 189.06 58.9987C188.337 59.2748 187.748 59.4957 187.336 59.6377C187.128 59.7205 186.914 59.7877 186.696 59.8388C186.893 59.7305 187.098 59.6382 187.309 59.5628L189.009 58.8646C190.441 58.273 192.416 57.4447 194.575 56.4981C196.734 55.5515 198.665 54.6089 200.071 53.9305L201.723 53.1416C201.917 53.0238 202.119 52.921 202.328 52.834Z" fill="#F3B36A"/>
<path d="M197.213 47.7232C197.248 47.7666 195.093 49.8373 192.396 52.3458C189.699 54.8543 187.482 56.8619 187.442 56.8185C187.403 56.7751 189.562 54.7202 192.271 52.1959C194.979 49.6717 197.174 47.6838 197.213 47.7232Z" fill="#F3B36A"/>
<path d="M173.738 39.1801C173.738 34.9362 168.69 34.7272 166.139 35.7882C164.765 33.8949 163.783 32.9405 160.623 32.7432C158.303 32.5934 154.766 33.7648 152.984 36.1116C152.109 37.3042 151.561 38.7066 151.394 40.1788C151.228 41.6509 151.448 43.1412 152.034 44.5008C152.427 45.3962 152.988 46.2954 152.878 47.2618C152.717 48.6659 151.285 49.4863 150.358 50.5473C149.599 51.458 149.162 52.5964 149.116 53.7837C149.071 54.971 149.419 56.1398 150.107 57.1064C151.006 58.2897 152.435 59.1456 152.91 60.5655C153.302 61.7487 152.933 63.0543 153.008 64.3085C153.145 66.6158 154.888 68.6471 157.024 69.4793C159.159 70.3115 161.605 70.1262 163.764 69.3373" fill="#263238"/>
<path d="M155.273 83.6973L163.191 80.1475L163.461 74.8268C163.461 74.8268 157.51 73.9433 156.14 66.1891C155.461 62.3317 155.544 55.9855 155.775 50.8068C155.987 46.1329 160.91 41.3841 165.546 41.7943L180.604 44.3935V46.906L180.741 78.9485L188.53 82.7231L170.865 103.69L155.273 83.6973Z" fill="#FFA8A7"/>
<path d="M158.59 56.2978C158.592 56.5573 158.695 56.8058 158.877 56.99C159.059 57.1743 159.305 57.2798 159.563 57.2839C159.69 57.2913 159.816 57.2734 159.935 57.2313C160.055 57.1892 160.165 57.1237 160.258 57.0385C160.352 56.9534 160.428 56.8503 160.482 56.7353C160.536 56.6204 160.567 56.4958 160.572 56.3688C160.57 56.1089 160.467 55.86 160.286 55.6752C160.104 55.4903 159.857 55.384 159.599 55.3788C159.472 55.3708 159.345 55.3885 159.225 55.4306C159.105 55.4728 158.995 55.5386 158.901 55.6243C158.807 55.71 158.731 55.8137 158.678 55.9294C158.624 56.0451 158.594 56.1704 158.59 56.2978Z" fill="#263238"/>
<path d="M157.204 54.0577C157.33 54.184 158.072 53.612 159.139 53.5963C160.207 53.5805 161 54.1051 161.102 53.971C161.161 53.9118 161.031 53.6791 160.686 53.4346C160.221 53.1241 159.674 52.9632 159.116 52.9731C158.56 52.9813 158.02 53.1678 157.577 53.5055C157.251 53.7619 157.141 53.9986 157.204 54.0577Z" fill="#263238"/>
<path d="M168.572 56.2978C168.573 56.558 168.676 56.8075 168.858 56.9926C169.04 57.1777 169.287 57.2837 169.546 57.2878C169.672 57.2952 169.799 57.2773 169.919 57.2349C170.038 57.1925 170.148 57.1266 170.242 57.0411C170.336 56.9555 170.412 56.852 170.466 56.7365C170.52 56.6211 170.55 56.4961 170.555 56.3688C170.552 56.1092 170.449 55.8609 170.267 55.6762C170.085 55.4916 169.84 55.3849 169.581 55.3788C169.455 55.3708 169.328 55.3885 169.208 55.4306C169.088 55.4728 168.978 55.5386 168.884 55.6243C168.79 55.71 168.714 55.8137 168.66 55.9294C168.607 56.0451 168.577 56.1704 168.572 56.2978Z" fill="#263238"/>
<path d="M167.709 54.0695C167.834 54.1997 168.58 53.6238 169.648 53.6081C170.716 53.5923 171.509 54.1169 171.611 53.9828C171.666 53.9236 171.536 53.6909 171.191 53.4463C170.726 53.1373 170.178 52.9777 169.621 52.9888C169.065 52.9962 168.526 53.1813 168.082 53.5173C167.756 53.7777 167.65 54.0143 167.709 54.0695Z" fill="#263238"/>
<path d="M163.976 62.1003C163.976 62.0412 163.312 61.9386 162.233 61.8164C161.958 61.7927 161.699 61.7454 161.652 61.56C161.623 61.2769 161.682 60.9917 161.821 60.7436C162.064 60.073 162.319 59.3749 162.606 58.6413C163.673 55.6477 164.439 53.1904 164.321 53.1471C164.203 53.1037 163.238 55.5136 162.17 58.4875C161.911 59.225 161.668 59.9311 161.432 60.6016C161.267 60.9364 161.224 61.3188 161.31 61.6823C161.351 61.7784 161.414 61.8638 161.493 61.9322C161.572 62.0005 161.665 62.0499 161.766 62.0767C161.917 62.1151 162.073 62.1349 162.229 62.1358C163.301 62.1674 163.972 62.1635 163.976 62.1003Z" fill="#263238"/>
<path d="M163.461 74.8351C167.107 74.8261 170.678 73.8007 173.778 71.873C173.778 71.873 171.124 77.3554 163.363 76.7678L163.461 74.8351Z" fill="#F28F8F"/>
<path d="M164.47 64.6799C164.67 64.4195 164.932 64.2142 165.232 64.0831C165.532 63.9521 165.86 63.8996 166.186 63.9305C166.421 63.9489 166.651 64.0141 166.861 64.1224C167.071 64.2308 167.258 64.3801 167.41 64.5616C167.557 64.7387 167.645 64.9565 167.664 65.1858C167.683 65.415 167.631 65.6445 167.516 65.8434C167.35 66.042 167.129 66.1857 166.88 66.2561C166.632 66.3264 166.368 66.3201 166.123 66.2379C165.615 66.0682 165.146 65.8002 164.741 65.449C164.62 65.3647 164.515 65.2592 164.431 65.1374C164.393 65.0787 164.373 65.0102 164.373 64.9402C164.373 64.8702 164.393 64.8018 164.431 64.743" fill="#F28F8F"/>
<path d="M167.147 62.7853C166.975 62.7853 166.99 63.9449 166.013 64.789C165.036 65.633 163.799 65.5265 163.791 65.6922C163.791 65.7632 164.07 65.913 164.576 65.917C165.256 65.9149 165.914 65.6719 166.433 65.2307C166.931 64.8062 167.245 64.2036 167.308 63.5505C167.344 63.0654 167.21 62.7774 167.147 62.7853Z" fill="#263238"/>
<path d="M167.359 49.8682C167.469 50.1562 168.537 49.9984 169.789 50.1286C171.042 50.2587 172.066 50.5861 172.227 50.3179C172.302 50.1917 172.121 49.9235 171.705 49.6474C171.153 49.3103 170.533 49.1039 169.89 49.0438C169.247 48.9837 168.599 49.0714 167.995 49.3003C167.54 49.4975 167.312 49.7302 167.359 49.8682Z" fill="#263238"/>
<path d="M157.542 50.9458C157.734 51.1824 158.468 50.9182 159.351 50.8905C160.235 50.8629 160.988 51.0247 161.157 50.7683C161.232 50.6421 161.106 50.3975 160.765 50.1727C160.319 49.9051 159.805 49.7761 159.286 49.8021C158.768 49.8281 158.269 50.0078 157.852 50.3186C157.557 50.575 157.459 50.8274 157.542 50.9458Z" fill="#263238"/>
<path d="M153.734 41.3094C154.912 44.0703 157.616 48.1644 160.576 48.5273C162.06 48.6881 163.56 48.4653 164.934 47.8799C166.308 47.2945 167.511 46.3661 168.427 45.1826C168.875 47.3992 171.324 48.5746 173.53 48.9414C175.101 49.2017 176.757 49.2175 178.241 48.6219C179.725 48.0263 180.989 46.7327 181.22 45.155C181.452 43.5773 179.222 39.6884 177.656 39.3965" fill="#263238"/>
<path d="M174.088 46.8328C173.57 47.9968 173.531 49.3191 173.978 50.512C174.426 51.705 175.325 52.672 176.478 53.2026C175.387 54.5634 175.191 56.4921 175.607 58.192C176.023 59.892 176.977 61.4105 178.002 62.8264C178.002 62.8264 175.34 66.6957 180.698 69.5315C180.698 69.5315 184.459 68.3483 182.779 62.6647C182.645 62.2579 182.67 61.8151 182.85 61.4263C183.084 61.0965 183.406 60.8407 183.78 60.6887C185.193 59.8982 186.239 58.5811 186.694 57.0218C187.149 55.4625 186.975 53.7862 186.21 52.3546C185.974 51.9909 185.797 51.5914 185.688 51.1714C185.582 50.5324 185.095 48.8641 185.295 48.2527C186.445 45.0619 184.965 41.098 181.24 39.1298C178.253 37.5521 174.512 37.2879 172.211 39.7846" fill="#263238"/>
<path d="M194.889 108.878L199.992 88.8222L185.676 80.9062L171.858 102.307L159.34 81.4979L146.444 87.3629C145.596 87.7498 144.915 88.4301 144.525 89.2797L132.858 120.983L148.623 126.11L150.429 118.762L152.505 131.451L146.507 164.748L197.982 164.558L188.859 130.374L190.127 122.75L194.889 108.878Z" fill="#4AA29A"/>
<g opacity="0.3">
<path opacity="0.3" d="M151.673 134.874C155.206 135.474 158.386 132.33 161.966 132.303C165.267 132.279 168.007 134.878 171.222 135.632C172.639 135.963 174.186 135.951 175.411 136.732C176.353 137.332 176.981 138.31 177.625 139.221C180.768 143.533 185.353 146.562 190.539 147.752C191.325 147.93 193.083 148.541 193.566 147.874L193.056 145.831L192.608 139.635L175.36 127.014L155.673 127.984L151.673 134.874Z" fill="black"/>
</g>
<path d="M189.484 105.85H178.834V107.621H189.484V105.85Z" fill="#263238"/>
<path d="M190.206 127.486C194.524 129.024 199.234 128.792 203.741 128.125C204.813 127.963 205.931 127.758 206.775 127.076C207.058 126.851 207.741 126.287 207.729 126.137C207.698 125.723 206.944 125.171 206.516 124.828C204.876 123.555 202.984 122.65 200.967 122.173C198.95 121.697 196.855 121.661 194.822 122.067C193.739 122.263 192.702 122.664 191.768 123.25C190.853 123.865 190.28 124.205 189.966 125.266" fill="#4AA29A"/>
<g opacity="0.3">
<path opacity="0.3" d="M190.206 127.486C194.524 129.024 199.234 128.792 203.741 128.125C204.813 127.963 205.931 127.758 206.775 127.076C207.058 126.851 207.741 126.287 207.729 126.137C207.698 125.723 206.944 125.171 206.516 124.828C204.876 123.555 202.984 122.65 200.967 122.173C198.95 121.697 196.855 121.661 194.822 122.067C193.739 122.263 192.702 122.664 191.768 123.25C190.853 123.865 190.28 124.205 189.966 125.266" fill="black"/>
</g>
<path d="M207.729 126.137C207.729 126.137 203.207 99.0368 202.928 96.6191C202.226 90.6239 199.98 88.707 199.98 88.707L189.484 120.982L190.21 127.486C190.21 127.486 193.527 122.469 207.729 126.137Z" fill="#4AA29A"/>
<path d="M201.943 104.373C201.895 104.601 201.829 104.825 201.747 105.044C201.613 105.473 201.39 106.085 201.099 106.834C200.327 108.783 199.409 110.67 198.351 112.478C197.289 114.282 196.084 115.996 194.748 117.606C194.233 118.221 193.802 118.71 193.491 119.034C193.337 119.207 193.172 119.371 192.997 119.523C193.127 119.33 193.273 119.148 193.433 118.978C193.723 118.639 194.139 118.138 194.638 117.511C195.932 115.878 197.112 114.157 198.171 112.36C199.223 110.565 200.157 108.702 200.966 106.783C201.272 106.041 201.515 105.438 201.672 105.02C201.746 104.798 201.837 104.582 201.943 104.373Z" fill="#263238"/>
<path d="M152.439 130.776C152.426 130.749 152.418 130.719 152.415 130.689C152.415 130.618 152.388 130.531 152.368 130.425C152.333 130.176 152.278 129.841 152.211 129.415C152.062 128.52 151.854 127.258 151.595 125.708C151.053 122.56 150.268 118.261 149.412 113.489C148.556 108.716 147.771 104.417 147.202 101.262L146.554 97.5541C146.492 97.1321 146.437 96.7929 146.397 96.5444L146.37 96.2802C146.364 96.2502 146.364 96.2194 146.37 96.1895C146.382 96.2171 146.39 96.2463 146.393 96.2762C146.393 96.3472 146.425 96.434 146.444 96.5365C146.492 96.785 146.554 97.1203 146.637 97.5423C146.81 98.4337 147.049 99.6879 147.347 101.234C147.94 104.354 148.753 108.669 149.62 113.437C150.488 118.206 151.237 122.529 151.74 125.664C151.991 127.242 152.176 128.504 152.293 129.384C152.344 129.814 152.384 130.153 152.415 130.401C152.415 130.508 152.415 130.595 152.439 130.665C152.444 130.702 152.444 130.739 152.439 130.776Z" fill="#263238"/>
<path d="M195.666 98.1055C195.658 98.2083 195.639 98.31 195.611 98.4092C195.564 98.6261 195.501 98.914 195.419 99.2729C195.242 100.042 194.995 101.123 194.689 102.428C194.064 105.106 193.201 108.802 192.286 112.896C191.372 116.99 190.575 120.702 190.049 123.399C189.79 124.748 189.578 125.841 189.448 126.598C189.385 126.961 189.33 127.249 189.291 127.47C189.279 127.572 189.257 127.672 189.224 127.77C189.225 127.666 189.234 127.564 189.252 127.462C189.283 127.241 189.323 126.949 189.37 126.586C189.476 125.821 189.664 124.725 189.907 123.372C190.398 120.666 191.167 116.947 192.086 112.849C193.005 108.751 193.888 105.063 194.547 102.393C194.877 101.075 195.148 100.003 195.332 99.2374C195.427 98.8825 195.505 98.5985 195.56 98.3816C195.586 98.2863 195.622 98.1938 195.666 98.1055Z" fill="#263238"/>
<path d="M156.023 82.8854C156.056 82.9228 156.085 82.9638 156.109 83.0077L156.352 83.4021C156.568 83.7413 156.874 84.2304 157.267 84.8575L160.596 90.2177L171.587 108.112H171.418L171.937 107.375C172.498 106.586 173.047 105.797 173.566 105.071V105.206L163.422 88.3047C162.15 86.1709 161.126 84.4473 160.415 83.2483L159.61 81.8797L159.406 81.5207C159.379 81.4814 159.357 81.439 159.34 81.3945C159.37 81.4305 159.398 81.4687 159.422 81.5089L159.642 81.8599C159.838 82.1755 160.121 82.6488 160.478 83.2128C161.204 84.396 162.248 86.1118 163.54 88.2337L173.746 105.099L173.778 105.154L173.742 105.209C173.22 105.943 172.671 106.724 172.113 107.513L171.591 108.25L171.501 108.377L171.422 108.246L160.474 90.3005C159.092 88.0168 157.974 86.1709 157.196 84.8812C156.804 84.2501 156.521 83.7532 156.313 83.4061L156.089 83.0116C156.063 82.972 156.04 82.9297 156.023 82.8854Z" fill="#263238"/>
<path d="M185.664 80.7871C185.651 80.8282 185.631 80.8669 185.605 80.9015L185.405 81.2249L184.62 82.4634L181.715 87.0189L171.925 102.243V102.133C172.357 102.843 172.816 103.6 173.283 104.361L173.723 105.083H173.55C175.646 101.928 177.577 98.9067 179.348 96.1655C181.118 93.4243 182.732 90.9749 184.137 88.9555C185.542 86.9361 186.716 85.3347 187.54 84.2225L188.502 82.9722L188.757 82.6488C188.785 82.6122 188.815 82.5779 188.848 82.5462C188.827 82.5884 188.802 82.6281 188.773 82.6645L188.534 82.9959C188.314 83.2956 188.004 83.7255 187.603 84.2698C186.818 85.3781 185.64 86.9913 184.255 89.0028C182.869 91.0144 181.26 93.4834 179.505 96.2325C177.75 98.9816 175.827 102.05 173.731 105.206L173.64 105.34L173.558 105.202L173.118 104.48L171.764 102.251L171.729 102.2L171.764 102.145L181.609 86.9558L184.565 82.4358L185.374 81.217L185.585 80.9054L185.664 80.7871Z" fill="#263238"/>
<path d="M157.554 118.726C156.776 118.389 155.902 118.352 155.099 118.623C154.297 118.894 153.622 119.453 153.204 120.193C152.888 120.824 152.763 121.535 152.847 122.237C152.931 122.938 153.219 123.599 153.675 124.137C154.606 125.131 156.859 125.81 157.907 124.611L157.554 118.726Z" fill="#EBEBEB"/>
<path d="M157.554 118.726C157.581 118.864 157.598 119.004 157.605 119.144C157.628 119.452 157.663 119.854 157.703 120.347C157.777 121.424 157.879 122.895 157.997 124.623V124.662L157.974 124.69C157.739 124.935 157.452 125.123 157.135 125.239C156.817 125.355 156.477 125.397 156.14 125.36C155.423 125.313 154.731 125.076 154.134 124.674C153.555 124.29 153.124 123.718 152.914 123.053C152.718 122.442 152.673 121.792 152.784 121.16C152.881 120.585 153.132 120.048 153.51 119.606C153.836 119.228 154.238 118.923 154.688 118.71C155.346 118.403 156.085 118.315 156.796 118.462C157.054 118.511 157.303 118.601 157.534 118.726C157.514 118.726 157.275 118.628 156.784 118.541C156.091 118.429 155.381 118.535 154.751 118.844C154.284 119.058 153.876 119.384 153.563 119.793C153.25 120.203 153.042 120.683 152.957 121.191C152.853 121.793 152.899 122.41 153.09 122.99C153.288 123.611 153.691 124.145 154.233 124.504C154.8 124.885 155.456 125.111 156.136 125.159C156.443 125.196 156.754 125.161 157.045 125.059C157.336 124.956 157.6 124.788 157.817 124.567L157.793 124.635C157.707 122.923 157.636 121.479 157.581 120.398C157.561 119.898 157.546 119.487 157.534 119.176C157.53 119.026 157.537 118.875 157.554 118.726Z" fill="#263238"/>
<path d="M154.747 118.726C154.747 118.726 155.866 95.5576 156.443 92.2366C157.02 88.9156 158.504 83.5594 160.839 80.2976C163.073 77.1935 163.293 76.9766 163.293 76.9766L163.143 79.8676C161.025 83.6096 159.512 87.6662 158.661 91.8856C157.416 98.4487 156.56 118.706 156.56 118.706L154.747 118.726Z" fill="#263238"/>
<path d="M187.517 122.867C186.862 122.86 186.214 122.726 185.609 122.472L185.907 121.743C186.707 122.095 187.602 122.166 188.447 121.944C188.864 121.821 189.248 121.604 189.569 121.31C189.891 121.016 190.142 120.653 190.304 120.248C190.559 119.447 190.573 118.588 190.343 117.779C190.185 117.18 189.99 116.591 189.758 116.016C189.66 115.76 189.562 115.503 189.468 115.227C187.819 110.569 188.106 105.367 188.357 100.756L189.142 100.799C188.895 105.323 188.616 110.455 190.214 114.963C190.304 115.219 190.398 115.468 190.492 115.72C190.738 116.325 190.946 116.946 191.113 117.578C191.385 118.542 191.36 119.566 191.042 120.516C190.841 121.035 190.524 121.5 190.115 121.876C189.707 122.252 189.218 122.529 188.687 122.685C188.308 122.804 187.914 122.865 187.517 122.867Z" fill="#E0E0E0"/>
<path d="M187.442 123.214C186.131 123.214 184.985 122.595 183.988 121.357C182.692 119.755 182.484 115.783 182.304 112.285C182.241 111.031 182.178 109.847 182.068 108.988C181.676 105.958 179.952 101.888 179.937 101.853L180.655 101.541C180.73 101.711 182.445 105.746 182.846 108.889C182.959 109.776 183.022 110.975 183.089 112.242C183.254 115.46 183.462 119.467 184.596 120.867C186.308 122.986 188.384 122.966 191.329 120.8L191.792 121.439C190.171 122.619 188.738 123.214 187.442 123.214Z" fill="#EBEBEB"/>
<path d="M190.21 121.475C190.356 121.07 190.558 120.688 190.81 120.339C191.05 119.999 191.414 119.768 191.823 119.696C192.027 119.672 192.234 119.713 192.414 119.812C192.595 119.912 192.739 120.066 192.828 120.252C192.905 120.448 192.929 120.661 192.898 120.869C192.866 121.077 192.78 121.272 192.647 121.436C192.391 121.737 192.036 121.935 191.646 121.996C191.267 122.045 190.883 122.045 190.504 121.996" fill="#263238"/>
<path d="M182.374 87.1011C185.449 91.0663 187.293 95.8542 187.674 100.866H189.307C188.969 95.1216 186.726 89.6561 182.936 85.342C183.348 84.0329 183.649 82.691 183.835 81.3308C184.196 78.2504 180.832 76.3848 180.832 76.3848V78.7197C181.257 78.9618 181.608 79.3145 181.85 79.7407C182.092 80.167 182.215 80.6509 182.206 81.1414C182.131 82.8019 180.891 86.332 179.678 89.3769C178.656 91.8745 178.199 94.5687 178.339 97.2652C178.453 100.716 179.795 102.282 179.795 102.282L181.417 101.592C181.417 101.592 180.447 100.373 180.027 97.0404C179.705 94.4925 180.455 92.5007 181.107 90.6587C181.436 89.7437 181.911 88.4816 182.374 87.1011Z" fill="#263238"/>
<path d="M135.457 121.731L133.494 129.253C133.165 130.447 133.149 131.706 133.45 132.908C133.751 134.11 134.357 135.212 135.21 136.108C135.316 136.214 135.426 136.321 135.536 136.419C136.561 137.341 137.821 137.957 139.175 138.199C140.529 138.44 141.924 138.298 143.202 137.788L163.532 129.659L160.529 120.449L145.137 124.855L135.457 121.731Z" fill="#FFA8A7"/>
<path d="M152.148 109.198L155.834 128.919C155.911 129.335 156.135 129.71 156.464 129.974C156.794 130.239 157.207 130.375 157.628 130.358L185.79 129.266C186.254 129.247 186.693 129.045 187.01 128.703C187.327 128.361 187.496 127.907 187.482 127.44L186.838 108.807C186.822 108.349 186.63 107.916 186.302 107.597C185.974 107.279 185.535 107.102 185.079 107.104H153.875C153.617 107.103 153.361 107.16 153.127 107.27C152.893 107.381 152.686 107.542 152.521 107.742C152.355 107.942 152.236 108.176 152.172 108.428C152.108 108.68 152.1 108.943 152.148 109.198Z" fill="#455A64"/>
<path d="M182.916 117.227C182.389 117.225 181.873 117.384 181.438 117.683C181.002 117.981 180.666 118.405 180.475 118.899C180.082 119.968 179.47 121.214 178.81 121.573C177.589 122.244 175.477 122.78 174.37 122.232C173.263 121.683 168.82 117.672 168.043 118.118C167.265 118.564 166.598 119.565 167.375 120.461C168.152 121.356 172.251 124.03 171.466 124.926C170.68 125.821 162.044 121.889 160.698 122.236C159.352 122.583 158.59 123.419 159.367 123.944C160.144 124.468 166.041 126.704 166.358 127.493C166.358 127.493 157.479 125.15 157.145 125.71C156.812 126.271 156.258 127.158 157.145 127.493C158.033 127.829 165.695 129.836 166.358 130.171C167.46 130.632 168.61 130.968 169.785 131.173C170.025 131.173 171.748 131.761 173.362 132.313C175.159 132.941 177.123 132.889 178.885 132.167L179.784 131.796C180.465 131.516 181.041 131.029 181.433 130.403C181.825 129.777 182.013 129.044 181.97 128.306L181.79 125.265L182.759 122.752L182.916 117.227Z" fill="#FFA8A7"/>
<path d="M175.803 132.741C175.803 132.741 192.008 147.48 197.464 147.523C203.215 147.567 206.453 141.572 205.841 137.844C205.511 135.872 204.663 125.464 204.663 125.464C200.813 124.406 195.058 123.933 190.956 126.674L192.451 132.741L181.633 127.487L175.803 132.741Z" fill="#FFA8A7"/>
<path d="M207.729 126.137C207.667 126.134 207.605 126.123 207.545 126.105L207.019 125.979C206.567 125.869 205.912 125.707 205.099 125.522C202.991 125.011 200.83 124.76 198.661 124.772C197.475 124.81 196.294 124.942 195.128 125.167C194.171 125.335 193.236 125.611 192.341 125.991C191.741 126.253 191.18 126.6 190.677 127.021C190.328 127.324 190.159 127.521 190.143 127.51C190.172 127.453 190.209 127.401 190.253 127.356C190.369 127.217 190.493 127.085 190.626 126.961C191.117 126.509 191.676 126.138 192.282 125.861C193.18 125.454 194.124 125.158 195.093 124.981C196.273 124.74 197.47 124.599 198.673 124.559C200.857 124.542 203.034 124.815 205.146 125.372C205.959 125.577 206.611 125.766 207.058 125.896L207.568 126.058C207.67 126.109 207.733 126.129 207.729 126.137Z" fill="#263238"/>
<path d="M255 164.646C255 164.701 197.912 164.748 127.508 164.748C57.1041 164.748 0 164.701 0 164.646C0 164.59 57.0767 164.543 127.508 164.543C197.939 164.543 255 164.59 255 164.646Z" fill="#263238"/>
<path d="M220.927 146.962C221.755 148.146 223.341 147.732 224.067 147.01C224.793 146.288 225.1 145.247 225.374 144.249C226.006 141.985 226.638 139.607 226.14 137.311C226.021 136.614 225.711 135.964 225.245 135.434C225.009 135.172 224.71 134.976 224.376 134.867C224.042 134.758 223.685 134.738 223.341 134.81C222.556 135.031 222.053 135.824 221.7 136.574C220.66 138.794 220.123 141.219 220.13 143.673C220.13 144.813 220.279 146.012 220.915 146.947" fill="#4AA29A"/>
<g opacity="0.2">
<path opacity="0.2" d="M220.927 146.962C221.755 148.146 223.341 147.732 224.067 147.01C224.793 146.288 225.1 145.247 225.374 144.249C226.006 141.985 226.638 139.607 226.14 137.311C226.021 136.614 225.711 135.964 225.245 135.434C225.009 135.172 224.71 134.976 224.376 134.867C224.042 134.758 223.685 134.738 223.341 134.81C222.556 135.031 222.053 135.824 221.7 136.574C220.66 138.794 220.123 141.219 220.13 143.673C220.13 144.813 220.279 146.012 220.915 146.947" fill="black"/>
</g>
<path d="M224.044 152.879C225.409 152.224 226.946 152.023 228.432 152.307C229.245 152.373 230.012 152.711 230.611 153.265C231.157 153.861 231.267 154.918 230.65 155.439C230.251 155.715 229.768 155.843 229.284 155.802C228.107 155.802 226.831 155.6 225.908 156.31C225.382 156.705 225.037 157.383 224.405 157.584C224.089 157.66 223.757 157.63 223.459 157.5C223.161 157.37 222.913 157.146 222.752 156.863C222.445 156.279 222.374 155.6 222.552 154.965C222.623 154.525 222.795 154.108 223.054 153.746C223.313 153.384 223.651 153.087 224.044 152.879Z" fill="#4AA29A"/>
<path d="M218.705 148.663C219.123 148.107 219.399 147.457 219.509 146.77C219.619 146.082 219.56 145.378 219.337 144.719C218.875 143.403 218.06 142.241 216.982 141.362C215.762 140.292 214.348 139.468 212.817 138.937C212.224 138.703 211.588 138.6 210.952 138.633C210.632 138.653 210.321 138.751 210.047 138.92C209.773 139.088 209.545 139.321 209.382 139.599C208.954 140.435 209.382 141.445 209.837 142.27C210.644 143.721 211.562 145.108 212.585 146.415C213.405 147.464 214.352 148.501 215.596 148.967C216.84 149.432 218.136 149.361 218.787 148.497" fill="#4AA29A"/>
<path d="M221.017 164.652C221.06 164.476 221.083 164.296 221.088 164.116C221.123 163.721 221.166 163.244 221.217 162.664C221.283 161.947 221.387 161.233 221.527 160.526C221.71 159.668 221.961 158.825 222.277 158.006C222.588 157.187 223.013 156.416 223.541 155.718C223.969 155.149 224.517 154.683 225.147 154.354C225.574 154.137 226.032 153.989 226.505 153.916C226.682 153.907 226.859 153.88 227.031 153.837C226.854 153.817 226.675 153.817 226.497 153.837C226.003 153.879 225.522 154.013 225.076 154.231C224.413 154.55 223.834 155.02 223.384 155.604C222.835 156.313 222.393 157.1 222.073 157.939C221.752 158.771 221.503 159.628 221.327 160.503C221.197 161.217 221.109 161.939 221.064 162.664C221.021 163.283 221.009 163.784 221.001 164.127C220.988 164.302 220.994 164.478 221.017 164.652Z" fill="#263238"/>
<path d="M221.107 163.532C221.118 163.45 221.118 163.366 221.107 163.284C221.107 163.098 221.107 162.866 221.107 162.578C221.107 161.962 221.107 161.075 221.107 159.978C221.147 157.785 221.312 154.756 221.649 151.427C221.987 148.099 222.434 145.117 222.874 142.951C222.976 142.411 223.074 141.926 223.172 141.5C223.27 141.074 223.341 140.711 223.416 140.411C223.49 140.112 223.533 139.903 223.577 139.721C223.606 139.716 223.633 139.699 223.652 139.675C223.67 139.651 223.679 139.62 223.676 139.59C223.673 139.559 223.659 139.531 223.637 139.511C223.615 139.49 223.585 139.479 223.555 139.479C223.525 139.479 223.495 139.49 223.473 139.511C223.45 139.531 223.436 139.559 223.434 139.59C223.431 139.62 223.44 139.651 223.458 139.675C223.477 139.699 223.503 139.716 223.533 139.721C223.478 139.899 223.416 140.116 223.333 140.4C223.251 140.683 223.156 141.058 223.05 141.484C222.945 141.91 222.835 142.391 222.721 142.932C222.141 145.736 221.71 148.569 221.429 151.42C221.092 154.756 220.95 157.789 220.954 159.99C220.954 161.091 220.982 161.962 221.013 162.593C221.013 162.877 221.049 163.114 221.06 163.299C221.068 163.378 221.084 163.456 221.107 163.532Z" fill="#263238"/>
<path d="M221.076 157.663C221.096 157.417 221.096 157.171 221.076 156.925C221.045 156.452 220.974 155.766 220.833 154.926C220.451 152.744 219.807 150.617 218.917 148.591C218.06 146.536 216.838 144.656 215.309 143.042C215.046 142.76 214.764 142.496 214.465 142.253C214.336 142.143 214.222 142.036 214.108 141.949L213.778 141.728C213.582 141.581 213.375 141.449 213.158 141.334C213.875 141.892 214.557 142.494 215.199 143.136C216.682 144.761 217.877 146.629 218.732 148.658C219.221 149.765 219.637 150.904 219.977 152.066C220.263 153.014 220.502 153.977 220.691 154.949C220.848 155.778 220.942 156.456 220.997 156.921C221.006 157.17 221.032 157.418 221.076 157.663Z" fill="#263238"/>
<path d="M203.898 12.3691H203.8C202.909 12.3691 202.187 13.0949 202.187 13.9902V29.8576C202.187 30.7529 202.909 31.4787 203.8 31.4787H203.898C204.789 31.4787 205.511 30.7529 205.511 29.8576V13.9902C205.511 13.0949 204.789 12.3691 203.898 12.3691Z" fill="#E0E0E0"/>
<path d="M203.898 18.0801H203.8C202.909 18.0801 202.187 18.8059 202.187 19.7011V29.8574C202.187 30.7527 202.909 31.4785 203.8 31.4785H203.898C204.789 31.4785 205.511 30.7527 205.511 29.8574V19.7011C205.511 18.8059 204.789 18.0801 203.898 18.0801Z" fill="#F3B36A"/>
<path d="M209.343 12.3691H209.244C208.353 12.3691 207.631 13.0949 207.631 13.9902V29.8576C207.631 30.7529 208.353 31.4787 209.244 31.4787H209.343C210.234 31.4787 210.956 30.7529 210.956 29.8576V13.9902C210.956 13.0949 210.234 12.3691 209.343 12.3691Z" fill="#E0E0E0"/>
<path d="M209.343 21.041H209.244C208.353 21.041 207.631 21.7668 207.631 22.6621V29.8563C207.631 30.7515 208.353 31.4773 209.244 31.4773H209.343C210.234 31.4773 210.956 30.7515 210.956 29.8563V22.6621C210.956 21.7668 210.234 21.041 209.343 21.041Z" fill="#F3B36A"/>
<path d="M215.502 12.3691H215.404C214.513 12.3691 213.79 13.0949 213.79 13.9902V29.8576C213.79 30.7529 214.513 31.4787 215.404 31.4787H215.502C216.393 31.4787 217.115 30.7529 217.115 29.8576V13.9902C217.115 13.0949 216.393 12.3691 215.502 12.3691Z" fill="#E0E0E0"/>
<path d="M215.502 15.8242H215.404C214.513 15.8242 213.79 16.55 213.79 17.4453V29.8615C213.79 30.7568 214.513 31.4826 215.404 31.4826H215.502C216.393 31.4826 217.115 30.7568 217.115 29.8615V17.4453C217.115 16.55 216.393 15.8242 215.502 15.8242Z" fill="#F3B36A"/>
<path d="M203.898 31.481C203.898 31.481 204.047 31.481 204.314 31.4021C204.702 31.2908 205.032 31.0337 205.237 30.6843C205.386 30.4371 205.463 30.153 205.46 29.8639C205.46 29.5365 205.46 29.1855 205.46 28.8069C205.46 28.0496 205.46 27.1858 205.46 26.2352C205.46 24.3263 205.46 22.0584 205.46 19.5301C205.46 18.272 205.46 16.9507 205.46 15.586V14.5526C205.485 14.2132 205.462 13.8721 205.394 13.5389C205.29 13.2146 205.083 12.9339 204.803 12.7405C204.524 12.5471 204.189 12.452 203.851 12.4701C203.514 12.4722 203.187 12.5869 202.922 12.7961C202.657 13.0053 202.469 13.2972 202.387 13.6257C202.337 13.9651 202.321 14.3086 202.34 14.6512V15.6727C202.34 17.0414 202.34 18.3627 202.34 19.6169C202.34 22.1333 202.34 24.4012 202.34 26.322C202.34 27.2726 202.34 28.1324 202.34 28.8936C202.34 29.288 202.34 29.6272 202.34 29.9467C202.356 30.2297 202.45 30.5026 202.61 30.7356C202.839 31.0694 203.183 31.3057 203.576 31.3982C203.847 31.4534 203.996 31.4416 203.996 31.4534C203.855 31.4777 203.71 31.4777 203.568 31.4534C203.156 31.3741 202.79 31.1399 202.544 30.7987C202.366 30.5501 202.261 30.2562 202.241 29.9507C202.241 29.6193 202.241 29.2723 202.241 28.8936C202.241 28.1324 202.241 27.2726 202.241 26.322C202.241 24.413 202.241 22.1451 202.218 19.6169C202.218 18.3548 202.218 17.0335 202.218 15.6727C202.218 15.3296 202.218 14.9825 202.218 14.6354V14.1266C202.212 13.9411 202.229 13.7557 202.269 13.5744C202.363 13.2018 202.577 12.871 202.878 12.634C203.18 12.397 203.551 12.2672 203.933 12.265C204.317 12.2503 204.695 12.3595 205.013 12.5766C205.322 12.7974 205.552 13.1129 205.668 13.4758C205.719 13.6554 205.746 13.8412 205.747 14.028V14.5526C205.747 14.9036 205.747 15.2468 205.747 15.5899C205.747 16.9625 205.747 18.2838 205.747 19.5341C205.747 22.0505 205.747 24.3184 205.723 26.2392C205.723 27.1897 205.723 28.0535 205.723 28.8108C205.723 29.2052 205.723 29.5405 205.723 29.8678C205.719 30.1721 205.632 30.4694 205.472 30.7277C205.344 30.925 205.175 31.0919 204.977 31.2166C204.778 31.3412 204.554 31.4207 204.322 31.4494C204.184 31.4844 204.04 31.4951 203.898 31.481Z" fill="#263238"/>
<path d="M209.339 31.4812C209.339 31.4812 209.488 31.4812 209.755 31.4024C210.089 31.3093 210.382 31.108 210.59 30.8298C210.798 30.5516 210.909 30.2121 210.905 29.8641C210.905 29.5368 210.905 29.1857 210.905 28.8071C210.905 28.0498 210.905 27.186 210.905 26.2355C210.905 24.3265 210.905 22.0586 210.905 19.5304C210.905 18.2722 210.905 16.9509 210.905 15.5862V14.5528C210.928 14.2133 210.904 13.8722 210.834 13.5392C210.728 13.217 210.521 12.9379 210.245 12.7432C209.968 12.5485 209.636 12.4486 209.299 12.4583C208.961 12.4681 208.636 12.5869 208.371 12.7973C208.106 13.0076 207.915 13.2982 207.827 13.626C207.779 13.9655 207.765 14.309 207.784 14.6514C207.784 14.9985 207.784 15.3456 207.784 15.6888C207.784 17.0574 207.784 18.3787 207.784 19.6329C207.784 22.1493 207.784 24.4172 207.761 26.338C207.761 27.2886 207.761 28.1484 207.761 28.9096C207.761 29.3041 207.761 29.6433 207.761 29.9627C207.781 30.245 207.874 30.517 208.032 30.7516C208.261 31.086 208.607 31.3223 209.001 31.4142C209.268 31.4694 209.421 31.4576 209.417 31.4694C209.276 31.4938 209.131 31.4938 208.989 31.4694C208.635 31.4013 208.312 31.2168 208.073 30.9449C207.833 30.6729 207.69 30.3289 207.666 29.9667C207.666 29.6354 207.666 29.2883 207.666 28.9096C207.666 28.1484 207.666 27.2886 207.666 26.338C207.666 24.4291 207.666 22.1612 207.647 19.6329C207.647 18.3708 207.647 17.0495 207.647 15.6888V14.1111C207.639 13.9256 207.656 13.7398 207.698 13.5589C207.791 13.1859 208.005 12.8547 208.307 12.6176C208.608 12.3805 208.98 12.251 209.362 12.2494C209.745 12.2343 210.122 12.3435 210.438 12.561C210.75 12.7804 210.981 13.0962 211.097 13.4603C211.149 13.6397 211.174 13.8257 211.172 14.0125V15.5902C211.172 16.9627 211.172 18.284 211.172 19.5343C211.172 22.0507 211.172 24.3186 211.152 26.2394C211.152 27.19 211.152 28.0538 211.152 28.811C211.152 29.2055 211.152 29.5407 211.152 29.8681C211.148 30.1729 211.06 30.4707 210.897 30.7279C210.676 31.0873 210.324 31.3451 209.916 31.4457C209.729 31.5022 209.531 31.5144 209.339 31.4812Z" fill="#263238"/>
<path d="M215.498 31.482C215.498 31.482 215.647 31.482 215.914 31.4031C216.248 31.31 216.541 31.1087 216.749 30.8305C216.957 30.5523 217.068 30.2128 217.064 29.8649C217.064 29.5375 217.064 29.1865 217.064 28.8078C217.064 28.0505 217.064 27.1868 217.064 26.2362C217.064 24.3272 217.064 22.0593 217.041 19.5311C217.041 18.2729 217.041 16.9516 217.041 15.5869V14.5536C217.063 14.214 217.04 13.8729 216.97 13.5399C216.864 13.2178 216.657 12.9386 216.38 12.7439C216.104 12.5492 215.772 12.4493 215.434 12.4591C215.097 12.4688 214.771 12.5877 214.506 12.798C214.241 13.0083 214.051 13.2989 213.963 13.6267C213.915 13.9663 213.899 14.3096 213.916 14.6522V15.6737C213.916 17.0423 213.916 18.3636 213.916 19.6179C213.916 22.1343 213.916 24.4022 213.892 26.323C213.892 27.2735 213.892 28.1334 213.892 28.8946C213.892 29.289 213.892 29.6282 213.892 29.9477C213.911 30.2303 214.004 30.5028 214.163 30.7365C214.392 31.0699 214.736 31.306 215.129 31.3991C215.4 31.4544 215.549 31.4425 215.549 31.4544C215.407 31.4788 215.263 31.4788 215.121 31.4544C214.766 31.3862 214.444 31.2017 214.204 30.9298C213.965 30.6579 213.822 30.3139 213.798 29.9516C213.798 29.6203 213.798 29.2732 213.798 28.8946C213.798 28.1334 213.798 27.2735 213.798 26.323C213.798 24.414 213.798 22.1461 213.798 19.6179C213.798 18.3557 213.798 17.0344 213.798 15.6737V14.096C213.79 13.9105 213.807 13.7248 213.849 13.5439C213.942 13.1709 214.157 12.8397 214.458 12.6026C214.759 12.3655 215.131 12.2359 215.514 12.2344C215.895 12.2162 216.272 12.325 216.586 12.5439C216.899 12.7629 217.132 13.0797 217.249 13.4452C217.3 13.6246 217.325 13.8107 217.323 13.9974V15.5751C217.323 16.9477 217.323 18.269 217.323 19.5193C217.323 22.0357 217.323 24.3036 217.323 26.2244C217.323 27.1749 217.323 28.0387 217.323 28.796C217.323 29.1904 217.323 29.5257 217.323 29.853C217.319 30.1579 217.231 30.4556 217.068 30.7129C216.847 31.0722 216.495 31.3301 216.087 31.4307C215.897 31.4943 215.695 31.5119 215.498 31.482Z" fill="#263238"/>
<path d="M209.653 0.0071615C209.772 -0.00238717 209.891 -0.00238717 210.01 0.0071615L211.066 0.0347706C211.298 0.0347706 211.561 0.0347707 211.851 0.0702683L212.781 0.20437L213.869 0.358193L215.082 0.661895C217.172 1.19188 219.161 2.06332 220.97 3.24139C223.649 4.95092 225.902 7.2543 227.557 9.97477C229.212 12.6952 230.224 15.7605 230.517 18.9353C230.598 19.8862 230.617 20.8415 230.572 21.7948C230.54 22.2799 230.548 22.769 230.478 23.2581C230.407 23.7472 230.332 24.2362 230.258 24.7332C229.891 26.7598 229.229 28.7213 228.295 30.5548C227.288 32.4764 226.006 34.2397 224.491 35.7887C222.887 37.3783 221.048 38.7088 219.039 39.7329C216.96 40.8034 214.711 41.4976 212.393 41.7839C211.805 41.8736 211.213 41.9237 210.618 41.9338C210.023 41.9798 209.425 41.9904 208.828 41.9653C205 41.8168 201.287 40.6148 198.092 38.4905L198.308 38.5142L191.03 41.4486L190.602 41.6222L190.724 41.1725L192.863 33.3552L192.899 33.5445C190.924 30.9145 189.594 27.8539 189.016 24.6109C188.738 23.0951 188.644 21.5507 188.738 20.012C188.752 19.2757 188.82 18.5414 188.942 17.8151C189.001 17.4562 189.056 17.0973 189.111 16.7423C189.166 16.3873 189.279 16.0521 189.362 15.7089C190.586 10.913 193.462 6.70819 197.48 3.8409C198.966 2.76806 200.592 1.90666 202.312 1.28113L203.399 0.886713L204.44 0.606677L205.382 0.370027C205.688 0.310864 205.979 0.27931 206.253 0.239868C206.803 0.168873 207.286 0.0742128 207.71 0.0505477L208.781 0.01505H209.433C209.507 0.00893768 209.582 0.00893768 209.657 0.01505C209.584 0.0363528 209.509 0.0469813 209.433 0.0466042L208.785 0.0978774L207.721 0.168873C207.301 0.20437 206.822 0.310864 206.277 0.389747C202.329 1.07686 198.664 2.89991 195.726 5.63789C192.789 8.37588 190.705 11.9112 189.727 15.8154C189.648 16.1546 189.546 16.4899 189.484 16.833C189.421 17.1762 189.378 17.5311 189.327 17.8861C189.209 18.5994 189.144 19.3206 189.134 20.0436C189.052 21.5462 189.151 23.0533 189.429 24.5321C190.007 27.7054 191.32 30.6979 193.26 33.2684L193.323 33.3591L193.295 33.4617C192.61 35.9886 191.902 38.597 191.172 41.2869L190.865 41.0108C193.236 40.0511 195.661 39.0703 198.139 38.0685L198.253 38.0211L198.355 38.0882C201.48 40.1614 205.11 41.3358 208.852 41.4841C209.436 41.5072 210.02 41.4966 210.603 41.4526C211.182 41.4436 211.761 41.3949 212.334 41.3066C214.601 41.0305 216.801 40.3549 218.834 39.3109C220.801 38.3127 222.603 37.0171 224.177 35.4693C225.655 33.9487 226.907 32.2218 227.895 30.3418C228.823 28.5487 229.484 26.6285 229.857 24.6425C229.931 24.156 230.005 23.6749 230.081 23.1989C230.152 22.7217 230.144 22.2405 230.179 21.7672C230.225 20.8311 230.209 19.893 230.132 18.9589C229.856 15.8325 228.875 12.8103 227.262 10.1223C225.649 7.43425 223.448 5.15111 220.825 3.44648C219.049 2.26871 217.095 1.387 215.039 0.83544L213.841 0.515961L212.766 0.338472L211.839 0.18465C211.557 0.153096 211.298 0.145208 211.054 0.129432L210.002 0.0505477C209.885 0.0465242 209.768 0.0320047 209.653 0.0071615Z" fill="#263238"/>
</svg>
