<svg width="255" height="189" viewBox="0 0 255 189" fill="none" xmlns="http://www.w3.org/2000/svg">
<path d="M37.3435 168.842C87.1294 194.737 167.857 194.737 217.654 168.842C267.451 142.947 267.446 100.964 217.654 75.0694C167.863 49.1748 87.1405 49.1748 37.3435 75.0694C-12.4534 100.964 -12.4423 142.97 37.3435 168.842Z" fill="#F5F5F5"/>
<path d="M34.5164 125.524C41.5794 125.524 47.3051 122.807 47.3051 119.457C47.3051 116.107 41.5794 113.391 34.5164 113.391C27.4534 113.391 21.7277 116.107 21.7277 119.457C21.7277 122.807 27.4534 125.524 34.5164 125.524Z" fill="#EBEBEB"/>
<path d="M180.457 133.623C189.883 133.623 197.525 129.997 197.525 125.524C197.525 121.05 189.883 117.424 180.457 117.424C171.03 117.424 163.388 121.05 163.388 125.524C163.388 129.997 171.03 133.623 180.457 133.623Z" fill="#EBEBEB"/>
<path d="M231.484 92.1996C231.484 92.1996 232.803 88.1442 237.093 83.8229C238.986 81.9171 240.221 80.5875 239.826 79.4518C239.47 78.449 238.268 77.9282 236.548 78.7371C234.105 79.8894 232.458 82.0279 231.484 86.3215V92.1996Z" fill="#F3B36A"/>
<path opacity="0.1" d="M231.484 92.1996C231.484 92.1996 232.803 88.1442 237.093 83.8229C238.986 81.9171 240.221 80.5875 239.826 79.4518C239.47 78.449 238.268 77.9282 236.548 78.7371C234.105 79.8894 232.458 82.0279 231.484 86.3215V92.1996Z" fill="black"/>
<path d="M231.211 89.6504H231.161C231.107 89.6361 231.061 89.6013 231.033 89.5536C231.005 89.5059 230.997 89.4491 231.011 89.3955C232.541 83.5119 236.498 79.8665 238.173 79.0244C238.223 79.0008 238.281 78.9975 238.334 79.015C238.387 79.0325 238.431 79.0696 238.457 79.1185C238.48 79.1679 238.483 79.2244 238.466 79.2761C238.448 79.3278 238.411 79.3706 238.362 79.3956C236.743 80.21 232.908 83.7557 231.417 89.5008C231.404 89.5446 231.376 89.5829 231.339 89.6099C231.302 89.6369 231.257 89.6511 231.211 89.6504Z" fill="white"/>
<path d="M231.484 97.2354C231.484 97.2354 233.315 93.662 235.524 91.7617C237.733 89.8614 240.572 87.9224 238.167 86.4376C235.763 84.9528 231.807 87.867 231.489 90.7423L231.484 97.2354Z" fill="#F3B36A"/>
<path d="M231.211 94.6934H231.167C231.113 94.6802 231.067 94.6468 231.038 94.6002C231.009 94.5537 230.999 94.4976 231.011 94.4441C232.051 90.0119 235.786 87.5078 237.027 87.0923C237.078 87.0817 237.131 87.0904 237.176 87.1166C237.221 87.1428 237.255 87.1848 237.271 87.2344C237.287 87.2839 237.284 87.3376 237.262 87.385C237.241 87.4324 237.203 87.4703 237.155 87.4912C236.042 87.8679 232.402 90.3333 231.417 94.5383C231.405 94.5831 231.378 94.6227 231.341 94.6507C231.303 94.6788 231.258 94.6938 231.211 94.6934Z" fill="white"/>
<path d="M68.7253 133.151C68.7253 133.151 67.8794 131.279 64.3456 130.487C60.9063 129.716 59.1978 130.487 56.8771 130.088C54.5565 129.689 55.1631 125.373 61.4072 125.822C67.1226 126.232 68.7253 130.708 68.7253 130.708V133.151Z" fill="#F3B36A"/>
<path d="M69.0649 132.122C69.0244 132.121 68.9851 132.108 68.9515 132.085C68.918 132.063 68.8917 132.031 68.8757 131.994C68.3192 130.67 66.2601 128.509 63.3606 127.85C59.76 127.036 57.8456 127.85 57.8289 127.85C57.7791 127.867 57.7248 127.864 57.6767 127.844C57.6285 127.823 57.5899 127.785 57.5684 127.737C57.5468 127.689 57.5439 127.635 57.5602 127.585C57.5765 127.536 57.6107 127.494 57.6564 127.468C57.7398 127.435 59.721 126.576 63.4497 127.423C66.6719 128.155 68.7254 130.504 69.2597 131.817C69.2706 131.842 69.2764 131.869 69.2767 131.896C69.277 131.923 69.2718 131.951 69.2614 131.976C69.2511 132.001 69.2357 132.024 69.2163 132.043C69.1969 132.063 69.1738 132.078 69.1484 132.088L69.0649 132.122Z" fill="white"/>
<path d="M68.7254 131.02C68.021 129.764 67.1191 128.629 66.0541 127.657C62.715 124.433 58.2629 123.419 56.0369 121.657C53.5882 119.757 56.5544 117.563 59.7043 117.702C61.5074 117.785 63.4107 118.97 64.4569 119.823C68.1411 122.821 68.7477 127.657 68.7477 127.657L68.7254 131.02Z" fill="#F3B36A"/>
<path opacity="0.5" d="M68.7254 131.02C68.021 129.764 67.1191 128.629 66.0541 127.657C62.715 124.433 58.2629 123.419 56.0369 121.657C53.5882 119.757 56.5544 117.563 59.7043 117.702C61.5074 117.785 63.4107 118.97 64.4569 119.823C68.1411 122.821 68.7477 127.657 68.7477 127.657L68.7254 131.02Z" fill="white"/>
<path d="M69.0648 130.692C69.015 130.692 68.9671 130.673 68.9294 130.641C68.8917 130.608 68.8668 130.564 68.8589 130.515C68.4204 128.186 67.3592 126.017 65.787 124.238C63.1602 121.263 58.6691 119.667 58.619 119.651C58.5683 119.632 58.5267 119.594 58.5028 119.546C58.479 119.497 58.4748 119.442 58.491 119.39C58.4998 119.364 58.5137 119.34 58.532 119.319C58.5502 119.299 58.5725 119.282 58.5974 119.27C58.6224 119.258 58.6494 119.251 58.6771 119.25C58.7047 119.249 58.7323 119.253 58.7582 119.263C58.9474 119.324 63.3995 120.925 66.0986 123.961C67.7354 125.797 68.8346 128.045 69.2763 130.46C69.2802 130.487 69.2785 130.515 69.2713 130.541C69.2641 130.568 69.2515 130.593 69.2343 130.615C69.2172 130.637 69.1958 130.655 69.1714 130.668C69.1471 130.681 69.1203 130.689 69.0927 130.692H69.0648Z" fill="white"/>
<path d="M145.101 165.45C145.101 165.45 146.048 163.622 149.62 163.018C153.093 162.431 154.757 163.267 157.1 163.018C159.443 162.769 159.064 158.398 152.804 158.514C147.077 158.619 145.235 163.002 145.235 163.002L145.101 165.45Z" fill="#F3B36A"/>
<path opacity="0.1" d="M145.101 165.45C145.101 165.45 146.048 163.622 149.62 163.018C153.093 162.431 154.757 163.267 157.1 163.018C159.443 162.769 159.064 158.398 152.804 158.514C147.077 158.619 145.235 163.002 145.235 163.002L145.101 165.45Z" fill="black"/>
<path d="M144.829 164.576C144.785 164.574 144.743 164.561 144.706 164.537C144.684 164.522 144.665 164.502 144.65 164.479C144.635 164.456 144.625 164.431 144.621 164.404C144.616 164.377 144.617 164.349 144.623 164.323C144.629 164.296 144.64 164.271 144.656 164.249C145.986 162.355 148.407 160.925 151.14 160.449C154.651 159.823 156.705 160.931 156.794 161.003C156.818 161.016 156.839 161.033 156.855 161.055C156.872 161.076 156.885 161.1 156.892 161.126C156.9 161.152 156.902 161.179 156.899 161.206C156.896 161.233 156.888 161.259 156.875 161.283C156.861 161.306 156.844 161.327 156.822 161.344C156.801 161.361 156.777 161.373 156.751 161.381C156.725 161.388 156.697 161.39 156.67 161.387C156.643 161.384 156.617 161.376 156.594 161.363C156.594 161.363 154.573 160.283 151.212 160.881C148.591 161.346 146.265 162.704 145.001 164.51C144.979 164.532 144.952 164.55 144.922 164.562C144.893 164.573 144.861 164.578 144.829 164.576Z" fill="white"/>
<path d="M145.352 162.885C146.16 161.873 147.078 160.954 148.09 160.143C151.613 157.107 156.07 156.614 158.43 154.974C160.979 153.207 158.135 150.858 154.98 150.83C153.177 150.83 151.212 151.899 150.116 152.697C147.78 154.44 146.032 156.849 145.107 159.606L145.352 162.885Z" fill="#F3B36A"/>
<path opacity="0.5" d="M145.352 162.885C146.16 161.873 147.078 160.954 148.09 160.143C151.613 157.107 156.07 156.614 158.43 154.974C160.979 153.207 158.135 150.858 154.98 150.83C153.177 150.83 151.212 151.899 150.116 152.697C147.78 154.44 146.032 156.849 145.107 159.606L145.352 162.885Z" fill="white"/>
<path d="M144.829 162.842H144.751C144.7 162.823 144.658 162.786 144.633 162.737C144.608 162.689 144.603 162.633 144.617 162.581C145.487 160.203 146.861 158.04 148.647 156.238C150.583 154.25 153.098 152.918 155.837 152.432C155.863 152.428 155.891 152.429 155.917 152.436C155.943 152.443 155.967 152.455 155.989 152.472C156.01 152.488 156.028 152.509 156.041 152.533C156.054 152.556 156.062 152.582 156.065 152.609C156.069 152.636 156.067 152.664 156.06 152.691C156.053 152.718 156.04 152.743 156.023 152.764C156.006 152.786 155.984 152.804 155.96 152.817C155.936 152.831 155.909 152.839 155.881 152.842C153.245 153.34 150.824 154.627 148.942 156.531C147.213 158.284 145.884 160.387 145.046 162.698C145.031 162.742 145.002 162.781 144.962 162.807C144.923 162.833 144.876 162.845 144.829 162.842Z" fill="white"/>
<path d="M91.3256 133.618V91.7617H68.7255V133.623C68.7255 135.285 69.8385 136.947 72.0646 138.21C76.4777 140.748 83.6345 140.748 88.0477 138.21C90.2737 136.942 91.3534 135.285 91.3589 133.623L91.3256 133.618Z" fill="#37474F"/>
<path d="M72.0367 96.6372C67.618 94.0999 67.618 89.9891 72.0367 87.4461C76.4554 84.9032 83.6066 84.9087 88.0198 87.4461C92.4329 89.9835 92.4329 94.0943 88.0198 96.6372C83.6066 99.1802 76.4499 99.1691 72.0367 96.6372Z" fill="#455A64"/>
<path d="M118.456 149.213V118.742H95.85V149.213C95.85 150.875 96.963 152.537 99.1891 153.8C103.602 156.338 110.759 156.338 115.172 153.8C117.398 152.537 118.483 150.875 118.483 149.213H118.456Z" fill="#37474F"/>
<path d="M99.1612 123.624C94.748 121.086 94.748 116.975 99.1612 114.432C103.574 111.89 110.731 111.895 115.144 114.432C119.557 116.97 119.563 121.081 115.144 123.624C110.726 126.166 103.569 126.183 99.1612 123.624Z" fill="#455A64"/>
<path d="M145.586 164.803V141.141H122.98V164.808C122.98 166.47 124.093 168.132 126.319 169.401C130.732 171.938 137.889 171.938 142.302 169.401C144.528 168.132 145.608 166.47 145.613 164.808L145.586 164.803Z" fill="#37474F"/>
<path d="M134.283 147.911C140.525 147.911 145.586 145.002 145.586 141.413C145.586 137.824 140.525 134.914 134.283 134.914C128.04 134.914 122.98 137.824 122.98 141.413C122.98 145.002 128.04 147.911 134.283 147.911Z" fill="#455A64"/>
<path d="M67.2785 148.377L61.9415 145.313L64.8966 141.502C65.275 141.014 65.0969 140.748 64.5015 140.898L57.4226 142.715L52.0856 139.646C51.6373 139.419 51.1415 139.301 50.6387 139.301C50.1358 139.301 49.6401 139.419 49.1917 139.646L40.7828 144.466C39.9814 144.925 39.9814 145.668 40.7828 146.128L55.9757 154.859C56.424 155.086 56.9197 155.204 57.4226 155.204C57.9255 155.204 58.4212 155.086 58.8695 154.859L67.2785 150.022C68.0743 149.579 68.0743 148.837 67.2785 148.377Z" fill="#F3B36A"/>
<path d="M58.7416 146.498C58.8286 146.49 58.9162 146.49 59.0032 146.498C59.0897 146.509 59.173 146.537 59.2481 146.581L60.0105 147.019C60.0619 147.044 60.1018 147.088 60.1218 147.141C60.1218 147.185 60.1218 147.224 60.0439 147.252C60.0257 147.257 60.0064 147.257 59.9882 147.252C59.9608 147.258 59.9322 147.258 59.9047 147.252L49.331 148.083H49.0305C48.9437 148.07 48.8604 148.04 48.7856 147.994L48.0232 147.556C47.9717 147.532 47.9319 147.488 47.9119 147.435C47.9119 147.39 47.9119 147.352 47.9898 147.324C48.008 147.319 48.0272 147.319 48.0454 147.324H48.1289L58.7416 146.498ZM55.3358 145.795C55.1096 145.945 54.8734 146.08 54.629 146.199C54.4316 146.299 54.2247 146.379 54.0113 146.437C53.7875 146.494 53.5575 146.522 53.3268 146.52C52.8116 146.522 52.3058 146.384 51.8631 146.122C51.6519 146.019 51.4628 145.876 51.3066 145.701C51.2052 145.585 51.148 145.438 51.1452 145.285C51.1473 145.14 51.2005 145.001 51.2955 144.892C51.4062 144.749 51.5419 144.627 51.6962 144.532C51.8017 144.456 51.9113 144.385 52.0245 144.321C52.1302 144.26 52.2582 144.194 52.3974 144.127C52.5977 144.027 52.8086 143.949 53.0262 143.894C53.4885 143.78 53.9719 143.78 54.4342 143.894C54.6913 143.964 54.9383 144.066 55.1688 144.199C55.3696 144.303 55.5474 144.447 55.6919 144.62C55.7946 144.735 55.8536 144.882 55.8589 145.036C55.8517 145.179 55.7992 145.317 55.7086 145.429C55.6067 145.572 55.4805 145.695 55.3358 145.795ZM56.3876 150.127C56.1721 150.287 55.9451 150.432 55.7086 150.559C55.5098 150.659 55.3008 150.737 55.0853 150.792C54.8624 150.853 54.632 150.883 54.4008 150.881C54.1545 150.88 53.9093 150.846 53.6718 150.781C53.4141 150.716 53.1668 150.615 52.9372 150.482C52.7386 150.374 52.5614 150.231 52.4141 150.061C52.3114 149.944 52.2542 149.795 52.2527 149.64C52.2571 149.496 52.3078 149.358 52.3974 149.246C52.5107 149.105 52.6482 148.985 52.8036 148.892C52.907 148.813 53.0168 148.742 53.132 148.681C53.2519 148.609 53.3765 148.544 53.5048 148.487C53.7033 148.387 53.9123 148.309 54.1281 148.255C54.3523 148.2 54.5819 148.17 54.8126 148.166C55.3259 148.166 55.8296 148.304 56.2707 148.565C56.483 148.666 56.6723 148.809 56.8272 148.986C56.9255 149.098 56.9796 149.242 56.9796 149.39C56.9796 149.539 56.9255 149.683 56.8272 149.795C56.7007 149.93 56.552 150.042 56.3876 150.127ZM52.8426 145.141C52.7319 145.203 52.6412 145.295 52.581 145.407C52.581 145.484 52.581 145.562 52.7424 145.64C52.8627 145.712 53.0029 145.745 53.1431 145.734C53.3047 145.708 53.4609 145.656 53.605 145.579C53.8159 145.478 54.0187 145.361 54.2116 145.23C54.3249 145.169 54.4178 145.076 54.4787 144.964C54.4787 144.886 54.4509 144.809 54.3173 144.731C54.1955 144.658 54.0526 144.627 53.9111 144.642C53.7513 144.665 53.5967 144.715 53.4547 144.792C53.2422 144.884 53.0374 144.994 52.8426 145.119V145.141ZM53.9 149.473C53.7867 149.534 53.6938 149.627 53.6328 149.739C53.6328 149.811 53.6328 149.889 53.7942 149.966C53.9146 150.044 54.0582 150.077 54.2005 150.061C54.3597 150.036 54.5138 149.985 54.6568 149.911C54.8701 149.812 55.0749 149.695 55.269 149.562C55.381 149.502 55.4722 149.409 55.5305 149.296C55.5305 149.219 55.5305 149.141 55.3692 149.063C55.2489 148.991 55.1087 148.958 54.9685 148.969C54.8084 148.994 54.654 149.047 54.5121 149.124C54.2995 149.217 54.0948 149.326 53.9 149.451V149.473Z" fill="white"/>
<path d="M96.6736 165.262L91.3255 162.192L94.2806 158.386C94.6535 157.899 94.4754 157.627 93.8799 157.783L86.801 159.594L81.464 156.53C81.0167 156.304 80.5219 156.186 80.0199 156.186C79.5179 156.186 79.0231 156.304 78.5757 156.53L70.1779 161.361C69.3821 161.821 69.3821 162.569 70.1779 163.023L85.3708 171.76C85.8199 171.985 86.3153 172.101 86.8177 172.101C87.3201 172.101 87.8156 171.985 88.2647 171.76L96.6736 166.924C97.475 166.464 97.475 165.722 96.6736 165.262Z" fill="#F3B36A"/>
<path d="M88.1366 163.384H88.4038C88.4903 163.398 88.5734 163.428 88.6486 163.473L89.4055 163.91C89.4723 163.949 89.5112 163.988 89.5168 164.032C89.5224 164.077 89.5168 164.11 89.4444 164.143C89.4261 164.147 89.4071 164.147 89.3888 164.143H89.3053L78.7315 164.974C78.6427 164.983 78.5533 164.983 78.4644 164.974C78.3775 164.962 78.2941 164.932 78.2196 164.885L77.4627 164.453C77.3959 164.415 77.357 164.37 77.3514 164.331C77.3496 164.307 77.3556 164.282 77.3686 164.262C77.3816 164.241 77.4009 164.224 77.4237 164.215H77.4794H77.5629L88.1366 163.384ZM84.7308 162.68C84.5072 162.832 84.2729 162.967 84.0296 163.085C83.8307 163.184 83.6218 163.262 83.4063 163.318C83.1833 163.378 82.9529 163.408 82.7218 163.406C82.4754 163.405 82.2302 163.372 81.9927 163.307C81.735 163.241 81.4877 163.141 81.2581 163.007C81.058 162.9 80.879 162.757 80.7294 162.586C80.6285 162.474 80.5727 162.329 80.5727 162.179C80.5727 162.029 80.6285 161.884 80.7294 161.772C80.842 161.632 80.9774 161.512 81.1301 161.417C81.2352 161.341 81.3449 161.27 81.4585 161.207C81.581 161.135 81.7073 161.071 81.8369 161.013C82.0353 160.913 82.2444 160.834 82.4602 160.78C82.8203 160.689 83.1949 160.669 83.5626 160.723C83.9303 160.776 84.2837 160.901 84.6028 161.09C84.8041 161.196 84.9834 161.339 85.1315 161.512C85.2337 161.626 85.291 161.774 85.2928 161.927C85.2885 162.071 85.2356 162.21 85.1426 162.32C85.0286 162.464 84.889 162.587 84.7308 162.68ZM85.7881 167.013C85.5621 167.164 85.326 167.299 85.0814 167.417C84.8849 167.518 84.6777 167.596 84.4636 167.65C84.2399 167.706 84.0099 167.734 83.7791 167.733C83.264 167.734 82.7582 167.596 82.3155 167.334C82.1146 167.23 81.9353 167.089 81.7868 166.919C81.6842 166.802 81.6269 166.653 81.6254 166.498C81.6318 166.354 81.6845 166.216 81.7757 166.104C81.8879 165.963 82.0234 165.841 82.1764 165.744C82.2877 165.667 82.399 165.6 82.5047 165.534C82.6104 165.467 82.7385 165.406 82.8776 165.34C83.0779 165.239 83.2888 165.161 83.5064 165.107C83.7312 165.056 83.9605 165.028 84.1909 165.024C84.4352 165.023 84.6785 165.055 84.9144 165.118C85.1727 165.184 85.4201 165.287 85.649 165.423C85.8503 165.529 86.0297 165.672 86.1777 165.844C86.2782 165.955 86.3338 166.099 86.3338 166.248C86.3338 166.398 86.2782 166.542 86.1777 166.653C86.0688 166.793 85.9372 166.915 85.7881 167.013ZM82.2431 162.027C82.1299 162.087 82.037 162.18 81.976 162.293C81.976 162.365 82.0039 162.442 82.1374 162.52C82.2578 162.597 82.4014 162.63 82.5437 162.614C82.7027 162.588 82.8566 162.538 83 162.464C83.2146 162.365 83.4195 162.247 83.6122 162.11C83.7234 162.051 83.8145 161.96 83.8737 161.849C83.8737 161.772 83.8459 161.694 83.7124 161.617C83.5932 161.542 83.4521 161.508 83.3117 161.523C83.1498 161.547 82.9935 161.6 82.8498 161.678C82.6389 161.77 82.4361 161.879 82.2431 162.005V162.027ZM83.295 166.359C83.1861 166.421 83.0958 166.511 83.0334 166.62C83.0334 166.697 83.0612 166.775 83.1948 166.852C83.314 166.927 83.4551 166.961 83.5955 166.946C83.7565 166.921 83.9124 166.871 84.0574 166.797C84.268 166.693 84.4707 166.575 84.664 166.442C84.7754 166.382 84.8678 166.291 84.9311 166.182C84.9589 166.104 84.9311 166.027 84.7697 165.949C84.6483 165.874 84.5056 165.841 84.3635 165.855C84.2045 165.881 84.0505 165.931 83.9071 166.005C83.696 166.102 83.4916 166.213 83.295 166.337V166.359Z" fill="white"/>
<path d="M126.046 182.139L120.709 179.075L123.67 175.258C124.043 174.776 123.865 174.504 123.269 174.66L116.19 176.471L110.854 173.407C110.405 173.181 109.909 173.063 109.407 173.062C108.904 173.063 108.408 173.181 107.96 173.407L99.5507 178.261C98.7549 178.72 98.7549 179.468 99.5507 179.923L114.744 188.659C115.193 188.884 115.688 189 116.19 189C116.693 189 117.188 188.884 117.637 188.659L126.046 183.801C126.848 183.358 126.848 182.615 126.046 182.139Z" fill="#F3B36A"/>
<path d="M117.51 180.276H117.771C117.858 180.289 117.941 180.32 118.016 180.365L118.778 180.803C118.845 180.842 118.884 180.88 118.89 180.925C118.895 180.969 118.89 181.002 118.817 181.035H118.762H118.678L108.104 181.866C108.017 181.875 107.93 181.875 107.843 181.866C107.756 181.855 107.672 181.825 107.598 181.778L106.841 181.346C106.774 181.307 106.735 181.263 106.73 181.224C106.728 181.199 106.734 181.175 106.747 181.154C106.76 181.133 106.779 181.117 106.802 181.107H106.858C106.885 181.101 106.914 181.101 106.941 181.107L117.51 180.276ZM114.104 179.573C113.879 179.726 113.643 179.861 113.397 179.977C113.2 180.078 112.993 180.156 112.779 180.21C112.556 180.271 112.326 180.301 112.095 180.299C111.846 180.297 111.599 180.264 111.36 180.199C111.104 180.134 110.859 180.033 110.631 179.9C110.431 179.792 110.252 179.649 110.102 179.479C110 179.362 109.942 179.213 109.941 179.058C109.947 178.914 110 178.776 110.091 178.664C110.205 178.524 110.34 178.403 110.492 178.304C110.603 178.227 110.714 178.16 110.82 178.099C110.926 178.038 111.054 177.972 111.193 177.9C111.602 177.7 112.051 177.592 112.506 177.584C113.019 177.586 113.523 177.723 113.965 177.983C114.166 178.089 114.345 178.232 114.493 178.404C114.594 178.52 114.651 178.666 114.655 178.819C114.647 178.963 114.595 179.101 114.504 179.213C114.394 179.356 114.258 179.478 114.104 179.573ZM115.155 183.905C114.931 184.055 114.696 184.19 114.454 184.31C114.257 184.409 114.05 184.487 113.837 184.542C113.371 184.66 112.883 184.66 112.417 184.542C112.161 184.475 111.916 184.373 111.688 184.238C111.476 184.136 111.287 183.993 111.132 183.817C111.029 183.702 110.971 183.555 110.97 183.401C110.974 183.258 111.025 183.119 111.115 183.008C111.231 182.867 111.368 182.746 111.521 182.648C111.627 182.572 111.737 182.501 111.85 182.437C111.955 182.376 112.083 182.31 112.223 182.243C112.629 182.035 113.079 181.927 113.536 181.927C113.78 181.927 114.024 181.958 114.259 182.022C114.516 182.089 114.761 182.191 114.988 182.326C115.201 182.428 115.39 182.571 115.545 182.747C115.648 182.861 115.706 183.009 115.706 183.163C115.703 183.306 115.652 183.445 115.562 183.556C115.448 183.695 115.31 183.813 115.155 183.905ZM111.61 178.919C111.5 178.981 111.409 179.074 111.349 179.185C111.349 179.257 111.377 179.335 111.51 179.412C111.63 179.487 111.771 179.52 111.911 179.506C112.072 179.481 112.228 179.431 112.373 179.357C112.587 179.256 112.792 179.138 112.985 179.002C113.096 178.943 113.187 178.853 113.247 178.742C113.274 178.664 113.247 178.587 113.085 178.509C112.964 178.434 112.821 178.401 112.679 178.415C112.519 178.441 112.365 178.493 112.223 178.57C112.011 178.664 111.806 178.773 111.61 178.897V178.919ZM112.668 183.252C112.558 183.314 112.466 183.404 112.401 183.512C112.401 183.589 112.401 183.667 112.568 183.745C112.687 183.82 112.828 183.853 112.968 183.839C113.128 183.814 113.282 183.763 113.425 183.689C113.637 183.586 113.842 183.467 114.037 183.335C114.148 183.274 114.241 183.184 114.304 183.074C114.334 182.997 114.278 182.919 114.137 182.842C114.018 182.766 113.877 182.733 113.736 182.747C113.577 182.772 113.423 182.823 113.28 182.897C113.068 182.999 112.863 183.115 112.668 183.246V183.252Z" fill="white"/>
<path d="M202.1 90.7421L193.056 85.5455V59.5566L202.1 64.7533V90.7421Z" fill="#37474F"/>
<path d="M202.1 90.7421L211.143 85.5455V59.5566L202.1 64.7533V90.7421Z" fill="#455A64"/>
<path d="M193.056 59.558L202.1 64.7547L211.143 59.558L202.1 54.3613L193.056 59.558Z" fill="#455A64"/>
<path d="M181.754 79.0477L172.71 73.851V21.8789L181.754 27.0756V79.0477Z" fill="#37474F"/>
<path d="M181.754 79.0477L190.797 73.851V21.8789L181.754 27.0756V79.0477Z" fill="#455A64"/>
<path d="M172.71 21.8783L181.754 27.075L190.797 21.8783L181.754 16.6816L172.71 21.8783Z" fill="#455A64"/>
<path d="M161.407 67.3518L152.364 62.1551V43.9668L161.407 49.1635V67.3518Z" fill="#37474F"/>
<path d="M161.407 67.3518L170.451 62.1551V43.9668L161.407 49.1635V67.3518Z" fill="#455A64"/>
<path d="M152.364 43.9662L161.407 49.1628L170.451 43.9662L161.407 38.7695L152.364 43.9662Z" fill="#455A64"/>
<path d="M222.446 102.438L213.403 97.2355V47.8672L222.44 53.0639L222.446 102.438Z" fill="#37474F"/>
<path d="M222.44 102.438L231.484 97.2355V47.8672L222.44 53.0639V102.438Z" fill="#455A64"/>
<path d="M213.403 47.8682L222.44 53.0649L231.484 47.8682L222.446 42.666L213.403 47.8682Z" fill="#455A64"/>
<g opacity="0.3">
<path opacity="0.3" d="M159.22 98.6645L159.126 41.1135C159.106 40.7803 159.008 40.4564 158.84 40.1677C158.672 39.8791 158.438 39.6337 158.157 39.4514L89.9509 0.421063C89.3944 0.116355 88.9882 0.365662 88.9882 0.975078L89.0995 58.504C89.1177 58.8374 89.2149 59.1618 89.3832 59.4507C89.5515 59.7396 89.7861 59.9847 90.0678 60.166L158.28 99.2241C158.797 99.5288 159.22 99.2795 159.22 98.6645Z" fill="white"/>
</g>
<path d="M158.697 99.6291C158.5 99.6214 158.309 99.5642 158.141 99.4628L89.9286 60.4048C89.603 60.2008 89.3317 59.9214 89.1379 59.5905C88.9441 59.2597 88.8335 58.8871 88.8155 58.5045L88.7098 0.975593C88.6865 0.806877 88.7142 0.635079 88.7892 0.482038C88.8642 0.328997 88.9833 0.201625 89.1312 0.116111C89.2792 0.0305975 89.4493 -0.00919747 89.62 0.0017892C89.7907 0.0127759 89.9543 0.0740452 90.09 0.17781L158.302 39.2026C158.627 39.4073 158.898 39.6869 159.091 40.0176C159.285 40.3483 159.396 40.7205 159.415 41.1029L159.51 98.654C159.523 98.8219 159.491 98.9904 159.418 99.1422C159.345 99.294 159.232 99.4238 159.092 99.5182C158.973 99.5897 158.836 99.6279 158.697 99.6291ZM89.5223 0.543462C89.4858 0.533831 89.4475 0.533831 89.411 0.543462C89.3567 0.590045 89.315 0.649447 89.2897 0.716232C89.2644 0.783018 89.2564 0.855052 89.2663 0.925734L89.3609 58.4768C89.3767 58.768 89.4623 59.0511 89.6104 59.3027C89.7585 59.5542 89.9649 59.7668 90.2124 59.9228L158.424 98.9808C158.591 99.075 158.736 99.1027 158.825 99.0473C158.914 98.9919 158.97 98.859 158.97 98.665L158.875 41.114C158.857 40.8303 158.774 40.5546 158.631 40.3085C158.488 40.0624 158.29 39.8527 158.052 39.6957L89.8117 0.637643C89.7249 0.582269 89.6253 0.549855 89.5223 0.543462Z" fill="#F3B36A"/>
<path d="M152.742 85.968C150.934 84.6882 149.876 83.5303 149.158 74.6328L149.097 73.8738C148.424 65.5137 147.984 59.9958 144.155 57.7187C142.319 56.6107 140.85 57.7187 139.297 58.921C137.889 59.9902 136.442 61.0872 134.812 60.162C131.945 58.4999 131.472 55.2091 130.582 49.2035C130.471 48.4612 130.359 47.68 130.231 46.8601C130.037 45.5803 129.87 44.3891 129.714 43.27C128.835 36.9653 128.3 33.1537 125.061 31.2091C124.742 30.9841 124.375 30.8364 123.989 30.7777C123.602 30.719 123.207 30.751 122.835 30.8712C120.381 31.7244 118.461 36.8933 116.43 42.3725C116.274 42.777 116.124 43.2036 115.962 43.6301C114.488 47.6689 112.818 52.2506 110.509 53.0983C110.182 53.2173 109.833 53.2611 109.487 53.2266C109.141 53.1921 108.807 53.08 108.511 52.8988C106.212 51.6024 105.8 48.0567 105.405 44.6218C105.01 41.1869 104.626 37.7354 102.456 36.4335C102.272 36.315 102.061 36.2435 101.843 36.2251C101.625 36.2068 101.405 36.2422 101.204 36.3282C98.51 37.3698 96.1226 45.3033 96.1003 45.3808L95.5438 45.2257C95.644 44.8878 98.0314 36.9543 100.975 35.8075C101.257 35.6915 101.562 35.6446 101.865 35.6707C102.168 35.6967 102.46 35.7949 102.717 35.957C105.116 37.3864 105.533 41.0263 105.94 44.5443C106.346 48.0623 106.713 51.2479 108.772 52.4057C108.997 52.5477 109.251 52.6361 109.516 52.664C109.78 52.6919 110.048 52.6585 110.297 52.5664C112.362 51.8074 114.059 47.1648 115.423 43.4307C115.584 42.9986 115.734 42.5775 115.89 42.1676C118.06 36.3227 119.936 31.2756 122.635 30.3338C123.082 30.1894 123.557 30.1498 124.022 30.218C124.488 30.2862 124.931 30.4605 125.317 30.7271C128.779 32.8102 129.33 36.716 130.231 43.1869C130.387 44.295 130.554 45.4916 130.749 46.7659C130.877 47.5914 130.988 48.3725 131.1 49.1094C131.951 54.9487 132.424 58.162 135.056 59.6689C136.364 60.4168 137.55 59.5138 138.924 58.4722C140.482 57.2866 142.263 55.9514 144.406 57.2312C148.474 59.6578 148.93 65.2921 149.615 73.8184L149.676 74.5774C150.411 83.6522 151.513 84.4278 153.015 85.5081L152.742 85.968Z" fill="#F3B36A"/>
<g opacity="0.4">
<path opacity="0.4" d="M152.742 85.968C150.934 84.6882 149.876 83.5303 149.158 74.6328L149.097 73.8738C148.424 65.5137 147.984 59.9958 144.155 57.7187C142.319 56.6107 140.85 57.7187 139.297 58.921C137.889 59.9902 136.442 61.0872 134.812 60.162C131.945 58.4999 131.472 55.2091 130.582 49.2035C130.471 48.4612 130.359 47.68 130.231 46.8601C130.037 45.5803 129.87 44.3891 129.714 43.27C128.835 36.9653 128.3 33.1537 125.061 31.2091C124.742 30.9841 124.375 30.8364 123.989 30.7777C123.602 30.719 123.207 30.751 122.835 30.8712C120.381 31.7244 118.461 36.8933 116.43 42.3725C116.274 42.777 116.124 43.2036 115.962 43.6301C114.488 47.6689 112.818 52.2506 110.509 53.0983C110.182 53.2173 109.833 53.2611 109.487 53.2266C109.141 53.1921 108.807 53.08 108.511 52.8988C106.212 51.6024 105.8 48.0567 105.405 44.6218C105.01 41.1869 104.626 37.7354 102.456 36.4335C102.272 36.315 102.061 36.2435 101.843 36.2251C101.625 36.2068 101.405 36.2422 101.204 36.3282C98.51 37.3698 96.1226 45.3033 96.1003 45.3808L95.5438 45.2257C95.644 44.8878 98.0314 36.9543 100.975 35.8075C101.257 35.6915 101.562 35.6446 101.865 35.6707C102.168 35.6967 102.46 35.7949 102.717 35.957C105.116 37.3864 105.533 41.0263 105.94 44.5443C106.346 48.0623 106.713 51.2479 108.772 52.4057C108.997 52.5477 109.251 52.6361 109.516 52.664C109.78 52.6919 110.048 52.6585 110.297 52.5664C112.362 51.8074 114.059 47.1648 115.423 43.4307C115.584 42.9986 115.734 42.5775 115.89 42.1676C118.06 36.3227 119.936 31.2756 122.635 30.3338C123.082 30.1894 123.557 30.1498 124.022 30.218C124.488 30.2862 124.931 30.4605 125.317 30.7271C128.779 32.8102 129.33 36.716 130.231 43.1869C130.387 44.295 130.554 45.4916 130.749 46.7659C130.877 47.5914 130.988 48.3725 131.1 49.1094C131.951 54.9487 132.424 58.162 135.056 59.6689C136.364 60.4168 137.55 59.5138 138.924 58.4722C140.482 57.2866 142.263 55.9514 144.406 57.2312C148.474 59.6578 148.93 65.2921 149.615 73.8184L149.676 74.5774C150.411 83.6522 151.513 84.4278 153.015 85.5081L152.742 85.968Z" fill="black"/>
</g>
<path d="M143.332 55.2679C143.746 55.5379 144.091 55.9004 144.339 56.3265C144.587 56.7526 144.732 57.2305 144.762 57.7222C144.762 58.6253 144.122 58.9909 143.337 58.5422C142.922 58.2741 142.575 57.9121 142.327 57.4856C142.078 57.0591 141.934 56.5802 141.907 56.0879C141.907 55.207 142.525 54.8414 143.332 55.2679Z" fill="#F3B36A"/>
<g opacity="0.2">
<path opacity="0.2" d="M143.332 55.2679C143.746 55.5379 144.091 55.9004 144.339 56.3265C144.587 56.7526 144.732 57.2305 144.762 57.7222C144.762 58.6253 144.122 58.9909 143.337 58.5422C142.922 58.2741 142.575 57.9121 142.327 57.4856C142.078 57.0591 141.934 56.5802 141.907 56.0879C141.907 55.207 142.525 54.8414 143.332 55.2679Z" fill="black"/>
</g>
<path d="M125.206 29.3344C125.62 29.6034 125.965 29.9657 126.213 30.3921C126.46 30.8185 126.604 31.2969 126.631 31.7887C126.631 32.6917 125.996 33.0574 125.212 32.6086C124.796 32.3409 124.449 31.979 124.201 31.5524C123.952 31.1258 123.808 30.6467 123.781 30.1543C123.781 29.2291 124.416 28.8856 125.206 29.3344Z" fill="#F3B36A"/>
<g opacity="0.5">
<path opacity="0.5" d="M125.206 29.3344C125.62 29.6034 125.965 29.9657 126.213 30.3921C126.46 30.8185 126.604 31.2969 126.631 31.7887C126.631 32.6917 125.996 33.0574 125.212 32.6086C124.796 32.3409 124.449 31.979 124.201 31.5524C123.952 31.1258 123.808 30.6467 123.781 30.1543C123.781 29.2291 124.416 28.8856 125.206 29.3344Z" fill="white"/>
</g>
<path d="M102.606 34.5711C103.022 34.8376 103.368 35.1985 103.617 35.6242C103.866 36.0498 104.009 36.5282 104.036 37.0198C104.036 37.9284 103.402 38.2941 102.612 37.8453C102.198 37.576 101.853 37.2136 101.605 36.7872C101.358 36.3609 101.215 35.8826 101.187 35.391C101.181 34.488 101.821 34.1168 102.606 34.5711Z" fill="#F3B36A"/>
<path opacity="0.65" d="M122.974 96.1279V38.5768C122.956 38.244 122.859 37.9203 122.692 37.6316C122.525 37.3429 122.292 37.0974 122.012 36.9147L62.9042 2.94255C62.3477 2.63784 61.9414 2.88715 61.9414 3.49656V61.0476C61.9595 61.3805 62.056 61.7044 62.2233 61.9932C62.3906 62.2819 62.6238 62.5274 62.9042 62.7097L122.012 96.6819C122.546 96.9921 122.974 96.7428 122.974 96.1279Z" fill="white"/>
<path d="M122.446 97.092C122.249 97.0844 122.058 97.0272 121.889 96.9258L62.7651 62.9536C62.4404 62.7474 62.1699 62.4667 61.9763 62.1352C61.7827 61.8037 61.6715 61.4308 61.6521 61.0478V3.49677C61.6301 3.3285 61.6587 3.15752 61.7343 3.00542C61.8098 2.85332 61.929 2.72691 62.0766 2.64215C62.2243 2.55739 62.3938 2.51808 62.5639 2.52918C62.734 2.54028 62.897 2.6013 63.0323 2.70452L122.14 36.6767C122.464 36.8818 122.735 37.1614 122.929 37.492C123.122 37.8227 123.233 38.1947 123.253 38.577V96.1281C123.266 96.296 123.235 96.4645 123.161 96.6163C123.088 96.7681 122.975 96.8979 122.835 96.9923C122.717 97.0589 122.582 97.0933 122.446 97.092ZM62.4757 3.09233C62.4392 3.08295 62.4009 3.08295 62.3644 3.09233C62.3101 3.13892 62.2684 3.19832 62.2431 3.2651C62.2179 3.33189 62.2098 3.40392 62.2197 3.4746V61.0478C62.2372 61.3324 62.3207 61.609 62.4636 61.8561C62.6065 62.1031 62.8049 62.3138 63.0434 62.4716L122.151 96.4439C122.208 96.488 122.274 96.5172 122.345 96.5288C122.416 96.5405 122.489 96.5341 122.557 96.5103C122.646 96.4605 122.696 96.322 122.696 96.1281V38.577C122.679 38.2931 122.596 38.0171 122.453 37.7709C122.31 37.5247 122.111 37.3151 121.873 37.1587L62.7651 3.19206C62.6799 3.13253 62.5797 3.09798 62.4757 3.09233Z" fill="#F3B36A"/>
<path d="M112.807 83.0479V45.1755C112.797 45.0089 112.749 44.8468 112.665 44.7025C112.58 44.5581 112.463 44.4355 112.323 44.3445L106.507 41.0204C106.24 40.8652 106.023 40.9871 106.023 41.2974V79.1477C106.031 79.3146 106.08 79.4771 106.164 79.6217C106.248 79.7663 106.366 79.8887 106.507 79.9787L112.323 83.3028C112.59 83.4801 112.807 83.3526 112.807 83.0479Z" fill="#F3B36A"/>
<g opacity="0.3">
<path opacity="0.3" d="M112.807 83.0479V45.1755C112.797 45.0089 112.749 44.8468 112.665 44.7025C112.58 44.5581 112.463 44.4355 112.323 44.3445L106.507 41.0204C106.24 40.8652 106.023 40.9871 106.023 41.2974V79.1477C106.031 79.3146 106.08 79.4771 106.164 79.6217C106.248 79.7663 106.366 79.8887 106.507 79.9787L112.323 83.3028C112.59 83.4801 112.807 83.3526 112.807 83.0479Z" fill="black"/>
</g>
<path d="M101.504 76.5491V56.8705C101.495 56.7039 101.446 56.5418 101.362 56.3975C101.278 56.2531 101.16 56.1305 101.02 56.0395L95.1988 52.7154C94.9373 52.5658 94.7202 52.7154 94.7202 52.9924V72.6765C94.73 72.8424 94.7783 73.0038 94.8614 73.148C94.9444 73.2922 95.0599 73.4153 95.1988 73.5075L101.02 76.8316C101.287 76.9812 101.504 76.876 101.504 76.5491Z" fill="#F3B36A"/>
<g opacity="0.2">
<path opacity="0.2" d="M101.504 76.5491V56.8705C101.495 56.7039 101.446 56.5418 101.362 56.3975C101.278 56.2531 101.16 56.1305 101.02 56.0395L95.1988 52.7154C94.9373 52.5658 94.7202 52.7154 94.7202 52.9924V72.6765C94.73 72.8424 94.7783 73.0038 94.8614 73.148C94.9444 73.2922 95.0599 73.4153 95.1988 73.5075L101.02 76.8316C101.287 76.9812 101.504 76.876 101.504 76.5491Z" fill="white"/>
</g>
<path d="M90.2125 70.0557V39.9782C90.2029 39.8116 90.1541 39.6496 90.07 39.5052C89.9859 39.3608 89.8689 39.2382 89.7283 39.1472L83.9072 35.8231C83.6456 35.668 83.4286 35.7899 83.4286 36.1001V66.1721C83.4375 66.3382 83.4855 66.4999 83.5686 66.6442C83.6517 66.7886 83.7677 66.9115 83.9072 67.0031L89.7283 70.3272C89.9843 70.4823 90.2125 70.3604 90.2125 70.0557Z" fill="#F3B36A"/>
<g opacity="0.2">
<path opacity="0.2" d="M90.2125 70.0557V39.9782C90.2029 39.8116 90.1541 39.6496 90.07 39.5052C89.9859 39.3608 89.8689 39.2382 89.7283 39.1472L83.9072 35.8231C83.6456 35.668 83.4286 35.7899 83.4286 36.1001V66.1721C83.4375 66.3382 83.4855 66.4999 83.5686 66.6442C83.6517 66.7886 83.7677 66.9115 83.9072 67.0031L89.7283 70.3272C89.9843 70.4823 90.2125 70.3604 90.2125 70.0557Z" fill="black"/>
</g>
<path d="M78.8929 63.5794V20.4881C78.8844 20.3219 78.8366 20.16 78.7534 20.0156C78.6703 19.8712 78.5541 19.7484 78.4143 19.6571L72.5931 16.333C72.3315 16.1779 72.1145 16.333 72.1145 16.61V59.6791C72.1243 59.8451 72.1726 60.0065 72.2557 60.1507C72.3387 60.2949 72.4542 60.4179 72.5931 60.5102L78.4143 63.8342C78.6814 63.9894 78.8929 63.8619 78.8929 63.5794Z" fill="#F3B36A"/>
<path d="M199.084 70.4634C199.006 70.0478 196.963 65.3166 196.123 63.4551L191.865 65.4385L193.496 69.1559L197.904 72.552C198.333 72.4219 198.695 72.1322 198.914 71.7432C199.134 71.3542 199.195 70.8957 199.084 70.4634Z" fill="#FFA8A7"/>
<path d="M190.602 120.021H187.319V124.786H190.602V120.021Z" fill="#FFA8A7"/>
<path d="M179.036 114.136L175.754 114.248L175.919 119.01L179.2 118.897L179.036 114.136Z" fill="#FFA8A7"/>
<path d="M179.856 51.7891C178.668 51.8165 177.506 52.1428 176.478 52.7376C175.45 53.3324 174.591 54.1762 173.979 55.1907C172.165 57.8777 168.97 62.4704 168.97 62.4704L174.953 64.3596L179.856 51.7891Z" fill="#F3B36A"/>
<g opacity="0.7">
<path opacity="0.7" d="M179.856 51.7891C178.668 51.8165 177.506 52.1428 176.478 52.7376C175.45 53.3324 174.591 54.1762 173.979 55.1907C172.165 57.8777 168.97 62.4704 168.97 62.4704L174.953 64.3596L179.856 51.7891Z" fill="white"/>
</g>
<path d="M190.385 73.5508C190.385 76.6754 190.791 96.8804 190.791 96.8804C190.869 97.7779 191.715 99.4344 191.531 102.886C191.281 107.578 190.875 120.614 190.875 120.614C190.875 120.614 189.333 122.138 187.157 120.614C187.157 120.614 184.18 102.914 183.596 98.2654C183.078 94.21 182.21 83.1962 182.21 83.1962L179.166 96.1657C179.166 96.1657 179.722 99.2128 179.817 101.362C179.911 103.512 179.26 115.944 179.26 115.944C178.728 116.275 178.117 116.462 177.49 116.487C176.862 116.511 176.239 116.372 175.682 116.083C175.682 116.083 173.044 97.9219 172.705 95.9773C172.365 94.0327 175.02 73.5508 175.02 73.5508H190.385Z" fill="#F3B36A"/>
<path opacity="0.2" d="M190.385 73.5508C190.385 76.6754 190.791 96.8804 190.791 96.8804C190.869 97.7779 191.715 99.4344 191.531 102.886C191.281 107.578 190.875 120.614 190.875 120.614C190.875 120.614 189.333 122.138 187.157 120.614C187.157 120.614 184.18 102.914 183.596 98.2654C183.078 94.21 182.21 83.1962 182.21 83.1962L179.166 96.1657C179.166 96.1657 179.722 99.2128 179.817 101.362C179.911 103.512 179.26 115.944 179.26 115.944C178.728 116.275 178.117 116.462 177.49 116.487C176.862 116.511 176.239 116.372 175.682 116.083C175.682 116.083 173.044 97.9219 172.705 95.9773C172.365 94.0327 175.02 73.5508 175.02 73.5508H190.385Z" fill="black"/>
<path d="M185.443 51.8879C188.387 52.5915 192.122 53.7771 193.435 56.4806C194.748 59.1842 196.774 63.5665 196.774 63.5665L191.899 66.4363L190.385 63.8435V73.5499C188.081 76.0429 180.045 77.2064 175.014 73.5499V57.5721C175.014 55.0291 176.439 51.9654 180.362 51.7383L185.443 51.8879Z" fill="#F3B36A"/>
<path opacity="0.7" d="M185.443 51.8879C188.387 52.5915 192.122 53.7771 193.435 56.4806C194.748 59.1842 196.774 63.5665 196.774 63.5665L191.899 66.4363L190.385 63.8435V73.5499C188.081 76.0429 180.045 77.2064 175.014 73.5499V57.5721C175.014 55.0291 176.439 51.9654 180.362 51.7383L185.443 51.8879Z" fill="white"/>
<path d="M186.551 38.8473C186.815 38.8171 187.083 38.8473 187.333 38.9356C187.584 39.0239 187.811 39.1681 187.998 39.357C188.621 39.9886 188.493 41.1631 187.998 43.8556L186.072 44.0772L186.551 38.8473Z" fill="#263238"/>
<path d="M175.359 38.0934C174.946 38.0985 174.537 38.0173 174.157 37.8552C173.567 37.5172 173.411 38.182 173.734 38.7638C173.948 39.1787 174.265 39.5324 174.654 39.7912C175.044 40.0501 175.493 40.2056 175.96 40.243C175.96 40.1599 176.517 38.7471 176.517 38.7471L175.359 38.0934Z" fill="#263238"/>
<path d="M185.649 44.0764C185.933 44.2481 186.339 43.6997 186.69 43.334C186.828 43.1767 187.005 43.057 187.203 42.9861C187.4 42.9153 187.613 42.8955 187.82 42.9287C188.028 42.9619 188.223 43.0471 188.389 43.1761C188.554 43.3051 188.684 43.4738 188.766 43.6664C189.35 44.8908 188.026 46.5251 187.246 47.0625C187.029 47.2498 186.757 47.364 186.47 47.3889C186.184 47.4137 185.896 47.348 185.649 47.201L185.443 51.888C185.1 52.6391 184.574 53.2935 183.913 53.7924C183.253 54.2913 182.478 54.6193 181.659 54.7467C178.877 55.1179 179.461 52.852 180.368 51.7384V50.032C179.677 50.1811 178.967 50.2185 178.264 50.1428C177.903 50.0487 177.046 49.0348 176.489 47.8548C175.866 46.5528 174.82 44.2426 175.754 40.3368C176.745 36.1429 181.27 36.0155 183.974 37.7052C186.679 39.395 185.649 44.0764 185.649 44.0764Z" fill="#FFA8A7"/>
<path d="M185.649 44.5535C185.788 44.5535 186.339 43.656 186.69 43.3346C187.185 42.8859 186.551 38.8471 186.551 38.8471C186.551 38.8471 187.046 37.318 186.072 36.2986C185.098 35.2792 183.217 35.4565 181.837 35.4067C180.143 35.4152 178.465 35.0796 176.906 34.4205C174.947 33.5729 174.803 33.4732 174.558 34.3319C174.313 35.1906 174.224 37.1463 175.393 38.4593L176.367 38.8194C176.367 38.8194 176.89 39.2792 178.715 39.5008C180.402 39.6284 182.098 39.5969 183.779 39.4067C184.308 39.3346 184.419 39.8443 184.703 41.2404C184.959 42.4704 185.165 44.5479 185.649 44.5535Z" fill="#263238"/>
<path d="M186.545 39.1629L188.27 38.2377C188.215 38.1224 188.138 38.0193 188.041 37.9349C187.945 37.8504 187.833 37.7863 187.711 37.7464C187.589 37.7065 187.461 37.6917 187.333 37.7028C187.205 37.7139 187.081 37.7508 186.968 37.8111C186.737 37.939 186.563 38.1509 186.485 38.4026C186.406 38.6544 186.428 38.9267 186.545 39.1629Z" fill="#263238"/>
<path d="M180.368 50.0331C181.548 49.8117 182.705 49.4815 183.824 49.0469C184.351 48.7755 184.782 48.3503 185.059 47.8281C184.925 48.3502 184.687 48.8401 184.358 49.2685C183.701 50.0996 180.368 50.7145 180.368 50.7145V50.0331Z" fill="#F28F8F"/>
<path d="M180.991 43.4394C180.989 43.5077 181.001 43.5758 181.025 43.6395C181.05 43.7033 181.087 43.7615 181.135 43.8106C181.183 43.8597 181.24 43.8987 181.303 43.9253C181.367 43.952 181.435 43.9657 181.503 43.9657C181.616 43.9746 181.729 43.949 181.826 43.8926C181.924 43.8361 182.002 43.7513 182.051 43.6495C182.099 43.5477 182.115 43.4336 182.096 43.3226C182.078 43.2116 182.026 43.1088 181.947 43.028C181.868 42.9471 181.767 42.892 181.656 42.8701C181.545 42.8481 181.43 42.8602 181.326 42.9049C181.222 42.9495 181.135 43.0246 181.075 43.1201C181.015 43.2156 180.986 43.3269 180.991 43.4394Z" fill="#263238"/>
<path d="M181.531 41.5108L182.644 42.1147C182.721 41.9646 182.738 41.7908 182.69 41.6291C182.642 41.4673 182.534 41.3298 182.388 41.2449C182.315 41.2031 182.234 41.1769 182.15 41.1677C182.066 41.1585 181.982 41.1667 181.901 41.1917C181.821 41.2166 181.746 41.2579 181.683 41.3128C181.619 41.3677 181.567 41.4351 181.531 41.5108Z" fill="#263238"/>
<path d="M181.03 46.9023L179.856 47.34C179.882 47.4178 179.924 47.4895 179.978 47.5512C180.032 47.6128 180.098 47.6631 180.172 47.6992C180.246 47.7353 180.327 47.7564 180.409 47.7613C180.491 47.7662 180.574 47.7548 180.652 47.7278C180.809 47.6646 180.936 47.5438 181.006 47.3902C181.077 47.2366 181.085 47.062 181.03 46.9023Z" fill="#F28F8F"/>
<path d="M176.417 41.9389L177.413 41.1688C177.366 41.1017 177.306 41.0448 177.236 41.0016C177.166 40.9583 177.089 40.9296 177.007 40.9172C176.926 40.9047 176.843 40.9089 176.764 40.9293C176.684 40.9496 176.61 40.9859 176.545 41.0359C176.411 41.1409 176.322 41.2935 176.298 41.4618C176.275 41.63 176.317 41.801 176.417 41.9389Z" fill="#263238"/>
<path d="M176.723 43.2958C176.723 43.3628 176.736 43.4291 176.762 43.4909C176.787 43.5527 176.825 43.6089 176.873 43.6563C176.92 43.7036 176.977 43.7411 177.039 43.7668C177.101 43.7924 177.168 43.8055 177.235 43.8055C177.302 43.8055 177.369 43.7924 177.431 43.7668C177.493 43.7411 177.549 43.7036 177.597 43.6563C177.644 43.6089 177.682 43.5527 177.708 43.4909C177.734 43.4291 177.747 43.3628 177.747 43.2958C177.749 43.2275 177.737 43.1595 177.713 43.0957C177.688 43.0319 177.651 42.9738 177.603 42.9246C177.555 42.8755 177.498 42.8365 177.435 42.8099C177.371 42.7832 177.303 42.7695 177.235 42.7695C177.097 42.7724 176.966 42.8294 176.87 42.9279C176.774 43.0265 176.721 43.1587 176.723 43.2958Z" fill="#263238"/>
<path d="M179.333 42.8086L179.166 45.8834L177.557 45.3349L179.333 42.8086Z" fill="#F28F8F"/>
<path d="M165.932 61.3125L179.055 64.7529L182.928 80.9689L170.451 77.3623L165.932 61.3125Z" fill="#F3B36A"/>
<path d="M171.653 72.043C171.422 72.4534 171.072 72.7853 170.65 72.9957C170.227 73.2061 169.751 73.2853 169.282 73.223L169.093 72.5527L171.653 72.043Z" fill="#F3B36A"/>
<path d="M174.586 72.5527C174.641 72.9849 175.537 73.7826 177.046 74.2813C178.76 74.8353 181.392 74.5527 181.392 74.5527L181.158 73.7439L174.586 72.5527Z" fill="#F3B36A"/>
<path opacity="0.43" d="M169.794 63.6615L169.683 63.1629C169.627 62.8859 170.395 62.8748 171.408 63.1352L173.339 63.6338C174.352 63.8997 175.215 64.3319 175.276 64.6089L175.387 65.1075L169.794 63.6615Z" fill="#455A64"/>
<path d="M168.859 61.7845C168.826 61.6127 169.137 61.5684 169.56 61.6847L170.351 61.9174C170.351 61.9174 170.122 60.8094 171.825 61.2138C172.28 61.2805 172.709 61.463 173.072 61.7435C173.435 62.024 173.718 62.3931 173.896 62.8149L174.714 63.0476C175.164 63.175 175.571 63.4133 175.626 63.6016L175.721 63.9119L168.959 62.139L168.859 61.7845Z" fill="#37474F"/>
<path d="M169.794 62.3202C170.412 62.4698 170.668 62.5529 170.762 62.974C170.857 63.395 170.913 63.8161 170.913 63.8161L173.901 64.6028C173.901 64.6028 173.757 63.9878 173.712 63.7496C173.667 63.5114 173.768 63.3673 174.269 63.4892L174.307 63.3008L169.616 62.1152L169.794 62.3202Z" fill="#37474F"/>
<path d="M169.688 63.7123L169.583 63.2137C169.521 62.9367 170.289 62.9256 171.302 63.186L173.233 63.6846C174.246 63.945 175.114 64.3771 175.176 64.6541L175.281 65.1527L169.688 63.7123Z" fill="#37474F"/>
<path d="M197.904 72.5541L193.496 69.158C193.496 69.158 184.258 70.8865 183.217 70.9696C182.177 71.0527 181.353 70.0278 180.958 69.0084C180.563 67.989 179.761 68.1164 179.761 68.1164C179.761 68.1164 180.067 69.4128 180.168 69.8228C180.268 70.2328 177.858 70.5707 176.472 70.1053C175.087 69.64 173.078 70.3159 174.319 72.1995C175.56 74.0832 177.986 74.2937 179.667 74.2992C180.37 74.2924 181.073 74.2443 181.77 74.1552C182.327 74.0887 182.883 74.0333 183.401 73.9945C186.84 73.7508 196.34 73.0416 197.904 72.5541Z" fill="#FFA8A7"/>
<path d="M167.262 66.0532L167.846 68.1197C167.958 68.5186 169.483 69.2277 170.451 69.5047C171.419 69.7817 172.471 70.0588 172.015 71.4272C171.592 72.6626 170.006 72.9452 169.199 72.9119C168.655 72.8205 168.147 72.5811 167.732 72.2203C167.317 71.8596 167.009 71.3914 166.845 70.8676C166.288 69.2887 166.589 67.5989 166.366 66.6737C166.143 65.7485 166.783 65.5048 167.262 66.0532Z" fill="#F28F8F"/>
<path d="M187.319 123.175V122.704C187.007 122.842 186.273 125.618 184.97 126.798C183.935 127.74 182.522 128.831 182.188 129.878C181.854 130.926 184.158 131.574 185.126 131.402C186.239 131.203 188.204 130.416 188.693 129.685C189.183 128.953 189.411 127.873 189.806 127.335C190.202 126.798 191.12 126.227 191.337 125.585C191.401 125.005 191.337 124.419 191.148 123.867C190.997 123.286 190.83 122.654 190.636 122.704C190.636 122.776 190.636 123.064 190.636 123.064C190.158 123.432 189.57 123.627 188.966 123.618C188.482 123.635 187.313 123.541 187.319 123.175Z" fill="#37474F"/>
<path d="M175.916 117.993C175.743 117.993 175.604 118.237 175.231 118.641C174.668 119.207 174.014 119.676 173.295 120.026C172.065 120.641 169.677 121.583 168.592 122.07C167.913 122.375 167.947 123.178 168.648 123.649C169.349 124.12 171.035 124.447 173.061 123.993C174.174 123.749 175.604 122.735 176.511 122.785C177.418 122.835 179.121 122.829 179.795 122.37C180.468 121.91 180.195 120.924 180.006 120.076C179.817 119.228 179.505 117.744 179.199 117.805V118.098C178.804 118.691 176.79 118.935 175.921 118.497L175.916 117.993Z" fill="#37474F"/>
<path d="M33.6205 116.005L35.674 118.847C34.7378 119.277 33.7166 119.493 32.6855 119.478C30.849 119.55 30.3426 118.924 30.2758 118.802C29.9642 118.143 30.4484 116.946 30.5819 115.916L33.6205 116.005Z" fill="#37474F"/>
<path d="M30.2759 113.147C30.2759 113.147 30.5875 115.729 30.6098 116.283C30.632 116.837 33.1419 117.019 33.6205 116.006L33.6929 112.848L30.2759 113.147Z" fill="#F28F8F"/>
<path d="M30.2758 62.2812C28.5617 64.9405 26.9367 67.2674 26.5805 70.2702C25.8459 76.5804 28.2501 83.7937 28.7676 88.4585C27.7945 89.7895 27.2318 91.3739 27.1482 93.018C27.1482 94.946 30.2758 113.145 30.2758 113.145C30.2758 113.145 32.5464 113.838 33.6928 112.846L35.8409 79.3671L34.7279 75.2895L30.2758 62.2812Z" fill="#F3B36A"/>
<path opacity="0.5" d="M30.2758 62.2812C28.5617 64.9405 26.9367 67.2674 26.5805 70.2702C25.8459 76.5804 28.2501 83.7937 28.7676 88.4585C27.7945 89.7895 27.2318 91.3739 27.1482 93.018C27.1482 94.946 30.2758 113.145 30.2758 113.145C30.2758 113.145 32.5464 113.838 33.6928 112.846L35.8409 79.3671L34.7279 75.2895L30.2758 62.2812Z" fill="white"/>
<path d="M46.1199 49.8125L57.4227 55.2142L50.6388 70.3997L40.0984 64.3443L46.1199 49.8125Z" fill="#F3B36A"/>
<path d="M56.0925 55.4898L50.238 68.4316L42.124 63.7778L46.7264 51.041L56.0925 55.4898Z" fill="#F3B36A"/>
<path d="M46.7265 51.041L56.0926 55.4898L49.7706 68.57L40.9109 63.534L46.7265 51.041Z" fill="white"/>
<path d="M48.7633 52.9126L48.9804 52.4472C49.1028 52.1924 49.8763 52.2976 50.7111 52.691L52.3083 53.4445C53.1431 53.8323 53.7163 54.3641 53.5994 54.619L53.3768 55.0843L48.7633 52.9126Z" fill="#E0E0E0"/>
<path d="M26.4414 55.267C25.6178 57.605 23.9872 61.3168 24.5103 62.0648C25.0335 62.8127 28.1722 62.652 29.9197 62.5855C32.1457 62.5024 33.9934 62.4138 33.9934 62.4138L33.6205 58.5357H30.4595L31.8508 54.6133L26.4414 55.267Z" fill="#F28F8F"/>
<path d="M29.6081 46.959C28.4561 48.8426 26.1299 55.4908 26.1299 55.4908C26.7762 56.2205 27.6335 56.7334 28.5841 56.959C29.4143 57.2126 30.2965 57.2469 31.1441 57.0587L33.7152 50.6875L29.6081 46.959Z" fill="#F3B36A"/>
<path opacity="0.4" d="M29.6081 46.959C28.4561 48.8426 26.1299 55.4908 26.1299 55.4908C26.7762 56.2205 27.6335 56.7334 28.5841 56.959C29.4143 57.2126 30.2965 57.2469 31.1441 57.0587L33.7152 50.6875L29.6081 46.959Z" fill="black"/>
<path d="M41.1112 48.1445C43.1314 48.7484 44.3613 48.8537 46.5929 52.2719C48.8245 55.6902 53.7107 62.4714 54.1949 63.2858C54.8682 64.3938 55.1576 65.7677 54.5789 66.8093C54.0001 67.8508 52.4585 67.3633 50.2436 65.4187C48.0287 63.4741 43.8548 58.2608 43.8548 58.2608C43.8548 58.2608 39.5029 53.38 41.1112 48.1445Z" fill="#FFA8A7"/>
<path d="M39.4973 43.7124L38.9519 48.5157L34.1881 49.0642L34.8782 42.6875L39.4973 43.7124Z" fill="#FFA8A7"/>
<path d="M29.3075 36.6924C29.7026 32.2602 32.0901 30.4265 33.9878 29.9888C37.7554 29.1024 41.1167 30.4652 42.6416 33.0968C43.0423 33.7893 43.7157 36.3821 42.3745 37.9112C41.0333 39.4403 29.3075 36.6924 29.3075 36.6924Z" fill="#263238"/>
<path d="M43.0146 38.2559C43.0146 38.2559 44.0051 39.9179 43.8549 40.1063C43.5915 40.2586 43.3033 40.3636 43.0034 40.4165L43.0146 38.2559Z" fill="#F28F8F"/>
<path d="M40.0094 32.909C41.0334 33.5129 42.792 34.6154 43.0313 38.4935C43.2817 42.4768 42.5193 43.7012 41.9183 44.1887C41.5343 44.5211 39.5642 44.4103 38.5792 44.0502C37.3716 43.5959 34.6836 42.3605 33.526 40.2442C32.1904 37.7566 32.0735 34.5378 33.8433 33.3799C34.7455 32.7847 35.7857 32.4291 36.8649 32.3466C37.9441 32.2642 39.0265 32.4578 40.0094 32.909Z" fill="#FFA8A7"/>
<path d="M40.3098 33.1076C40.3098 33.1076 41.0165 36.7696 39.7922 38.9857C39.7922 38.9857 39.2357 37.5397 37.9891 37.8776C36.7425 38.2156 36.7592 39.8444 37.6775 40.7308C37.9101 40.983 38.2095 41.1647 38.5414 41.2549C38.8732 41.3451 39.2238 41.3401 39.5529 41.2405C39.3798 42.3811 38.8456 43.4369 38.0281 44.2543C36.7302 44.5533 35.3739 44.4809 34.1155 44.0457C32.8571 43.6105 31.7479 42.8301 30.9158 41.7945C28.1332 38.5037 28.8623 32.9303 33.2754 31.7336C37.6886 30.5369 40.3098 33.1076 40.3098 33.1076Z" fill="#263238"/>
<path d="M35.5572 117.484C35.5572 117.484 38.0504 117.323 39.77 117.107C41.4897 116.891 42.8531 117.727 42.4469 118.437C42.0406 119.146 41.0945 119.727 39.6198 120.22C38.3565 120.647 36.8372 120.952 35.5238 121.328C34.2104 121.705 33.2978 122.193 32.5353 121.932C31.6839 121.639 31.3166 121.301 31.3889 120.68C31.5747 119.798 31.8051 118.925 32.079 118.065L35.5572 117.484Z" fill="#37474F"/>
<path d="M32.8025 114.736L31.9065 118.653C31.9065 118.653 31.823 119.13 33.871 119.434C35.919 119.739 39.1356 118.371 39.6866 118.088C40.2375 117.806 40.2987 117.257 38.2841 117.368C36.2696 117.479 35.5572 117.484 35.5572 117.484L36.2306 115.745L32.8025 114.736Z" fill="#FFA8A7"/>
<path d="M35.841 79.3677L34.728 75.2902C32.5969 74.7317 30.5414 73.9188 28.6063 72.8691C28.6063 72.8691 29.7639 74.9689 33.0585 76.1157L34.7892 81.3566L34.9395 93.3455L35.841 79.3677Z" fill="#F3B36A"/>
<path d="M30.2758 62.2812C29.3575 63.7716 27.1648 66.3256 27.6268 68.7743C28.1833 71.7494 29.8027 73.8325 34.7112 75.2895L39.3191 91.91C39.3191 91.91 36.9206 94.126 36.186 96.2701C35.4514 98.4141 32.8023 114.752 32.8023 114.752C32.8023 114.752 33.6204 116.082 36.2082 115.76C36.2082 115.76 45.2293 95.2618 45.8693 93.9266C46.6329 92.5822 46.9024 91.0152 46.6317 89.4945C46.3479 87.3393 43.2927 63.8103 43.2927 63.8103L30.2758 62.2812Z" fill="#F3B36A"/>
<path opacity="0.5" d="M30.2758 62.2812C29.3575 63.7716 27.1648 66.3256 27.6268 68.7743C28.1833 71.7494 29.8027 73.8325 34.7112 75.2895L39.3191 91.91C39.3191 91.91 36.9206 94.126 36.186 96.2701C35.4514 98.4141 32.8023 114.752 32.8023 114.752C32.8023 114.752 33.6204 116.082 36.2082 115.76C36.2082 115.76 45.2293 95.2618 45.8693 93.9266C46.6329 92.5822 46.9024 91.0152 46.6317 89.4945C46.3479 87.3393 43.2927 63.8103 43.2927 63.8103L30.2758 62.2812Z" fill="white"/>
<path d="M29.441 47.3027C29.7972 46.3609 30.9324 45.5742 31.9564 45.8512C35.1675 46.721 40.1595 47.8678 41.1111 48.1448C41.1111 48.1448 40.6882 55.347 44.3834 57.4966C44.2109 58.865 43.2704 63.7736 43.2704 63.7736C43.2704 63.7736 38.8183 65.9232 35.1675 64.8816C31.5168 63.8401 30.2758 62.2999 30.2758 62.2999L32.1067 59.3304C31.7171 58.3609 30.2034 55.0867 29.2295 52.0396C28.8714 50.4704 28.9444 48.8341 29.441 47.3027Z" fill="#F3B36A"/>
<path opacity="0.2" d="M29.441 47.3027C29.7972 46.3609 30.9324 45.5742 31.9564 45.8512C35.1675 46.721 40.1595 47.8678 41.1111 48.1448C41.1111 48.1448 40.6882 55.347 44.3834 57.4966C44.2109 58.865 43.2704 63.7736 43.2704 63.7736C43.2704 63.7736 38.8183 65.9232 35.1675 64.8816C31.5168 63.8401 30.2758 62.2999 30.2758 62.2999L32.1067 59.3304C31.7171 58.3609 30.2034 55.0867 29.2295 52.0396C28.8714 50.4704 28.9444 48.8341 29.441 47.3027Z" fill="black"/>
<path opacity="0.25" d="M31.6058 58.1445C33.1277 59.0558 34.723 59.8396 36.3752 60.488C34.8759 60.4592 33.408 60.0553 32.1067 59.3135L31.6058 58.1445Z" fill="#F3B36A"/>
<path d="M32.552 30.9751C32.552 30.9751 31.0271 28.3878 27.2929 29.0582C23.5587 29.7285 22.045 33.6731 22.1006 36.1717C22.1563 38.6703 22.9966 40.4155 20.7483 43.3739C20.3052 43.9573 19.9929 44.6286 19.8326 45.3424C19.6723 46.0562 19.6677 46.796 19.8191 47.5117C19.9705 48.2275 20.2743 48.9025 20.7102 49.4914C21.146 50.0802 21.7037 50.5692 22.3455 50.9252C25.3451 52.5872 26.0742 49.6952 25.3785 47.2243C24.5771 44.3933 27.5545 43.9002 28.3503 41.7562C29.1461 39.6122 27.5823 35.108 28.584 33.5789C29.6971 31.9169 31.1997 32.1496 31.9231 32.7147L32.552 30.9751Z" fill="#263238"/>
<path d="M41.1111 48.1445C42.1092 48.3557 43.084 48.6637 44.0217 49.0642C45.246 49.6625 50.0209 57.1251 50.0209 57.1251C50.0209 57.1251 49.6815 59.934 45.7747 61.0475L43.4652 58.1445C43.4652 58.1445 40.0704 53.0974 41.1111 48.1445Z" fill="#F3B36A"/>
<path opacity="0.1" d="M41.1111 48.1445C42.1092 48.3557 43.084 48.6637 44.0217 49.0642C45.246 49.6625 50.0209 57.1251 50.0209 57.1251C50.0209 57.1251 49.6815 59.934 45.7747 61.0475L43.4652 58.1445C43.4652 58.1445 40.0704 53.0974 41.1111 48.1445Z" fill="black"/>
<path d="M44.1441 59.0196C43.1179 57.8306 42.3437 56.4474 41.8679 54.9531C41.8679 54.9531 41.8679 58.1775 43.9994 59.8451L44.1441 59.0196Z" fill="#F3B36A"/>
<path opacity="0.4" d="M44.1441 59.0196C43.1179 57.8306 42.3437 56.4474 41.8679 54.9531C41.8679 54.9531 41.8679 58.1775 43.9994 59.8451L44.1441 59.0196Z" fill="black"/>
<path d="M49.1695 50.9087C49.2418 50.7481 49.5813 50.7591 49.9263 50.9087L50.5496 51.2134C50.5496 51.2134 51.0338 50.2107 52.4807 50.8145C53.9277 51.4184 53.4825 52.5763 53.4825 52.5763L54.1447 52.9142C54.512 53.0971 54.7569 53.3796 54.7012 53.5458L54.5899 53.8394L49.0248 51.1802L49.1695 50.9087Z" fill="#455A64"/>
<path d="M49.7371 51.5403C50.2603 51.773 50.4606 51.8838 50.2937 52.2827C50.1267 52.6816 49.8874 53.0638 49.8874 53.0638L52.3472 54.2383C52.3472 54.2383 52.6088 53.6843 52.7201 53.4406C52.8314 53.1968 53.0317 53.1026 53.4213 53.291L53.5882 53.1248L49.6926 51.3242L49.7371 51.5403Z" fill="#455A64"/>
<path d="M48.7189 52.7764L48.9415 52.311C49.0639 52.0506 49.8375 52.1614 50.6722 52.5548L52.2694 53.3082C53.0987 53.696 53.6774 54.2224 53.555 54.4828L53.3324 54.9481L48.7189 52.7764Z" fill="#455A64"/>
</svg>
