<svg width="1030" height="51" viewBox="0 0 1030 51" fill="none" xmlns="http://www.w3.org/2000/svg">
<path d="M462.186 5.17226C463.618 5.17226 464.778 4.01441 464.778 2.58613C464.778 1.15785 463.618 0 462.186 0C460.755 0 459.595 1.15785 459.595 2.58613C459.595 4.01441 460.755 5.17226 462.186 5.17226Z" fill="#213782"/>
<path d="M471.176 12.8841C472.943 12.8841 474.376 11.4541 474.376 9.69017C474.376 7.92624 472.943 6.49629 471.176 6.49629C469.408 6.49629 467.975 7.92624 467.975 9.69017C467.975 11.4541 469.408 12.8841 471.176 12.8841Z" fill="#213782"/>
<path d="M482.815 16.0442H446.741C446.441 16.0442 446.197 16.2875 446.197 16.5871V21.6574C446.197 21.957 446.441 22.1992 446.741 22.1992H450.211V47.0023C450.211 49.2059 452.008 50.9994 454.216 50.9994H475.34C477.548 50.9994 479.345 49.2059 479.345 47.0023V22.2003H482.816C483.115 22.2003 483.359 21.9581 483.359 21.6584V16.5882C483.358 16.2875 483.115 16.0442 482.815 16.0442ZM462.746 46.3712H454.312C453.711 46.3712 453.225 45.8856 453.225 45.2864C453.225 44.6882 453.711 44.2015 454.312 44.2015H462.746C463.346 44.2015 463.833 44.6882 463.833 45.2864C463.832 45.8856 463.346 46.3712 462.746 46.3712ZM462.746 35.8248H454.312C453.711 35.8248 453.225 35.3392 453.225 34.74C453.225 34.1418 453.711 33.6552 454.312 33.6552H462.746C463.346 33.6552 463.833 34.1407 463.833 34.74C463.832 35.3392 463.346 35.8248 462.746 35.8248ZM462.746 25.2784H454.312C453.711 25.2784 453.225 24.7928 453.225 24.1936C453.225 23.5943 453.711 23.1087 454.312 23.1087H462.746C463.346 23.1087 463.833 23.5943 463.833 24.1936C463.832 24.7928 463.346 25.2784 462.746 25.2784Z" fill="#213782"/>
<path d="M290.148 49.6226H266.461V20.7576H278.874V25.9667L274.042 40.7572C273.479 41.6672 273.365 42.5719 273.735 43.249C274.08 43.883 274.784 44.2324 275.712 44.2324H288.488C289.416 44.2324 290.12 43.883 290.465 43.249C290.834 42.5719 290.721 41.6672 290.158 40.7572L285.326 25.9656V18.8253C286.072 18.531 286.605 17.7352 286.605 16.8252V16.6947C286.605 15.5194 285.745 14.563 284.688 14.563H279.512C278.456 14.563 277.596 15.5194 277.596 16.6947V16.8252C277.596 17.5875 277.979 18.2485 278.538 18.6237H266.461V1.06748C266.461 0.477669 265.985 0 265.396 0C264.808 0 264.332 0.477669 264.332 1.06748V18.6226H252.256C252.815 18.2474 253.198 17.5864 253.198 16.8241V16.6936C253.198 15.5183 252.339 14.5619 251.282 14.5619H246.105C245.049 14.5619 244.19 15.5183 244.19 16.6936V16.8241C244.19 17.7352 244.722 18.5299 245.468 18.8243V25.9656L240.635 40.7572C240.072 41.6672 239.959 42.573 240.328 43.249C240.673 43.883 241.377 44.2324 242.306 44.2324H255.081C256.009 44.2324 256.712 43.883 257.057 43.249C257.426 42.573 257.314 41.6672 256.751 40.7572L251.918 25.9656V20.7576H264.332V49.6237H240.645C240.058 49.6237 239.58 50.1014 239.58 50.6901C239.58 51.2799 240.057 50.8446 240.645 50.8446H290.148C290.736 50.8446 291.212 51.2799 291.212 50.6901C291.212 50.1014 290.736 49.6226 290.148 49.6226ZM282.723 31.51C283.06 31.51 283.333 31.7839 283.333 32.1214C283.333 32.4589 283.06 32.7328 282.723 32.7328C282.387 32.7328 282.112 32.4589 282.112 32.1214C282.112 31.7839 282.387 31.51 282.723 31.51ZM281.866 36.7471C282.421 36.7471 282.87 37.1968 282.87 37.7521C282.87 38.3063 282.421 38.7559 281.866 38.7559C281.314 38.7559 280.866 38.3063 280.866 37.7521C280.866 37.1968 281.314 36.7471 281.866 36.7471ZM247.835 38.7548C247.283 38.7548 246.834 38.3052 246.834 37.751C246.834 37.1957 247.282 36.746 247.835 36.746C248.389 36.746 248.839 37.1957 248.839 37.751C248.838 38.3052 248.389 38.7548 247.835 38.7548ZM248.692 32.7328C248.355 32.7328 248.081 32.4589 248.081 32.1214C248.081 31.7839 248.355 31.51 248.692 31.51C249.03 31.51 249.302 31.7839 249.302 32.1214C249.302 32.4589 249.031 32.7328 248.692 32.7328Z" fill="#213782"/>
<path d="M288.017 4.34451C288.388 4.34451 288.687 4.04383 288.687 3.67293C288.687 3.30202 288.388 3.00135 288.017 3.00135C287.647 3.00135 287.348 3.30202 287.348 3.67293C287.348 4.04383 287.647 4.34451 288.017 4.34451Z" fill="#213782"/>
<path d="M284.791 8.10183C285.358 8.10183 285.818 7.64128 285.818 7.07317C285.818 6.50506 285.358 6.04451 284.791 6.04451C284.225 6.04451 283.765 6.50506 283.765 7.07317C283.765 7.64128 284.225 8.10183 284.791 8.10183Z" fill="#213782"/>
<path d="M251.473 4.34451C251.843 4.34451 252.143 4.04383 252.143 3.67293C252.143 3.30202 251.843 3.00135 251.473 3.00135C251.103 3.00135 250.803 3.30202 250.803 3.67293C250.803 4.04383 251.103 4.34451 251.473 4.34451Z" fill="#213782"/>
<path d="M249.276 8.10183C249.843 8.10183 250.303 7.64128 250.303 7.07317C250.303 6.50506 249.843 6.04451 249.276 6.04451C248.71 6.04451 248.25 6.50506 248.25 7.07317C248.25 7.64128 248.71 8.10183 249.276 8.10183Z" fill="#213782"/>
<path d="M1.16314 49.122H4.93573V31.377H1.52754C0.885613 31.377 0.365528 30.8541 0.365528 30.2087C0.365528 29.5633 0.885613 29.0404 1.52754 29.0404H4.93573V1.16833C4.93573 0.522913 5.45581 0 6.09886 0C6.73966 0 7.26088 0.522913 7.26088 1.16833V29.0392H12.059V25.6363H10.5574V19.5633H13.8877V16.52C13.8877 14.2457 15.633 12.3956 17.7765 12.3956H29.981V9.74364H28.1263C27.4844 9.74364 26.9632 9.22073 26.9632 8.57532C26.9632 7.92876 27.4844 7.40585 28.1263 7.40585H34.4339C35.0758 7.40585 35.597 7.92876 35.597 8.57532C35.597 9.22073 35.0769 9.74364 34.4339 9.74364H32.3062V12.3968H41.116C43.2606 12.3968 45.0059 14.0585 45.0059 16.1003V18.6332C45.0059 18.7103 44.9766 18.7772 44.9619 18.8487H47.5939V29.172C51.1849 30.684 53.5698 34.2548 53.5698 38.184C53.5698 43.5764 49.2072 47.9628 43.8439 47.9628C38.4806 47.9628 34.1169 43.5764 34.1169 38.184C34.1169 34.2548 36.5018 30.684 40.0928 29.172V18.8487H42.7236C42.7101 18.7772 42.6796 18.7103 42.6796 18.6332V16.1003C42.6796 15.3607 41.9633 14.7357 41.1149 14.7357H17.7754C16.9135 14.7357 16.2106 15.5365 16.2106 16.5211V19.5644H19.5421V25.6375H18.0405V29.0404H20.1265C20.7684 29.0404 21.2896 29.5633 21.2896 30.2087C21.2896 30.8541 20.7684 31.377 20.1265 31.377H18.0428V38.8555C18.0428 40.4004 16.7928 41.6561 15.2562 41.6561H14.8467C13.3101 41.6561 12.059 40.4015 12.059 38.8555V31.377H7.26088V49.1232H52.9888C53.6319 49.122 54.152 49.6449 54.152 50.2904C54.152 50.9358 53.6319 50.4753 52.9888 50.4753H1.16314C0.520083 50.4753 0 50.9358 0 50.2904C0 49.6449 0.520083 49.122 1.16314 49.122Z" fill="#213782"/>
<path d="M213.85 47.5165C213.694 47.3605 213.486 47.2566 213.278 47.2566V39.6679C212.758 39.6679 212.289 39.6679 211.925 39.6159H211.821C211.613 39.6159 211.405 39.6159 211.093 39.5639V47.2046C210.885 47.2046 210.677 47.3085 210.52 47.4645L208.647 49.2837C208.439 49.4916 208.335 49.7515 208.335 50.0114C208.335 50.5831 208.803 50.9989 209.324 50.9989H214.995C215.567 50.9989 215.984 50.5311 215.984 50.0114C215.984 49.7515 215.88 49.4916 215.671 49.2837L213.85 47.5165Z" fill="#213782"/>
<path d="M227.17 27.4534C227.066 24.4388 225.661 21.7879 223.372 20.1766C220.979 18.4614 217.909 18.0455 214.891 18.9292C213.07 19.5009 211.717 20.8003 211.249 22.3077C211.197 22.5676 211.197 22.8275 211.353 23.0354C211.457 23.2433 211.665 23.3992 211.925 23.5032C212.185 23.5551 212.446 23.5551 212.654 23.3992C212.862 23.2953 213.018 23.0873 213.122 22.8275C213.434 21.7359 214.527 21.0602 215.463 20.7484C217.857 20.0207 220.354 20.3845 222.227 21.7359C224.048 23.0354 225.141 25.1145 225.245 27.5054C225.349 29.8444 224.621 31.7676 223.164 33.2229C223.112 33.2749 223.06 33.3269 222.956 33.4308C222.904 33.4828 222.904 33.4828 222.852 33.5348C222.8 33.5868 222.8 33.5868 222.748 33.6387C221.655 34.5743 220.146 35.302 218.429 35.7698C218.325 35.8218 218.221 35.8218 218.117 35.8738C218.013 35.9257 217.909 35.9257 217.805 35.9257C217.701 35.9257 217.597 35.9777 217.493 35.9777H217.44C217.336 35.9777 217.232 36.0297 217.128 36.0297H217.076C216.972 36.0297 216.868 36.0817 216.816 36.0817C216.764 36.0817 216.764 36.0817 216.712 36.0817C216.608 36.0817 216.556 36.1336 216.452 36.1336C216.4 36.1336 216.4 36.1336 216.348 36.1336C216.244 36.1336 216.192 36.1336 216.088 36.1856C216.036 36.1856 216.036 36.1856 215.984 36.1856C215.88 36.1856 215.828 36.1856 215.723 36.2376C215.671 36.2376 215.619 36.2376 215.619 36.2376C215.515 36.2376 215.463 36.2376 215.359 36.2376C215.307 36.2376 215.255 36.2376 215.203 36.2376C215.151 36.2376 215.047 36.2376 214.995 36.2376C214.943 36.2376 214.891 36.2376 214.839 36.2376C214.787 36.2376 214.683 36.2376 214.631 36.2376C214.579 36.2376 214.527 36.2376 214.423 36.2376C214.371 36.2376 214.319 36.2376 214.215 36.2376C214.163 36.2376 214.059 36.2376 214.006 36.2376C213.954 36.2376 213.902 36.2376 213.85 36.2376C213.798 36.2376 213.694 36.2376 213.642 36.2376C213.59 36.2376 213.538 36.2376 213.486 36.2376C213.434 36.2376 213.33 36.2376 213.278 36.2376V34.9382C213.278 34.8342 213.278 34.7303 213.278 34.6263C213.278 34.5224 213.278 34.4184 213.278 34.3664C213.278 34.3144 213.33 34.2625 213.382 34.2105C213.434 34.1065 213.486 34.0026 213.59 33.8986C213.694 33.7427 213.85 33.5348 214.006 33.3788C214.319 33.067 214.631 32.8071 214.995 32.5472C215.359 32.2873 215.723 32.0794 216.14 31.9235C216.556 31.7156 216.972 31.5596 217.336 31.4037C217.753 31.2478 218.169 31.0918 218.585 30.8839C219.001 30.728 219.366 30.5201 219.73 30.3122C220.094 30.1043 220.458 29.8964 220.77 29.5845C221.083 29.3246 221.343 29.0128 221.551 28.6489C221.811 28.2851 221.967 27.8693 222.071 27.4534C222.123 27.3495 222.123 27.2455 222.123 27.1416C222.175 26.9337 222.331 26.3099 222.019 26.3099H212.185C212.185 26.3099 202.404 26.3099 202.352 26.3099C202.04 26.3099 202.196 26.9337 202.248 27.1416C202.352 27.6094 202.456 28.0252 202.664 28.441C202.872 28.8048 203.132 29.1167 203.392 29.4286C203.705 29.7404 204.017 29.9483 204.381 30.1563C204.745 30.3642 205.109 30.5721 205.526 30.728C205.942 30.9359 206.358 31.0918 206.722 31.2478C207.139 31.4037 207.555 31.6116 207.971 31.7676C208.387 31.9755 208.751 32.1314 209.116 32.3913C209.48 32.5992 209.844 32.8591 210.156 33.1709C210.468 33.4828 210.781 33.8466 210.989 34.2105C210.989 34.2625 211.041 34.3144 211.041 34.3144C211.093 34.4184 211.041 34.5743 211.041 34.7303V36.1336C211.041 36.1336 211.041 36.1336 210.989 36.1336C210.937 36.1336 210.885 36.1336 210.833 36.1336C210.781 36.1336 210.729 36.1336 210.729 36.1336H210.677C210.625 36.1336 210.573 36.1336 210.468 36.1336C208.803 36.1336 206.982 36.3935 205.942 37.7969C205.89 37.8489 205.838 37.9009 205.838 37.9529C205.786 38.0048 205.786 38.0568 205.734 38.1088C205.682 38.1608 205.682 38.2127 205.63 38.3167C205.109 39.2523 205.005 40.2918 205.369 41.2794C205.786 42.5788 206.93 43.8263 208.387 44.554C208.543 44.6059 208.647 44.6579 208.803 44.6579C209.168 44.6579 209.532 44.45 209.688 44.1381C209.948 43.6704 209.74 43.0986 209.272 42.8387C208.283 42.3709 207.503 41.5393 207.243 40.7076C207.086 40.1879 207.139 39.7201 207.399 39.2523C207.971 38.1608 209.636 38.0568 211.145 38.1088C211.353 38.1088 211.613 38.1088 211.821 38.1608H212.029C212.446 38.1608 212.862 38.2127 213.33 38.2127C216.14 38.2127 221.343 37.693 224.569 34.4704C226.39 32.8071 227.274 30.3642 227.17 27.4534Z" fill="#213782"/>
<path d="M216.868 42.9937C216.296 43.1497 215.775 43.2536 215.255 43.3576C214.735 43.4615 214.423 43.9813 214.527 44.5011C214.631 44.9689 214.995 45.2807 215.463 45.2807C215.515 45.2807 215.567 45.2807 215.671 45.2807C216.244 45.1768 216.816 45.0209 217.44 44.8649C217.961 44.709 218.221 44.1892 218.117 43.7214C217.909 43.1497 217.388 42.8378 216.868 42.9937Z" fill="#213782"/>
<path d="M77.0907 23.2563C77.6148 23.2563 78.0835 23.4659 78.4288 23.8113C78.7741 24.1566 78.9837 24.6252 78.9837 25.1494C78.9837 25.6735 78.7741 26.1421 78.4288 26.4874C78.0835 26.8328 77.6148 27.0424 77.0907 27.0424C76.5666 27.0424 76.0979 26.8328 75.7526 26.4874C75.4073 26.1421 75.1976 25.6735 75.1976 25.1494C75.1976 24.6252 75.4073 24.1566 75.7526 23.8113C76.0979 23.4659 76.5666 23.2563 77.0907 23.2563Z" fill="#213782"/>
<path d="M74.3591 19.0625C74.8833 19.0625 75.3519 19.2722 75.6972 19.6175C76.0425 19.9628 76.2522 20.4314 76.2522 20.9556C76.2522 21.4797 76.0425 21.9483 75.6972 22.2936C75.3519 22.639 74.8833 22.8486 74.3591 22.8486C73.835 22.8486 73.3663 22.639 73.021 22.2936C72.6757 21.9483 72.4661 21.4797 72.4661 20.9556C72.4661 20.4314 72.6757 19.9628 73.021 19.6175C73.3663 19.2722 73.835 19.0625 74.3591 19.0625Z" fill="#213782"/>
<path d="M69.7467 19.0631C70.2708 19.0631 70.7395 19.2728 71.0848 19.6181C71.4301 19.9634 71.6397 20.432 71.6397 20.9562C71.6397 21.4803 71.4301 21.9489 71.0848 22.2943C70.7395 22.6396 70.2708 22.8492 69.7467 22.8492C69.2225 22.8492 68.7539 22.6396 68.4086 22.2943C68.0633 21.9489 67.8536 21.4803 67.8536 20.9562C67.8536 20.432 68.0633 19.9634 68.4086 19.6181C68.7539 19.2728 69.2225 19.0631 69.7467 19.0631Z" fill="#213782"/>
<path fill-rule="evenodd" clip-rule="evenodd" d="M74.9571 28.9655V31.6294H73.989C73.767 31.6232 73.5635 31.7712 73.5018 31.9994L70.9613 41.8223H85.6926L83.1645 32.0364C83.1275 31.802 82.924 31.6294 82.6773 31.6294H81.703V28.9655C81.703 28.6942 81.481 28.4722 81.2097 28.4722H75.4442C75.1729 28.4722 74.9509 28.6942 74.9509 28.9655H74.9571ZM76.7638 34.2069C76.7638 33.7999 76.9303 33.4361 77.1955 33.171C77.4606 32.9058 77.8244 32.7393 78.2314 32.7393C78.6384 32.7393 79.0022 32.9058 79.2673 33.171C79.5325 33.4361 79.699 33.7999 79.699 34.2069C79.699 34.6139 79.5325 34.9777 79.2673 35.2428C79.0022 35.508 78.6384 35.6745 78.2314 35.6745C77.8244 35.6745 77.4606 35.508 77.1955 35.2428C76.9303 34.9777 76.7638 34.6139 76.7638 34.2069ZM75.2284 38.4062C75.4936 38.141 75.8574 37.9745 76.2644 37.9745C76.6713 37.9745 77.0351 38.141 77.3003 38.4062C77.5654 38.6713 77.7319 39.0351 77.7319 39.4421C77.7319 39.8491 77.5654 40.2129 77.3003 40.478C77.0351 40.7432 76.6713 40.9097 76.2644 40.9097C75.8574 40.9097 75.4936 40.7432 75.2284 40.478C74.9633 40.2129 74.7968 39.8491 74.7968 39.4421C74.7968 39.0351 74.9633 38.6713 75.2284 38.4062ZM80.2601 40.478C79.995 40.2129 79.8285 39.8491 79.8285 39.4421C79.8285 39.0351 79.995 38.6713 80.2601 38.4062C80.5253 38.141 80.8891 37.9745 81.2961 37.9745C81.703 37.9745 82.0668 38.141 82.332 38.4062C82.5972 38.6713 82.7636 39.0351 82.7636 39.4421C82.7636 39.8491 82.5972 40.2129 82.332 40.478C82.0668 40.7432 81.703 40.9097 81.2961 40.9097C80.8891 40.9097 80.5253 40.7432 80.2601 40.478Z" fill="#213782"/>
<path fill-rule="evenodd" clip-rule="evenodd" d="M70.7086 42.8104L68.8525 49.9818C68.834 50.0311 68.8278 50.0866 68.8278 50.1421C68.8278 50.4134 69.0498 50.6354 69.3211 50.6354H87.3329C87.3761 50.6354 87.4193 50.6293 87.4686 50.6169C87.7337 50.5491 87.8879 50.2778 87.8201 50.0188L85.9578 42.8104H70.7086Z" fill="#213782"/>
<path d="M192.271 49.0481H190.829V22.445C193.712 20.9447 193.713 17.3111 193.713 17.3111L185.063 0H144.696L136.046 17.3111C136.046 17.3111 136.047 20.9453 138.93 22.445V49.0481H137.488C136.691 49.0481 136.046 49.6932 136.046 50.4907C136.046 51.2881 136.691 50.9076 137.488 50.9076H192.271C193.065 50.9076 193.713 51.2881 193.713 50.4907C193.713 49.6932 193.065 49.0481 192.271 49.0481ZM179.295 17.3111C179.253 18.6337 178.716 20.1963 176.413 20.1963C174.09 20.1963 173.563 18.6071 173.529 17.3111H179.295ZM156.228 17.3111C156.186 18.6337 155.65 20.1963 153.346 20.1963C151.024 20.1963 150.497 18.6071 150.463 17.3111H156.228ZM138.951 17.3111H144.716C144.674 18.6337 144.138 20.1963 141.834 20.1963C139.51 20.1963 138.984 18.6071 138.951 17.3111ZM156.23 49.0481H141.813V23.0814C147.58 23.0814 147.58 17.3111 147.58 17.3111C147.58 17.3111 147.58 23.0814 153.346 23.0814C154.536 23.0814 155.48 22.8351 156.23 22.445V49.0481ZM161.996 17.3111H167.762C167.72 18.6337 167.183 20.1963 164.88 20.1963C162.557 20.1963 162.03 18.6071 161.996 17.3111ZM183.466 40.3925H177.699V46.1629H169.049V40.3925H163.283V31.737H169.049V25.9666H177.699V31.737H183.466V40.3925ZM187.96 20.1963C185.638 20.1963 185.111 18.6071 185.077 17.3111H190.842C190.801 18.6337 190.264 20.1963 187.96 20.1963ZM174.816 34.6222H180.583V37.5074H174.816V43.2777H171.933V37.5074H166.166V34.6222H171.933V28.8518H174.816V34.6222ZM153.346 36.0648C153.346 36.8622 152.702 37.5074 151.905 37.5074C151.108 37.5074 150.463 36.8622 150.463 36.0648C150.463 35.2673 151.108 34.6222 151.905 34.6222C152.702 34.6222 153.346 35.2673 153.346 36.0648Z" fill="#213782"/>
<path d="M341.129 27.3816H336.552V24.7986C336.552 22.5941 334.715 20.8008 332.457 20.8008H323.025C320.768 20.8008 318.931 22.5941 318.931 24.7986V27.3816H314.353C312.216 27.3816 310.467 29.0891 310.467 31.176V45.6998C310.467 47.7867 312.216 49.4941 314.353 49.4941H341.129C343.267 49.4941 345.016 47.7867 345.016 45.6998V31.176C345.016 29.0891 343.267 27.3816 341.129 27.3816ZM333.911 40.1367C333.911 40.3027 333.772 40.4385 333.602 40.4385H329.798V44.1524C329.798 44.3184 329.659 44.4542 329.489 44.4542H325.994C325.824 44.4542 325.685 44.3184 325.685 44.1524V40.4385H321.881C321.711 40.4385 321.572 40.3027 321.572 40.1367V36.7246C321.572 36.5586 321.711 36.4228 321.881 36.4228H325.685V32.7089C325.685 32.5429 325.824 32.4071 325.994 32.4071H329.489C329.659 32.4071 329.798 32.5429 329.798 32.7089V36.4228H333.602C333.772 36.4228 333.911 36.5586 333.911 36.7246V40.1367ZM334.176 27.3816H321.306V24.7986C321.306 23.8731 322.077 23.12 323.025 23.12H332.457C333.405 23.12 334.176 23.8731 334.176 24.7986V27.3816Z" fill="#213782"/>
<path d="M428.934 45.5911L420.89 31.8748C420.288 30.8505 419.76 28.9112 419.76 27.7253V13.3927C419.76 13.1127 419.53 12.8848 419.247 12.8848H413.463C413.18 12.8848 412.95 13.1127 412.95 13.3927V27.9616C412.95 29.1468 412.423 31.0853 411.821 32.1107L403.915 45.5911C403.365 46.5299 403.309 47.5113 403.762 48.282C404.214 49.053 405.103 49.495 406.2 49.495H426.648C427.747 49.495 428.635 49.053 429.086 48.282C429.54 47.5105 429.484 46.5295 428.934 45.5911ZM412.708 32.6209C413.407 31.4293 413.976 29.3383 413.976 27.9613V13.901H418.735V27.7253C418.735 29.1042 419.304 31.1949 420.004 32.3858L423.333 38.0651H409.516L412.708 32.6209ZM414.763 34.4561C414.669 34.5492 414.611 34.6832 414.611 34.8135C414.611 34.9479 414.669 35.082 414.763 35.1754C414.857 35.2693 414.989 35.3218 415.124 35.3218C415.26 35.3218 415.39 35.2693 415.489 35.1754C415.584 35.0778 415.637 34.9475 415.637 34.8135C415.637 34.6832 415.584 34.553 415.489 34.4561C415.293 34.265 414.956 34.2692 414.763 34.4561ZM416.404 31.6116C416.31 31.7043 416.252 31.8346 416.252 31.969C416.252 32.1031 416.309 32.2329 416.404 32.3306C416.502 32.4244 416.634 32.4769 416.765 32.4769C416.901 32.4769 417.031 32.4244 417.13 32.3306C417.224 32.2329 417.278 32.1027 417.278 31.969C417.278 31.8346 417.224 31.7047 417.13 31.6116C416.937 31.4239 416.597 31.4201 416.404 31.6116ZM418.455 34.8629C418.361 34.9556 418.303 35.0858 418.303 35.2203C418.303 35.3547 418.361 35.4846 418.455 35.5822C418.553 35.6757 418.685 35.7324 418.816 35.7324C418.952 35.7324 419.082 35.6761 419.181 35.5822C419.276 35.4846 419.329 35.3543 419.329 35.2203C419.329 35.0862 419.276 34.956 419.181 34.8629C418.992 34.6756 418.644 34.6756 418.455 34.8629Z" fill="#213782"/>
<path d="M371.113 43.9381C371.113 44.0294 371.113 44.1206 371.105 44.2118C371.105 44.2367 371.105 44.2699 371.097 44.2948C371.088 44.3694 371.088 44.4441 371.08 44.5187C371.072 44.5685 371.072 44.6099 371.063 44.6597C371.055 44.7095 371.055 44.7509 371.047 44.8007C371.038 44.8505 371.03 44.9002 371.022 44.9583C371.022 44.9749 371.014 44.9998 371.014 45.0163C370.98 45.2071 370.939 45.3979 370.889 45.5803C372.009 46.4429 373.377 46.9322 374.787 46.9986V33.2307C373.46 33.2887 372.191 33.72 371.113 34.4831V43.9381Z" fill="#213782"/>
<path d="M375.501 22.6887C375.501 26.3878 378.437 29.415 382.094 29.5643V15.8047C378.428 15.9623 375.501 18.9896 375.501 22.6887Z" fill="#213782"/>
<path d="M375.385 33.2307V46.9903C379.05 46.8327 381.978 43.8054 381.978 40.1146C381.987 36.4156 379.05 33.3883 375.385 33.2307Z" fill="#213782"/>
<path d="M382.691 15.8047V29.5643C386.357 29.4067 389.285 26.3795 389.285 22.6887C389.285 18.9896 386.357 15.9623 382.691 15.8047Z" fill="#213782"/>
<path d="M359.394 43.9386C359.394 46.9658 361.824 49.4291 364.835 49.4955H365.084C367.514 49.4457 369.562 47.8201 370.267 45.6139C370.267 45.6056 370.267 45.6056 370.267 45.5973C370.309 45.4646 370.342 45.3236 370.375 45.1909C370.417 45.0085 370.45 44.8343 370.475 44.6518C370.475 44.6187 370.483 44.5855 370.483 44.5523C370.491 44.5108 370.491 44.4777 370.491 44.4362C370.5 44.3864 370.5 44.3367 370.5 44.2869C370.5 44.2537 370.499 44.2288 370.508 44.1957C370.508 44.1127 370.516 44.0298 370.516 43.9468V31.0332H359.394V43.9386Z" fill="#213782"/>
<path d="M364.96 11.9727C361.891 11.9727 359.394 14.4691 359.394 17.5296V30.4349H370.517V17.5296C370.517 14.4608 368.028 11.9727 364.96 11.9727ZM368.866 25.6244C368.866 25.7903 368.733 25.923 368.567 25.923C368.402 25.923 368.269 25.7903 368.269 25.6244V18.0853C368.269 16.8909 367.73 15.7796 366.784 15.0248C366.652 14.9253 366.635 14.7345 366.734 14.6018C366.834 14.4691 367.025 14.4525 367.157 14.5521C368.244 15.4312 368.866 16.7168 368.866 18.0936V25.6244Z" fill="#213782"/>
<path d="M536.394 15.0813H554.743V15.1428C554.741 15.4841 555.017 15.7618 555.36 15.7618C555.705 15.7625 555.982 15.4856 555.983 15.1443L555.987 9.74699C555.988 9.40639 555.712 9.12723 555.368 9.12723C555.025 9.12723 554.747 9.40411 554.747 9.74547V9.80768H536.395L536.394 15.0813ZM537.136 10.5473H554.006V13.8653L546.098 10.9873H537.581V13.8911L554.005 13.9017V14.3417H537.136V10.5473ZM555.487 18.8598C555.681 19.6161 556.294 19.604 556.405 19.604C556.515 19.604 557.073 19.497 557.227 18.6838C557.419 17.6681 556.298 15.8619 556.294 15.8695C556.292 15.8665 556.399 16.38 556.151 16.9459C555.871 17.5915 555.352 18.3296 555.487 18.8598ZM561.449 31.4204H558.53V32.1607H561.449V31.4204ZM547.307 27.1534L549.13 30.397V45.6703C549.13 47.7829 550.847 49.4943 552.965 49.4943L559.683 49.495C561.802 49.4943 563.518 47.7829 563.518 45.6703V27.1534H547.307ZM562.776 45.6703C562.773 47.3733 561.391 48.7516 559.683 48.7547H552.965C551.257 48.7516 549.875 47.3733 549.872 45.6703V30.2029L549.825 30.1194L548.574 27.8937H562.777L562.776 45.6703ZM553.712 47.6411H558.974C560.472 47.6411 561.685 46.4296 561.685 44.936V37.954H550.999V44.9352C551 46.4296 552.215 47.6411 553.712 47.6411ZM561.449 35.4272V34.6861H560.025V35.4272H561.449ZM505.839 2.3736C505.07 2.37284 504.446 2.99411 504.446 3.76104C504.445 4.52872 505.068 5.15075 505.837 5.15151C506.607 5.15227 507.23 4.531 507.231 3.76331C507.232 2.99639 506.609 2.3736 505.839 2.3736ZM529.038 9.43825C529.301 9.43825 529.553 9.47466 529.797 9.53686L529.797 8.79573L536.125 5.1591L540.057 7.42801L543.893 7.43029L543.903 7.41436L536.128 2.92736L527.859 7.67758L527.857 9.67492C528.22 9.52321 528.618 9.43825 529.035 9.43825H529.038ZM540.091 17.4443L536.112 19.7299L529.791 16.0819V15.4523C529.548 15.513 529.296 15.5478 529.038 15.5478C528.618 15.5478 528.218 15.4629 527.853 15.3089L527.85 17.1955L536.11 21.9609L543.893 17.4898L543.868 17.4466L540.091 17.4443ZM527.671 9.76292L510.107 2.03754L512.513 9.2835L526.246 13.7402C526.074 13.3593 525.976 12.9399 525.976 12.4961C525.975 11.3006 526.667 10.2666 527.671 9.76292ZM513.957 33.2182C514.742 33.219 515.383 32.5825 515.383 31.7981C515.383 31.0153 514.745 30.3773 513.96 30.3773C513.174 30.3758 512.534 31.0123 512.533 31.7959C512.532 32.5795 513.172 33.2167 513.957 33.2182ZM529.038 13.882H529.04C529.809 13.882 530.432 13.2592 530.431 12.4923C530.43 11.7261 529.807 11.1041 529.038 11.1041H529.037C528.267 11.1048 527.645 11.7269 527.646 12.4946C527.647 13.2615 528.27 13.882 529.038 13.882ZM489.651 39.0813L489.953 39.2838H491.418L490.105 38.4061C488.218 37.1385 487.714 34.5912 488.978 32.7039C489.306 32.2176 489.721 31.8262 490.185 31.5296C489.332 33.643 490.044 36.1334 492.017 37.4541L494.753 39.2838H496.217L492.471 36.7782C490.583 35.5106 490.08 32.9633 491.344 31.0767C491.358 31.0555 491.375 31.0358 491.39 31.0153C492.483 30.7399 493.682 30.9045 494.693 31.5789L501.776 36.3162L499.081 39.3308H515.243L518.32 35.8884C519.347 34.7399 519.849 33.3123 519.849 31.8877C519.849 30.2302 519.169 28.5848 517.834 27.3969C517.724 27.299 517.61 27.2103 517.495 27.1223L509.159 2.00417C508.472 0.727477 507.16 0.00075858 505.8 0C505.205 0 504.603 0.139578 504.037 0.435424C502.738 1.11208 501.997 2.43276 501.997 3.79972C501.997 4.39369 502.136 4.99525 502.433 5.55887L502.449 5.59073L509.716 27.4833C509.58 27.6108 509.446 27.7405 509.319 27.8816L504.121 33.6954L497.514 29.2766C495.362 27.8376 492.488 28.3132 490.905 30.3037C489.877 30.6292 488.947 31.2876 488.299 32.2503C486.781 34.5078 487.386 37.5656 489.651 39.0813ZM505.835 5.93057C504.636 5.92906 503.664 4.95732 503.665 3.76104C503.665 2.56324 504.641 1.59453 505.84 1.59529C507.04 1.59605 508.012 2.56779 508.011 3.76483C508.01 4.96111 507.036 5.93133 505.835 5.93057ZM513.96 29.461C515.254 29.4617 516.301 30.5101 516.301 31.7997C516.3 33.09 515.25 34.1346 513.956 34.1338C512.662 34.1323 511.614 33.0847 511.615 31.7944C511.616 30.5048 512.667 29.4602 513.96 29.461ZM497.061 29.9518L503.573 34.3075L502.325 35.7033L495.148 30.9038C494.276 30.3189 493.285 30.0534 492.309 30.0716C493.67 29.0635 495.569 28.9595 497.061 29.9518ZM487.517 49.4071H526.151V40.2191H487.517V49.4071Z" fill="#213782"/>
<path d="M628.582 49.2384H604.744V19.5186H613.618V37.2033C613.618 40.1288 615.785 42.51 618.449 42.51C621.113 42.51 623.282 40.1288 623.282 37.2033V13.8137H624.403C624.995 13.8137 625.475 13.3344 625.475 12.7426C625.475 12.1519 624.995 11.6715 624.403 11.6715H612.495C611.903 11.6715 611.423 12.1508 611.423 12.7426C611.423 13.3344 611.903 13.8137 612.495 13.8137H613.618V17.3753H604.744V1.07108C604.744 0.480364 604.264 0 603.672 0C603.08 0 602.601 0.479282 602.601 1.07108V24.6197H594.062V19.5186H595.185C595.777 19.5186 596.257 19.0393 596.257 18.4475C596.257 17.8557 595.777 17.3764 595.185 17.3764H583.276C582.685 17.3764 582.204 17.8557 582.204 18.4475C582.204 19.0382 582.684 19.5186 583.276 19.5186H584.398V42.9071C584.398 45.8325 586.566 48.2127 589.23 48.2127C591.894 48.2127 594.061 45.8325 594.061 42.9071V26.7608H602.599V49.2373H578.763C578.172 49.2373 577.691 49.7166 577.691 50.3084C577.691 50.9002 578.171 50.3434 578.763 50.3434H628.582C629.174 50.3434 629.653 50.9002 629.653 50.3084C629.653 49.7166 629.174 49.2384 628.582 49.2384Z" fill="#213782"/>
<path d="M589.064 14.3856C589.877 14.3856 590.537 13.7336 590.537 12.9294C590.537 12.1251 589.877 11.4731 589.064 11.4731C588.25 11.4731 587.59 12.1251 587.59 12.9294C587.59 13.7336 588.25 14.3856 589.064 14.3856Z" fill="#213782"/>
<path d="M585.471 9.90666C585.952 9.90666 586.341 9.52157 586.341 9.04655C586.341 8.57152 585.952 8.18644 585.471 8.18644C584.99 8.18644 584.601 8.57152 584.601 9.04655C584.601 9.52157 584.99 9.90666 585.471 9.90666Z" fill="#213782"/>
<path d="M589.922 6.77065C590.279 6.77065 590.568 6.48486 590.568 6.13233C590.568 5.7798 590.279 5.49401 589.922 5.49401C589.565 5.49401 589.276 5.7798 589.276 6.13233C589.276 6.48486 589.565 6.77065 589.922 6.77065Z" fill="#213782"/>
<path d="M618.581 9.04725C619.394 9.04725 620.054 8.39527 620.054 7.59101C620.054 6.78675 619.394 6.13477 618.581 6.13477C617.768 6.13477 617.109 6.78675 617.109 7.59101C617.109 8.39527 617.768 9.04725 618.581 9.04725Z" fill="#213782"/>
<path d="M614.988 4.56627C615.468 4.56627 615.858 4.18119 615.858 3.70616C615.858 3.23114 615.468 2.84605 614.988 2.84605C614.507 2.84605 614.117 3.23114 614.117 3.70616C614.117 4.18119 614.507 4.56627 614.988 4.56627Z" fill="#213782"/>
<path d="M619.44 1.43431C619.797 1.43431 620.087 1.14852 620.087 0.795986C620.087 0.443451 619.797 0.157665 619.44 0.157665C619.083 0.157665 618.794 0.443451 618.794 0.795986C618.794 1.14852 619.083 1.43431 619.44 1.43431Z" fill="#213782"/>
<path d="M801.06 48.2888L797.505 43.2273C798.461 41.9718 798.976 40.4506 798.96 38.8492C798.94 36.9393 798.173 35.1505 796.802 33.8148C795.452 32.4996 793.667 31.7753 791.78 31.7753C790.66 31.7753 789.554 32.0354 788.559 32.5303L787.505 31.5022C787.416 31.4165 787.298 31.3689 787.176 31.3689C787.041 31.3465 786.929 31.4193 786.841 31.5087L786.185 32.1752L780.558 26.6906C780.52 26.6524 780.478 26.6188 780.433 26.5881C779.791 26.149 778.754 26.0419 777.993 26.8444C777.778 27.0718 777.615 27.2499 777.478 27.4L775.225 25.1778C775.041 24.9979 774.744 24.9997 774.562 25.1806L772.917 26.8304C772.83 26.919 772.781 27.0374 772.781 27.1604C772.781 27.2834 772.832 27.4028 772.92 27.4904L773.693 28.2519L772.111 29.8384C771.57 29.5559 771.003 29.3192 770.421 29.1318V26.6589H771.509C771.768 26.6589 771.977 26.4501 771.977 26.1929V23.8709C771.977 23.6137 771.768 23.4049 771.509 23.4049H767.17V18.2093C767.172 18.0377 767.158 16.5035 766.067 15.4045C765.395 14.7278 764.493 14.3848 763.383 14.3848H761.484C761.481 14.3848 761.475 14.3857 761.467 14.3848H761.319C761.233 14.3848 761.15 14.3969 761.071 14.4174C760.601 14.4864 759.83 14.698 759.174 15.343C758.452 16.0505 758.086 17.0553 758.086 18.3295V28.9641H757.268C757.01 28.9641 756.8 29.1728 756.8 29.4301V36.0183C756.44 37.107 756.258 38.2386 756.258 39.3842C756.258 45.3255 761.117 50.1595 767.09 50.1595C773.062 50.1595 777.922 45.3246 777.922 39.3833C777.922 37.7139 777.529 36.0584 776.785 34.5735L778.432 32.9209L779.206 33.6824C779.388 33.8633 779.686 33.8614 779.868 33.6787L781.511 32.0289C781.598 31.9412 781.647 31.8219 781.647 31.6989C781.647 31.5749 781.596 31.4565 781.508 31.3689L778.813 28.7114C778.948 28.566 779.126 28.3759 779.364 28.1317L784.877 33.5044L784.221 34.1709C784.04 34.3545 784.044 34.65 784.228 34.8299L785.283 35.8589C784.109 38.3216 784.478 41.2513 786.162 43.3653L782.704 48.2869C782.408 48.7091 782.512 49.2899 782.936 49.5853C783.099 49.6991 783.286 49.754 783.471 49.754C783.766 49.754 784.058 49.6161 784.24 49.356L787.525 44.6805C788.751 45.58 790.226 46.0731 791.774 46.0731C793.39 46.0731 794.914 45.5427 796.167 44.5743L799.525 49.356C799.707 49.6152 799.999 49.754 800.294 49.754C800.48 49.754 800.666 49.6991 800.829 49.5853C801.252 49.2917 801.357 48.711 801.06 48.2888ZM759.96 18.3295C759.96 16.4298 761.112 16.2555 761.462 16.249H763.383C765.153 16.249 765.296 17.7385 765.297 18.199V23.4049H762.669C762.41 23.4049 762.2 23.6137 762.2 23.8709V26.1929C762.2 26.4501 762.41 26.6589 762.669 26.6589H763.756V29.1318C763.065 29.3537 762.4 29.6436 761.77 29.9968V29.431C761.77 29.1738 761.56 28.965 761.302 28.965H759.96V18.3295Z" fill="#213782"/>
<path d="M742.08 47.7069C741.779 48.1854 741.358 48.5804 740.858 48.8543C740.357 49.1282 739.794 49.272 739.221 49.2719H724.226C723.654 49.2709 723.092 49.1266 722.593 48.8526C722.093 48.5786 721.674 48.1841 721.373 47.7064C721.073 47.2287 720.902 46.6837 720.877 46.123C720.852 45.5624 720.973 45.0047 721.229 44.5028L727.332 32.5182V30.6361H729.721C729.944 30.6361 730.157 30.5493 730.315 30.3948C730.472 30.2404 730.561 30.0309 730.561 29.8124C730.561 29.594 730.472 29.3844 730.315 29.23C730.157 29.0755 729.944 28.9887 729.721 28.9887H727.324V26.9295H729.713C729.935 26.9295 730.149 26.8427 730.306 26.6883C730.464 26.5338 730.552 26.3243 730.552 26.1058C730.552 25.8874 730.464 25.6779 730.306 25.5234C730.149 25.3689 729.935 25.2822 729.713 25.2822H727.324V23.7377C727.324 23.5193 727.413 23.3098 727.57 23.1553C727.727 23.0008 727.941 22.9141 728.164 22.9141H735.3C735.523 22.9141 735.736 23.0008 735.894 23.1553C736.051 23.3098 736.14 23.5193 736.14 23.7377V32.5182L742.218 44.5028C742.478 45.0034 742.602 45.5614 742.577 46.1227C742.553 46.684 742.382 47.2296 742.08 47.7069Z" fill="#213782"/>
<path d="M829.647 45.1511C829.611 45.3551 829.437 45.5055 829.23 45.5109C829.226 45.5109 829.222 45.511 829.218 45.511C829.016 45.511 828.839 45.3714 828.794 45.1733L826.569 38.374L824.411 43.4477C824.361 43.6312 824.198 43.761 824.008 43.7683C823.819 43.7767 823.645 43.6587 823.581 43.4794L819.695 35.4399L817.168 42.0774C818.357 43.1965 819.652 44.3292 820.995 45.5036L821.021 45.5258C822.831 47.1087 824.701 48.7426 826.6 50.5801C828.502 48.7404 830.374 47.1048 832.187 45.5201L832.206 45.5035C834.308 43.6673 836.293 41.933 837.931 40.1977L832.072 34.2498L829.647 45.1511Z" fill="#213782"/>
<path d="M842.392 29.8651C841.937 26.0849 838.646 23.2344 834.737 23.2344C830.855 23.2344 828.578 24.7291 826.616 28.5656C826.541 28.7113 826.392 28.8029 826.228 28.8029C826.064 28.8029 825.915 28.7113 825.84 28.5656C823.954 24.879 822.442 23.2344 818.463 23.2344C814.559 23.2344 811.272 26.0849 810.817 29.865C810.78 30.1692 810.761 30.4676 810.761 30.7519C810.761 32.221 811.046 33.6046 811.632 34.9817C812.349 36.665 813.505 38.3207 815.27 40.1928C815.646 40.5913 816.04 40.9894 816.449 41.3888L819.214 31.0228C819.263 30.8386 819.426 30.7077 819.617 30.6999C819.808 30.6917 819.981 30.809 820.045 30.9885L823.935 41.8812L826.184 33.6341C826.237 33.4416 826.413 33.3098 826.613 33.3132C826.813 33.3171 826.984 33.4562 827.029 33.6508L829.161 42.8906L831.403 30.188C831.434 30.0127 831.568 29.8739 831.742 29.8375C831.917 29.801 832.096 29.874 832.194 30.0222L838.537 39.536C839.969 37.9278 840.944 36.465 841.576 34.9815C842.162 33.6045 842.448 32.2209 842.448 30.7518C842.448 30.4676 842.429 30.1692 842.392 29.8651Z" fill="#213782"/>
<path d="M884.297 9.90625H855.924C854.116 9.90625 852.671 11.2822 852.671 13.0022V47.7027C852.671 49.4227 854.116 50.7986 855.924 50.7986H884.252C886.059 50.7986 887.505 49.4227 887.505 47.7027V13.0022C887.505 11.2822 886.059 9.90625 884.297 9.90625ZM878.062 43.6177H862.159C861.255 43.6177 860.532 42.9298 860.532 42.0698C860.532 41.2098 861.255 40.5218 862.159 40.5218H878.062C878.966 40.5218 879.689 41.2098 879.689 42.0698C879.689 42.9298 878.966 43.6177 878.062 43.6177ZM878.062 36.6518H862.159C861.255 36.6518 860.532 35.9639 860.532 35.1039C860.532 34.2439 861.255 33.5559 862.159 33.5559H878.062C878.966 33.5559 879.689 34.2439 879.689 35.1039C879.689 35.9639 878.966 36.6518 878.062 36.6518ZM879.327 24.999H876.797L874.403 29.084C874.131 29.557 873.589 29.858 873.002 29.858C872.415 29.858 871.872 29.557 871.601 29.084L867.219 21.7311L865.773 24.225C865.502 24.698 864.96 24.999 864.372 24.999H860.894C859.99 24.999 859.267 24.311 859.267 23.451C859.267 22.5911 859.99 21.9031 860.894 21.9031H863.424L865.818 17.8181C866.089 17.3451 866.631 17.0441 867.219 17.0441C867.806 17.0441 868.348 17.3451 868.619 17.8181L872.957 25.214L874.403 22.7201C874.674 22.2471 875.216 21.9461 875.803 21.9461H879.282C880.186 21.9461 880.909 22.6341 880.909 23.494C880.954 24.311 880.231 24.999 879.327 24.999Z" fill="#213782"/>
<path d="M906.687 27.8311H901.401V29.6675L898.34 35.5106V48.0314L899.453 49.2H908.524L909.748 48.0314V35.5106L906.687 29.6675V27.8311Z" fill="#213782"/>
<path d="M907.261 29.4281V28.2656H907.363C907.807 28.2656 908.149 27.9237 908.149 27.4793V26.0091C908.149 25.5646 907.807 25.2227 907.363 25.2227H905.826V20.778C905.826 19.8207 905.108 19.0001 904.151 18.9317C903.092 18.8633 902.238 19.6839 902.238 20.7096V25.2227H900.701C900.256 25.2227 899.915 25.5646 899.915 26.0091V27.4793C899.915 27.9237 900.256 28.2656 900.701 28.2656H900.803V29.4281L897.728 35.2746V47.7541C897.728 48.8481 898.616 49.7029 899.675 49.7029H908.354C909.447 49.7029 910.302 48.8139 910.302 47.7541V35.2404L907.261 29.4281ZM909.174 47.7541C909.174 48.1985 908.832 48.5404 908.388 48.5404H899.71C899.265 48.5404 898.924 48.1985 898.924 47.7541V35.5481L901.999 29.7016V28.2656H906.099V29.7016L909.174 35.5481V47.7541Z" fill="#213782"/>
<path d="M904.766 38.0774H903.331V39.8895H901.589V41.2913H903.331V43.1034H904.766V41.2913H906.509V39.8895H904.766V38.0774Z" fill="#213782"/>
<path d="M926.432 6.22125C927.212 6.55321 928.092 6.56319 928.879 6.24901C929.267 6.09731 929.622 5.86994 929.922 5.58007C930.222 5.2902 930.462 4.94359 930.627 4.5603C930.794 4.17989 930.882 3.76987 930.886 3.35465C930.891 2.93943 930.813 2.52747 930.655 2.14329C930.499 1.75621 930.267 1.40412 929.973 1.10737C929.68 0.810626 929.33 0.575115 928.945 0.414465C928.165 0.0826734 927.286 0.0726965 926.499 0.386704C926.111 0.538513 925.756 0.766002 925.456 1.056C925.155 1.346 924.916 1.69276 924.75 2.0762C924.584 2.45669 924.495 2.86685 924.491 3.28223C924.486 3.69761 924.564 4.10971 924.722 4.49398C924.879 4.88095 925.111 5.2329 925.404 5.52941C925.698 5.82592 926.047 6.06108 926.432 6.22125Z" fill="#213782"/>
<path d="M930.085 9.19055C930.093 8.82936 930.161 8.57219 930.289 8.28803C930.55 7.71064 931.028 7.2595 931.619 7.03193C932.21 6.80437 932.867 6.81863 933.448 7.07164C933.735 7.19488 933.995 7.37404 934.213 7.59872C934.431 7.82341 934.603 8.08916 934.717 8.38058C934.832 8.66987 934.888 8.97943 934.882 9.29081C934.875 9.60219 934.806 9.90903 934.678 10.1931C934.551 10.4793 934.369 10.7374 934.142 10.9527C933.915 11.1679 933.647 11.3359 933.355 11.4469C932.762 11.6772 932.103 11.6636 931.52 11.4091C931.232 11.286 930.972 11.107 930.754 10.8824C930.536 10.6579 930.383 10.4388 930.25 10.1009C930.118 9.76476 930.078 9.55175 930.085 9.19055Z" fill="#213782"/>
<path d="M936 23.7694V18.6724C936.356 18.6002 936.677 18.4088 936.909 18.1296C937.142 17.8504 937.272 17.5001 937.279 17.1366V14.7652C937.269 14.3369 937.09 13.9301 936.781 13.634C936.472 13.3378 936.058 13.1766 935.631 13.1856H929.338C928.91 13.1766 928.496 13.3378 928.187 13.634C927.878 13.9301 927.699 14.3369 927.689 14.7652V17.1366C927.696 17.5001 927.827 17.8504 928.059 18.1296C928.292 18.4088 928.612 18.6002 928.968 18.6724V23.7694C925.894 24.6212 923.232 26.5603 921.476 29.2274C919.72 31.8944 918.989 35.1086 919.418 38.2743C919.847 41.44 921.408 44.3425 923.81 46.4441C926.213 48.5456 929.294 49.7037 932.484 49.7037C935.674 49.7037 938.756 48.5456 941.158 46.4441C943.561 44.3425 945.121 41.44 945.55 38.2743C945.98 35.1086 945.248 31.8944 943.492 29.2274C941.736 26.5603 939.074 24.6212 936 23.7694ZM929.286 14.7811C929.301 14.7692 929.319 14.7635 929.338 14.7652H935.631C935.658 14.7652 935.674 14.7731 935.678 14.7811V17.1207C935.665 17.1317 935.648 17.1374 935.631 17.1366H929.338C929.319 17.1363 929.301 17.1308 929.286 17.1207V14.7811ZM928.19 31.1701C927.235 31.9034 926.493 32.8786 926.04 33.9951C925.981 34.1462 925.878 34.276 925.744 34.3676C925.61 34.4591 925.452 34.5082 925.289 34.5083C925.195 34.5066 925.1 34.4891 925.011 34.4566C924.913 34.421 924.824 34.3662 924.747 34.2956C924.67 34.225 924.609 34.1399 924.565 34.0452C924.521 33.9505 924.497 33.8481 924.493 33.7438C924.489 33.6396 924.506 33.5357 924.542 33.438C925.099 32.0601 926.011 30.8546 927.184 29.9446C927.35 29.8126 927.56 29.7507 927.77 29.7723C927.98 29.7939 928.174 29.8972 928.309 30.06C928.375 30.1401 928.425 30.2327 928.455 30.3324C928.485 30.4321 928.494 30.5367 928.483 30.6402C928.472 30.7437 928.44 30.8439 928.39 30.9349C928.34 31.0259 928.271 31.1059 928.19 31.1701ZM934.622 41.6703C934.457 42.0543 934.217 42.4015 933.917 42.6919C933.617 42.9822 933.262 43.2098 932.873 43.3613C932.085 43.6744 931.206 43.663 930.426 43.3295C930.042 43.1692 929.692 42.9341 929.399 42.6376C929.106 42.3412 928.874 41.9894 928.718 41.6027C928.56 41.2189 928.481 40.8072 928.486 40.3923C928.491 39.9773 928.579 39.5675 928.746 39.1875C928.912 38.8043 929.151 38.4576 929.451 38.1674C929.751 37.8773 930.106 37.6492 930.494 37.4965C931.281 37.1831 932.161 37.1931 932.941 37.5243C933.326 37.684 933.675 37.919 933.969 38.2155C934.262 38.512 934.494 38.8641 934.649 39.2512C934.807 39.6356 934.886 40.0479 934.881 40.4636C934.876 40.8792 934.788 41.2896 934.622 41.6703ZM939.075 36.2471C938.948 36.5343 938.765 36.7933 938.538 37.0091C938.31 37.225 938.041 37.3933 937.748 37.5044C937.47 37.6113 937.176 37.6666 936.878 37.6676C936.547 37.6674 936.22 37.5983 935.917 37.4646C935.484 37.2802 935.116 36.9702 934.861 36.5747C934.606 36.1792 934.475 35.7162 934.485 35.2453C934.494 34.7745 934.645 34.3174 934.916 33.9329C935.188 33.5483 935.568 33.2541 936.008 33.0879C936.601 32.8599 937.26 32.8742 937.844 33.1277C938.13 33.2504 938.39 33.4289 938.608 33.6529C938.825 33.8769 938.996 34.142 939.111 34.4327C939.227 34.722 939.284 35.0318 939.278 35.3436C939.272 35.6553 939.203 35.9627 939.075 36.2471Z" fill="#213782"/>
<path d="M998.825 26.1401C999.333 26.1401 999.81 26.3376 1000.17 26.6962L1002.34 28.8713L999.658 31.5569L997.483 29.3818C996.742 28.6414 996.742 27.4367 997.483 26.6963C997.841 26.3376 998.318 26.1401 998.825 26.1401Z" fill="#213782"/>
<path d="M1005.16 31.6892C1005.9 32.4297 1005.9 33.6343 1005.16 34.3748C1004.8 34.7334 1004.33 34.931 1003.82 34.931C1003.31 34.931 1002.84 34.7334 1002.48 34.3748L1000.3 32.1997L1002.99 29.5141L1005.16 31.6892Z" fill="#213782"/>
<path d="M1012.61 23.4688C1012.54 23.3572 1012.47 23.2468 1012.4 23.1375C1012.39 23.111 1012.37 23.0848 1012.35 23.0583C1012.29 22.9719 1012.24 22.8862 1012.18 22.8012C1012.16 22.7717 1012.14 22.742 1012.12 22.7126C1012.04 22.6062 1011.97 22.5007 1011.89 22.3967C1011.88 22.3874 1011.87 22.3782 1011.87 22.3688C1011.79 22.2736 1011.72 22.1795 1011.65 22.0864C1011.62 22.057 1011.6 22.0278 1011.58 21.9987C1011.51 21.9161 1011.44 21.8344 1011.37 21.7534C1011.35 21.7335 1011.34 21.7133 1011.32 21.6934C1011.24 21.5958 1011.15 21.4994 1011.06 21.4043C1011.04 21.3802 1011.02 21.3564 1011 21.3324C1010.93 21.2575 1010.86 21.1834 1010.79 21.1101C1010.76 21.0845 1010.74 21.0587 1010.71 21.0331C1010.62 20.9408 1010.53 20.8494 1010.43 20.7597C1010.43 20.758 1010.43 20.7562 1010.43 20.7545H1024.54V23.4858H1012.62C1012.62 23.4801 1012.61 23.4745 1012.61 23.4688Z" fill="#213782"/>
<path d="M1030 50.799H1025.45V9.83008H1030V50.799Z" fill="#213782"/>
<path d="M1012.22 37.7709C1012.23 37.7536 1012.24 37.7364 1012.25 37.7191C1012.32 37.624 1012.38 37.5281 1012.44 37.4316C1012.46 37.4062 1012.47 37.3807 1012.49 37.3553C1012.54 37.2776 1012.59 37.1997 1012.63 37.1212C1012.65 37.0958 1012.66 37.0705 1012.68 37.0451C1012.74 36.9467 1012.8 36.8476 1012.85 36.7477C1012.86 36.7277 1012.87 36.7076 1012.88 36.6876C1012.93 36.6042 1012.98 36.5203 1013.02 36.4359C1013.03 36.4069 1013.05 36.3777 1013.07 36.3486C1013.12 36.2471 1013.17 36.1451 1013.22 36.0422C1013.22 36.0381 1013.22 36.034 1013.22 36.0298C1013.27 35.9284 1013.32 35.826 1013.37 35.7232C1013.38 35.6928 1013.39 35.6622 1013.41 35.6317C1013.45 35.5448 1013.48 35.4573 1013.52 35.3694C1013.53 35.3533 1013.53 35.3376 1013.54 35.3216H1024.54V38.0528H1012.02C1012.03 38.0387 1012.04 38.0241 1012.05 38.0099C1012.1 37.9308 1012.16 37.8512 1012.22 37.7709Z" fill="#213782"/>
<path d="M1001.32 18.0234C1004.11 18.0234 1006.74 18.934 1008.93 20.6568C1009.06 20.7598 1009.18 20.8657 1009.31 20.9734C1009.42 21.0704 1009.53 21.169 1009.64 21.2697C1009.77 21.3811 1009.88 21.4944 1010 21.6101C1010.01 21.6165 1010.01 21.6226 1010.02 21.6291C1010.11 21.7168 1010.19 21.8063 1010.28 21.8966C1010.37 21.9915 1010.46 22.0881 1010.54 22.1858C1010.6 22.2472 1010.65 22.3091 1010.7 22.3714C1010.77 22.4496 1010.83 22.5286 1010.9 22.6084C1011.17 22.9473 1011.43 23.3004 1011.66 23.6683C1011.77 23.8325 1011.87 23.9995 1011.97 24.1692C1013.04 26.0287 1013.61 28.1536 1013.61 30.314C1013.61 31.8253 1013.34 33.3021 1012.81 34.7035C1012.32 35.9814 1011.62 37.1629 1010.74 38.2149C1008.39 41.0047 1004.96 42.6047 1001.32 42.6047C994.545 42.6047 989.032 37.0911 989.032 30.314C989.032 23.537 994.545 18.0234 1001.32 18.0234ZM996.839 30.0245L1001.83 35.0184C1002.36 35.549 1003.07 35.8413 1003.82 35.8413C1004.57 35.8413 1005.28 35.549 1005.81 35.0184C1006.9 33.9231 1006.9 32.1408 1005.81 31.0454L1000.81 26.0514C1000.28 25.5209 999.576 25.2286 998.825 25.2286C998.075 25.2286 997.37 25.5209 996.839 26.0514C995.744 27.1469 995.744 28.9291 996.839 30.0245ZM992.218 29.8588C992.47 29.8588 992.673 29.655 992.673 29.4036C992.673 28.1813 993.485 26.4417 994.693 25.0752C995.518 24.1417 997.239 22.5755 999.502 22.5755C999.753 22.5755 999.957 22.3716 999.957 22.1203C999.957 21.8689 999.753 21.665 999.502 21.665C995.304 21.665 991.763 26.4183 991.763 29.4036C991.763 29.655 991.967 29.8588 992.218 29.8588Z" fill="#213782"/>
<path d="M647.278 16.2776C647.278 14.7831 646.062 13.5672 644.568 13.5672C643.997 13.5672 643.453 13.7425 642.997 14.068L646.777 17.8484C647.103 17.3928 647.278 16.8487 647.278 16.2776Z" fill="#213782"/>
<path d="M647.278 28.9241C647.278 27.4296 646.062 26.2136 644.568 26.2136C643.997 26.2136 643.453 26.389 642.997 26.7144L646.777 30.495C647.103 30.0394 647.278 29.4952 647.278 28.9241Z" fill="#213782"/>
<path d="M644.568 18.989C645.139 18.989 645.683 18.8137 646.139 18.4882L642.358 14.7078C642.033 15.1633 641.857 15.7074 641.857 16.2786C641.857 17.7731 643.073 18.989 644.568 18.989Z" fill="#213782"/>
<path d="M644.568 44.2855C645.139 44.2855 645.683 44.1101 646.138 43.7847L642.358 40.0041C642.033 40.4598 641.857 41.0038 641.857 41.575C641.857 43.0696 643.073 44.2855 644.568 44.2855Z" fill="#213782"/>
<path d="M646.777 43.1473C647.103 42.6917 647.278 42.1476 647.278 41.5764C647.278 40.0819 646.062 38.866 644.568 38.866C643.997 38.866 643.453 39.0414 642.997 39.3668L646.777 43.1473Z" fill="#213782"/>
<path d="M658.12 44.2855C658.691 44.2855 659.235 44.1101 659.691 43.7847L655.91 40.0041C655.585 40.4598 655.409 41.0038 655.409 41.575C655.409 43.0696 656.625 44.2855 658.12 44.2855Z" fill="#213782"/>
<path d="M660.83 28.9241C660.83 27.4296 659.615 26.2136 658.12 26.2136C657.549 26.2136 657.005 26.389 656.549 26.7144L660.33 30.495C660.655 30.0393 660.83 29.4951 660.83 28.9241Z" fill="#213782"/>
<path d="M660.83 16.2776C660.83 14.7831 659.615 13.5672 658.12 13.5672C657.549 13.5672 657.005 13.7425 656.549 14.068L660.33 17.8484C660.655 17.3928 660.83 16.8487 660.83 16.2776Z" fill="#213782"/>
<path d="M658.12 18.989C658.691 18.989 659.235 18.8137 659.691 18.4882L655.91 14.7078C655.585 15.1634 655.409 15.7074 655.409 16.2786C655.409 17.7731 656.625 18.989 658.12 18.989Z" fill="#213782"/>
<path d="M660.33 43.1473C660.655 42.6916 660.83 42.1475 660.83 41.5764C660.83 40.0819 659.615 38.866 658.12 38.866C657.549 38.866 657.005 39.0414 656.549 39.3668L660.33 43.1473Z" fill="#213782"/>
<path d="M658.12 31.6355C658.691 31.6355 659.235 31.4601 659.691 31.1347L655.91 27.3543C655.585 27.8099 655.409 28.3539 655.409 28.9251C655.409 30.4196 656.625 31.6355 658.12 31.6355Z" fill="#213782"/>
<path d="M644.568 31.6355C645.139 31.6355 645.683 31.4601 646.139 31.1347L642.358 27.3543C642.033 27.8098 641.857 28.3539 641.857 28.9251C641.857 30.4196 643.073 31.6355 644.568 31.6355Z" fill="#213782"/>
<path d="M669.597 19.5779C669.226 20.7841 669.906 22.067 671.113 22.4374C671.545 22.57 672.007 22.5715 672.436 22.4437L670.334 18.4785C669.987 18.7614 669.731 19.1403 669.597 19.5779Z" fill="#213782"/>
<path d="M672.457 18.0638C672.025 17.9311 671.562 17.9298 671.133 18.0576L673.235 22.0228C673.582 21.7399 673.838 21.361 673.972 20.9234C674.343 19.7171 673.663 18.4343 672.457 18.0638Z" fill="#213782"/>
<path d="M666.379 30.0528C666.008 31.2591 666.688 32.5419 667.894 32.9124C668.114 32.9798 668.34 33.0139 668.567 33.0139C668.787 33.0139 669.007 32.9815 669.218 32.9185L667.116 28.9533C666.769 29.2363 666.513 29.6151 666.379 30.0528Z" fill="#213782"/>
<path d="M669.238 28.5387C668.806 28.406 668.344 28.4046 667.915 28.5325L670.017 32.4977C670.364 32.2148 670.62 31.836 670.754 31.3983C671.124 30.192 670.445 28.9093 669.238 28.5387Z" fill="#213782"/>
<path d="M667.536 41.876C667.715 41.2916 667.656 40.6724 667.37 40.1322C667.084 39.5921 666.604 39.1958 666.02 39.0163C665.801 38.9492 665.575 38.9159 665.348 38.9159V43.4917C665.719 43.4913 666.091 43.4006 666.42 43.2261C666.96 42.9398 667.356 42.4603 667.536 41.876Z" fill="#213782"/>
<path d="M638.243 49.7036H664.444V9.04688H638.243V49.7036ZM655.564 13.7196C655.564 13.7197 655.564 13.7195 655.564 13.7196C656.247 13.037 657.155 12.6608 658.12 12.6608C660.113 12.6608 661.734 14.282 661.734 16.2747C661.734 17.24 661.358 18.1476 660.676 18.8301C660.676 18.8299 660.675 18.8303 660.676 18.8301C659.993 19.5124 659.085 19.8887 658.12 19.8887C656.127 19.8887 654.506 18.2674 654.506 16.2747C654.506 15.3095 654.882 14.4022 655.564 13.7196ZM655.565 26.3681C656.247 25.6854 657.155 25.3095 658.12 25.3095C660.113 25.3095 661.734 26.9308 661.734 28.9235C661.734 29.8888 661.358 30.7963 660.676 31.4789C659.993 32.1615 659.085 32.5374 658.12 32.5374C656.127 32.5374 654.506 30.9162 654.506 28.9235C654.506 27.9582 654.882 27.0506 655.565 26.3681ZM655.564 39.0174C655.564 39.0175 655.564 39.0172 655.564 39.0174C656.247 38.3348 657.155 37.9583 658.12 37.9583C660.113 37.9583 661.734 39.5795 661.734 41.5722C661.734 42.5375 661.358 43.445 660.676 44.1276C659.993 44.8102 659.085 45.1861 658.12 45.1861C656.127 45.1861 654.506 43.5649 654.506 41.5722C654.506 40.6071 654.882 39.6998 655.564 39.0174ZM650.892 12.2091C650.892 11.9596 651.094 11.7573 651.344 11.7573C651.593 11.7573 651.796 11.9596 651.796 12.2091V46.5414C651.796 46.7909 651.593 46.9931 651.344 46.9931C651.094 46.9931 650.892 46.7909 650.892 46.5414V12.2091ZM642.012 13.7193C642.695 13.0367 643.602 12.6608 644.568 12.6608C646.561 12.6608 648.182 14.282 648.182 16.2747C648.182 17.2401 647.806 18.1476 647.123 18.8301C646.441 19.5127 645.533 19.8887 644.568 19.8887C642.575 19.8887 640.954 18.2674 640.954 16.2747C640.954 15.3094 641.33 14.4019 642.012 13.7193ZM642.012 26.3681C642.012 26.3682 642.012 26.368 642.012 26.3681C642.695 25.6856 643.603 25.3095 644.568 25.3095C646.561 25.3095 648.182 26.9308 648.182 28.9235C648.182 29.8886 647.806 30.7959 647.124 31.4783C647.124 31.4782 647.124 31.4785 647.124 31.4783C646.441 32.1609 645.533 32.5374 644.568 32.5374C642.575 32.5374 640.954 30.9162 640.954 28.9235C640.954 27.9581 641.33 27.0506 642.012 26.3681ZM642.012 39.0174C642.012 39.0175 642.012 39.0172 642.012 39.0174C642.695 38.3348 643.603 37.9583 644.568 37.9583C646.561 37.9583 648.182 39.5795 648.182 41.5722C648.182 42.5373 647.806 43.4447 647.124 44.1271C647.124 44.1269 647.124 44.1273 647.124 44.1271C646.441 44.8097 645.533 45.1861 644.568 45.1861C642.575 45.1861 640.954 43.5649 640.954 41.5722C640.954 40.6071 641.33 39.6998 642.012 39.0174Z" fill="#213782"/>
<path d="M665.348 11.784V38.0138C665.348 38.0138 665.349 38.0138 665.349 38.0138C665.666 38.0138 665.981 38.0612 666.285 38.1548C667.1 38.4051 667.769 38.9578 668.169 39.7112C668.568 40.4645 668.65 41.3283 668.4 42.1433C668.149 42.9583 667.597 43.6271 666.843 44.0264C666.384 44.2696 665.868 44.3981 665.351 44.3981C665.35 44.3981 665.349 44.3981 665.348 44.3981V48.514L668.478 49.4756L678.787 15.9119L665.348 11.784ZM671.618 31.6653C671.367 32.4803 670.815 33.149 670.061 33.5484C669.602 33.792 669.085 33.9208 668.567 33.9208C668.25 33.9208 667.935 33.8733 667.629 33.7794C665.947 33.2626 664.998 31.4734 665.515 29.7909C665.765 28.9759 666.318 28.3071 667.072 27.9078C667.813 27.515 668.699 27.4297 669.504 27.6767C670.319 27.9271 670.987 28.4799 671.387 29.2332C671.786 29.9865 671.868 30.8503 671.618 31.6653ZM673.28 23.0705C673.279 23.0707 673.279 23.0708 673.278 23.0711C672.819 23.3143 672.303 23.4429 671.786 23.4429C671.469 23.4429 671.153 23.3953 670.847 23.3015C669.165 22.7848 668.217 20.9955 668.733 19.313C668.984 18.498 669.536 17.8292 670.29 17.4299C671.031 17.037 671.918 16.9518 672.722 17.1989C673.537 17.4492 674.206 18.002 674.605 18.7553C675.004 19.5086 675.086 20.3724 674.836 21.1874C674.586 22.0024 674.033 22.6712 673.28 23.0705Z" fill="#213782"/>
<path d="M680.98 30.2354C680.227 31.0722 679.808 32.1321 679.808 33.2757C679.808 34.5029 680.283 35.6465 681.147 36.5112C682.012 37.3758 683.183 37.8779 684.411 37.8779C685.554 37.8779 686.614 37.4595 687.451 36.7064L680.98 30.2354Z" fill="#213782"/>
<path d="M684.411 28.6738C683.267 28.6738 682.207 29.0922 681.37 29.8453L687.841 36.3163C688.594 35.4796 689.013 34.4197 689.013 33.2761C689.013 32.0488 688.539 30.9052 687.674 30.0406C686.809 29.1759 685.638 28.6738 684.411 28.6738Z" fill="#213782"/>
<path d="M691.16 19.6293C690.285 21.4421 691.049 23.6299 692.865 24.5063C694.68 25.3829 696.87 24.6217 697.745 22.8089L700.801 16.4792L694.216 13.2996L691.16 19.6293ZM694.801 14.6894L699.349 16.8855C699.47 16.9439 699.521 17.0892 699.463 17.21L697.044 22.2194C696.33 23.6977 694.72 24.2951 693.299 23.6088C691.878 22.9228 691.344 21.2902 692.058 19.8119L694.476 14.8025C694.535 14.6816 694.68 14.631 694.801 14.6894Z" fill="#213782"/>
<path d="M702.363 4.83622C700.547 3.95941 698.358 4.72198 697.483 6.53562L694.427 12.8636L701.013 16.0432L704.068 9.71526C704.944 7.90157 704.179 5.71283 702.363 4.83622Z" fill="#213782"/>
<path d="M693.931 35.2443C692.419 36.5737 692.273 38.8866 693.604 40.4002C694.936 41.915 697.249 42.0658 698.761 40.7363L704.039 36.0945L699.209 30.6025L693.931 35.2443Z" fill="#213782"/>
<path d="M710.008 25.9736C708.677 24.46 706.363 24.3107 704.851 25.6407L699.574 30.2813L704.404 35.7733L709.681 31.1328C711.193 29.8027 711.34 27.4883 710.008 25.9736ZM704.747 34.2881C704.647 34.3768 704.493 34.367 704.404 34.2662L701.069 30.4733C700.98 30.3725 700.99 30.219 701.091 30.1303L705.269 26.4555C706.502 25.3714 708.217 25.4473 709.259 26.6321C710.302 27.8176 710.158 29.5292 708.926 30.6133L704.747 34.2881Z" fill="#213782"/>
<path d="M121.989 12.6204L117.774 7.5069C116.653 6.14694 114.665 5.9581 113.302 7.08201C111.938 8.20592 111.744 10.193 112.865 11.553L117.035 16.612L116.381 17.1515L117.546 18.5659L123.873 13.3509L122.707 11.9366L121.944 12.566L121.989 12.6204Z" fill="#213782"/>
<path d="M126.647 27.0514C127.185 27.7042 127.961 27.9785 128.756 28.054C129.154 28.0918 129.487 28.2738 129.711 28.5458L130.832 29.9058C131.191 30.341 131.887 30.4071 132.323 30.0474C132.759 29.6878 132.827 28.9923 132.468 28.5571L131.347 27.1971C131.123 26.9251 131.008 26.5632 131.047 26.1658C131.124 25.371 130.958 24.5029 130.465 23.9045L123.515 15.4727L119.697 18.6197L126.647 27.0514ZM121.839 18.773L123.257 17.6041L129.49 25.1655L128.072 26.3344L121.839 18.773Z" fill="#213782"/>
<path d="M104.499 22.0262V22.0234H99.1508V22.0262C98.9174 22.0277 98.6938 22.1196 98.5274 22.2823C98.3609 22.445 98.2648 22.6657 98.2594 22.8977V23.772C98.2648 24.004 98.3609 24.2248 98.5274 24.3875C98.6938 24.5502 98.9174 24.642 99.1508 24.6436V33.6983H100.697C100.814 33.6983 100.927 33.7447 101.01 33.8273C101.093 33.9099 101.14 34.022 101.14 34.1388C101.14 34.2557 101.093 34.3677 101.01 34.4504C100.927 34.533 100.814 34.5794 100.697 34.5794H99.1508V35.4605H101.361C101.479 35.4605 101.592 35.5069 101.675 35.5896C101.758 35.6722 101.805 35.7842 101.805 35.9011C101.805 36.0179 101.758 36.13 101.675 36.2126C101.592 36.2952 101.479 36.3416 101.361 36.3416H99.1508V37.2228H100.697C100.814 37.2228 100.927 37.2692 101.01 37.3518C101.093 37.4344 101.14 37.5465 101.14 37.6633C101.14 37.7802 101.093 37.8922 101.01 37.9748C100.927 38.0575 100.814 38.1039 100.697 38.1039H99.1508V38.985H101.361C101.479 38.985 101.592 39.0314 101.675 39.114C101.758 39.1967 101.805 39.3087 101.805 39.4256C101.805 39.5424 101.758 39.6545 101.675 39.7371C101.592 39.8197 101.479 39.8661 101.361 39.8661H99.1508V40.7472H100.697C100.814 40.7472 100.927 40.7937 101.01 40.8763C101.093 40.9589 101.14 41.071 101.14 41.1878C101.14 41.3047 101.093 41.4167 101.01 41.4993C100.927 41.582 100.814 41.6284 100.697 41.6284H99.1508V42.5095H101.361C101.479 42.5095 101.592 42.5559 101.675 42.6385C101.758 42.7211 101.805 42.8332 101.805 42.9501C101.805 43.0669 101.758 43.179 101.675 43.2616C101.592 43.3442 101.479 43.3906 101.361 43.3906H99.1508V44.2717H100.697C100.814 44.2717 100.927 44.3181 101.01 44.4008C101.093 44.4834 101.14 44.5954 101.14 44.7123C101.14 44.8291 101.093 44.9412 101.01 45.0238C100.927 45.1064 100.814 45.1529 100.697 45.1529H99.1508V47.3778C99.1604 48.0767 99.4463 48.7438 99.9468 49.2346C100.447 49.7255 101.122 50.0007 101.825 50.0007C102.528 50.0007 103.203 49.7255 103.703 49.2346C104.204 48.7438 104.49 48.0767 104.499 47.3778V24.6436C104.733 24.642 104.956 24.5502 105.123 24.3875C105.289 24.2248 105.385 24.004 105.391 23.772V22.8977C105.385 22.6657 105.289 22.445 105.123 22.2823C104.956 22.1196 104.733 22.0277 104.499 22.0262ZM104.499 23.7637C104.491 23.7697 104.481 23.7726 104.471 23.772H99.1796C99.1693 23.7726 99.1592 23.7697 99.1508 23.7637V22.906C99.1592 22.9001 99.1693 22.8971 99.1796 22.8977H104.471C104.481 22.8971 104.491 22.9001 104.499 22.906L104.499 23.7637Z" fill="#213782"/>
<path d="M0.00059462 49H1030V51H0.00059462V49Z" fill="#213782"/>
<path d="M974.42 16.6394L966.575 24.4805L969.424 27.3318C970.464 28.3788 971.861 28.9524 973.346 28.9524C974.832 28.9524 976.223 28.3788 977.269 27.3318C978.309 26.2904 978.888 24.8982 978.888 23.4113C978.888 21.9243 978.315 20.5321 977.269 19.4907L974.42 16.6394Z" fill="#213782"/>
<path d="M957.389 15.2089L965.143 7.45696L962.328 4.64007C961.294 3.61124 959.919 3.03906 958.451 3.03906C956.982 3.03906 955.602 3.61124 954.574 4.64007C953.54 5.6689 952.973 7.04433 952.973 8.5133C952.973 9.98227 953.54 11.3577 954.574 12.3865L957.389 15.2089Z" fill="#213782"/>
<path d="M977.172 12.747C978.24 11.679 978.834 10.2512 978.834 8.72635C978.834 7.20147 978.245 5.77367 977.172 4.70568C976.104 3.63769 974.67 3.04373 973.145 3.04373C971.62 3.04373 970.193 3.63198 969.119 4.70568L954.635 19.1778C953.567 20.2458 952.973 21.6736 952.973 23.1985C952.973 24.7233 953.562 26.1511 954.635 27.2248C955.703 28.2928 957.137 28.8811 958.662 28.8811C960.187 28.8811 961.614 28.2928 962.688 27.2191L965.749 24.1579C965.749 24.1522 965.755 24.1522 965.755 24.1465L977.172 12.747ZM965.07 22.6559C965.03 22.6959 964.978 22.7187 964.927 22.7187C964.875 22.7187 964.824 22.6959 964.784 22.6559L959.21 17.0875C959.17 17.0475 959.147 16.9961 959.147 16.9447C959.147 16.8876 959.17 16.8362 959.21 16.802L966.743 9.26891C966.823 9.18896 966.954 9.18896 967.034 9.26891L972.608 14.843C972.648 14.883 972.671 14.9344 972.671 14.9858C972.671 15.0372 972.648 15.0943 972.608 15.1286L965.07 22.6559Z" fill="#213782"/>
<path d="M959.989 16.9263L965.001 21.9356L971.872 15.0668L966.86 10.0521L959.989 16.9263ZM963.349 17.6853C963.202 17.8262 963.013 17.9075 962.812 17.9075C962.612 17.9075 962.417 17.8262 962.276 17.6853C962.129 17.5389 962.053 17.3491 962.053 17.1486C962.053 16.948 962.135 16.7528 962.276 16.6118C962.422 16.4655 962.612 16.3896 962.812 16.3896C963.013 16.3896 963.208 16.4709 963.349 16.6118C963.495 16.7582 963.571 16.948 963.571 17.1486C963.571 17.3546 963.489 17.5443 963.349 17.6853ZM965.321 19.6586C965.18 19.7996 964.991 19.8809 964.785 19.8809C964.584 19.8809 964.389 19.7996 964.248 19.6586C964.107 19.5177 964.026 19.3279 964.026 19.1219C964.026 18.9213 964.107 18.7262 964.248 18.5852C964.394 18.4442 964.584 18.3629 964.785 18.3629C964.985 18.3629 965.18 18.4388 965.321 18.5852C965.467 18.7316 965.543 18.9213 965.543 19.1273C965.543 19.3279 965.462 19.5177 965.321 19.6586ZM965.603 15.4354C965.457 15.5764 965.267 15.6577 965.066 15.6577C964.86 15.6577 964.671 15.5764 964.53 15.4354C964.389 15.2945 964.308 15.0993 964.308 14.8987C964.308 14.6981 964.389 14.503 964.53 14.362C964.671 14.221 964.866 14.1397 965.066 14.1397C965.267 14.1397 965.462 14.221 965.603 14.362C965.749 14.5084 965.825 14.6981 965.825 14.8987C965.825 15.0993 965.744 15.289 965.603 15.4354ZM967.575 17.4034C967.429 17.5497 967.239 17.6256 967.039 17.6256C966.838 17.6256 966.643 17.5443 966.502 17.4034C966.361 17.2624 966.28 17.0672 966.28 16.8666C966.28 16.6661 966.361 16.4709 966.502 16.3299C966.643 16.189 966.838 16.1077 967.039 16.1077C967.239 16.1077 967.434 16.189 967.575 16.3299C967.868 16.6281 967.868 17.1106 967.575 17.4034ZM968.751 14.0801C968.892 13.9391 969.087 13.8578 969.288 13.8578C969.488 13.8578 969.683 13.9391 969.824 14.0801C970.117 14.3783 970.117 14.8608 969.824 15.1535C969.678 15.2999 969.488 15.3758 969.288 15.3758C969.087 15.3758 968.892 15.2945 968.751 15.1535C968.61 15.0126 968.529 14.8174 968.529 14.6168C968.529 14.4108 968.61 14.221 968.751 14.0801ZM967.857 12.1067C968.003 12.2531 968.079 12.4429 968.079 12.6434C968.079 12.844 967.998 13.0392 967.857 13.1802C967.711 13.3211 967.521 13.4024 967.321 13.4024C967.12 13.4024 966.925 13.3211 966.784 13.1802C966.638 13.0338 966.562 12.844 966.562 12.6434C966.562 12.4429 966.643 12.2477 966.784 12.1067C966.93 11.9658 967.12 11.8845 967.321 11.8845C967.521 11.8845 967.711 11.9604 967.857 12.1067Z" fill="#213782"/>
</svg>
