<svg width="45" height="54" viewBox="0 0 45 54" fill="none" xmlns="http://www.w3.org/2000/svg">
<path d="M45 1.26V0.72C45 0.3 44.7 0 44.34 0H0.72C0.36 0 0 0.3 0 0.72V1.26C0 1.26 0.0600002 19.68 0.96 31.74C1.86 43.8 22.5 54 22.5 54C22.5 54 43.2 43.8 44.1 31.74C45 19.68 45 1.26 45 1.26ZM41.4 31.08C41.04 35.52 37.8 40.08 31.74 44.76C27.24 48.18 22.8 50.4 22.8 50.4L22.5 50.52L22.26 50.4C21.54 50.04 4.44 41.52 3.66 31.08C2.88 21.06 2.7 5.7 2.7 5.16V4.68C2.7 4.02 3.24 3.48 3.9 3.48H41.16C41.82 3.48 42.36 4.02 42.36 4.68V5.16C42.36 5.7 42.12 21.06 41.4 31.08Z" fill="#F3B36A"/>
<path d="M41.04 6.05949V5.57949C41.04 5.27949 40.8 4.97949 40.44 4.97949H4.62002C4.32002 4.97949 4.02002 5.21949 4.02002 5.57949V5.99949C4.02002 5.99949 4.20002 20.9995 4.98002 30.8395C5.70002 40.6795 22.5 48.9595 22.5 48.9595C22.5 48.9595 39.3 40.6795 40.08 30.8395C40.8 20.9995 41.04 6.05949 41.04 6.05949ZM33.42 25.3195C33.42 26.0395 32.82 26.6395 32.1 26.6395H25.68V33.0595C25.68 33.7795 25.08 34.3795 24.36 34.3795H20.7C19.98 34.3795 19.38 33.7795 19.38 33.0595V26.6395H12.96C12.24 26.6395 11.64 26.0395 11.64 25.3195V21.5995C11.64 20.8795 12.24 20.2795 12.96 20.2795H19.38V13.9195C19.38 13.1995 19.98 12.5995 20.7 12.5995H24.42C25.14 12.5995 25.74 13.1995 25.74 13.9195V20.3395H32.1C32.82 20.3395 33.42 20.9395 33.42 21.6595V25.3195Z" fill="#F3B36A"/>
</svg>
